<svg width="40" height="41" viewBox="0 0 40 41" fill="none" xmlns="http://www.w3.org/2000/svg">
<path d="M34.6949 18.8431C35.0286 18.8431 35.2993 18.5731 35.2993 18.2387V16.0175H36.3905C36.7243 16.0175 36.9949 15.7475 36.9949 15.4131V12.5869C36.9949 12.5806 36.9918 12.5756 36.9911 12.5694C36.9893 12.495 36.9761 12.4225 36.948 12.355C36.9436 12.345 36.9361 12.3375 36.9311 12.3281C36.9049 12.2731 36.8718 12.2219 36.8293 12.1769C36.8111 12.1575 36.7899 12.1437 36.7699 12.1269C36.7449 12.1062 36.7243 12.0819 36.6961 12.0656L20.3055 2.45812C20.1168 2.3475 19.883 2.3475 19.6943 2.45812L3.30363 12.0662C3.27551 12.0825 3.25488 12.1075 3.22988 12.1275C3.20988 12.1444 3.18801 12.1581 3.17051 12.1775C3.12801 12.2225 3.09488 12.2737 3.06863 12.3287C3.06426 12.3381 3.05613 12.3456 3.05176 12.3556C3.02363 12.4231 3.01051 12.4956 3.00863 12.57C3.00863 12.5762 3.00488 12.5812 3.00488 12.5875V15.4137C3.00488 15.7475 3.27551 16.0181 3.60926 16.0181H4.70051V18.2394C4.70051 18.5731 4.97113 18.8437 5.30488 18.8437H5.83113V31.2H5.30488C4.97113 31.2 4.70051 31.47 4.70051 31.8044V34.0256H3.60926C3.27551 34.0256 3.00488 34.2956 3.00488 34.63V38.0212C3.00488 38.355 3.27551 38.6256 3.60926 38.6256H36.3899C36.7236 38.6256 36.9943 38.3556 36.9943 38.0212V34.63C36.9943 34.2962 36.7236 34.0256 36.3899 34.0256H35.2986V31.8044C35.2986 31.4706 35.028 31.2 34.6943 31.2H34.168V18.8437H34.6943L34.6949 18.8431ZM34.0905 17.635H28.5161V16.0175H34.0905V17.635ZM27.9124 31.2C27.5786 31.2 27.308 31.47 27.308 31.8044V34.0256H12.6911V31.8044C12.6911 31.4706 12.4205 31.2 12.0868 31.2H11.5605V18.8437H12.0868C12.4205 18.8437 12.6911 18.5737 12.6911 18.2394V16.0181H27.308V18.2394C27.308 18.5731 27.5786 18.8437 27.9124 18.8437H28.4386V31.2H27.9124ZM19.9999 3.67937L34.1649 11.9831H30.3436L20.3149 5.855C20.1211 5.73687 19.8786 5.73687 19.6849 5.855L17.1018 7.43125C16.8174 7.605 16.7274 7.97687 16.9011 8.26125C17.0749 8.54687 17.4468 8.63625 17.7318 8.4625L19.9999 7.07812L28.0261 11.9831H11.9768L13.3743 11.1306C13.6586 10.9569 13.7486 10.585 13.5749 10.3006C13.4011 10.015 13.0293 9.92375 12.7443 10.0994L9.65613 11.9831H5.83426L19.9999 3.67937ZM4.21363 13.1919H35.7861V14.8094H4.21363V13.1919ZM11.483 16.0175V17.635H5.90863V16.0175H11.483ZM7.03926 18.8431H10.3524V31.1994H7.03926V18.8431ZM5.90926 32.4081H11.4836V34.0256H5.90926V32.4081ZM35.7861 37.4169H4.21363V35.2337H35.7861V37.4169ZM28.5168 34.025V32.4075H34.0911V34.025H28.5168ZM32.9605 31.2H29.6474V18.8437H32.9605V31.2Z" fill="white"/>
<path d="M14.9932 10.0319C15.0995 10.0319 15.2076 10.0038 15.3051 9.94438L15.7913 9.65063C16.077 9.47813 16.1688 9.10688 15.9963 8.82125C15.8232 8.53563 15.452 8.44438 15.167 8.61688L14.6807 8.91063C14.3951 9.08313 14.3032 9.45438 14.4757 9.74C14.5895 9.9275 14.7888 10.0313 14.9932 10.0313V10.0319Z" fill="white"/>
<path d="M20.3594 24.4125C19.7369 24.1181 19.5563 23.9925 19.5563 23.7281C19.5563 23.65 19.5563 23.4431 19.8632 23.3156C20.1669 23.19 20.5901 23.2369 20.7694 23.4156C21.0057 23.6519 21.3876 23.6519 21.6238 23.4156C21.8601 23.1794 21.8601 22.7975 21.6238 22.5613C21.3894 22.3269 21.0726 22.1719 20.7282 22.095V21.6906C20.7282 21.3569 20.4576 21.0863 20.1238 21.0863C19.7901 21.0863 19.5194 21.3562 19.5194 21.6906V22.1606C19.4801 22.1744 19.4394 22.1838 19.4007 22.2C18.7413 22.4731 18.3476 23.0444 18.3476 23.7288C18.3476 24.7975 19.2113 25.2069 19.8419 25.505C20.5282 25.83 20.7276 25.9781 20.7276 26.3313C20.7276 26.5638 20.3757 26.8 20.1232 26.8C19.7551 26.8 19.2113 26.5469 19.0938 26.4387C18.8569 26.2044 18.4763 26.205 18.2407 26.4406C18.0051 26.6775 18.0051 27.0594 18.2407 27.2956C18.4819 27.5363 18.9988 27.795 19.5188 27.9237V28.3538C19.5188 28.6875 19.7894 28.9581 20.1232 28.9581C20.4569 28.9581 20.7276 28.6881 20.7276 28.3538V27.8969C21.3751 27.6662 21.9363 27.0881 21.9363 26.3313C21.9363 25.16 20.9876 24.7106 20.3594 24.4131V24.4125Z" fill="white"/>
<path d="M20 17.7712C15.9956 17.7712 12.75 21.0169 12.75 25.0212C12.75 29.0256 15.9956 32.2712 20 32.2712C24.0044 32.2712 27.25 29.0256 27.25 25.0212C27.25 21.0169 24.0044 17.7712 20 17.7712ZM20 31.0631C16.6688 31.0631 13.9581 28.3525 13.9581 25.0212C13.9581 21.69 16.6681 18.9794 20 18.9794C23.3319 18.9794 26.0419 21.69 26.0419 25.0212C26.0419 28.3525 23.3319 31.0631 20 31.0631Z" fill="white"/>
</svg>
