<svg width="40" height="41" viewBox="0 0 40 41" fill="none" xmlns="http://www.w3.org/2000/svg">
<path d="M37.8964 30.1131L35.8645 26.5569V23.8919C35.8645 23.6869 35.8583 23.4888 35.8464 23.2906C35.8264 22.9575 35.5401 22.7094 35.207 22.7238C34.8739 22.7438 34.6201 23.03 34.6401 23.3625C34.6508 23.5369 34.6558 23.7119 34.6558 23.8919V26.1131H5.34389V23.8919C5.34389 20.87 6.24451 18.0163 7.94514 15.5713L10.1083 20.6194C10.382 21.2575 11.0083 21.67 11.7026 21.67H12.4039C12.9258 21.67 13.4145 21.4388 13.7451 21.035C14.0764 20.6313 14.207 20.1069 14.1045 19.595L12.4926 11.5363C12.4801 11.4731 12.4514 11.4181 12.4326 11.3581C13.4645 10.7306 14.5614 10.2381 15.7101 9.88751L16.9651 20.7644C17.0989 21.9256 18.0814 22.8013 19.2495 22.8013H20.7489C21.9176 22.8013 22.8995 21.9256 23.0339 20.7644L24.2889 9.88751C25.4376 10.2381 26.5351 10.7306 27.5664 11.3581C27.5476 11.4181 27.5189 11.4731 27.5064 11.5363L25.8945 19.595C25.792 20.1069 25.9233 20.6319 26.2539 21.035C26.5845 21.4388 27.0739 21.67 27.5951 21.67H28.2964C28.9908 21.67 29.617 21.2575 29.8908 20.6188L32.0564 15.565C32.6876 16.4725 33.2101 17.4425 33.6114 18.4613C33.7051 18.6988 33.9326 18.8444 34.1739 18.8444C34.2476 18.8444 34.322 18.8306 34.3951 18.8025C34.7058 18.6806 34.8583 18.3294 34.7364 18.0188C34.2114 16.685 33.4901 15.4338 32.607 14.2825L32.6614 14.155C32.962 13.4544 32.7751 12.6506 32.1964 12.155L30.3364 10.5594C29.8639 10.1544 29.2301 10.0344 28.6414 10.2375C28.5239 10.2781 28.4189 10.3375 28.3151 10.3994C27.0526 9.61563 25.6964 9.01938 24.2701 8.62313C24.1795 8.27251 24.0158 7.94251 23.7701 7.66688C23.3339 7.17751 22.7083 6.89751 22.0533 6.89751H17.9458C17.2908 6.89751 16.6651 7.17751 16.2289 7.66688C15.9833 7.94251 15.8195 8.27251 15.7289 8.62313C14.3033 9.01938 12.947 9.61563 11.6839 10.3994C11.5808 10.3375 11.4751 10.2781 11.3576 10.2375C10.7689 10.0338 10.1351 10.1538 9.66264 10.56L7.80264 12.1544C7.22389 12.6506 7.03701 13.455 7.33764 14.1544L7.39326 14.285C5.26701 17.06 4.13514 20.3706 4.13514 23.8925V26.5575L2.10264 30.1138C1.95326 30.3756 1.87451 30.6738 1.87451 30.9744V31.8044C1.87451 32.095 2.08201 32.345 2.36764 32.3988L3.07764 32.5306C8.64389 33.575 14.3376 34.1044 19.9995 34.1044C25.6614 34.1044 31.3551 33.575 36.9208 32.5313L37.6314 32.3988C37.917 32.345 38.1245 32.0956 38.1245 31.8044V30.9744C38.1245 30.6738 38.0458 30.3756 37.8958 30.1138L37.8964 30.1131ZM29.2139 11.3481C29.3126 11.3481 29.4339 11.3756 29.5501 11.4756L31.4101 13.0713C31.5858 13.2213 31.6426 13.465 31.5514 13.6775L28.7808 20.1419C28.6976 20.3363 28.5076 20.4613 28.297 20.4613H27.5958C27.3789 20.4613 27.2476 20.34 27.1889 20.2688C27.1301 20.1969 27.037 20.0438 27.0795 19.8313L28.6914 11.7725C28.7445 11.505 28.9495 11.4081 29.0358 11.3781C29.0733 11.365 29.1364 11.3481 29.2139 11.3481ZM17.1314 8.47001C17.3414 8.23438 17.6308 8.10501 17.9464 8.10501H22.0539C22.3695 8.10501 22.6589 8.23501 22.8689 8.47001C23.0789 8.70563 23.1745 9.00813 23.1383 9.32188L21.8345 20.625C21.7708 21.1763 21.3045 21.5913 20.7501 21.5913H19.2508C18.6964 21.5913 18.2301 21.1756 18.1664 20.625L16.862 9.32188C16.8258 9.00813 16.9214 8.70563 17.1314 8.47001ZM8.58951 13.0706L10.4495 11.4763C10.5658 11.3763 10.687 11.3481 10.7864 11.3481C10.8633 11.3481 10.9264 11.365 10.9639 11.3781C11.0495 11.4075 11.2545 11.505 11.3083 11.7725L12.9201 19.8313C12.9626 20.0438 12.8701 20.1963 12.8108 20.2688C12.752 20.34 12.6208 20.4613 12.4039 20.4613H11.7026C11.492 20.4613 11.302 20.3363 11.2189 20.1425L8.44826 13.6775C8.35701 13.465 8.41389 13.2206 8.58951 13.0706ZM36.917 31.3025L36.6995 31.3431C25.7139 33.4031 14.2883 33.4038 3.30076 31.3431L3.08389 31.3031V30.9744C3.08389 30.8831 3.10826 30.7925 3.15326 30.7131L5.09139 27.3219H34.9101L36.8476 30.7131C36.8933 30.7925 36.917 30.8831 36.917 30.9744V31.3025Z" fill="white"/>
<path d="M34.2945 20.6425C34.337 20.8175 34.3739 20.9981 34.4058 21.1737C34.4589 21.4656 34.7133 21.67 34.9995 21.67C35.0352 21.67 35.072 21.6669 35.1083 21.66C35.4364 21.6006 35.6539 21.2856 35.5945 20.9581C35.5583 20.7606 35.5164 20.5563 35.4689 20.3587C35.3902 20.0337 35.0608 19.8337 34.7395 19.9137C34.4152 19.9925 34.2158 20.3181 34.2945 20.6425Z" fill="white"/>
</svg>
