<svg width="40" height="41" viewBox="0 0 40 41" fill="none" xmlns="http://www.w3.org/2000/svg">
<path d="M37.8949 15.9694L34.1668 13.005V7.5425H34.693C35.0268 7.5425 35.2974 7.2725 35.2974 6.93812V4.6775C35.2974 4.34375 35.0274 4.07312 34.693 4.07312H27.9111C27.5774 4.07312 27.3068 4.34312 27.3068 4.6775V6.93812C27.3068 7.27187 27.5768 7.5425 27.9111 7.5425H28.4374V8.44937L21.4305 2.8775C20.588 2.20875 19.4105 2.20812 18.568 2.8775L2.1049 15.9694C1.97677 16.0706 1.89552 16.22 1.87927 16.3825C1.86365 16.5456 1.91365 16.7069 2.01927 16.8319L3.99177 19.1662C4.20115 19.4144 4.57052 19.4531 4.8274 19.2506L5.26802 18.9031V35.1556H4.74177C4.40802 35.1556 4.1374 35.4256 4.1374 35.76V38.0206C4.1374 38.3544 4.4074 38.625 4.74177 38.625H35.2593C35.593 38.625 35.8636 38.355 35.8636 38.0206V35.76C35.8636 35.4262 35.5936 35.1556 35.2593 35.1556H34.733V18.9031L35.1736 19.2506C35.2843 19.3381 35.4161 19.3806 35.5474 19.3806C35.7199 19.3806 35.8899 19.3075 36.0093 19.1662L37.9818 16.8319C38.0874 16.7069 38.1374 16.545 38.1218 16.3825C38.1061 16.22 38.0243 16.0712 37.8961 15.9694H37.8949ZM28.5161 5.28187H34.0893V6.33437H28.5161V5.28187ZM29.6461 7.5425H32.9586V12.0444L29.6461 9.41V7.5425ZM34.6543 37.4169H5.34552V36.3644H34.6549V37.4169H34.6543ZM33.5243 29.1975L27.8774 24.4562C27.9261 24.0869 27.9511 23.7087 27.9511 23.3275C27.9511 22.7481 27.8918 22.1669 27.7749 21.6C27.7068 21.2731 27.3868 21.0662 27.0611 21.1306C26.7343 21.1987 26.5243 21.5175 26.5918 21.8444C26.6924 22.3312 26.7436 22.83 26.7436 23.3275C26.7436 23.7594 26.7068 24.1856 26.6343 24.595C26.5968 24.8081 26.6749 25.0244 26.8405 25.1631L33.5249 30.7744V35.1562H28.3193L22.5311 30.3012C22.3668 30.1625 22.1399 30.1244 21.938 30.1956C21.128 30.4869 20.2861 30.635 19.4355 30.635C15.4061 30.635 12.1274 27.3569 12.1274 23.3269C12.1274 23.2975 12.1274 23.2681 12.1274 23.2381L16.2043 26.66C16.353 26.7862 16.5536 26.8319 16.7436 26.7819L21.4511 25.5662C21.7011 25.5019 21.8824 25.2862 21.9024 25.0287L22.2811 20.18C22.2968 19.9856 22.2168 19.7956 22.0668 19.67L17.9068 16.1794C20.0586 15.7194 22.3868 16.2856 24.0911 17.6937C24.3486 17.9069 24.7293 17.8694 24.9411 17.6131C25.1543 17.3556 25.1174 16.9756 24.8605 16.7631C22.5499 14.8519 19.2674 14.2975 16.4436 15.3506C16.2418 15.4262 16.0955 15.6025 16.0593 15.8144C16.023 16.0262 16.1018 16.2412 16.2661 16.3794L21.0518 20.3956L20.7305 24.5044L16.7424 25.5344L12.018 21.5694C11.853 21.4294 11.6249 21.39 11.423 21.4644C11.2199 21.5387 11.0718 21.7156 11.0349 21.9281C10.9561 22.3775 10.9186 22.8356 10.9186 23.3262C10.9186 28.0219 14.7393 31.8425 19.4349 31.8425C20.3093 31.8425 21.1755 31.7087 22.0136 31.4444L26.438 35.155H6.47552V17.9506L19.9999 7.2975L33.5243 17.9506V29.1962V29.1975ZM35.4624 17.9406L34.5649 17.2337C34.5461 17.2137 34.5218 17.2 34.5005 17.1831L20.3743 6.05562C20.2643 5.96875 20.1324 5.92562 20.0005 5.92562C19.8686 5.92562 19.7361 5.96875 19.6268 6.05562L5.4999 17.1825C5.47802 17.2 5.45427 17.2131 5.43552 17.2331L4.53802 17.94L3.34365 16.5269L19.3205 3.82312C19.7205 3.50437 20.2799 3.505 20.6799 3.82312L36.6568 16.5281L35.4624 17.9406Z" fill="#F05A30"/>
<path d="M25.7679 19.6881C25.8766 19.8931 26.0854 20.0094 26.3016 20.0094C26.3973 20.0094 26.4941 19.9869 26.5841 19.9388C26.8791 19.7825 26.991 19.4169 26.8341 19.1225C26.7341 18.9331 26.6154 18.745 26.4954 18.5694C26.3079 18.2931 25.9323 18.2206 25.6566 18.4088C25.3804 18.5963 25.3085 18.9719 25.496 19.2475C25.591 19.3881 25.6873 19.5381 25.7673 19.6888L25.7679 19.6881Z" fill="#F05A30"/>
</svg>
