<svg width="80" height="80" viewBox="0 0 80 80" fill="none" xmlns="http://www.w3.org/2000/svg">
<path fill-rule="evenodd" clip-rule="evenodd" d="M58.1671 0.622193C57.3196 0.968231 56.5281 1.40414 56.3273 1.63541C55.4992 2.58991 56.253 4.21613 57.5236 4.21613C58.14 4.21613 61.5259 2.80943 61.8859 2.40374C62.3445 1.88672 62.3572 0.965099 61.9136 0.401104C61.623 0.0315797 61.4881 -0.0100701 60.6218 0.00167324C59.8792 0.0118508 59.3094 0.155746 58.1671 0.622193ZM50.3382 3.60094C46.9707 4.79547 46.5803 5.05508 46.5803 6.09993C46.5803 6.98741 47.2353 7.66085 48.0985 7.66085C48.6398 7.66085 50.1846 7.15808 51.7831 6.46146C52.9086 5.97122 53.2077 4.76431 52.4129 3.92051C51.8365 3.30876 51.3661 3.23627 50.3382 3.60094ZM18.8539 5.14355L18.3963 5.60122V10.6016V15.6019L17.4435 16.19C15.2589 17.5383 13.0837 20.2083 12.2034 22.6219C11.8654 23.549 11.6704 23.8553 11.2553 24.1117C10.968 24.2893 10.4544 24.7512 10.1139 25.138C8.91356 26.5016 9.00156 24.2832 9.00156 53.1868V79.0846L9.45924 79.5423L9.91692 80H24.6594H39.4019L39.8595 79.5423L40.3172 79.0846V53.1868C40.3172 24.2832 40.4052 26.5016 39.2049 25.138C38.8643 24.7512 38.3507 24.2893 38.0634 24.1117C37.6483 23.8553 37.4534 23.549 37.1153 22.6219C36.2351 20.2083 34.0599 17.5383 31.8753 16.19L30.9225 15.6019V10.6016V5.60122L30.4648 5.14355L30.0072 4.68587H24.6594H19.3116L18.8539 5.14355ZM38.2817 8.10757C34.6733 9.47403 34.4388 9.58332 34.2143 10.0028C33.9368 10.5214 34.027 11.37 34.4064 11.8088C34.8526 12.3248 41.0268 14.6995 41.9342 14.7039C42.7814 14.7081 43.4488 14.0325 43.4488 13.1705C43.4488 12.2948 43.0991 11.9553 41.5698 11.347C40.2483 10.8214 40.2422 10.8164 40.7087 10.644C42.2846 10.0617 42.8655 9.76934 43.14 9.42048C43.4746 8.99506 43.5463 8.13576 43.2875 7.65224C43.0879 7.27912 42.3327 6.87561 41.8517 6.88501C41.6536 6.88877 40.0471 7.43898 38.2817 8.10757ZM27.7909 11.1075V14.3975L27.1255 14.2782C26.2654 14.1239 23.0534 14.1239 22.1933 14.2782L21.5278 14.3975V11.1075V7.81743H24.6594H27.7909V11.1075ZM47.038 9.68431C46.6791 10.0433 46.5803 10.2823 46.5803 10.7924C46.5803 11.3026 46.6791 11.5415 47.038 11.9005L47.4957 12.3582H49.7119H51.9281L52.3858 11.9005C52.7447 11.5415 52.8435 11.3026 52.8435 10.7924C52.8435 10.2823 52.7447 10.0433 52.3858 9.68431L51.9281 9.22664H49.7119H47.4957L47.038 9.68431ZM56.4327 9.68431C56.0738 10.0433 55.975 10.2823 55.975 10.7924C55.975 11.3026 56.0738 11.5415 56.4327 11.9005L56.8904 12.3582H59.1066H61.3228L61.7805 11.9005C62.1394 11.5415 62.2382 11.3026 62.2382 10.7924C62.2382 10.2823 62.1394 10.0433 61.7805 9.68431L61.3228 9.22664H59.1066H56.8904L56.4327 9.68431ZM65.8274 9.68431C65.4685 10.0433 65.3697 10.2823 65.3697 10.7924C65.3697 11.3026 65.4685 11.5415 65.8274 11.9005L66.2851 12.3582H68.5013H70.7175L71.1752 11.9005C71.534 11.5415 71.6329 11.3026 71.6329 10.7924C71.6329 10.2823 71.534 10.0433 71.1752 9.68431L70.7175 9.22664H68.5013H66.2851L65.8274 9.68431ZM47.328 14.1681C46.7912 14.4593 46.5803 14.8489 46.5803 15.549C46.5803 16.4266 47.069 16.8224 49.1207 17.6065C50.1304 17.9925 51.1039 18.3082 51.2839 18.3082C52.6264 18.3082 53.3563 16.5999 52.4129 15.6654C51.9618 15.2184 48.7325 13.9188 48.1015 13.9302C47.9108 13.9337 47.5627 14.0408 47.328 14.1681ZM26.3817 17.4338C28.5557 17.8242 30.6111 18.9132 31.9835 20.4021C32.7474 21.2309 33.8975 22.9509 33.8975 23.2647C33.8975 23.4386 32.2934 23.4753 24.6594 23.4753C17.1951 23.4753 15.4213 23.4363 15.4213 23.2722C15.4213 22.9924 16.7382 21.0074 17.3484 20.3676C18.7063 18.9436 20.8353 17.8132 22.8587 17.4417C24.2869 17.1794 24.9561 17.178 26.3817 17.4338ZM57.1155 17.4805C56.9247 17.5164 56.5901 17.7578 56.3718 18.0173C55.6941 18.8225 55.9176 20.0005 56.8362 20.4655C57.7663 20.9363 60.2457 21.7529 60.7452 21.7529C61.5456 21.7529 62.2382 21.0636 62.2382 20.2671C62.2382 19.1787 62.0147 18.9976 59.5557 18.0926C57.8299 17.4573 57.5765 17.3938 57.1155 17.4805ZM36.6733 27.1188L37.1074 27.5525L37.1568 30.2113L37.2063 32.8699H24.6594H12.1125L12.1619 30.2241C12.2066 27.8386 12.2423 27.5441 12.5246 27.2306C12.6968 27.0394 12.9786 26.8246 13.1509 26.7532C13.3231 26.682 18.5884 26.6374 24.8517 26.6543L36.2391 26.6851L36.6733 27.1188ZM37.1856 39.1331V42.2646H28.2486H19.3116L18.8539 42.7223L18.3963 43.18V46.962V50.744L18.8539 51.2017C19.213 51.5605 19.4519 51.6593 19.962 51.6593C20.4722 51.6593 20.7111 51.5605 21.0701 51.2017L21.5278 50.744V48.0701V45.3962H29.3567H37.1856V56.435V67.4737H29.3567H21.5278V65.5045C21.5278 63.5367 21.5275 63.5349 21.0701 63.0775C20.4257 62.433 19.4984 62.433 18.8539 63.0775L18.3963 63.5352V66.6126V69.6899L18.8539 70.1476L19.3116 70.6053H28.2486H37.1856V73.7369V76.8684H24.6594H12.1331V56.435V36.0015H24.6594H37.1856V39.1331ZM18.8539 56.0315C17.8454 57.0401 18.5355 58.7054 19.962 58.7054C20.4722 58.7054 20.7111 58.6066 21.0701 58.2477C22.0787 57.239 21.3886 55.5738 19.962 55.5738C19.4519 55.5738 19.213 55.6726 18.8539 56.0315Z" fill="#FF2424"/>
</svg>
