<svg width="32" height="32" viewBox="0 0 32 32" fill="none" xmlns="http://www.w3.org/2000/svg">
<g clip-path="url(#clip0_2032_3840)">
<path d="M28 24C28.0001 25.0203 27.6102 26.002 26.9103 26.7444C26.2103 27.4867 25.2532 27.9335 24.2347 27.9934L24 28H22.6667C21.6464 28.0001 20.6646 27.6103 19.9223 26.9103C19.18 26.2104 18.7332 25.2532 18.6733 24.2347L18.6667 24V20C18.6666 18.9797 19.0564 17.998 19.7564 17.2557C20.4563 16.5133 21.4135 16.0665 22.432 16.0067L22.6667 16H24C24.468 16 24.9173 16.08 25.3333 16.228V16C25.3345 13.5516 24.3736 11.2007 22.6576 9.45425C20.9416 7.70776 18.6081 6.70549 16.16 6.66351C13.712 6.62153 11.3454 7.5432 9.57059 9.22984C7.79575 10.9165 6.75475 13.233 6.672 15.68L6.66667 16V16.2267C7 16.1094 7.35467 16.0347 7.72133 16.0094L8 16H9.33333C10.3536 16 11.3354 16.3898 12.0777 17.0897C12.82 17.7897 13.2668 18.7468 13.3267 19.7654L13.3333 20V24C13.3334 25.0203 12.9436 26.002 12.2436 26.7444C11.5437 27.4867 10.5865 27.9335 9.568 27.9934L9.33333 28H8C6.97972 28.0001 5.99798 27.6103 5.25565 26.9103C4.51332 26.2104 4.06652 25.2532 4.00667 24.2347L4 24V16C4.00115 12.8488 5.24181 9.82446 7.45401 7.58026C9.66622 5.33605 12.6724 4.0521 15.8233 4.0057C18.9742 3.9593 22.0169 5.15418 24.2942 7.33228C26.5716 9.51037 27.9007 12.4969 27.9947 15.6467L28 16V24Z" fill="black"/>
</g>
<defs>
<clipPath id="clip0_2032_3840">
<rect width="32" height="32" fill="white"/>
</clipPath>
</defs>
</svg>
