<svg width="32" height="32" viewBox="0 0 32 32" fill="none" xmlns="http://www.w3.org/2000/svg">
<g clip-path="url(#clip0_2032_3825)">
<path d="M24.4854 6.18131C26.6885 8.38415 27.9485 11.3575 27.999 14.4725C28.0496 17.5876 26.8866 20.6002 24.7561 22.8733L24.4854 23.1533L18.8281 28.8093C18.1102 29.5267 17.1466 29.9444 16.1323 29.9778C15.118 30.0112 14.1289 29.6579 13.3654 28.9893L13.1734 28.8093L7.51474 23.152C5.26429 20.9015 4 17.8493 4 14.6666C4 11.484 5.26429 8.43176 7.51474 6.18131C9.76519 3.93086 12.8175 2.66656 16.0001 2.66656C19.1827 2.66656 22.235 3.93086 24.4854 6.18131ZM16.0001 10.6666C15.4748 10.6666 14.9546 10.7701 14.4693 10.9711C13.984 11.1721 13.5431 11.4668 13.1716 11.8382C12.8002 12.2096 12.5056 12.6506 12.3046 13.1359C12.1035 13.6212 12.0001 14.1414 12.0001 14.6666C12.0001 15.1919 12.1035 15.7121 12.3046 16.1974C12.5056 16.6827 12.8002 17.1236 13.1716 17.4951C13.5431 17.8665 13.984 18.1611 14.4693 18.3622C14.9546 18.5632 15.4748 18.6666 16.0001 18.6666C17.0609 18.6666 18.0784 18.2452 18.8285 17.4951C19.5786 16.7449 20.0001 15.7275 20.0001 14.6666C20.0001 13.6058 19.5786 12.5884 18.8285 11.8382C18.0784 11.0881 17.0609 10.6666 16.0001 10.6666Z" fill="black"/>
</g>
<defs>
<clipPath id="clip0_2032_3825">
<rect width="32" height="32" fill="white"/>
</clipPath>
</defs>
</svg>
