<svg width="24" height="24" viewBox="0 0 24 24" fill="none" xmlns="http://www.w3.org/2000/svg">
<path d="M13.0271 2.00098C14.1525 2.00284 14.7228 2.0088 15.2156 2.02347L15.4097 2.02981C15.6339 2.03778 15.8551 2.04778 16.1218 2.06028C17.1859 2.10945 17.9118 2.27778 18.5493 2.52528C19.2084 2.77945 19.7651 3.12278 20.3209 3.67862C20.8759 4.23445 21.2193 4.79278 21.4743 5.45028C21.7209 6.08695 21.8893 6.81362 21.9393 7.87778C21.9512 8.14445 21.9608 8.36565 21.9687 8.58989L21.975 8.78398C21.9896 9.27672 21.9963 9.84711 21.9984 10.9725L21.9992 11.7181C21.9993 11.8092 21.9993 11.9032 21.9993 12.0002L21.9992 12.2823L21.9986 13.028C21.9967 14.1534 21.9908 14.7238 21.9761 15.2165L21.9697 15.4106C21.9618 15.6349 21.9518 15.8561 21.9393 16.1227C21.8901 17.1869 21.7209 17.9127 21.4743 18.5502C21.2201 19.2094 20.8759 19.7661 20.3209 20.3219C19.7651 20.8769 19.2059 21.2202 18.5493 21.4752C17.9118 21.7219 17.1859 21.8902 16.1218 21.9402C15.8551 21.9521 15.6339 21.9618 15.4097 21.9696L15.2156 21.9759C14.7228 21.9906 14.1525 21.9972 13.0271 21.9994L12.2814 22.0002C12.1903 22.0002 12.0963 22.0002 11.9993 22.0002H11.7172L10.9715 21.9995C9.84612 21.9977 9.27574 21.9917 8.78299 21.977L8.58891 21.9707C8.36466 21.9627 8.14346 21.9527 7.8768 21.9402C6.81263 21.8911 6.08763 21.7219 5.4493 21.4752C4.79096 21.2211 4.23346 20.8769 3.67763 20.3219C3.1218 19.7661 2.7793 19.2069 2.5243 18.5502C2.2768 17.9127 2.1093 17.1869 2.0593 16.1227C2.04742 15.8561 2.03773 15.6349 2.02988 15.4106L2.02359 15.2165C2.00896 14.7238 2.00229 14.1534 2.00013 13.028L2 10.9725C2.00186 9.84711 2.00781 9.27672 2.02248 8.78398L2.02883 8.58989C2.0368 8.36565 2.0468 8.14445 2.0593 7.87778C2.10846 6.81278 2.2768 6.08778 2.5243 5.45028C2.77846 4.79195 3.1218 4.23445 3.67763 3.67862C4.23346 3.12278 4.7918 2.78028 5.4493 2.52528C6.0868 2.27778 6.8118 2.11028 7.8768 2.06028C8.14346 2.04841 8.36466 2.03872 8.58891 2.03087L8.78299 2.02458C9.27574 2.00994 9.84612 2.00327 10.9715 2.00111L13.0271 2.00098ZM11.9993 7.00028C9.2364 7.00028 6.9993 9.23981 6.9993 12.0002C6.9993 14.7631 9.23883 17.0002 11.9993 17.0002C14.7622 17.0002 16.9993 14.7607 16.9993 12.0002C16.9993 9.23738 14.7597 7.00028 11.9993 7.00028ZM11.9993 9.00028C13.6562 9.00028 14.9993 10.3429 14.9993 12.0002C14.9993 13.6571 13.6566 15.0002 11.9993 15.0002C10.3424 15.0002 8.9993 13.6576 8.9993 12.0002C8.9993 10.3433 10.3419 9.00028 11.9993 9.00028ZM17.2493 5.50028C16.56 5.50028 15.9993 6.06019 15.9993 6.74943C15.9993 7.43868 16.5592 7.99945 17.2493 7.99945C17.9385 7.99945 18.4993 7.43955 18.4993 6.74943C18.4993 6.06019 17.9376 5.49942 17.2493 5.50028Z" fill="black"/>
</svg>
