<svg width="32" height="32" viewBox="0 0 32 32" fill="none" xmlns="http://www.w3.org/2000/svg">
<path d="M17.3708 2.66797C18.8713 2.67045 19.6317 2.6784 20.2888 2.69796L20.5476 2.70641C20.8465 2.71704 21.1415 2.73037 21.4971 2.74704C22.9159 2.8126 23.8837 3.03704 24.7337 3.36704C25.6125 3.70593 26.3548 4.1637 27.0959 4.90482C27.8359 5.64593 28.2937 6.39037 28.6337 7.26704C28.9625 8.11593 29.1871 9.08482 29.2537 10.5037C29.2696 10.8593 29.2824 11.1542 29.2929 11.4532L29.3013 11.712C29.3208 12.369 29.3297 13.1295 29.3325 14.6301L29.3336 15.6242C29.3337 15.7457 29.3337 15.871 29.3337 16.0003L29.3336 16.3765L29.3328 17.3707C29.3303 18.8713 29.3224 19.6318 29.3028 20.2887L29.2943 20.5475C29.2837 20.8466 29.2704 21.1415 29.2537 21.497C29.1881 22.9159 28.9625 23.8837 28.6337 24.7337C28.2948 25.6126 27.8359 26.3549 27.0959 27.0959C26.3548 27.8359 25.6092 28.2937 24.7337 28.6337C23.8837 28.9626 22.9159 29.187 21.4971 29.2537C21.1415 29.2695 20.8465 29.2825 20.5476 29.2929L20.2888 29.3013C19.6317 29.3209 18.8713 29.3297 17.3708 29.3326L16.3765 29.3337C16.2551 29.3337 16.1297 29.3337 16.0004 29.3337H15.6243L14.63 29.3327C13.1295 29.3303 12.369 29.3223 11.712 29.3027L11.4532 29.2943C11.1542 29.2837 10.8592 29.2703 10.5037 29.2537C9.08481 29.1882 8.11814 28.9626 7.26704 28.6337C6.38925 28.2949 5.64592 27.8359 4.90481 27.0959C4.1637 26.3549 3.70704 25.6093 3.36704 24.7337C3.03704 23.8837 2.8137 22.9159 2.74704 21.497C2.7312 21.1415 2.71828 20.8466 2.70781 20.5475L2.69942 20.2887C2.67992 19.6318 2.67102 18.8713 2.66814 17.3707L2.66797 14.6301C2.67045 13.1295 2.67838 12.369 2.69794 11.712L2.70641 11.4532C2.71704 11.1542 2.73037 10.8593 2.74704 10.5037C2.81258 9.0837 3.03704 8.11704 3.36704 7.26704C3.70592 6.38926 4.1637 5.64593 4.90481 4.90482C5.64592 4.1637 6.39037 3.70704 7.26704 3.36704C8.11704 3.03704 9.0837 2.8137 10.5037 2.74704C10.8592 2.73121 11.1542 2.71829 11.4532 2.70782L11.712 2.69944C12.369 2.67992 13.1295 2.67102 14.63 2.66814L17.3708 2.66797ZM16.0004 9.3337C12.3165 9.3337 9.3337 12.3197 9.3337 16.0003C9.3337 19.6842 12.3197 22.667 16.0004 22.667C19.6843 22.667 22.6671 19.681 22.6671 16.0003C22.6671 12.3165 19.6809 9.3337 16.0004 9.3337ZM16.0004 12.0004C18.2096 12.0004 20.0004 13.7906 20.0004 16.0003C20.0004 18.2095 18.2101 20.0003 16.0004 20.0003C13.7912 20.0003 12.0004 18.2102 12.0004 16.0003C12.0004 13.7911 13.7905 12.0004 16.0004 12.0004ZM23.0004 7.3337C22.0813 7.3337 21.3337 8.08025 21.3337 8.99924C21.3337 9.91824 22.0803 10.6659 23.0004 10.6659C23.9193 10.6659 24.6671 9.9194 24.6671 8.99924C24.6671 8.08025 23.9181 7.33256 23.0004 7.3337Z" fill="white"/>
</svg>
