<svg width="72" height="72" viewBox="0 0 72 72" fill="none" xmlns="http://www.w3.org/2000/svg">
<path fill-rule="evenodd" clip-rule="evenodd" d="M20.3003 5.06163C9.87195 8.68388 5.68596 10.2014 5.44742 10.4466C5.12481 10.7781 5.11323 10.9012 5.04104 14.7208C4.86058 24.2759 5.27765 32.3672 6.24472 38.0749C7.81363 47.3355 11.3289 54.3564 17.5081 60.5709C20.7327 63.8138 24.0831 66.3731 27.9888 68.5768C30.4551 69.9683 34.9067 72 35.4895 72C36.0431 72.0002 39.3609 70.5246 42.1054 69.0579C48.0066 65.9043 53.5147 61.2709 57.1127 56.4342C61.5075 50.5262 63.8857 44.4272 65.0318 36.1253C65.7732 30.7544 66.1282 22.6664 65.958 15.02L65.8637 10.7865L65.4924 10.4165C65.2258 10.1509 63.6967 9.55476 60.0711 8.30311C57.2936 7.34434 50.7374 5.07978 45.5017 3.27098C38.9131 0.994719 35.8036 -0.0121864 35.4017 0.000111232C35.0652 0.0104592 28.7197 2.13735 20.3003 5.06163ZM49.2457 7.81L62.7789 12.4948L62.8732 13.8351C63.0148 15.8502 62.9839 22.5733 62.8159 26.3022C62.4692 33.9937 61.6006 39.8246 60.1526 44.1804C58.3389 49.6365 55.1904 54.6665 51.0637 58.7009C47.1857 62.492 43.2068 65.2122 37.8366 67.7437L35.505 68.8428L34.2719 68.2875C30.1748 66.4425 25.9302 63.8917 23.0131 61.5214C19.8908 58.9845 16.8547 55.6353 14.8099 52.4721C9.73397 44.6204 8.01162 35.9129 8.01162 18.1021C8.01162 13.8109 8.05321 12.556 8.19728 12.5063C8.29947 12.4711 14.3984 10.3525 21.7506 7.79845C29.1028 5.24445 35.2519 3.14815 35.4152 3.14005C35.5786 3.13181 41.8023 5.23335 49.2457 7.81ZM24.2157 11.6922C18.3011 13.7483 13.3613 15.5146 13.2387 15.6173C12.7198 16.0518 12.616 16.7138 12.6163 19.5862C12.6171 25.7438 13.0439 32.1929 13.7407 36.5752C14.3981 40.7088 15.0711 42.992 16.5608 46.1423C19.2896 51.9123 23.6391 56.6617 29.6969 60.486C31.963 61.9165 34.8514 63.3383 35.4917 63.3383C36.5846 63.3383 41.3031 60.7001 44.4013 58.3571C46.5811 56.7085 50.2518 53.0048 51.533 51.1612C53.5024 48.3274 55.0661 45.2264 55.9827 42.3374C57.4786 37.6218 58.3526 29.4244 58.3603 20.0361C58.3631 16.676 58.2758 16.0659 57.7273 15.6064C57.3451 15.2865 35.9488 7.92968 35.4368 7.94213C35.1798 7.94857 30.1304 9.63605 24.2157 11.6922ZM45.495 14.5403L55.2779 17.9038L55.1922 23.2278C55.0691 30.8751 54.578 35.6295 53.4621 39.9798C52.2332 44.7704 49.272 49.7891 45.6492 53.222C43.1906 55.5516 40.0021 57.8403 37.0831 59.3708L35.51 60.1956L33.9093 59.3708C28.6845 56.6784 24.047 52.6356 21.1881 48.2815C19.2266 45.2939 17.897 42.0863 17.161 38.5674C16.2733 34.322 15.893 30.0639 15.7844 23.1528L15.702 17.9038L25.5586 14.502C30.9797 12.631 35.4821 11.1173 35.5638 11.1385C35.6455 11.1595 40.1146 12.6904 45.495 14.5403ZM37.3902 33.8331L31.781 39.4896L29.8849 37.6035C28.7094 36.4345 27.8287 35.6788 27.5674 35.6154C26.9216 35.4587 26.097 35.9282 25.8917 36.5696C25.5948 37.4972 25.8198 37.8371 28.5533 40.5869C31.1048 43.1537 31.13 43.1739 31.7807 43.1739H32.4365L38.7203 36.8376C43.1521 32.3687 45.0383 30.3688 45.1206 30.0515C45.3952 28.9907 44.7699 28.1768 43.68 28.1768H42.9993L37.3902 33.8331Z" fill="#FF2424"/>
</svg>
