<svg width="72" height="72" viewBox="0 0 72 72" fill="none" xmlns="http://www.w3.org/2000/svg">
<g clip-path="url(#clip0_2032_4323)">
<path fill-rule="evenodd" clip-rule="evenodd" d="M32.2413 0.0927339C18.351 1.33041 6.25934 10.8794 1.85798 24.0869C-1.90733 35.3857 0.0979341 47.1783 7.44059 56.9171C8.80055 58.7208 12.0902 61.9649 14.0342 63.4194C23.0087 70.1333 34.4328 72.2567 45.0405 69.1823L47.0187 68.609L47.9288 69.2381C52.8269 72.6235 59.0533 72.8965 64.3098 69.9564C66.2744 68.8574 68.8833 66.2485 69.9823 64.2839C72.9014 59.065 72.6363 52.7532 69.2962 47.9449L68.6349 46.9929L69.2092 45.0116C70.2154 41.5396 70.5 39.3894 70.502 35.2449C70.504 31.2194 70.2129 28.9668 69.2655 25.6746C65.3971 12.233 53.9812 2.25767 40.263 0.331996C37.9869 0.0124834 34.3569 -0.0957304 32.2413 0.0927339ZM33.5334 5.77148C33.5334 8.57726 33.608 9.04834 34.1368 9.577C34.8915 10.3319 36.137 10.1972 36.6828 9.302C36.9696 8.83175 37.007 8.45945 37.0075 6.06981L37.0081 3.3691L37.9596 3.47698C42.4284 3.9838 46.0501 5.00207 49.4018 6.69411L50.4052 7.2006L49.0015 9.49129C47.5888 11.7969 47.4109 12.3151 47.7827 13.0422C48.2354 13.9272 49.4306 14.2699 50.1957 13.734C50.3909 13.5973 51.1607 12.4804 51.9062 11.252C52.6518 10.0238 53.296 9.01872 53.3378 9.01872C53.5245 9.01872 55.9092 10.9239 57.1012 12.0252C59.1385 13.9077 62.7397 18.4527 62.3644 18.6681C62.2969 18.7068 61.3108 19.2411 60.1732 19.8552C57.7837 21.145 57.4023 21.4498 57.2655 22.1795C57.1478 22.8062 57.5215 23.6427 58.0438 23.9221C58.7871 24.3199 59.4392 24.1339 61.7731 22.8582L64.0616 21.6073L64.4253 22.3221C65.5117 24.4574 66.7871 29.2729 67.0482 32.2251L67.1616 33.5075H64.6548C61.949 33.5075 61.262 33.6574 60.774 34.3542C60.3175 35.0058 60.4273 35.7803 61.0667 36.4197L61.6293 36.9823H64.376H67.1227V37.4988C67.1227 38.739 66.1561 43.9597 65.8741 44.2427C65.8397 44.2771 65.455 44.077 65.0193 43.7981C63.7557 42.9889 61.8525 42.1457 60.4214 41.7609C58.68 41.2924 55.0411 41.2451 53.3307 41.6685C47.4779 43.1177 43.1436 47.452 41.6944 53.3048C41.271 55.0153 41.3183 58.6541 41.7868 60.3955C42.1716 61.8266 43.0148 63.7298 43.824 64.9934C44.1029 65.4291 44.303 65.8138 44.2686 65.8482C43.9856 66.1302 38.7649 67.0968 37.5247 67.0968H37.0081V64.3501V61.6034L36.4456 61.0408C35.8062 60.4015 35.0317 60.2916 34.3801 60.7481C33.683 61.2362 33.5334 61.9229 33.5334 64.6324V67.1425L32.4165 67.0328C30.3376 66.8286 28.1636 66.4029 26.2529 65.8259C24.3273 65.2443 22.0112 64.3499 21.8797 64.1373C21.8403 64.0734 22.3316 63.0565 22.9713 61.8774C23.6788 60.5734 24.1686 59.4613 24.2215 59.0384C24.2983 58.4255 24.2488 58.2832 23.8044 57.8387C23.4041 57.4385 23.1582 57.3344 22.6127 57.3344C21.6755 57.3344 21.267 57.784 19.9818 60.23C19.408 61.3221 18.8782 62.28 18.8044 62.3586C18.6199 62.555 16.0684 60.7761 14.223 59.1643C12.6875 57.8233 10.7012 55.6683 9.64276 54.1952L9.06943 53.397L11.3322 52.0091C13.1144 50.9159 13.6541 50.4994 13.8735 50.048C14.2132 49.3491 14.1108 48.7122 13.5724 48.1736C12.7277 47.3291 12.1299 47.481 9.29281 49.2607L7.30723 50.5063L6.77625 49.4942C5.0991 46.2971 4.01878 42.4815 3.50287 37.9337L3.39498 36.9823H6.0626C9.51651 36.9823 10.0374 36.7481 10.0374 35.1956C10.0374 34.4212 9.48326 33.7689 8.69068 33.6104C8.40757 33.5538 7.10222 33.5075 5.78992 33.5075H3.40375L3.48615 32.9697C3.53149 32.674 3.61323 31.948 3.66783 31.3565C3.98917 27.8795 6.41471 20.5475 7.1502 20.8298C7.29267 20.8845 8.38159 21.4966 9.57012 22.1902C11.4807 23.3051 11.8006 23.4401 12.3321 23.3554C12.976 23.253 13.6098 22.6664 13.7713 22.0234C13.8241 21.8131 13.7589 21.3819 13.6265 21.0652C13.4236 20.5797 13.0194 20.275 11.0495 19.1235L8.71318 17.7574L9.00308 17.2656C9.54233 16.3503 11.4672 14.073 12.9486 12.5981C14.3782 11.1746 17.7093 8.52233 18.0677 8.52233C18.165 8.52233 18.7787 9.47541 19.4315 10.6404C20.0842 11.8053 20.8002 12.9293 21.0228 13.1383C21.7841 13.8536 23.2445 13.5257 23.6129 12.5569C23.8997 11.8022 23.7824 11.4299 22.6 9.34552C21.956 8.21026 21.3585 7.15261 21.2723 6.99526C21.1392 6.75236 21.2852 6.6319 22.2364 6.19904C24.9678 4.95607 28.8646 3.88121 31.7222 3.58288C32.4908 3.50263 33.2129 3.42701 33.3265 3.41493C33.4834 3.39822 33.5334 3.96725 33.5334 5.77148ZM34.1554 15.0605C33.9265 15.2893 33.6929 15.7081 33.6363 15.9912C33.5797 16.2744 33.5334 20.3314 33.5334 25.0067V33.5075H27.1009C23.5631 33.5075 20.4369 33.5538 20.1537 33.6104C19.3612 33.7689 18.807 34.4212 18.807 35.1956C18.807 36.0179 19.021 36.4169 19.631 36.7324C20.0422 36.945 21.29 36.9823 27.9986 36.9823H35.883L36.4456 36.4197L37.0081 35.8571V25.9044C37.0081 15.251 37.0083 15.2528 36.1899 14.815C35.5868 14.492 34.6053 14.6106 34.1554 15.0605ZM59.2631 45.0065C60.7282 45.3122 63.1375 46.4975 64.2747 47.4717C67.2468 50.0184 68.7843 53.5514 68.5642 57.3283C68.3827 60.4418 67.3241 62.7693 65.0597 65.0338C62.7951 67.2982 60.4677 68.3568 57.3542 68.5383C52.5572 68.8178 48.1586 66.2382 46.0091 61.8847C45.0319 59.9057 44.7305 58.4233 44.8318 56.0934C44.9306 53.8186 45.487 52.0309 46.6519 50.2466C48.4374 47.5114 51.0614 45.672 54.1337 45.002C55.474 44.7096 57.8504 44.7118 59.2631 45.0065ZM61.4066 51.0244C61.0861 51.2198 60.2478 52.3485 59.103 54.1262C58.1133 55.6632 57.0732 57.2661 56.7918 57.688L56.28 58.4553L54.1312 56.7369C52.2684 55.2471 51.9005 55.0186 51.3648 55.0182C50.442 55.0177 49.6736 55.7557 49.6736 56.6424C49.6736 57.0728 49.7893 57.4363 50.0009 57.671C50.1808 57.8705 51.6129 59.0678 53.1831 60.3316C55.7214 62.3745 56.1074 62.6293 56.6624 62.6293C57.0057 62.6293 57.4387 62.5227 57.6247 62.3925C57.8107 62.2623 59.2792 60.1132 60.8882 57.617C63.4186 53.6909 63.8134 52.9901 63.8134 52.4247C63.8134 51.7073 63.4082 51.1361 62.7113 50.8712C62.1424 50.6548 61.9817 50.6738 61.4066 51.0244Z" fill="#FF2424"/>
</g>
<defs>
<clipPath id="clip0_2032_4323">
<rect width="72" height="72" fill="white"/>
</clipPath>
</defs>
</svg>
