<svg width="80" height="80" viewBox="0 0 80 80" fill="none" xmlns="http://www.w3.org/2000/svg">
<g clip-path="url(#clip0_2032_4063)">
<path fill-rule="evenodd" clip-rule="evenodd" d="M45.2952 0.473321C44.9133 0.720929 41.1491 4.39396 36.9306 8.63579C29.8182 15.7874 29.2457 16.4029 29.0581 17.098C28.7977 18.063 28.9322 18.509 30.1285 20.6444C30.6339 21.5465 31.0249 22.3105 30.9974 22.3419C30.9699 22.3733 30.1529 21.9554 29.182 21.4131C27.7397 20.6078 27.2592 20.4163 26.5573 20.3669C25.8037 20.314 25.6098 20.3655 24.9806 20.7864C24.586 21.0502 23.3457 22.2055 22.2246 23.3534L20.1859 25.4408L17.7868 25.6289C9.46752 26.2811 3.45636 27.7755 1.1529 29.764C0.059832 30.7076 0 30.9595 0 34.6156C0 38.0755 0.0603007 38.4157 0.835462 39.3351L1.24976 39.8264V56.7195C1.24976 75.4879 1.17633 74.1986 2.31189 75.3718C4.53739 77.6712 11.3634 79.2848 21.2343 79.8445C24.8892 80.0518 28.3816 80.0518 32.0366 79.8445C41.5822 79.3032 48.3541 77.7674 50.7017 75.6117C52.1033 74.3247 52.0137 75.2535 52.0176 61.9625L52.0211 50.2442L54.432 47.837L56.8428 45.43L57.8749 45.938C59.818 46.8947 60.9896 48.3535 63.2334 52.6102C66.4147 58.6454 68.1497 60.1429 71.7758 59.9843C73.7837 59.8965 74.8507 59.3618 76.8405 57.4461C79.3312 55.0483 80.097 53.4537 79.953 50.9652C79.8925 49.9208 79.7838 49.5154 79.304 48.5445C78.4209 46.7579 76.7159 45.433 72.3802 43.1648C69.6408 41.7317 68.5057 41.0223 67.5655 40.1557C66.8249 39.473 65.9551 38.2377 65.615 37.3856L65.4071 36.8648L68.6174 33.6364C70.3831 31.8608 71.9138 30.2391 72.0191 30.0324C72.359 29.3647 72.2743 28.2638 71.8246 27.504C71.2373 26.5117 62.8547 18.2169 62.1357 17.9165C61.8193 17.7843 61.3297 17.6739 61.0478 17.6709C60.549 17.6657 60.3829 17.4473 54.9111 9.5981C51.818 5.16115 49.0835 1.29347 48.8345 1.00337C47.8802 -0.107971 46.5093 -0.313244 45.2952 0.473321ZM52.5696 11.0509L58.3188 19.2667L48.8039 28.7833C43.5709 34.0172 39.2066 38.2683 39.1056 38.2297C38.7605 38.0982 22.808 26.876 22.808 26.7647C22.808 26.7037 23.6129 25.8512 24.5968 24.8701C26.3491 23.1228 26.3941 23.0906 26.8168 23.2832C27.0542 23.3913 28.8167 24.3532 30.7335 25.4208C34.0952 27.2929 34.6888 27.5288 35.3767 27.2648C35.6724 27.1512 36.0867 26.4106 36.0867 25.9954C36.0867 25.8366 35.0978 23.9223 33.8893 21.7415L31.6919 17.776L34.5548 14.9132L37.4177 12.0503L41.7657 17.2735C44.1573 20.1463 46.2186 22.537 46.3464 22.586C47.3165 22.9583 48.2718 22.3736 48.2718 21.4075C48.2718 20.7325 48.4208 20.9292 42.8991 14.3175L39.3765 10.0996L43.0027 6.46746C44.9971 4.46973 46.6721 2.83536 46.7248 2.83536C46.7773 2.83536 49.4075 6.53245 52.5696 11.0509ZM65.3396 24.6678L69.517 28.8475L59.167 39.1965L48.817 49.5456L44.6007 45.327L40.3843 41.1085L50.6935 30.7983C56.3637 25.1277 61.0387 20.4882 61.0824 20.4882C61.1262 20.4882 63.0419 22.369 65.3396 24.6678ZM54.9527 30.2934C49.8568 35.3892 49.3654 35.9261 49.3654 36.3979C49.3654 36.7614 49.5011 37.051 49.822 37.3719C50.306 37.8559 50.7313 37.9382 51.2894 37.6559C51.775 37.4102 61.9937 27.214 62.2638 26.7057C62.5859 26.0991 62.5423 25.7323 62.0833 25.1868C61.7679 24.8118 61.5536 24.7061 61.1095 24.7061C60.5689 24.7061 60.2546 24.9913 54.9527 30.2934ZM20.7394 28.6766C20.9333 28.8812 21.5831 29.3842 22.1835 29.7943C22.7837 30.2045 23.2559 30.559 23.233 30.5821C23.2098 30.6051 21.857 30.7013 20.2267 30.796C14.6459 31.1197 10.7731 31.6466 6.84429 32.6166L4.54974 33.183L3.7199 32.7142C2.58418 32.0726 2.61761 31.7919 3.90549 31.1584C5.14134 30.5506 7.10892 29.9708 9.6075 29.4783C12.578 28.8926 17.0379 28.3561 19.215 28.3226C20.259 28.3065 20.4251 28.3451 20.7394 28.6766ZM29.0246 34.584C30.2989 35.4766 30.5746 35.7336 30.3525 35.8213C29.9248 35.9901 23.6888 35.9709 20.6991 35.7914C17.6442 35.6082 14.5734 35.2923 12.107 34.9078C10.1157 34.5974 9.9818 34.6443 14.4503 34.0888C18.3231 33.6073 19.9784 33.5001 23.9016 33.4776L27.4165 33.4573L29.0246 34.584ZM4.92091 36.1278C10.3727 37.9894 21.0092 39.0178 30.6207 38.6126L34.5379 38.4475L36.0117 39.4751C36.8223 40.0403 37.5191 40.5567 37.5598 40.6228C37.6756 40.81 32.9861 41.1218 28.5882 41.2194C18.0897 41.4523 7.0266 39.9978 3.55915 37.9287L2.73384 37.4361L2.68713 36.363C2.64448 35.3788 2.66385 35.3001 2.92146 35.4154C3.07612 35.4844 3.97579 35.8052 4.92091 36.1278ZM46.5534 38.8714C46.4245 38.9196 45.9499 39.3173 45.4989 39.7553C44.8092 40.425 44.6788 40.6411 44.6788 41.1133C44.6788 42.1185 45.6258 42.743 46.5618 42.3554C47.3065 42.0469 48.2718 40.8509 48.2718 40.2366C48.2718 39.3668 47.2984 38.5935 46.5534 38.8714ZM63.7379 39.8203C64.2957 40.881 66.0966 42.6459 67.643 43.6472C68.3734 44.1201 69.9551 45.0218 71.158 45.6507C76.1189 48.2451 77.2369 49.321 77.2265 51.4904C77.2197 52.886 76.7897 53.637 75.0058 55.3679C73.3196 57.0041 72.8012 57.2697 71.3142 57.2586C69.2424 57.2432 68.1418 56.0739 65.5548 51.1397C64.0497 48.269 63.4599 47.321 62.3523 45.9911C61.664 45.1647 59.78 43.6377 59.1567 43.401C58.9977 43.3407 63.0505 39.0783 63.267 39.0783C63.3112 39.0783 63.5232 39.4121 63.7379 39.8203ZM5.01839 41.5098C6.13318 41.9087 9.3049 42.6238 11.4821 42.9674C18.5754 44.0867 28.3695 44.326 36.678 43.5833L38.7534 43.3977L43.083 47.7052C47.4893 52.0892 47.8208 52.3526 48.9357 52.356C49.1934 52.3569 49.2091 52.9631 49.2091 62.8903V73.4239L48.8133 73.7352C47.4321 74.8217 42.8023 76.0101 37.4927 76.6411C31.1975 77.3894 22.0733 77.3894 15.7782 76.6411C10.4686 76.0101 5.8387 74.8217 4.45757 73.7352L4.06171 73.4239V57.3445C4.06171 48.2708 4.12123 41.2653 4.19824 41.2653C4.27338 41.2653 4.64253 41.3753 5.01839 41.5098ZM7.02784 45.7198C6.57903 46.1975 6.40968 47.7083 6.72056 48.4591C7.12439 49.4341 8.41523 49.6271 9.05885 48.8089C9.66545 48.0376 9.3927 45.704 8.66315 45.4241C8.0892 45.2038 7.39449 45.3294 7.02784 45.7198ZM25.5192 48.692C25.249 48.8303 24.8723 49.1088 24.6822 49.3111C24.3099 49.7074 19.6616 60.9381 19.2859 62.3487C18.3838 65.7368 20.1495 69.6126 23.3058 71.1723C28.4077 73.6934 34.1955 69.9635 34.2097 64.1452C34.211 63.6263 34.1116 62.8178 33.9888 62.3487C33.7704 61.5144 29.5149 50.8917 29.0035 49.9046C28.3809 48.7025 26.6659 48.1057 25.5192 48.692ZM29.0403 57.2163C31.2945 62.8282 31.4001 63.1397 31.4001 64.1791C31.4001 66.2144 30.472 67.8389 28.8291 68.679C28.0267 69.0894 27.7438 69.1502 26.6465 69.1482C25.1465 69.1454 24.2562 68.8021 23.3195 67.8655C22.383 66.9289 21.9795 65.9555 21.8999 64.4405L21.8325 63.1545L24.2251 57.213C25.5409 53.9452 26.6317 51.2873 26.649 51.3065C26.6664 51.3257 27.7424 53.985 29.0403 57.2163ZM7.3595 52.0999C6.56262 52.5552 6.57262 52.431 6.56669 61.9332C6.56075 71.6386 6.54731 71.4904 7.46713 71.8714C8.05124 72.1134 8.67299 71.9512 9.06323 71.4552C9.36426 71.0723 9.37317 70.8003 9.37317 61.9521V52.8431L9.02167 52.4436C8.59676 51.9606 7.86721 51.8098 7.3595 52.0999Z" fill="#FF2424"/>
</g>
<defs>
<clipPath id="clip0_2032_4063">
<rect width="80" height="80" fill="white"/>
</clipPath>
</defs>
</svg>
