<svg width="80" height="80" viewBox="0 0 80 80" fill="none" xmlns="http://www.w3.org/2000/svg">
<path fill-rule="evenodd" clip-rule="evenodd" d="M9.02694 0.184269C6.86994 0.861739 5.6238 2.31094 4.71811 5.19511C4.11254 7.12388 3.92668 8.62138 4.02516 10.7817C4.1696 13.9519 5.09655 16.8054 6.46399 18.2889L7.10645 18.9859V28.7493C7.10645 37.4431 7.1349 38.5972 7.36656 39.2831C7.8899 40.8328 8.89282 41.9859 10.3672 42.733C11.1531 43.1312 11.4101 43.1797 12.7338 43.1797C14.0165 43.1797 14.3401 43.1228 15.1092 42.7623C16.2451 42.2299 17.3332 41.1418 17.8656 40.0059L18.283 39.1155L18.3611 34.1134C18.4335 29.4854 18.4624 29.073 18.7485 28.6C19.3716 27.5698 20.9028 27.2073 21.8926 27.8558C22.6203 28.3326 22.7931 28.814 22.9074 30.6806C22.9929 32.0773 23.0973 32.6244 23.4084 33.3037C24.5018 35.6922 27.2356 36.8227 29.6891 35.9009C30.9384 35.4315 32.1023 34.2755 32.5618 33.0475C32.8559 32.2614 32.8985 31.8258 32.8985 29.5978C32.8985 26.9911 33.0307 26.1854 33.4956 25.9619C33.64 25.8925 35.4112 25.7989 37.4316 25.754C40.9943 25.6749 41.1316 25.6599 41.9879 25.2585C43.6966 24.4574 44.742 22.9896 44.9217 21.1393L45.0129 20.2014L51.5781 20.1232C57.9534 20.0472 58.1652 20.035 58.8984 19.6966C60.5655 18.9272 61.5851 17.7283 62.3246 15.6682L62.7173 14.574L63.9783 14.4677C64.7072 14.4063 65.5558 14.2217 65.9899 14.0302C66.8531 13.6493 67.8094 12.7787 68.0786 12.1289C68.256 11.7006 68.3067 11.6822 69.3057 11.6822C70.6347 11.6822 71.5532 12.1189 72.2097 13.0631L72.6807 13.7404L72.7293 17.9786C72.7707 21.5827 72.7402 22.3154 72.5256 22.877C72.1698 23.8088 71.1253 24.7253 70.1681 24.9454C69.7446 25.0428 63.63 25.9677 56.5802 27.0008C42.2233 29.1045 42.3982 29.0749 41.1086 29.6142C38.4412 30.7297 36.6274 32.7507 35.6676 35.6766C35.3976 36.4997 35.3507 37.1911 35.2851 41.3257L35.2102 46.0368L34.6024 46.1341C33.7966 46.2629 32.6834 47.3205 32.4467 48.1818C32.3523 48.5257 32.2746 49.6991 32.2741 50.7896C32.2732 52.7093 32.2621 52.7754 31.9215 52.8788C31.4157 53.0321 30.8595 53.5745 30.6117 54.1558C30.2789 54.9368 30.2986 73.9199 30.6336 75.2056C31.6967 79.2876 36.3979 81.2578 40.0155 79.1377C41.5247 78.2532 42.7377 76.5436 43.0566 74.8514C43.1532 74.3388 43.2153 70.2229 43.2153 64.334C43.2153 53.9465 43.2223 54.0439 42.4148 53.3191C42.2102 53.1356 41.8922 52.9397 41.7081 52.8841C41.3895 52.7876 41.3703 52.671 41.3107 50.4823C41.2404 47.9006 41.1238 47.526 40.1354 46.7113C39.8134 46.4461 39.3158 46.185 39.0295 46.1312L38.5089 46.0336L38.5564 41.4022L38.604 36.7708L39.038 35.8438C39.8589 34.0911 41.1192 32.9468 42.8245 32.4063C43.2543 32.27 49.5851 31.2811 56.8928 30.209C64.2006 29.1368 70.4702 28.1885 70.8252 28.1017C72.024 27.8088 72.8554 27.3525 73.8226 26.4571C75.0614 25.3102 75.666 24.1116 75.9028 22.3334C76.156 20.4316 75.9977 13.872 75.6749 12.8913C75.1014 11.1487 73.5324 9.50441 71.8234 8.85507C71.3839 8.68813 70.4053 8.50743 69.6488 8.45381C68.2809 8.35674 68.2718 8.3533 67.9862 7.82292C67.5867 7.08105 66.6819 6.30276 65.866 5.99935C65.4874 5.85851 64.6214 5.69031 63.9416 5.62544L62.7056 5.50774L62.4402 4.72616C61.7149 2.59074 60.6677 1.27441 59.0716 0.491741L58.1434 0.036707L33.9145 0.00700711C14.1872 -0.0170654 9.56325 0.0159171 9.02694 0.184269ZM57.1923 3.25649C58.4599 3.60851 59.0781 4.4809 59.7295 6.83642C60.1626 8.40285 60.1295 11.8363 59.666 13.4425C59.1369 15.2751 58.7303 16.0282 58.0141 16.5022L57.3846 16.9187L33.9259 16.9619C8.41621 17.0086 9.68221 17.0486 8.85749 16.1708C8.15829 15.4266 7.4519 13.2336 7.19758 11.0178L7.11239 10.2754H15.0083C23.6734 10.2754 23.7415 10.2685 24.2126 9.35747C24.3472 9.09705 24.4574 8.7716 24.4574 8.63404C24.4574 8.49649 24.3472 8.17104 24.2126 7.91062C23.7428 7.00196 23.6523 6.99273 15.2398 6.99273C10.478 6.99273 7.57539 6.9363 7.57539 6.84345C7.57539 6.5674 8.31211 4.66145 8.57253 4.26425C8.89563 3.77108 9.46681 3.3917 10.1194 3.23664C10.9516 3.0389 56.4778 3.05812 57.1923 3.25649ZM28.4435 7.20939C27.2328 7.73726 27.2503 9.46423 28.4721 10.044C28.9095 10.2514 29.0995 10.2636 29.5557 10.1131C30.1243 9.92552 30.7083 9.19256 30.7094 8.66531C30.7105 8.13305 30.2209 7.43729 29.6887 7.21486C29.0536 6.94959 29.0397 6.94943 28.4435 7.20939ZM65.0283 9.25227C65.8256 10.0495 65.2227 11.2132 64.0122 11.2132H63.3799V10.0409V8.86852H64.0122C64.4752 8.86852 64.7474 8.97122 65.0283 9.25227ZM41.7467 20.7594C41.6174 21.5674 41.2826 22.0789 40.7456 22.2886C40.5088 22.3812 38.7789 22.4745 36.8063 22.5012C33.4048 22.5473 33.261 22.5622 32.4286 22.9513C31.4283 23.419 30.6814 24.1146 30.2012 25.0262C29.8956 25.6061 29.8522 25.9857 29.7773 28.7277C29.6882 31.9936 29.5968 32.3766 28.8047 32.8005C28.3108 33.0649 27.3891 33.0256 26.9232 32.7203C26.3707 32.3583 26.2165 31.8584 26.117 30.1089C26.0028 28.0979 25.5949 27.0231 24.5506 25.9822C23.3182 24.7534 22.501 24.4219 20.7059 24.4219C19.4327 24.4219 19.0983 24.4797 18.3611 24.8274C17.2727 25.3409 16.3048 26.31 15.7477 27.4444L15.313 28.3298L15.2348 33.3318C15.1506 38.7291 15.1113 38.9795 14.2588 39.5788C12.7807 40.6177 10.714 39.8158 10.3772 38.0727C10.2227 37.2738 10.1848 20.3797 10.337 20.2275C10.3942 20.1701 17.5078 20.1232 26.1447 20.1232H41.8484L41.7467 20.7594ZM38.0569 50.9955V52.7931H36.8063H35.5558V50.9955V49.1978H36.8063H38.0569V50.9955ZM39.8972 65.3508L39.8545 74.7823L39.4224 75.4056C38.1577 77.2303 35.455 77.2303 34.1902 75.4056L33.7582 74.7823L33.7155 65.3508L33.673 55.9194H36.8063H39.9397L39.8972 65.3508Z" fill="#FF2424"/>
</svg>
