<svg width="80" height="80" viewBox="0 0 80 80" fill="none" xmlns="http://www.w3.org/2000/svg">
<path fill-rule="evenodd" clip-rule="evenodd" d="M34.8977 0.215599C33.1758 0.702156 31.9024 1.77515 30.7666 3.69637C30.751 3.72294 30.3355 3.62682 29.8435 3.48271C27.3099 2.74076 24.1934 3.84392 22.8702 5.95082C22.4524 6.61619 22.449 6.61775 21.4966 6.62463C18.0553 6.64932 15.3619 9.15323 15.0733 12.5962C15.0095 13.3566 14.936 13.573 14.7411 13.5732C14.2263 13.5734 12.5261 14.5221 11.7792 15.2259C10.5033 16.4282 9.62203 18.6526 9.79813 20.2262C9.87106 20.8789 9.86811 20.8833 9.23321 21.0744C4.5045 22.4974 2.47737 28.4081 5.27221 32.6243C5.6193 33.1477 6.14931 33.7804 6.45016 34.0302L6.99709 34.4844L6.5341 35.4775C5.70091 37.2654 5.43947 39.255 5.96157 39.8359C6.32324 40.2387 7.17847 40.2421 7.5752 39.8425C7.74262 39.6738 7.91887 39.2093 7.97551 38.7875C8.14261 37.5418 8.51592 36.5707 9.23336 35.515C10.2074 34.0819 10.1548 33.731 8.83926 32.8856C7.8655 32.26 7.31051 31.6152 6.77785 30.4908C6.35009 29.5877 6.31905 29.4069 6.37553 28.1463C6.44675 26.553 6.80221 25.664 7.76915 24.6602C8.47697 23.9255 10.0712 23.1076 10.7958 23.1074C11.5021 23.1073 12.0308 22.8683 12.3247 22.4166C12.5619 22.0518 12.5605 21.9497 12.3036 20.945C12.0636 20.0063 12.0532 19.7503 12.2239 18.9819C12.6114 17.2373 14.0026 16.0116 15.8497 15.7876C16.5113 15.7075 17.0044 15.5543 17.2125 15.3647C17.5121 15.0915 17.5299 14.9633 17.4328 13.7886C17.3125 12.3341 17.4657 11.6765 18.1643 10.646C19.0134 9.3944 20.7398 8.72481 22.2853 9.04804C23.5249 9.30734 23.8018 9.18308 24.3286 8.13213C25.2271 6.33891 26.2562 5.67996 28.1585 5.67996C29.3103 5.67996 29.4819 5.72263 30.2427 6.19918C31.6169 7.05992 32.2464 6.90268 32.6294 5.60306C32.9346 4.56774 33.233 4.03929 33.8335 3.47021C35.2556 2.12229 37.0896 1.9613 38.8508 3.0296C39.3406 3.32688 39.8701 3.56993 40.0275 3.56993C40.185 3.56993 40.6453 3.35798 41.0507 3.09915C42.3067 2.29656 43.4541 2.12229 44.6595 2.5507C46.0099 3.03054 46.9563 4.0643 47.3754 5.51678C47.5065 5.97083 47.7215 6.43254 47.8534 6.54273C48.2353 6.86205 48.9099 6.75498 49.7007 6.24982C50.104 5.99224 50.7001 5.73623 51.0255 5.68074C52.2579 5.47099 52.6875 4.20481 51.7615 3.51147C51.3364 3.19309 51.3119 3.19231 50.3024 3.45895C49.7378 3.60822 49.2661 3.71169 49.2545 3.68918C48.9972 3.19496 48.295 2.26186 47.8298 1.79656C46.0674 0.0335106 43.3579 -0.48712 40.9839 0.480994L40.0141 0.876586L39.0579 0.487402C37.8391 -0.00837747 36.0939 -0.122476 34.8977 0.215599ZM55.1565 5.62838C54.7818 6.16714 54.8505 6.56242 55.5436 7.85657C56.2671 9.20778 56.4653 9.31515 57.743 9.04804C59.2885 8.72481 61.0149 9.3944 61.8639 10.646C62.5626 11.6765 62.7157 12.3341 62.5955 13.7886C62.4984 14.9633 62.5162 15.0915 62.8158 15.3647C63.0239 15.5543 63.517 15.7075 64.1786 15.7876C66.0257 16.0116 67.4168 17.2373 67.8044 18.9819C67.9751 19.7503 67.9647 20.0063 67.7247 20.945C67.4677 21.9497 67.4663 22.0518 67.7036 22.4166C67.9974 22.8683 68.5262 23.1073 69.2325 23.1074C69.9571 23.1076 71.5513 23.9255 72.2591 24.6602C73.3181 25.7593 73.6017 26.5366 73.6037 28.3433C73.6051 29.7371 73.5607 29.9908 73.1927 30.6878C72.7098 31.6023 71.9918 32.375 71.1231 32.9149C69.9513 33.643 69.8139 34.2548 70.6011 35.2379C73.6737 39.0755 71.53 44.7978 66.6915 45.6737C66.1419 45.7732 66.1369 45.769 65.7846 44.9127C64.6524 42.161 61.4748 41.7775 59.866 44.1984C59.2395 45.1413 59.0516 45.945 59.1332 47.3336C59.1985 48.442 59.4356 49.1266 60.0654 50.0241C60.2225 50.2479 60.182 50.3669 59.8197 50.7478C59.5813 50.9986 59.0247 51.4056 58.5828 51.6523C57.8486 52.0621 57.6461 52.1007 56.228 52.1007C54.6235 52.1007 53.9112 51.8884 52.9219 51.1152L52.564 50.8353L53.271 48.9208C53.66 47.8678 53.9782 46.8767 53.9782 46.7184C53.9782 46.1873 53.4426 45.7081 52.849 45.7081C52.5474 45.7081 52.1974 45.7943 52.0714 45.8997C51.9452 46.005 50.9514 48.4835 49.8629 51.4072C48.7744 54.3309 47.8375 56.7027 47.7808 56.6782C47.6255 56.6105 41.4959 50.1349 41.4371 49.9764C41.4091 49.9008 43.1243 46.9366 45.2485 43.3892C47.3728 39.842 49.1588 36.8104 49.2176 36.6524C49.2781 36.4894 48.9554 34.7759 48.4705 32.6862C48.001 30.6626 47.6168 28.9105 47.6168 28.7923C47.6168 28.672 47.7751 28.5777 47.9771 28.5777C48.1752 28.5777 48.6776 28.461 49.0936 28.3181C49.7319 28.099 49.8633 28.0927 49.9358 28.2775C49.9831 28.398 50.4756 29.8687 51.0303 31.5458C51.9457 34.3139 52.0801 34.6149 52.4867 34.8093C53.1159 35.1102 53.344 34.9732 57.0682 32.0563L60.2357 29.5754L61.0728 30.4442L61.9097 31.3129L61.3696 31.7818C59.1056 33.7471 55.0645 37.5963 54.9115 37.9331C54.402 39.0549 53.6169 41.365 53.6166 41.7439C53.616 42.3775 54.0737 42.8009 54.7591 42.8009C55.0859 42.8009 55.4214 42.6981 55.5318 42.564C55.6392 42.4336 56.0144 41.5704 56.3655 40.6457L57.0038 38.9644L60.6827 35.5685L64.3618 32.1726H65.271C66.3196 32.1726 67.4792 31.8203 67.8727 31.3822C68.2575 30.9541 68.1999 30.1334 67.76 29.7747C67.4752 29.5422 67.2797 29.5085 66.781 29.6055C66.4384 29.6723 65.664 29.7321 65.0602 29.7384C64.1077 29.7484 63.8758 29.6923 63.3086 29.3139C62.0765 28.4919 61.584 27.2121 61.8923 25.6327C62.0711 24.7168 62.0624 24.6101 61.7791 24.2261C61.3355 23.6249 60.4866 23.5732 60.0587 24.1212C59.7114 24.5658 59.4087 25.759 59.4087 26.6831C59.4087 27.2651 59.3671 27.3059 56.527 29.5033C54.9421 30.7296 53.608 31.6954 53.5624 31.6495C53.5168 31.6035 53.1128 30.42 52.6647 29.0193L51.8498 26.4725L52.2265 25.8992C52.7556 25.0937 53.0473 24.0069 53.0473 22.8409C53.0473 21.9894 52.9913 21.7862 52.6664 21.4591C52.1811 20.97 51.5862 20.97 51.1009 21.4591C50.7874 21.7747 50.72 21.9972 50.72 22.7145C50.72 24.7536 49.3209 26.2264 47.3841 26.2264C45.9942 26.2264 45.0029 25.5566 44.2099 24.0818C43.7317 23.1924 43.1579 22.9167 42.5269 23.2736C41.4948 23.8572 41.8242 25.2598 43.3505 26.7803C43.8682 27.2961 44.4659 27.8326 44.6788 27.9728C45.0254 28.201 45.1601 28.6415 45.9689 32.1929L46.8721 36.1582L43.5055 41.785C41.654 44.8797 40.0585 47.4955 39.9603 47.5979C39.8238 47.7399 39.1418 46.7626 37.0849 43.4777L34.3885 39.1713L34.8941 35.9774L35.3996 32.7834L36.0072 32.4713C36.3413 32.2995 36.8908 31.9078 37.2283 31.6005C37.9972 30.9008 38.0731 30.1903 37.4331 29.6832C36.8669 29.2345 36.5231 29.2753 35.6905 29.8902C33.3629 31.6091 30.526 30.4158 30.1365 27.5538C30.0079 26.6088 29.6531 26.1812 28.9977 26.1812C28.4052 26.1812 27.7568 26.8083 27.7568 27.3814C27.7568 27.9363 28.212 29.5493 28.5147 30.0666C28.7904 30.5379 28.7885 30.5476 28.0239 32.7237C27.6017 33.925 27.2337 34.9327 27.2059 34.9632C27.1782 34.9936 25.9146 34.6018 24.3978 34.0926L21.64 33.1665L21.3894 32.3179C20.9078 30.6876 20.3673 29.9844 19.5952 29.9844C19.2348 29.9844 18.9986 30.1021 18.769 30.3963C18.3654 30.913 18.3659 31.1643 18.7715 31.9267C19.1831 32.7006 19.3196 33.9835 19.0709 34.7425C18.6311 36.0851 17.3263 37.0179 15.8885 37.0179C14.9074 37.0179 14.2438 36.7818 13.5376 36.182C12.9273 35.6635 12.3407 35.6529 11.8462 36.1512C11.0669 36.9361 11.5396 37.8417 13.2029 38.7501C14.148 39.2664 14.241 39.2848 16.0007 39.305L17.8208 39.3256L21.1984 41.1599C23.0561 42.1687 24.6328 43.0464 24.7022 43.1105C24.7715 43.1746 25.4261 44.9352 26.1569 47.023L27.4855 50.8192L27.1169 51.1071C26.1157 51.889 25.4091 52.1007 23.8003 52.1007C22.3821 52.1007 22.1796 52.0621 21.4454 51.6523C21.0036 51.4056 20.447 50.9986 20.2085 50.7478C19.8462 50.3669 19.8057 50.2479 19.9629 50.0241C20.5927 49.1266 20.8298 48.442 20.8951 47.3336C20.9756 45.9639 20.7857 45.1276 20.1933 44.2442C18.5653 41.8159 15.4866 42.1326 14.2601 44.8545C14.0524 45.3153 13.8684 45.7157 13.851 45.744C13.7858 45.8508 11.9072 45.2959 11.3309 44.9997C11.0006 44.83 10.3449 44.3362 9.87369 43.9023C9.18108 43.2646 8.91126 43.1135 8.46549 43.1135C7.81911 43.1135 7.43122 43.5486 7.43122 44.2737C7.43122 44.6373 7.6354 44.9392 8.36216 45.6513C9.48503 46.7512 11.3021 47.6888 12.8516 47.9678L13.923 48.1607L14.1872 48.8576C14.6697 50.1307 15.7403 51.0483 17.0332 51.297C17.3811 51.3639 17.8241 51.6698 18.3451 52.2029C19.9192 53.8139 21.5835 54.5233 23.7885 54.5233C25.1901 54.5233 26.3506 54.2409 27.486 53.6235C27.8917 53.403 28.2557 53.2546 28.2948 53.294C28.3339 53.3333 28.8196 54.6505 29.3741 56.221L30.3823 59.0766L29.6866 65.2792C29.2979 68.7445 28.8837 71.776 28.7479 72.1487C28.4503 72.9653 27.8394 73.4536 26.5051 73.9412C24.7847 74.57 23.6296 75.7327 23.1584 77.3098C22.8088 78.48 22.8769 79.2967 23.3557 79.676C23.7633 79.9991 23.8103 80 39.9645 80H56.1646L56.5453 79.6163C57.0052 79.1532 57.049 78.3431 56.6742 77.2312C56.1152 75.5724 55.0358 74.5417 53.1264 73.8436C51.9867 73.4269 51.4793 73.0295 51.1243 72.2762C50.91 71.8214 50.9186 71.6762 51.2264 70.5367C51.5068 69.4991 51.5614 68.8801 51.5573 66.7928C51.5519 63.9344 51.3367 62.8812 50.2587 60.4347C49.915 59.6546 49.6339 58.9441 49.6339 58.8556C49.6339 58.7671 50.0976 57.4447 50.6642 55.9169L51.6948 53.1388L52.4873 53.5838C53.6447 54.2332 54.7995 54.5233 56.228 54.5233C58.394 54.5233 60.1436 53.7857 61.6402 52.2413C62.1943 51.6699 62.6251 51.3683 62.9876 51.2984C64.2926 51.0472 65.3573 50.1337 65.8454 48.8461L66.1141 48.1376L67.181 47.9563C68.8416 47.6741 70.5918 46.741 71.8106 45.4881C73.5077 43.7434 74.3173 41.8103 74.3345 39.4617C74.346 37.8969 74.1181 36.8164 73.4942 35.4775L73.0312 34.4844L73.5781 34.0302C74.3876 33.3581 75.3491 31.8092 75.7196 30.5807C76.1505 29.1515 76.0768 26.917 75.5539 25.5574C74.8015 23.601 72.8794 21.74 70.9924 21.1407L70.1575 20.8756L70.2306 20.2229C70.4062 18.6524 69.5239 16.4271 68.2491 15.2259C67.5022 14.5221 65.802 13.5734 65.2872 13.5732C65.0923 13.573 65.0187 13.3566 64.955 12.5962C64.6671 9.16308 61.9727 6.64979 58.5529 6.62463C57.6485 6.61791 57.605 6.59837 57.151 5.99256C56.756 5.4652 56.5825 5.36001 56.0432 5.32C55.523 5.28155 55.3576 5.33891 55.1565 5.62838ZM49.5 10.8173C48.0401 11.3495 47.1144 12.7986 47.0224 14.6956C46.9507 16.1773 47.2477 17.1724 48.0401 18.1049C49.4896 19.8108 51.8092 19.7495 53.1596 17.9697C54.5022 16.2004 54.4274 13.5483 52.9885 11.9016C51.9696 10.7356 50.7577 10.3589 49.5 10.8173ZM51.148 13.2995C51.8555 14.0604 51.9849 15.1146 51.5024 16.1856C51.2022 16.8517 50.686 17.1518 50.1781 16.9555C49.7231 16.7797 49.3248 15.8727 49.3242 15.011C49.3229 13.3649 50.33 12.4199 51.148 13.2995ZM24.8479 18.122C24.1214 18.4843 23.3925 19.3175 22.9939 20.2411C22.5857 21.1871 22.6305 23.1407 23.0837 24.1587C23.6857 25.5108 25.0595 26.5413 26.2648 26.5449C27.3707 26.5483 28.7508 25.5959 29.3018 24.4492C29.942 23.1173 29.969 21.1363 29.3637 19.925C28.4522 18.101 26.4739 17.3112 24.8479 18.122ZM26.9361 20.4893C27.8042 21.4447 27.596 23.6132 26.592 24.074C25.8604 24.4099 24.9639 23.3611 24.9639 22.1695C24.9639 21.5727 25.3551 20.5924 25.6969 20.333C26.0877 20.0362 26.581 20.0984 26.9361 20.4893ZM39.3159 32.4319C37.5132 33.3877 36.6429 35.7839 37.2876 38.0177C37.6292 39.2015 38.8342 40.4974 39.8449 40.7678C42.6392 41.5154 44.9554 38.2187 43.9742 34.8903C43.6997 33.9594 42.8433 32.9025 42.0206 32.4799C41.2915 32.1051 39.9763 32.0818 39.3159 32.4319ZM31.4434 32.6416C31.8923 32.8134 32.3944 32.9541 32.5592 32.9541C32.7238 32.9541 32.889 33.0069 32.9263 33.0713C32.9635 33.1357 32.761 34.6219 32.4765 36.3741C32.0222 39.1707 31.9848 39.6094 32.1708 39.9689C32.2872 40.194 33.8727 42.7442 35.6941 45.6359L39.0056 50.8933L43.1173 55.2224C47.5999 59.9422 47.8215 60.2487 48.7166 62.9634C49.1217 64.1918 49.2197 64.7734 49.2846 66.3311C49.3547 68.0163 49.3189 68.3917 48.9419 69.9081C48.599 71.2881 48.549 71.7144 48.673 72.2063C48.785 72.651 48.7771 72.8103 48.6432 72.8103C48.2632 72.8103 46.2595 71.7299 45.367 71.0439C44.855 70.6504 41.7682 67.6338 38.5073 64.3404L32.5784 58.3526L29.6892 50.0688C28.1003 45.5127 26.7049 41.6781 26.5884 41.5474C26.4721 41.4167 24.9433 40.5375 23.1911 39.5937C21.4389 38.6498 20.0039 37.8004 20.0022 37.7063C20.0003 37.6123 20.1258 37.4195 20.281 37.2781C20.4361 37.1366 20.7202 36.7037 20.9125 36.3161C21.1047 35.9283 21.3463 35.6112 21.4495 35.6112C21.5527 35.6112 22.9945 36.0683 24.6536 36.6271C26.3127 37.1859 27.8138 37.643 27.9893 37.643C28.6672 37.643 28.9251 37.2273 29.7741 34.7653C30.2362 33.4253 30.6171 32.3289 30.6206 32.329C30.6242 32.329 30.9944 32.4697 31.4434 32.6416ZM41.5219 35.1263C42.1877 36.1251 41.8777 37.9217 40.9534 38.42C40.2767 38.785 39.3951 37.755 39.3941 36.5982C39.3924 34.7259 40.6672 33.844 41.5219 35.1263ZM18.2163 45.4599C18.4652 45.7368 18.5249 46.0249 18.5249 46.9466C18.5249 47.947 18.4771 48.1412 18.1418 48.5005C17.8652 48.7973 17.6326 48.8984 17.3038 48.8648C15.9231 48.724 15.7152 45.6977 17.0412 45.0405C17.4613 44.8322 17.7425 44.9325 18.2163 45.4599ZM63.5156 45.5246C63.9671 46.1338 63.961 47.7592 63.505 48.3772C63.0538 48.9886 62.3887 49.0393 61.8864 48.5005C61.5494 48.1393 61.5033 47.9489 61.5033 46.9173C61.5033 45.7929 61.524 45.7263 62.0054 45.2931C62.5891 44.7676 63.0014 44.8308 63.5156 45.5246ZM45.0567 73.681C46.7689 74.6841 48.3381 75.2668 50.5009 75.7027C51.6026 75.9248 52.6341 76.1458 52.793 76.1937C53.1343 76.2968 54.2886 77.3184 54.2886 77.5173C54.2886 77.5964 48.1411 77.6555 39.9366 77.6555C31.2693 77.6555 25.5846 77.5983 25.5846 77.5113C25.5846 77.1758 26.5828 76.4028 27.4089 76.0983C28.7828 75.5921 29.2826 75.2898 29.9559 74.5571C31.0422 73.3753 31.1438 72.9709 31.8059 67.2018C32.1374 64.312 32.4094 61.8457 32.4101 61.7213C32.4108 61.5971 35.0122 64.0939 38.191 67.2699C42.826 71.9012 44.1857 73.1707 45.0567 73.681Z" fill="#FF2424"/>
</svg>
