<svg width="80" height="80" viewBox="0 0 80 80" fill="none" xmlns="http://www.w3.org/2000/svg">
<path fill-rule="evenodd" clip-rule="evenodd" d="M48.5202 2.2382C47.9162 2.50754 47.4249 3.04843 47.1209 3.77865C46.7672 4.6281 46.7659 11.952 47.1193 12.8008C47.4296 13.5459 47.7585 13.9022 48.4749 14.2691C49.0317 14.5543 49.6335 14.5662 63.4832 14.5662C79.6857 14.5662 78.4505 14.6564 79.4659 13.3982L79.9387 12.8123L79.9865 8.70857C80.013 6.4517 79.9919 4.37413 79.9398 4.09192C79.822 3.45299 79.014 2.50958 78.344 2.22863C77.6026 1.91772 49.2181 1.92681 48.5202 2.2382ZM36.516 3.96846C35.1395 4.46119 34.1193 5.44679 33.6738 6.71398C33.3931 7.51244 33.3652 8.88018 33.6128 9.70923C33.9064 10.6925 34.8303 11.7642 35.8245 12.2745L36.7187 12.7335V18.7359V24.7384L36.1848 24.9152C35.3979 25.1759 34.3006 26.2209 33.8401 27.1482C33.291 28.2543 33.2764 29.8253 33.8048 30.959C34.2318 31.875 35.3338 32.9509 36.1479 33.2463L36.7187 33.4535L36.7181 39.5007L36.7176 45.5478L36.0328 45.8303C33.8279 46.7402 32.7573 49.688 33.8401 51.8685C34.3006 52.7958 35.3979 53.8408 36.1848 54.1015L36.7187 54.2783V60.2808V66.2832L35.8245 66.7422C32.6376 68.3779 32.6046 72.9754 35.7674 74.7028C37.9712 75.9066 40.6651 75.0545 41.8368 72.7829C42.2629 71.9568 42.3456 71.6255 42.3444 70.7508C42.3419 68.9696 41.2958 67.3093 39.7416 66.6194L39.0634 66.3182V60.2983V54.2783L39.6438 54.0862C40.5216 53.7953 41.773 52.4529 42.1071 51.4436C42.4592 50.3794 42.3731 48.7967 41.9136 47.8938C41.505 47.0908 40.377 46.0399 39.6342 45.7704L39.0634 45.5632V39.5084V33.4535L39.6342 33.2463C40.377 32.9768 41.505 31.9259 41.9136 31.1229C42.3731 30.22 42.4592 28.6373 42.1071 27.5731C41.773 26.5638 40.5216 25.2214 39.6438 24.9305L39.0634 24.7384V18.7184V12.6985L39.7416 12.3973C40.6351 12.0008 41.512 11.1018 41.9716 10.1114C43.0826 7.71684 41.7291 4.73994 39.1844 3.98164C38.2066 3.69018 37.3058 3.68578 36.516 3.96846ZM77.594 8.29145V12.1347H63.4479H49.3018L49.2597 8.45162C49.2366 6.42581 49.2521 4.67829 49.2943 4.56817C49.3557 4.40754 52.1549 4.37601 63.4825 4.40817L77.594 4.44817V8.29145ZM38.8818 6.39601C40.1669 7.05407 40.397 8.82089 39.3258 9.80602C38.5798 10.4923 37.8562 10.6125 36.994 10.1936C36.1734 9.79504 35.7807 9.17102 35.7815 8.2673C35.7821 7.41911 36.1979 6.70771 36.8939 6.36354C37.5898 6.01952 38.1648 6.02893 38.8818 6.39601ZM54.2737 7.1929C53.4707 7.52201 53.2825 8.43515 53.8775 9.11502C54.1013 9.37071 54.7583 9.38954 63.4607 9.38954H72.8039L73.1278 8.97619C73.5497 8.43813 73.5367 8.09427 73.0746 7.55511L72.6975 7.11494L63.6569 7.08372C58.6124 7.06631 54.4649 7.11462 54.2737 7.1929ZM9.7793 21.2847C9.60267 21.4807 9.52061 21.8535 9.52061 22.4613V23.3509L7.91842 23.3543C6.05019 23.3584 5.27176 23.6255 4.61666 24.4874C3.95562 25.3571 3.87481 26.2956 3.92514 32.5081C3.96875 37.8692 3.98986 38.2412 4.26934 38.5508C4.67403 38.9995 5.61361 38.9995 6.01846 38.551C6.27606 38.2655 6.32342 37.9168 6.37 35.9626L6.42377 33.7042H17.5072H28.5906V44.6105V55.5168L28.1841 55.6718C27.9376 55.7659 25.7388 55.8106 22.596 55.7855L17.4143 55.7443L17.3888 54.5463C17.359 53.1439 17.0334 51.749 16.4804 50.6537C16.2632 50.2237 16.0857 49.8421 16.0857 49.8055C16.0857 49.7688 16.244 49.6982 16.4374 49.6487C16.6307 49.5991 17.0465 49.3445 17.3612 49.0828C19.2485 47.5135 18.9191 44.3388 16.7592 43.2792C16.3128 43.0602 15.9436 42.8238 15.9386 42.754C15.9334 42.684 16.4569 41.9815 17.1017 41.193C18.3844 39.6241 18.5252 39.1725 17.9123 38.5944C17.5669 38.2688 17.4153 38.2534 14.5629 38.2534H11.5753L11.2514 38.6667C10.8302 39.2042 10.8425 39.5487 11.3021 40.0848C11.6478 40.4883 11.786 40.5283 13.0873 40.6035L14.4977 40.6849L13.3413 42.0967C12.0511 43.6718 11.9187 44.1255 12.5616 44.7705C12.9079 45.1181 13.0729 45.1556 14.2537 45.1556C15.4195 45.1556 15.5994 45.1953 15.9022 45.5186C16.1043 45.7346 16.242 46.0843 16.242 46.3814C16.242 47.6804 14.7551 47.9048 12.7722 46.905C11.1792 46.1019 10.0661 45.8815 8.05582 45.9712L6.42784 46.0438L6.3686 44.4358C6.29888 42.5471 6.0974 42.1751 5.1439 42.1751C4.15086 42.1751 4.04972 42.43 4.04957 44.9327V47.1165L3.01072 48.0489C-0.0575058 50.8024 -0.855317 54.8851 0.96258 58.5301C2.74453 62.1031 6.93819 64.0773 10.6992 63.1137C12.9283 62.5427 15.2589 60.8133 16.1805 59.0467L16.6248 58.1953L22.6467 58.1428C27.1297 58.1037 28.7886 58.0383 29.1376 57.8873C29.809 57.5966 30.3081 57.093 30.6398 56.3717C30.914 55.7756 30.9285 54.9915 30.9318 40.7191C30.9355 24.3156 30.9799 25.1189 30.0202 24.2099C29.318 23.5448 28.715 23.3763 26.9884 23.3628L25.4643 23.3509V22.4881C25.4643 21.4402 25.1197 20.9978 24.3034 20.9978C23.5505 20.9978 23.1197 21.5764 23.1197 22.5877V23.3509H17.5144H11.909L11.8187 22.4719C11.7674 21.9736 11.612 21.464 11.46 21.2954C11.1051 20.902 10.1301 20.8957 9.7793 21.2847ZM48.2812 23.2086C47.978 23.3852 47.5559 23.7841 47.3433 24.095C46.9596 24.6568 46.9568 24.6874 46.9088 28.864C46.8638 32.7671 46.8824 33.1178 47.1684 33.7668C47.3727 34.2302 47.7013 34.615 48.1432 34.9085L48.8098 35.3513L63.0953 35.3937C72.6842 35.4222 77.5803 35.3822 77.9883 35.272C78.8167 35.0481 79.4756 34.454 79.7787 33.6575C79.9937 33.0921 80.0248 32.3661 79.9853 28.8264L79.9387 24.6604L79.5228 24.0303C78.7928 22.9239 78.5757 22.8803 73.8041 22.8803C69.9225 22.8803 69.5722 22.9027 69.3338 23.1672C68.9627 23.5786 69.0005 24.4894 69.4038 24.856C69.7033 25.1283 70.0808 25.1618 73.6633 25.2333L77.594 25.3117L77.6361 29.0656C77.6685 31.9639 77.6328 32.8482 77.4798 32.9456C77.3707 33.0151 71.0474 33.073 63.4279 33.0744C51.8618 33.0763 49.545 33.0411 49.3962 32.861C49.271 32.7097 49.2303 31.5516 49.2597 28.9785L49.3018 25.3117L57.2183 25.2333C64.7232 25.1589 65.1518 25.1393 65.4637 24.856C65.8873 24.4711 65.9115 23.5074 65.5067 23.1399C65.2483 22.9052 64.4353 22.8806 57.0268 22.8839C49.0573 22.8873 48.8177 22.8963 48.2812 23.2086ZM9.48919 26.679C9.52811 27.426 9.6033 27.6288 9.94015 27.8947C10.4616 28.3063 10.8131 28.2977 11.3174 27.8608C11.638 27.583 11.7444 27.3157 11.8168 26.6059L11.909 25.7039H17.5144H23.1197V26.5493C23.1197 27.6528 23.4682 28.1197 24.292 28.1197C25.1158 28.1197 25.4643 27.6528 25.4643 26.5493V25.7039H26.8399C27.7013 25.7039 28.2854 25.7742 28.403 25.8921C28.534 26.0236 28.5906 26.8752 28.5906 28.7158V31.3512H17.4925H6.39439V28.619C6.39439 26.5817 6.44409 25.8661 6.58978 25.8049C6.69732 25.7597 7.38305 25.7362 8.11381 25.7525L9.44245 25.7823L9.48919 26.679ZM38.9218 27.2018C39.88 27.6991 40.2868 29.0869 39.7691 30.0917C39.3909 30.8258 38.7359 31.1943 37.8095 31.1943C37.0712 31.1943 36.9374 31.137 36.3877 30.5853C35.8562 30.0518 35.7809 29.8854 35.7809 29.2441C35.7809 28.8414 35.8898 28.3005 36.023 28.0422C36.5227 27.0723 37.9018 26.6724 38.9218 27.2018ZM54.1194 28.0866C53.3677 28.4513 53.3255 29.6967 54.0514 30.0867C54.2598 30.1985 57.364 30.2531 63.5229 30.2531H72.6845L73.0856 29.8506C73.4091 29.5258 73.4682 29.3514 73.3907 28.9486C73.3379 28.6739 73.1462 28.3256 72.9651 28.1746C72.6593 27.9198 71.9823 27.9008 63.5478 27.9107C57.5234 27.9178 54.3453 27.9769 54.1194 28.0866ZM20.1559 38.5968C19.4806 39.3242 19.92 40.3332 21.0007 40.5368L21.5566 40.6414V44.8381C21.5566 48.8464 21.5711 49.0537 21.8806 49.4483C22.2865 49.9663 23.1231 50.0151 23.5886 49.548C23.8886 49.2469 23.9012 49.0251 23.9012 44.0575C23.9012 37.8303 24.0489 38.2534 21.8753 38.2534C20.6356 38.2534 20.4378 38.2929 20.1559 38.5968ZM48.8617 43.7465C48.1174 43.9706 47.3898 44.643 47.1176 45.3578C46.8963 45.9398 46.8664 46.6267 46.9083 50.1961C46.9568 54.3315 46.9594 54.3597 47.3452 54.9243C47.5586 55.2366 47.9903 55.6371 48.3043 55.8144C48.8689 56.1328 49.039 56.1364 63.4456 56.1364C79.7765 56.1364 78.7139 56.2124 79.5228 54.9864L79.9387 54.3563L79.9853 50.1903C80.0248 46.6506 79.9937 45.9246 79.7787 45.3592C79.4796 44.5733 78.8256 43.9755 78.0191 43.7507C77.3071 43.5523 49.5198 43.5482 48.8617 43.7465ZM77.4798 46.0711C77.6328 46.1685 77.6685 47.0528 77.6361 49.9511L77.594 53.705H63.4479H49.3018L49.2597 50.0382C49.2303 47.465 49.271 46.307 49.3962 46.1557C49.545 45.9756 51.8618 45.9404 63.4279 45.9423C71.0474 45.9437 77.3707 46.0016 77.4798 46.0711ZM39.1236 48.1499C40.7703 49.4499 39.9476 52.0579 37.8911 52.0579C36.6413 52.0579 35.7824 51.1402 35.7815 49.804C35.7809 49.1258 35.8487 48.9724 36.3877 48.4314C36.9451 47.8721 37.0645 47.8224 37.8515 47.8224C38.4839 47.8224 38.8174 47.9082 39.1236 48.1499ZM11.3968 48.8549C16.2689 51.172 16.2232 58.0913 11.3208 60.3937C8.01377 61.9467 4.01799 60.2644 2.69935 56.7639C2.52178 56.2927 2.42925 55.5626 2.42096 54.5678C2.40955 53.2088 2.45175 52.9859 2.89896 52.0386C3.48044 50.8068 4.24824 49.9117 5.30896 49.2286C6.47254 48.4792 7.21174 48.2952 8.89536 48.3357C10.1874 48.3667 10.5122 48.4342 11.3968 48.8549ZM54.0216 48.9379C53.283 49.3691 53.3949 50.6145 54.2023 50.95C54.4968 51.0726 57.319 51.1115 63.7183 51.0812C73.7235 51.034 73.1834 51.0906 73.3876 50.0661C73.4679 49.6634 73.4104 49.4921 73.0856 49.1661L72.6845 48.7636L63.494 48.7683C57.3655 48.7716 54.2098 48.8281 54.0216 48.9379ZM7.93577 49.5337C7.58173 49.8211 7.56469 49.9306 7.51607 52.2185C7.44183 55.7162 7.52373 55.8227 10.2884 55.8227C11.7624 55.8227 12.0322 55.781 12.3913 55.4975C12.9074 55.0901 12.956 54.2506 12.4905 53.7834C12.2335 53.5255 11.9695 53.4697 11.0056 53.4697H9.83323V51.693C9.83323 50.0388 9.80838 49.8929 9.47153 49.5752C9.0251 49.1544 8.42315 49.1382 7.93577 49.5337ZM48.5202 64.7117C47.796 65.0957 47.485 65.4157 47.173 66.0976C46.9182 66.6543 46.8858 67.1759 46.8858 70.7252C46.8858 74.283 46.9177 74.7947 47.1744 75.3529C47.5082 76.0789 48.0219 76.5948 48.6476 76.8326C48.9477 76.9468 53.6602 77 63.4631 77C75.1833 77 77.9318 76.9608 78.344 76.7881C79.014 76.5071 79.822 75.5637 79.9398 74.9248C79.9919 74.6426 80.013 72.565 79.9865 70.3081L79.9387 66.2044L79.4587 65.6021C78.4964 64.3943 79.0305 64.451 68.5966 64.4508C59.4431 64.4505 59.2807 64.4558 58.9444 64.7703C58.4943 65.1912 58.4814 66.0752 58.9199 66.4521C59.2116 66.7028 59.988 66.7315 68.4158 66.8035L77.594 66.882V70.7252V74.5685H63.4479H49.3018V70.7252V66.882L51.9936 66.8035C54.2507 66.7378 54.7367 66.681 55.0026 66.4521C55.4406 66.075 55.4274 65.1909 54.9776 64.7703C54.659 64.4725 54.4422 64.451 51.8123 64.4568C49.5458 64.4618 48.8966 64.5121 48.5202 64.7117ZM38.6385 68.7441C40.3168 69.4618 40.4703 71.8073 38.8918 72.6155C38.1599 72.9903 37.6383 73.0019 36.9193 72.6594C36.2048 72.3192 35.7821 71.6098 35.7815 70.7494C35.7807 69.8614 36.1665 69.2308 36.948 68.8425C37.6932 68.4723 37.9658 68.4565 38.6385 68.7441ZM53.8712 69.9017C53.4076 70.4179 53.3863 70.9541 53.8098 71.4483L54.1985 71.9018H63.4479H72.6973L73.0746 71.4616C73.5367 70.9224 73.5497 70.5786 73.1278 70.0405L72.8039 69.6272H63.4607C54.7608 69.6272 54.1007 69.646 53.8712 69.9017Z" fill="#FF2424"/>
</svg>
