<svg width="80" height="80" viewBox="0 0 80 80" fill="none" xmlns="http://www.w3.org/2000/svg">
<g clip-path="url(#clip0_2032_4112)">
<path fill-rule="evenodd" clip-rule="evenodd" d="M24.3904 0.095614C21.3464 0.607168 18.5006 2.05915 16.4975 4.1224C15.1973 5.46169 14.375 6.80036 13.8056 8.50538C13.4008 9.7173 13.3861 9.88891 13.3278 14.0929L13.2676 18.4301H14.9999H16.7319V14.6337C16.7319 10.4872 16.8476 9.66572 17.6358 8.21718C18.6328 6.38462 20.6981 4.75118 22.9875 3.98486C24.8722 3.3539 27.5057 3.24418 29.3967 3.71775C32.7989 4.57003 35.3142 6.68736 36.2599 9.49504C36.5523 10.3628 36.5814 10.8246 36.5814 14.5979V18.7466L35.9171 18.3268C34.9219 17.6979 33.486 17.084 32.4968 16.8645C30.7235 16.4713 31.168 16.1302 23.5698 23.7135L16.7319 30.5381V29.4075V28.2767H15.0127H13.2934V31.1266V33.9765L6.8922 40.3871C2.54282 44.7429 0.413617 46.984 0.249663 47.3788C-0.507743 49.2024 0.463944 52.2067 3.09736 56.1843C9.61784 66.0324 23.1635 78.1499 29.4637 79.7708C30.6533 80.0768 31.8996 80.0763 32.6399 79.7697C33.0452 79.6018 36.4965 76.2559 44.0435 68.7143L54.866 57.8996L53.6577 56.6843L52.4494 55.4688L41.8743 66.0431L31.2992 76.6174L30.6286 76.5274C29.3918 76.3615 25.8799 74.3624 23.0619 72.22C19.6468 69.6238 14.4769 64.786 11.4277 61.3331C7.04412 56.3692 3.70253 51.3163 3.49513 49.3383L3.42542 48.6732L16.8126 35.31C28.8198 23.324 30.2183 21.9769 30.3818 22.24C31.3483 23.795 32.7614 25.8193 32.9236 25.8816C33.215 25.9934 35.6772 24.0832 35.54 23.8518C35.4794 23.7496 35.0667 23.1385 34.6232 22.4938C33.3137 20.5909 33.297 20.5959 35.5516 22.2195L36.5814 22.961V29.9714V36.9817L35.9528 37.2652C35.1668 37.6197 34.1571 38.7008 33.7174 39.6587C33.2382 40.7028 33.2495 42.5871 33.7415 43.6862C34.1871 44.6813 35.3242 45.8133 36.347 46.28C37.5339 46.8218 39.3259 46.7902 40.5139 46.2069C44.1434 44.4245 44.3408 39.2818 40.8551 37.3145L40.0199 36.8431V31.2041V25.5651L40.3716 25.8745C40.565 26.0447 41.532 26.896 42.5206 27.7666C43.5092 28.6371 45.5832 30.6202 47.1297 32.1735L49.9413 34.9974H47.6504H45.3594L44.0321 33.5654L42.7049 32.1334L41.4461 33.2702L40.1873 34.4068L41.1276 35.4569C42.1822 36.6349 46.0079 40.315 48.3817 42.435C51.6879 45.3876 55.7116 48.4818 57.4071 49.3751L58.1459 49.7645L56.9393 50.9784L55.7325 52.1922L56.9395 53.3993L58.1465 54.6063L59.086 53.6765L60.0257 52.7467V55.5994V58.4523L61.7058 58.4079L63.386 58.3635V54.4561C63.386 50.5741 63.3833 50.5431 62.9795 49.682C62.3549 48.3505 61.7377 47.7612 60.0968 46.9302C57.7975 45.7657 54.6565 43.4198 50.6189 39.8518L49.1052 38.514L52.9633 38.4697C58.5363 38.4056 60.8404 38.8357 64.507 40.6251C70.836 43.7138 75.2286 49.6473 76.3627 56.6396C76.5053 57.5177 76.5918 59.1573 76.5923 60.979L76.5929 63.907L76.14 64.4139C75.7652 64.8334 75.5739 64.9209 75.03 64.9209C74.4861 64.9209 74.2948 64.8334 73.92 64.4139L73.467 63.907L73.4667 61.0571C73.4666 57.7799 73.3434 57.3201 72.3348 56.8271C71.8431 56.5869 71.6625 56.57 71.2042 56.7213C70.9041 56.8203 70.5168 57.0816 70.3436 57.3018C70.0371 57.6913 70.0285 57.9187 70.0285 65.5831C70.0285 70.7454 69.9699 73.6969 69.8585 74.1393C69.6469 74.9796 68.937 75.8593 68.1441 76.2638C66.9855 76.8549 65.1482 76.5447 64.2922 75.6135C63.5676 74.8255 63.4642 74.2719 63.4642 71.1847V68.2883H61.734H60.0038L60.0538 71.6877L60.1038 75.0871L60.6363 76.1768C61.3226 77.5812 62.4548 78.7134 63.8593 79.3997C64.8988 79.9077 65.0285 79.9322 66.6763 79.9322C68.3581 79.9322 68.435 79.9168 69.5925 79.3447C71.6098 78.3477 72.9478 76.5535 73.302 74.3703C73.3915 73.8189 73.4652 72.1884 73.4658 70.7469L73.467 68.126L73.8969 68.2439C75.9195 68.7986 78.4663 67.5901 79.5321 65.57L79.9533 64.7716V60.7861C79.9533 57.2043 79.9164 56.6283 79.5894 55.1004C77.6969 46.2582 71.5738 39.265 63.1605 36.3365C60.9877 35.5802 58.7562 35.1438 56.5179 35.0374L54.6513 34.9486L50.2661 30.5488C46.3405 26.6098 42.3526 22.9319 40.6507 21.6803L40.0401 21.2312L39.9869 15.3372L39.9336 9.44315L39.4968 8.29954C37.9166 4.16241 34.3603 1.22657 29.7854 0.282387C28.4681 0.0104332 25.5066 -0.0920964 24.3904 0.095614ZM13.2934 23.2753V24.9945H15.0127H16.7319V23.2753V21.556H15.0127H13.2934V23.2753ZM39.0146 40.2277C39.6446 40.4909 40.1037 41.3628 39.9452 41.9947C39.7768 42.6652 39.0252 43.281 38.3752 43.281C37.5806 43.281 36.7377 42.4552 36.7377 41.6767C36.7377 40.8664 37.4887 40.0471 38.2666 40.0087C38.3768 40.0034 38.7134 40.1018 39.0146 40.2277ZM60.0257 63.2815V65.0061H61.7502H63.4748L63.4304 63.3259L63.386 61.6457L61.7058 61.6013L60.0257 61.5569V63.2815Z" fill="#FF2424"/>
</g>
<defs>
<clipPath id="clip0_2032_4112">
<rect width="80" height="80" fill="white"/>
</clipPath>
</defs>
</svg>
