<svg width="32" height="32" viewBox="0 0 32 32" fill="none" xmlns="http://www.w3.org/2000/svg">
<g clip-path="url(#clip0_2032_3832)">
<path d="M29.3346 10.0469V22.6669C29.3347 23.6872 28.9449 24.6689 28.2449 25.4112C27.545 26.1536 26.5878 26.6004 25.5693 26.6602L25.3346 26.6669H6.66797C5.64769 26.6669 4.66595 26.2771 3.92362 25.5772C3.18129 24.8772 2.73449 23.9201 2.67464 22.9015L2.66797 22.6669V10.0469L15.2613 18.4429L15.416 18.5309C15.5982 18.6199 15.7984 18.6662 16.0013 18.6662C16.2042 18.6662 16.4044 18.6199 16.5866 18.5309L16.7413 18.4429L29.3346 10.0469Z" fill="black"/>
<path d="M25.3351 5.33331C26.7751 5.33331 28.0377 6.09331 28.7417 7.23598L16.0017 15.7293L3.26172 7.23598C3.59603 6.693 4.05534 6.23785 4.60133 5.90849C5.14732 5.57913 5.76416 5.38512 6.40039 5.34265L6.66839 5.33331H25.3351Z" fill="black"/>
</g>
<defs>
<clipPath id="clip0_2032_3832">
<rect width="32" height="32" fill="white"/>
</clipPath>
</defs>
</svg>
