<svg width="274" height="360" viewBox="0 0 274 360" fill="none" xmlns="http://www.w3.org/2000/svg">
<path d="M219.052 0V0.987654C218.231 4.44444 217.492 8.72428 216.835 13.8272C216.177 18.93 215.603 25.2675 215.11 32.8395C214.781 40.4115 214.453 49.465 214.124 60C213.96 70.3704 213.878 82.5514 213.878 96.5432V248.642C228.826 248.313 240.982 247.819 250.345 247.16C259.873 246.502 267.429 245.514 273.014 244.198H274V279.506H273.014C267.429 278.519 259.873 277.613 250.345 276.79C240.982 275.967 228.826 275.391 213.878 275.062C214.042 287.078 214.288 297.613 214.617 306.667C214.945 315.72 215.438 323.621 216.095 330.37C216.752 336.955 217.492 342.634 218.313 347.407C219.134 352.016 220.038 355.885 221.023 359.012V360H161.887V359.012C162.872 355.885 163.776 352.016 164.597 347.407C165.418 342.634 166.076 336.955 166.568 330.37C167.225 323.621 167.718 315.72 168.047 306.667C168.54 297.613 168.868 287.078 169.032 275.062H0V263.951L213.878 0H219.052ZM169.032 248.642V93.5802L44.3525 248.642H169.032Z" fill="#F5F6F7"/>
</svg>
