<svg width="91" height="80" viewBox="0 0 91 80" fill="none" xmlns="http://www.w3.org/2000/svg">
<path fill-rule="evenodd" clip-rule="evenodd" d="M39.8117 27.5572V30.1308H42.381H44.9503V27.5572V24.9836H42.381H39.8117V27.5572ZM46.0514 27.5572V30.1308H48.6207H51.19V27.5572V24.9836H48.6207H46.0514V27.5572ZM39.8117 33.8993V36.5648H42.381H44.9503V33.8993V31.2338H42.381H39.8117V33.8993ZM46.1738 31.3564C46.1065 31.4237 46.0514 32.6232 46.0514 34.0219V36.5648H48.6207H51.19V33.8993V31.2338H48.7431C47.3972 31.2338 46.241 31.2889 46.1738 31.3564ZM34.9736 40.0543C32.6706 40.4738 29.2688 42.3795 28.1125 43.8983C27.51 44.6895 27.2886 45.6991 27.757 45.5191C29.2624 44.9404 34.6812 44.8985 36.4203 45.452C37.5913 45.8248 39.6122 47.0434 40.0635 47.649C40.3104 47.9802 40.4575 48.6332 40.5759 49.9222C40.6671 50.9169 40.8536 52.1592 40.9901 52.6831C41.2307 53.6058 41.2247 53.6488 40.7971 54.0512C40.5543 54.2797 40.1191 54.9677 39.8299 55.5803C39.1815 56.9538 38.5243 57.6362 37.3342 58.1717C36.8295 58.3989 36.2415 58.7796 36.0275 59.0181C35.5363 59.5653 26.2312 73.1323 26.2312 73.3012C26.2312 73.37 27.7579 74.9538 29.6239 76.821C32.5669 79.7657 33.0503 80.1797 33.2694 79.9442C33.5339 79.66 42.4381 64.8171 42.8974 63.8949C43.0578 63.5728 43.1513 62.8895 43.1355 62.1551C43.1004 60.5368 43.308 59.9799 44.8112 57.6592L46.0913 55.683H46.8648C47.2904 55.683 48.3282 55.4762 49.1713 55.2235C50.0144 54.9707 50.9335 54.7639 51.2137 54.7639C52.4339 54.7639 53.2616 55.6488 53.449 57.1537C53.5319 57.8202 53.6879 58.0974 54.2521 58.5807C55.3691 59.5376 56.6202 60.292 57.5593 60.5751C58.382 60.8231 58.475 60.8142 59.2602 60.4115C59.9399 60.0628 60.3354 59.6197 61.4382 57.9721C63.1185 55.4613 63.6654 54.3312 63.6676 53.364C63.67 52.3493 63.2796 51.8952 61.1543 50.4417L59.3952 49.2384L58.4301 49.5194C56.4174 50.1057 55.5484 49.759 54.2812 47.865C53.5301 46.7423 53.277 46.5421 49.9019 44.4002C46.2076 42.0556 44.3698 41.2015 41.2878 40.3969C39.7189 39.9873 36.3459 39.8042 34.9736 40.0543Z" fill="black"/>
<path fill-rule="evenodd" clip-rule="evenodd" d="M43.9409 0.247927C43.0659 0.646468 0.607499 43.3207 0.269271 44.1419C-0.0902462 45.0145 -0.0896949 46.1324 0.270556 47.003C0.46674 47.4775 4.01566 51.1577 11.8762 59.0379C18.1038 65.2811 23.262 70.3894 23.3387 70.3894C23.4156 70.3894 23.4784 65.0537 23.4784 58.5324V46.6754H20.0774C16.159 46.6754 15.6487 46.5532 15.1471 45.4945C14.5677 44.2717 14.8239 43.8308 18.1458 40.3333C18.8181 39.6256 24.9631 33.029 31.8016 25.6744C38.64 18.3196 44.3906 12.2189 44.5807 12.117C45.1542 11.8095 46.1502 11.9038 46.6719 12.315C46.9395 12.5259 52.1742 18.0867 58.3044 24.6724C64.4347 31.258 70.8425 38.1377 72.5439 39.9605C74.2453 41.7832 75.7664 43.5406 75.924 43.8656C76.329 44.7005 75.987 45.8202 75.1754 46.3158C74.6478 46.6381 74.234 46.6741 71.0561 46.6747L67.5234 46.6754V58.5324C67.5234 65.0537 67.5861 70.3894 67.663 70.3894C67.7397 70.3894 72.9335 65.2397 79.2046 58.946C88.3974 49.72 90.6503 47.3651 90.8314 46.7927C91.1694 45.7245 90.9845 44.2516 90.408 43.422C90.1408 43.0376 80.4436 33.234 68.8587 21.6362C53.9777 6.73893 47.5947 0.466132 47.1126 0.266126C46.2764 -0.080943 44.6833 -0.0901343 43.9409 0.247927Z" fill="#FF2424"/>
</svg>
