<svg width="32" height="32" viewBox="0 0 32 32" fill="none" xmlns="http://www.w3.org/2000/svg">
<path d="M16.0013 2.66699C23.3651 2.66699 29.3347 8.63653 29.3347 16.0003C29.3347 23.3641 23.3651 29.3337 16.0013 29.3337C13.5561 29.3337 11.2647 28.6755 9.29448 27.5266L2.67354 29.3337L4.47616 22.709C3.32658 20.7385 2.66797 18.4463 2.66797 16.0003C2.66797 8.63653 8.6375 2.66699 16.0013 2.66699ZM11.1898 9.74477C11.0172 9.75689 10.8481 9.79902 10.6941 9.87781C10.5786 9.93691 10.4713 10.0223 10.3028 10.1815C10.1436 10.3317 10.0514 10.463 9.95425 10.5895C9.46132 11.2313 9.19638 12.0191 9.2013 12.8283C9.20398 13.4825 9.3739 14.1182 9.64225 14.7118C10.1864 15.9155 11.0838 17.1881 12.2692 18.3682C12.554 18.6517 12.833 18.9382 13.1338 19.203C14.6051 20.4985 16.3584 21.4326 18.2543 21.9313C18.2543 21.9313 19.0009 22.0459 19.0119 22.0466C19.2592 22.0599 19.5061 22.0421 19.7537 22.0294C20.1421 22.0094 20.5213 21.9043 20.8645 21.7215C21.0852 21.6041 21.1896 21.5457 21.3748 21.4289C21.3748 21.4289 21.4316 21.3905 21.5412 21.3089C21.7212 21.1747 21.8324 21.0803 21.9821 20.9249C22.0925 20.8102 22.1875 20.6747 22.2608 20.5221C22.3651 20.3045 22.47 19.8891 22.5117 19.5442C22.5436 19.2807 22.534 19.1367 22.5305 19.0475C22.5248 18.9041 22.4063 18.7565 22.2764 18.6938L21.5011 18.3453C21.5011 18.3453 20.3417 17.8407 19.6327 17.5173C19.5588 17.4835 19.478 17.4679 19.3968 17.463C19.2189 17.4521 19.0196 17.4985 18.8928 17.6321C18.8861 17.6294 18.7979 17.7057 17.8332 18.8743C17.78 18.9379 17.6553 19.0762 17.4397 19.0633C17.4072 19.061 17.3748 19.0563 17.3432 19.0481C17.2559 19.025 17.1708 18.9946 17.0876 18.9594C16.9227 18.8894 16.8648 18.8629 16.7521 18.8143C15.9824 18.4781 15.276 18.0282 14.6516 17.4777C14.4841 17.3302 14.3284 17.1714 14.1679 17.0158C13.6076 16.4727 13.1489 15.8951 12.8077 15.3254C12.7891 15.2943 12.7604 15.2494 12.7294 15.1991C12.6736 15.1083 12.612 15.0003 12.5927 14.9262C12.5432 14.7301 12.6746 14.5725 12.6746 14.5725C12.6746 14.5725 12.9992 14.2177 13.15 14.0247C13.295 13.839 13.4203 13.6574 13.5 13.5279C13.6571 13.2754 13.7068 13.0145 13.6243 12.8132C13.2502 11.9012 12.8642 10.9941 12.4665 10.0922C12.388 9.91426 12.1545 9.78494 11.9421 9.76042C11.8702 9.75211 11.7983 9.74376 11.7261 9.73902C11.5474 9.7303 11.3683 9.73222 11.1898 9.74477Z" fill="white"/>
</svg>
