<svg width="72" height="72" viewBox="0 0 72 72" fill="none" xmlns="http://www.w3.org/2000/svg">
<path fill-rule="evenodd" clip-rule="evenodd" d="M6.48189 0.282372C3.38439 1.09726 0.917058 3.61606 0.204974 6.69008C0.00233769 7.5647 -0.0219293 11.3295 0.0136208 36.4413L0.0542717 65.1912L0.40019 66.1091C1.41507 68.8017 3.50897 70.8485 6.07585 71.6572L7.1643 72H35.5271H63.89L64.9784 71.6572C67.5838 70.8365 69.8371 68.5866 70.7039 65.9408C70.9915 65.0626 71 64.1971 71 36.0216C71 7.84618 70.9915 6.98069 70.7039 6.10251C69.8527 3.50433 67.645 1.26934 65.0603 0.389146L64.0445 0.0432896L35.8363 0.0120311C8.31875 -0.0182991 7.59987 -0.0117998 6.48189 0.282372ZM63.89 2.65215C65.7479 3.14903 67.2053 4.36843 68.0334 6.11845L68.5269 7.16159V36.0216V64.8817L68.0334 65.9248C67.472 67.1114 66.3575 68.3171 65.3412 68.8372C63.7921 69.6301 65.0611 69.5976 35.5047 69.5996C8.43777 69.6014 7.87283 69.5954 6.90355 69.2957C5.06205 68.7262 3.80466 67.6125 2.95655 65.7993L2.52733 64.8817V36.0216V7.16159L3.00694 6.14847C3.83526 4.39829 4.92511 3.42495 6.75563 2.80024L7.78256 2.44989L35.4499 2.44773C58.046 2.44587 63.2587 2.48347 63.89 2.65215ZM11.9736 14.607C10.941 14.9298 9.70073 16.1744 9.34584 17.2443C9.11724 17.9334 9.09004 18.6807 9.12899 23.1971C9.1735 28.3447 9.17489 28.3642 9.55605 29.1112C10.0057 29.9924 10.7391 30.6781 11.7161 31.1308C12.3871 31.4416 12.6587 31.4566 17.5975 31.4566C22.2328 31.4566 22.8518 31.4271 23.5038 31.1753C24.3661 30.8422 25.6615 29.5073 25.9703 28.6336C26.1257 28.1941 26.1759 26.7867 26.1759 22.8683V17.6843L25.743 16.8016C25.2816 15.8609 24.7463 15.3247 23.7208 14.7754C23.1053 14.4458 22.9161 14.4335 17.9066 14.4029C13.6338 14.3766 12.5967 14.4123 11.9736 14.607ZM31.7333 14.7372C31.494 14.9766 31.3539 15.2938 31.3539 15.5952C31.3539 15.8967 31.494 16.2139 31.7333 16.4533L32.1126 16.8332H39.0821H46.0517L46.431 16.4533C46.6703 16.2139 46.8104 15.8967 46.8104 15.5952C46.8104 15.2938 46.6703 14.9766 46.431 14.7372L46.0517 14.3573H39.0821H32.1126L31.7333 14.7372ZM22.8234 17.1467C23.726 17.6976 23.7811 18.032 23.7715 22.902C23.7619 27.6491 23.6971 28.1075 22.9574 28.6567C22.5362 28.9694 22.3512 28.9807 17.6748 28.9807C12.9962 28.9807 12.8135 28.9696 12.3922 28.6564C11.5911 28.0608 11.5742 27.9418 11.5717 22.8921C11.5697 18.7491 11.6003 18.1439 11.832 17.7513C12.3466 16.8793 12.594 16.8405 17.6748 16.8374C22.0564 16.8346 22.3399 16.8516 22.8234 17.1467ZM18.4983 21.4304L16.5132 23.3969L15.6719 22.5653C14.6663 21.5709 14.0739 21.4601 13.4771 22.1547C12.8475 22.8875 12.9786 23.2322 14.4675 24.761C15.9572 26.2905 16.3018 26.4995 16.9406 26.2612C17.512 26.0481 21.7465 21.8369 22.0175 21.2122C22.2733 20.6224 22.1199 20.0821 21.5916 19.7116C20.868 19.2042 20.5894 19.3589 18.4983 21.4304ZM32.1819 21.7826C31.7596 21.9546 31.3539 22.5312 31.3539 22.9593C31.3539 23.1415 31.4981 23.4743 31.6743 23.6985L31.9945 24.1062H46.6559H61.3172L61.6375 23.6985C62.0749 23.1419 62.0457 22.5405 61.5591 22.0828L61.1602 21.7077L46.8367 21.6775C38.954 21.6609 32.3641 21.7081 32.1819 21.7826ZM31.7333 29.438C31.1438 30.028 31.3189 31.0179 32.0737 31.3623C32.3411 31.4842 36.5782 31.534 46.6709 31.534C58.8491 31.534 60.9542 31.5015 61.3285 31.3076C62.0707 30.9234 62.1877 30.0478 61.5784 29.438L61.1991 29.0581H46.6559H32.1126L31.7333 29.438ZM12.0844 40.7907C10.6898 41.2819 9.74509 42.2232 9.27675 43.5885C9.15387 43.9469 9.09637 45.7021 9.09637 49.0932C9.09637 54.9306 9.12837 55.1075 10.4171 56.3978C11.6854 57.6676 11.9473 57.7109 18.0119 57.6552L23.0846 57.6087L23.9075 57.1523C24.7894 56.6632 25.4762 55.9082 25.9076 54.9529C26.1451 54.4271 26.1759 53.7648 26.1759 49.175C26.1759 45.2566 26.1257 43.8491 25.9703 43.4097C25.6878 42.6106 24.3814 41.2219 23.5866 40.8755C22.9996 40.6199 22.398 40.5854 17.9066 40.5495C13.3833 40.5134 12.8038 40.5376 12.0844 40.7907ZM32.0494 40.6962C31.2671 41.1453 31.126 41.9975 31.7333 42.6053L32.1126 42.9852H39.0821H46.0517L46.431 42.6053C47.0403 41.9954 46.9233 41.1199 46.1811 40.7357C45.8166 40.547 44.6294 40.51 39.0512 40.5139C34.3082 40.5173 32.2684 40.5704 32.0494 40.6962ZM22.6138 43.2043C23.676 43.6487 23.6974 43.7558 23.7498 48.8819C23.8024 54.0108 23.7534 54.329 22.8234 54.8966C22.3405 55.1914 22.053 55.209 17.6981 55.2095C12.5787 55.2101 12.3032 55.1644 11.8113 54.2347C11.5784 53.7943 11.5549 53.2108 11.5982 48.9202C11.6441 44.3564 11.6631 44.082 11.9558 43.7538C12.5903 43.0423 12.9228 42.9977 17.6411 42.9912C21.14 42.9864 22.2017 43.0319 22.6138 43.2043ZM20.5342 45.7887C20.3217 45.8714 19.3313 46.7523 18.3331 47.7466L16.5185 49.5541L15.7007 48.7456C15.0156 48.0683 14.7915 47.9371 14.3193 47.9371C13.8946 47.9371 13.6769 48.0375 13.4355 48.3448C12.8437 49.098 12.984 49.4136 14.6518 51.0833C16.6726 53.1065 16.4803 53.1438 19.5068 50.1389C20.7695 48.8853 21.8992 47.6367 22.0175 47.3642C22.4566 46.3518 21.5533 45.3923 20.5342 45.7887ZM31.6743 48.3448C31.2529 48.881 31.2693 49.3689 31.7268 49.9014L32.0999 50.3356H46.6301H61.1602L61.559 49.9605C62.0457 49.5028 62.0749 48.9014 61.6375 48.3448L61.3172 47.9371H46.6559H31.9945L31.6743 48.3448ZM31.7333 55.59C31.494 55.8294 31.3539 56.1466 31.3539 56.4481C31.3539 56.7495 31.494 57.0667 31.7333 57.3061L32.1126 57.686H46.6559H61.1991L61.5784 57.3061C61.8177 57.0667 61.9579 56.7495 61.9579 56.4481C61.9579 56.1466 61.8177 55.8294 61.5784 55.59L61.1991 55.2101H46.6559H32.1126L31.7333 55.59Z" fill="#FF2424"/>
</svg>
