<svg width="72" height="72" viewBox="0 0 72 72" fill="none" xmlns="http://www.w3.org/2000/svg">
<path fill-rule="evenodd" clip-rule="evenodd" d="M35.7821 0.214985C35.6062 0.338144 35.0125 1.3046 34.4628 2.36249C33.9129 3.42039 33.3585 4.31466 33.2304 4.34994C33.1024 4.38506 32.1066 4.56543 31.0176 4.75054C28.6849 5.14699 28.3291 5.34396 28.3291 6.23794C28.3291 6.79282 28.4343 6.93954 29.9423 8.48726L31.5557 10.1432L31.28 11.9957C30.9057 14.5126 30.9148 14.8914 31.3607 15.3371C31.5607 15.5371 31.8774 15.7019 32.0646 15.7031C32.2517 15.7045 33.3219 15.2581 34.4426 14.7113L36.4804 13.7173L38.5183 14.7113C39.6392 15.2581 40.7092 15.7045 40.8962 15.7031C41.0834 15.7019 41.4001 15.5371 41.6002 15.3371C42.046 14.8914 42.0552 14.5126 41.6808 11.9957L41.4052 10.1432L43.0186 8.48726C44.3773 7.09264 44.6318 6.75799 44.6318 6.36569C44.6318 5.80814 44.4262 5.38545 44.0596 5.18923C43.9115 5.11009 42.9627 4.90764 41.951 4.73957C40.9392 4.57151 39.9757 4.40359 39.8097 4.36654C39.6003 4.31985 39.2171 3.74229 38.5572 2.47913C38.0342 1.478 37.4561 0.508581 37.2724 0.324954C36.8855 -0.0620124 36.2449 -0.10929 35.7821 0.214985ZM19.3595 3.7543C19.2045 3.86767 18.608 4.85132 18.034 5.94034L16.9903 7.92007L14.8419 8.30941C13.6601 8.52342 12.5748 8.7481 12.4298 8.80842C12.0759 8.95604 11.8782 9.35738 11.8782 9.92827C11.8782 10.3281 12.1233 10.6509 13.4891 12.05L15.0999 13.7001L14.8268 15.5527C14.4555 18.0704 14.4641 18.5365 14.8889 18.9356C15.0775 19.1129 15.4052 19.2578 15.617 19.2578C15.8289 19.2578 16.9091 18.8279 18.0175 18.3025L20.0327 17.3472L21.9949 18.3024C24.1405 19.3469 24.6866 19.4516 25.191 18.9149C25.5908 18.4891 25.5962 18.0117 25.2283 15.5527L24.9513 13.7001L26.566 12.0556C27.9129 10.6838 28.1809 10.3354 28.1809 9.95569C28.1809 8.89438 27.9987 8.79256 25.2172 8.29889L23.0685 7.91756L22.0109 5.91811C20.9612 3.93348 20.6313 3.55511 19.9467 3.55022C19.7789 3.54903 19.5147 3.64077 19.3595 3.7543ZM52.3584 3.73547C52.1357 3.85167 51.621 4.64961 50.9498 5.91929L49.8919 7.92007L47.9658 8.25754C46.9064 8.44324 45.888 8.62835 45.7026 8.66896C45.1499 8.7899 44.78 9.27127 44.78 9.86958C44.78 10.359 44.9353 10.5691 46.3948 12.0556L48.0095 13.7001L47.7325 15.5527C47.3568 18.0639 47.365 18.5356 47.7906 18.9356C47.9821 19.1154 48.326 19.2578 48.5687 19.2577C48.8081 19.2577 49.8869 18.8278 50.966 18.3024L52.9282 17.3472L54.9434 18.3025C56.0518 18.8279 57.1414 19.2578 57.3646 19.2578C57.9573 19.2578 58.4158 18.7018 58.4111 17.9886C58.409 17.6677 58.285 16.5759 58.1356 15.5623L57.8639 13.7194L59.4733 12.0549C60.7932 10.6896 61.0827 10.3102 61.0827 9.94531C61.0827 8.89305 60.8838 8.78219 58.128 8.29681L55.9885 7.92007L54.9296 5.93559C54.3473 4.8442 53.7466 3.86056 53.595 3.74955C53.2541 3.50042 52.8181 3.49538 52.3584 3.73547ZM37.2035 5.17871C37.5511 5.83111 37.9475 6.42349 38.0843 6.49522C38.2211 6.5668 38.8332 6.70434 39.4446 6.80067C40.0559 6.89701 40.6492 7.00653 40.7629 7.04403C40.9007 7.08938 40.6161 7.47679 39.9107 8.20433C39.3282 8.80501 38.8532 9.38687 38.855 9.49743C38.8566 9.60814 38.9458 10.2822 39.0531 10.9954C39.1604 11.7087 39.2242 12.2922 39.1948 12.2922C39.1655 12.2922 38.611 12.0254 37.9625 11.6993C37.3139 11.3733 36.647 11.1065 36.4804 11.1065C36.3139 11.1065 35.6469 11.3733 34.9984 11.6993C34.3498 12.0254 33.7954 12.2922 33.766 12.2922C33.7367 12.2922 33.8004 11.7087 33.9077 10.9954C34.015 10.2822 34.1042 9.60874 34.1059 9.49892C34.1077 9.38909 33.6756 8.85022 33.1458 8.30141C32.616 7.7526 32.1825 7.23699 32.1825 7.15578C32.1825 7.07456 32.7311 6.92398 33.4017 6.82142C34.0724 6.71872 34.7363 6.57303 34.8771 6.49759C35.0181 6.4223 35.4105 5.82785 35.7493 5.17663C36.0881 4.52541 36.4117 3.99261 36.4684 3.99261C36.5252 3.99261 36.856 4.5263 37.2035 5.17871ZM20.6787 8.67089C20.995 9.28698 21.4024 9.8884 21.5839 10.0074C21.8337 10.171 23.9932 10.6603 24.4717 10.6617C24.5103 10.6617 24.1027 11.112 23.5659 11.6623C23.0291 12.2126 22.5461 12.7882 22.4926 12.9416C22.4389 13.095 22.4733 13.7794 22.5689 14.4626C22.6645 15.1459 22.7087 15.7388 22.6672 15.7803C22.6257 15.8218 22.0145 15.5789 21.3089 15.2404L20.0261 14.6248L18.6185 15.3053C17.31 15.938 17.2159 15.9628 17.2809 15.6581C17.3195 15.4778 17.4211 14.8443 17.5068 14.2503C17.6947 12.948 17.6538 12.8475 16.4231 11.5882C15.9251 11.0788 15.5493 10.6617 15.5877 10.6617C15.948 10.6607 18.1605 10.1968 18.3892 10.0744C18.5519 9.9874 18.9709 9.3845 19.3202 8.73491C19.6696 8.08533 19.9888 7.55312 20.0296 7.55223C20.0703 7.55149 20.3624 8.05494 20.6787 8.67089ZM53.6406 8.73491C53.99 9.3845 54.4089 9.9874 54.5717 10.0744C54.8003 10.1968 57.0129 10.6607 57.3732 10.6617C57.4116 10.6617 57.0357 11.0788 56.5378 11.5882C55.2764 12.8788 55.2645 12.9125 55.5005 14.5064C55.6097 15.2449 55.6497 15.8491 55.5892 15.8491C55.5288 15.8491 54.906 15.574 54.2053 15.2378L52.9313 14.6266L51.6502 15.2412C50.9457 15.5792 50.3352 15.8218 50.2937 15.7803C50.2522 15.7388 50.2964 15.1459 50.392 14.4626C50.4875 13.7794 50.5219 13.095 50.4683 12.9416C50.4148 12.7882 49.9318 12.2126 49.395 11.6623C48.8582 11.112 48.4506 10.6617 48.4891 10.6617C48.9677 10.6603 51.1272 10.171 51.3769 10.0074C51.5585 9.8884 51.9659 9.28698 52.2822 8.67089C52.5984 8.05494 52.8906 7.55149 52.9313 7.55223C52.9721 7.55312 53.2913 8.08533 53.6406 8.73491ZM8.51438 17.2571C8.33979 17.3793 7.72844 18.3671 7.15577 19.4521L6.11462 21.4248L3.86381 21.81C1.34698 22.2406 0.999878 22.4228 0.999878 23.312C0.999878 23.7483 1.21196 24.0413 2.58391 25.5013C3.45521 26.4284 4.16882 27.3 4.16971 27.4381C4.17075 27.5762 4.03796 28.5977 3.87493 29.7077C3.56518 31.8155 3.59571 32.1224 4.1586 32.5546C4.60751 32.8992 5.21649 32.7394 7.17489 31.7635L9.14351 30.7822L11.1016 31.7635C13.2638 32.8469 13.7678 32.9434 14.3303 32.3808C14.7706 31.9406 14.7731 31.8159 14.3943 29.2388L14.0945 27.1987L15.5638 25.7107C17.5428 23.7064 17.7232 23.2951 16.9543 22.5399C16.5967 22.1885 16.2816 22.0958 14.3802 21.7831L12.2139 21.4267L11.2214 19.5304C9.96828 17.136 9.38568 16.6467 8.51438 17.2571ZM63.206 17.2105C63.0104 17.3051 62.4625 18.1651 61.8104 19.4015L60.7367 21.4365L58.5755 21.7886C56.678 22.0978 56.3644 22.1895 56.0066 22.5405C55.2386 23.2938 55.3871 23.6584 57.2314 25.5456L58.8637 27.2162L58.5652 29.2475C58.1879 31.8152 58.1906 31.9409 58.6306 32.3808C59.1907 32.941 59.6923 32.8452 61.863 31.7635L63.8316 30.7822L65.7897 31.7635C67.7355 32.7384 68.3519 32.9004 68.8023 32.5546C69.3665 32.1214 69.3911 31.83 69.0596 29.5041L68.7417 27.273L70.3513 25.547C71.748 24.0495 71.961 23.7541 71.961 23.3147C71.961 22.4223 71.6158 22.2411 69.0971 21.81L66.8463 21.4248L65.8051 19.4521C64.5474 17.0693 64.1705 16.7441 63.206 17.2105ZM34.4797 17.541C30.3604 18.495 27.3987 21.4239 26.4945 25.4376C25.7616 28.691 26.8073 33.4908 28.9259 36.598C29.2317 37.0463 29.6558 37.5748 29.8688 37.7724C30.0816 37.9701 30.2558 38.1867 30.2558 38.254C30.2558 38.3213 29.486 38.3764 28.5452 38.3764C26.5551 38.3764 25.0062 38.6566 23.4694 39.2944C20.8265 40.3915 18.4635 42.5524 17.2894 44.9461C16.0933 47.3844 16.1211 47.1459 16.0638 55.5018C16.0141 62.769 16.0191 62.9274 16.3136 63.3018C16.4788 63.5119 16.7767 63.715 16.9755 63.7529C17.5035 63.8538 18.2312 63.4949 18.4005 63.0498C18.4901 62.8137 18.5475 59.9447 18.5475 55.6912C18.5475 47.946 18.5663 47.7586 19.5302 45.9198C20.2185 44.6072 21.2917 43.4358 22.6209 42.5468C24.6963 41.1587 26.3606 40.7608 30.1254 40.7529L32.5885 40.7477L32.6647 41.4242C32.716 41.8784 32.8907 42.287 33.1966 42.6677L33.6524 43.2348L32.4869 51.1334C31.755 56.0934 31.3657 59.1459 31.4404 59.338C31.599 59.7463 35.6491 63.5445 36.1145 63.7215C36.3425 63.8082 36.6184 63.8082 36.8464 63.7215C37.382 63.5178 41.3336 59.7448 41.4873 59.2904C41.5807 59.014 41.2866 56.6531 40.4614 51.0533C39.3307 43.3809 39.3107 43.1967 39.5796 42.9019C40.012 42.4275 40.3338 41.6942 40.3338 41.1827V40.7136L43.335 40.7863C46.7375 40.8685 47.3936 40.9972 49.3744 41.9706C51.1394 42.8379 52.664 44.3616 53.5009 46.0946C53.8326 46.7812 54.1487 47.6264 54.2034 47.9728L54.3031 48.6027H53.6486C52.8597 48.6027 51.8095 49.1042 51.3883 49.6819C51.1754 49.9742 51.071 50.3925 51.03 51.1194L50.972 52.1446L47.516 52.1891C43.7185 52.2382 43.6904 52.2447 42.9366 53.254C42.6377 53.6543 42.6301 53.8438 42.5904 61.9624C42.5502 70.1486 42.5539 70.2691 42.8597 70.8069C43.0303 71.1069 43.3486 71.4857 43.5674 71.6487C43.9558 71.9383 44.2279 71.946 55.5249 71.9843C66.5697 72.0215 67.1081 72.0109 67.6037 71.7465C67.889 71.5942 68.2723 71.2099 68.4555 70.8923L68.7885 70.3149L68.7519 61.9891C68.716 53.8404 68.7088 53.6544 68.4097 53.254C67.6559 52.2447 67.6277 52.2382 63.8303 52.1891L60.3742 52.1446L60.3163 51.1194C60.2752 50.3925 60.1709 49.9742 59.9579 49.6819C59.5089 49.0658 58.4907 48.6027 57.5853 48.6027H56.8183L56.7175 47.9301C56.2393 44.7413 53.5744 41.2914 50.3377 39.6712C48.621 38.8119 47.2242 38.4889 44.8911 38.4119C43.6887 38.3723 42.7051 38.293 42.7051 38.2358C42.7051 38.1784 42.8813 37.9701 43.0967 37.7724C44.2387 36.7245 45.5741 34.0635 46.2091 31.5699C47.6129 26.0586 45.9164 21.3484 41.589 18.7425C39.6424 17.5704 36.5842 17.0536 34.4797 17.541ZM38.4928 20.0922C40.3299 20.5538 42.387 22.1619 43.2706 23.8273C44.0625 25.3201 44.2343 26.1955 44.1461 28.2894C44.0262 31.1342 43.3213 33.3401 41.8917 35.3434C40.32 37.546 38.0344 38.5741 35.5055 38.2161C33.2718 37.8997 31.4435 36.4157 30.2175 33.924C29.2675 31.9931 28.9104 30.5586 28.8148 28.2894C28.7266 26.1951 28.8984 25.3201 29.6908 23.8262C30.576 22.1576 32.5619 20.5847 34.4106 20.0879C35.4998 19.7952 37.3178 19.7972 38.4928 20.0922ZM10.0055 22.4782C10.2027 22.8671 10.488 23.2962 10.6395 23.4318C10.791 23.5674 11.5357 23.7918 12.2944 23.9303L13.6739 24.1826L12.6278 25.2614C11.4745 26.4509 11.4757 26.4466 11.7432 28.1704C11.832 28.7426 11.8745 29.2409 11.8376 29.2778C11.8007 29.3147 11.2147 29.0761 10.5353 28.7475C9.85609 28.4191 9.22651 28.1502 9.1364 28.1502C9.04629 28.1502 8.41671 28.4191 7.73748 28.7475C7.0581 29.0761 6.4795 29.3219 6.45164 29.2942C6.42378 29.2664 6.46587 28.8475 6.54516 28.3633C6.84706 26.5198 6.80141 26.3461 5.70972 25.1889C5.16996 24.6167 4.7532 24.1485 4.78343 24.1485C5.12594 24.1472 7.34429 23.6821 7.56096 23.5662C7.71866 23.4817 8.13541 22.8508 8.48711 22.164L9.12647 20.9152L9.38672 21.3431C9.52989 21.5785 9.80836 22.0893 10.0055 22.4782ZM65.3076 23.5C65.4322 23.5915 65.9498 23.7442 66.4578 23.839C66.9659 23.934 67.5674 24.0483 67.7946 24.0932L68.2078 24.1747L67.2388 25.2019C66.3204 26.1755 66.2699 26.2665 66.2699 26.9471C66.2699 27.342 66.3369 28.0185 66.4188 28.4503C66.5006 28.8822 66.5432 29.2601 66.5131 29.2902C66.4831 29.3202 65.9028 29.0761 65.2234 28.7475C64.5442 28.4191 63.9146 28.1502 63.8245 28.1502C63.7344 28.1502 63.1048 28.4191 62.4256 28.7475C61.7462 29.0761 61.1602 29.3147 61.1233 29.2778C61.0864 29.2409 61.1289 28.7426 61.2177 28.1704C61.4852 26.4466 61.4864 26.4509 60.333 25.2614L59.287 24.1826L60.6665 23.9303C61.4252 23.7918 62.1665 23.5702 62.3138 23.4383C62.461 23.3062 62.8548 22.673 63.1888 22.0311L63.796 20.864L64.4385 22.0987C64.7918 22.7779 65.1829 23.4085 65.3076 23.5ZM37.8874 40.8943C37.9372 40.9748 37.7077 41.3057 37.3774 41.6294C37.0244 41.9755 36.7761 42.3578 36.7752 42.5573C36.7743 42.7441 37.2856 46.3853 37.9115 50.6492L39.0496 58.4019L37.8797 59.5787C37.2361 60.226 36.6066 60.7556 36.4804 60.7556C36.3543 60.7556 35.7234 60.2247 35.0784 59.5759L33.9056 58.3961L35.0467 50.6464C35.6742 46.3842 36.1868 42.7441 36.186 42.5573C36.1848 42.3581 35.9362 41.9752 35.5835 41.6294C35.2531 41.3057 35.0237 40.9748 35.0735 40.8943C35.1233 40.8137 35.7564 40.7477 36.4804 40.7477C37.2044 40.7477 37.8376 40.8137 37.8874 40.8943ZM24.1679 50.2215L23.7347 50.6547V56.7967C23.7347 62.691 23.7466 62.9538 24.0277 63.3112C24.6054 64.0457 25.7792 63.8523 26.0861 62.9721C26.2001 62.6449 26.2542 60.6606 26.2542 56.8013C26.2542 50.5923 26.2111 50.23 25.4366 49.9356C24.8384 49.7081 24.6357 49.7538 24.1679 50.2215ZM54.4134 51.6409C54.4134 52.1349 54.3886 52.1596 53.8947 52.1596C53.4007 52.1596 53.3759 52.1349 53.3759 51.6409C53.3759 51.1469 53.4007 51.1222 53.8947 51.1222C54.3886 51.1222 54.4134 51.1469 54.4134 51.6409ZM57.9703 51.6409C57.9703 52.1349 57.9456 52.1596 57.4516 52.1596C56.9576 52.1596 56.9329 52.1349 56.9329 51.6409C56.9329 51.1469 56.9576 51.1222 57.4516 51.1222C57.9456 51.1222 57.9703 51.1469 57.9703 51.6409ZM66.4181 56.8862V59.0931L64.7508 59.3983C63.1377 59.6934 61.497 59.9044 59.4153 60.0845L58.4149 60.171V59.5667C58.4149 58.7929 58.0819 58.1531 57.5306 57.8681C56.9203 57.5525 54.4165 57.5574 53.8016 57.8753C53.2903 58.1397 52.9313 58.8679 52.9313 59.6403V60.1648L51.8568 60.0772C50.1166 59.9355 47.3054 59.5671 46.2165 59.3381C45.6603 59.221 45.1763 59.1253 45.1409 59.1253C45.1054 59.1253 45.0764 58.1249 45.0764 56.9022V54.6791H55.7472H66.4181V56.8862ZM55.8954 61.4348C55.8954 62.505 55.8498 62.8401 55.7102 62.7937C55.5842 62.7521 55.5113 62.2971 55.4822 61.3734C55.4465 60.2311 55.476 60.0145 55.6675 60.0145C55.8568 60.0145 55.8954 60.2558 55.8954 61.4348ZM46.4102 61.8699C48.1208 62.1752 51.2069 62.534 52.1215 62.534H52.8698L53.0435 63.1833C53.3777 64.433 54.3793 65.2018 55.6731 65.2018C56.967 65.2018 57.9686 64.433 58.3028 63.1833L58.4765 62.534H59.3023C60.276 62.534 63.3367 62.173 64.9894 61.8631C65.6302 61.7431 66.2137 61.6448 66.2862 61.6448C66.36 61.6448 66.4181 63.4088 66.4181 65.6464V69.6479H55.7472H45.0764V65.6464C45.0764 63.4455 45.0931 61.645 45.1134 61.645C45.1338 61.6451 45.7174 61.7463 46.4102 61.8699Z" fill="#FF2424"/>
</svg>
