<svg width="72" height="72" viewBox="0 0 72 72" fill="none" xmlns="http://www.w3.org/2000/svg">
<path fill-rule="evenodd" clip-rule="evenodd" d="M34.6026 0.175951C34.2492 0.28937 33.7048 0.557861 33.3925 0.772597C33.0803 0.987334 25.7033 7.19021 16.9991 14.557C6.20724 23.6904 1.04828 28.1443 0.780493 28.5585C-0.806108 31.0126 0.110035 34.2239 2.7692 35.5291C3.45684 35.8665 3.73631 35.9204 4.7986 35.9204H6.03054V52.6032V69.2858L6.3952 70.0172C6.59583 70.4195 6.98977 70.9381 7.27079 71.1696C8.37658 72.0806 6.07911 72.0216 38.9119 71.9811L68.754 71.9444L69.458 71.5715C70.41 71.067 71.1816 70.2728 71.6244 69.3411C71.9317 68.6945 71.9921 68.3704 71.9916 67.371C71.9909 66.3476 71.934 66.059 71.5972 65.3724C71.3651 64.8989 70.9078 64.3041 70.4817 63.9212C69.9946 63.4834 69.6593 63.0258 69.4515 62.5147C68.8747 61.0962 67.8903 60.235 66.255 59.7182C66.0229 59.6449 66.0086 58.9521 66.0086 47.7803V35.9204H67.2405C68.3008 35.9204 68.5828 35.8663 69.2644 35.5318C70.2018 35.0716 71.2593 33.9924 71.6804 33.0662C72.1069 32.1282 72.1065 30.2834 71.6795 29.3442C71.1813 28.2483 70.8195 27.8857 67.149 24.8037L63.6299 21.8486L63.6211 14.1091L63.6123 6.36954L63.2796 5.66594C62.8796 4.82037 62.354 4.30323 61.5032 3.91836C60.9261 3.65719 60.5839 3.63143 57.662 3.62862C54.2132 3.62524 53.9257 3.67295 52.9607 4.40862C52.7065 4.60225 52.323 5.05945 52.1083 5.42447C51.7259 6.07473 51.7166 6.14354 51.6476 8.85702L51.5772 11.6259L45.178 6.21503C41.1436 2.80373 38.4991 0.66734 38.0219 0.434028C37.0889 -0.0221812 35.5755 -0.136445 34.6026 0.175951ZM36.9517 2.58773C37.2169 2.71339 44.5442 8.82606 53.2347 16.1714C69.7399 30.1217 69.6692 30.0572 69.6692 31.1489C69.6692 32.8958 67.7864 34.1194 66.2847 33.3484C66.0167 33.2108 59.3979 27.6857 51.5762 21.0707C43.7546 14.4555 37.1783 8.9641 36.9623 8.86729C36.4197 8.62427 35.5279 8.64721 35.0047 8.91753C34.7641 9.04192 28.1944 14.5342 20.4056 21.1223C12.6167 27.7105 6.02421 33.2127 5.75543 33.3496C4.80705 33.8329 3.74645 33.5883 2.97307 32.7078C2.24418 31.8783 2.18632 30.7327 2.82819 29.8442C3.22903 29.2894 34.372 2.9505 35.0285 2.61108C35.6343 2.29785 36.3231 2.28954 36.9517 2.58773ZM60.8759 6.3632L61.2216 6.70853V13.1997C61.2216 16.7699 61.1701 19.6698 61.107 19.6439C61.0439 19.6182 59.4283 18.2726 57.5167 16.6537L54.0411 13.7104V10.2095V6.70853L54.3868 6.3632C54.7313 6.01873 54.741 6.01774 57.6314 6.01774C60.5217 6.01774 60.5314 6.01873 60.8759 6.3632ZM49.8662 22.7632L63.6042 34.3725L63.6097 46.4176L63.6151 58.4627L62.8766 58.0972C61.8495 57.589 60.2086 57.5152 59.1097 57.9281C58.0742 58.317 56.9681 59.3063 56.5005 60.2615C56.1955 60.8845 56.0312 61.057 55.6117 61.1949C55.3181 61.2914 54.7604 61.7075 54.3134 62.1636C53.8824 62.6032 53.1904 63.1475 52.7757 63.3728C50.9228 64.3798 49.9895 66.8899 50.7201 68.9015C50.843 69.24 50.9437 69.5409 50.9437 69.5699C50.9437 69.5989 49.7399 69.6225 48.2686 69.6225H45.5935L45.5873 55.4451C45.5825 44.2757 45.5428 41.1605 45.4005 40.7626C45.1179 39.9724 44.534 39.3091 43.7286 38.863L42.9888 38.4534H36.0196C29.4092 38.4534 29.022 38.4674 28.5008 38.7259C27.8497 39.0487 27.1113 39.7568 26.7648 40.3905C26.5322 40.8159 26.5136 41.7837 26.4783 55.234L26.4404 69.6225H17.918C8.91005 69.6225 8.75292 69.6118 8.51146 68.9829C8.46345 68.8577 8.42657 61.0191 8.42952 51.5638L8.43501 34.3725L22.1921 22.7367C29.7585 16.3369 35.9894 11.1127 36.0386 11.1274C36.0877 11.142 42.3102 16.3781 49.8662 22.7632ZM12.1161 38.6812C11.7232 38.8755 11.3929 39.1854 11.1657 39.5729L10.8175 40.1668L10.8198 47.4014C10.8222 54.6285 10.8224 54.6366 11.1373 55.1989C11.3448 55.5698 11.6664 55.8697 12.0799 56.0784C12.6933 56.3878 12.8135 56.395 17.3988 56.395C21.0425 56.395 22.1926 56.3521 22.5497 56.203C23.1357 55.9583 23.7187 55.2673 23.9051 54.5965C24.1404 53.75 24.0893 40.7029 23.8481 40.0272C23.5979 39.326 23.2639 38.9645 22.5738 38.6477C22.064 38.4137 21.5709 38.3889 17.3644 38.3862C12.9129 38.3833 12.693 38.3957 12.1161 38.6812ZM49.4653 38.6477C48.7752 38.9645 48.4412 39.326 48.191 40.0272C47.9498 40.7029 47.8987 53.75 48.134 54.5965C48.3204 55.2673 48.9034 55.9583 49.4894 56.203C49.8465 56.3521 50.9966 56.395 54.6403 56.395C59.2256 56.395 59.3458 56.3878 59.9592 56.0784C60.3727 55.8697 60.6943 55.5698 60.9018 55.1989C61.2167 54.6366 61.2169 54.6285 61.2193 47.4014L61.2216 40.1668L60.8716 39.5698C60.6383 39.1719 60.3184 38.8747 59.9119 38.678C59.3304 38.3967 59.0888 38.3831 54.6654 38.3861C50.4681 38.3889 49.9751 38.4137 49.4653 38.6477ZM21.6586 47.389V54.0028H17.4348H13.211V47.389V40.7752H17.4348H21.6586V47.389ZM42.5405 40.9389C43.2161 41.2985 43.1909 40.7322 43.1955 55.5858L43.2 69.6225H36.0196H28.8391L28.8436 55.5858C28.8482 40.808 28.8264 41.3156 29.4727 40.9452C29.8746 40.7149 42.1084 40.7089 42.5405 40.9389ZM58.8281 47.389V54.0028H54.6043H50.3805V47.389V40.7752H54.6043H58.8281V47.389ZM31.8661 56.5572C31.142 56.9922 31.0076 57.8715 31.5782 58.4417C31.8843 58.7478 32.0455 58.7872 32.9925 58.7872C33.9395 58.7872 34.1007 58.7478 34.4068 58.4417C34.8313 58.0176 34.8673 57.2715 34.4862 56.8011C34.2579 56.5195 34.0713 56.4663 33.1838 56.4303C32.5529 56.4045 32.0376 56.4542 31.8661 56.5572ZM62.1714 60.428C62.3819 60.585 62.7499 60.9925 62.9892 61.3335C63.5793 62.1744 63.9807 62.3569 64.7739 62.1449C65.5874 61.9273 66.0888 62.0709 66.7203 62.702C67.1358 63.1171 67.2601 63.3687 67.3412 63.9578C67.4479 64.7335 67.7067 65.0476 68.6727 65.5742C69.2705 65.8999 69.7288 66.9216 69.6248 67.6962C69.5361 68.3569 69.1956 68.8629 68.5386 69.3097L68.0675 69.6301L61.135 69.5911C54.3381 69.5529 54.1946 69.5464 53.8049 69.2559C53.1917 68.799 52.887 68.1669 52.8932 67.3645C52.9024 66.1939 53.3694 65.6579 54.8581 65.1098C55.1586 64.9991 55.4147 64.759 55.5822 64.431C55.9479 63.7152 56.2671 63.4696 57.0647 63.291C57.9556 63.0914 58.0588 62.9972 58.3493 62.1184C58.6751 61.1323 58.9034 60.814 59.5853 60.3957C60.069 60.099 60.3007 60.0483 60.977 60.0911C61.5097 60.1246 61.9201 60.2404 62.1714 60.428Z" fill="#FF2424"/>
</svg>
