<svg width="72" height="72" viewBox="0 0 72 72" fill="none" xmlns="http://www.w3.org/2000/svg">
<path fill-rule="evenodd" clip-rule="evenodd" d="M36.8907 0.176034C36.4191 0.538102 36.3405 0.951353 36.3405 3.06921C36.3405 5.13138 36.3484 5.18608 36.7046 5.60931C36.953 5.90473 37.1947 6.04196 37.4664 6.04196C38.5605 6.04196 38.7309 5.63434 38.7309 3.01887C38.7309 0.416757 38.5543 -0.0125227 37.489 0.000272729C37.2828 0.00266308 37.0135 0.081826 36.8907 0.176034ZM20.587 4.46813C20.1556 4.6003 19.7487 5.11198 19.7487 5.52241C19.7487 5.94663 21.522 9.22142 22.023 9.72241C22.2785 9.97789 22.8948 10.0579 23.3279 9.8917C23.5713 9.79834 23.9669 9.1334 23.9669 8.81801C23.9669 8.57546 22.0579 5.22854 21.6899 4.82584C21.4018 4.51073 20.9385 4.36042 20.587 4.46813ZM53.9515 4.46433C53.557 4.52732 53.2043 4.99724 52.0833 6.95395C51.5813 7.83009 51.1983 8.66742 51.1983 8.88845C51.1983 9.77134 52.3793 10.3121 53.0424 9.73295C53.1973 9.59755 53.7738 8.70791 54.3235 7.75571C55.3193 6.03072 55.4856 5.48389 55.1851 4.92258C55.0244 4.62223 54.4046 4.39206 53.9515 4.46433ZM36.3277 9.7757C35.4148 10.0569 34.5066 10.92 33.6444 12.3259C32.8713 13.5866 32.3346 14.0553 31.6629 14.0561C31.449 14.0564 30.5632 13.6948 29.6944 13.2524C28.1899 12.4862 28.0648 12.448 27.0603 12.4471C25.4876 12.4457 24.3757 13.1066 23.6227 14.49C23.2661 15.1453 23.2089 15.4292 23.1122 17.0227C22.9489 19.7137 22.8547 19.8173 20.4145 19.9928C19.4683 20.0608 18.4025 20.2104 18.046 20.3253C16.538 20.8113 15.5128 22.2926 15.5128 23.9858C15.5128 24.8742 15.5743 25.071 16.3192 26.5677C17.5007 28.9417 17.4383 29.26 15.5554 30.4637C14.8843 30.8927 14.1218 31.4419 13.8611 31.6843C13.1504 32.3446 12.7212 33.3616 12.7196 34.3889C12.7168 36.1552 13.2406 36.9418 15.3386 38.3213C17.5369 39.7668 17.5831 39.9677 16.289 42.4443C15.6879 43.5942 15.5984 43.8778 15.553 44.776C15.5131 45.5686 15.5634 45.9388 15.7769 46.4212C16.1429 47.2487 16.8502 48.0343 17.5509 48.3919L18.1217 48.6831L17.2831 49.3977C16.8217 49.7907 15.978 50.5734 15.4081 51.137C14.1855 52.3459 13.8931 52.4153 13.5111 51.5874C13.3562 51.2514 13.0167 50.866 12.6783 50.6419C12.1113 50.2663 12.0851 50.2632 9.21381 50.2184C5.52395 50.1609 4.9303 50.3278 4.27773 51.607C4.01029 52.1312 4.00045 52.4704 4.00045 61.1222C4.00045 71.1894 3.94055 70.5955 5.04742 71.492L5.5726 71.9173L8.75866 71.9587L11.9449 72L12.5925 71.5879C13.0363 71.3055 13.3401 70.9693 13.5578 70.5195C13.8586 69.8983 13.899 69.8684 14.3162 69.9592C14.5586 70.0119 15.2316 70.2517 15.8116 70.4918L16.8662 70.9287L24.2813 70.9707C31.6147 71.0124 31.7044 71.0094 32.4026 70.7091C33.1822 70.3737 33.839 69.714 34.1614 68.9422C34.4271 68.3062 34.4329 67.0622 34.1729 66.4402C33.9934 66.0102 33.9981 65.9416 34.2225 65.7385C34.3594 65.6147 34.6455 65.1934 34.8584 64.8024C35.3679 63.866 35.3987 62.7526 34.9412 61.8074C34.6559 61.218 34.6441 61.1218 34.8314 60.9081C35.1362 60.56 35.4966 59.8085 35.499 59.5156C35.5035 58.998 35.6781 58.9093 36.2747 59.1218C37.0813 59.409 38.2662 59.3779 38.9872 59.0507C40.046 58.5703 40.4262 58.2023 41.3677 56.747C42.3883 55.1692 42.5328 55.0234 43.2083 54.89C43.6037 54.8118 43.9375 54.9284 45.3097 55.6237C46.8983 56.4287 46.9706 56.4503 48.0737 56.4503C49.0505 56.4503 49.295 56.3982 49.8508 56.0714C50.7399 55.5487 51.4502 54.7196 51.7081 53.9033C51.8275 53.5255 51.9671 52.5231 52.0183 51.6758C52.1167 50.0474 52.3037 49.4725 52.8284 49.1859C53.0016 49.0913 53.9342 48.9679 54.9009 48.9118C56.8726 48.7974 57.4277 48.6225 58.2896 47.8438C59.1433 47.0725 59.5874 46.1033 59.6005 44.9835C59.6105 44.1375 59.5454 43.9275 58.8028 42.4066C57.5918 39.9262 57.6573 39.6503 59.7778 38.2985C61.8396 36.9843 62.3933 36.1586 62.3847 34.4117C62.3767 32.757 61.7202 31.8326 59.6113 30.5068C58.9927 30.1178 58.3772 29.6584 58.2435 29.4859C57.8108 28.9271 57.9349 28.2613 58.8028 26.4836C59.5305 24.9935 59.6104 24.741 59.6014 23.9594C59.5836 22.4217 58.6409 20.9977 57.2262 20.372C56.8402 20.2012 56.0484 20.0788 54.7862 19.995C53.0388 19.8789 52.8939 19.847 52.5494 19.5025C52.1429 19.0961 51.9761 18.3101 51.9584 16.7187C51.9377 14.8622 51.2187 13.5719 49.7881 12.8242C49.1908 12.5122 48.883 12.4468 48.0111 12.4474C47.0063 12.448 46.882 12.4859 45.3771 13.2524C44.5082 13.6948 43.6351 14.0567 43.4367 14.0567C42.7488 14.0567 42.29 13.6645 41.485 12.3888C40.4946 10.8192 39.6998 10.0689 38.7187 9.77753C37.8234 9.51163 37.1864 9.51107 36.3277 9.7757ZM38.4764 12.2196C38.6666 12.3692 39.1506 13.027 39.5519 13.6814C40.7581 15.6484 41.7319 16.33 43.3782 16.36C44.2297 16.3755 44.4243 16.3157 45.9551 15.5682C47.6379 14.7467 48.139 14.6318 48.7759 14.922C49.4342 15.2219 49.5742 15.6363 49.6884 17.6206C49.8064 19.6733 50.0051 20.2597 50.8792 21.1338C51.7326 21.9872 52.4384 22.2255 54.4444 22.3381C56.387 22.4471 56.7547 22.5665 57.079 23.1935C57.4192 23.8517 57.338 24.2327 56.5019 25.8998C55.5832 27.7318 55.421 28.6193 55.7983 29.7547C56.1313 30.7574 56.7532 31.425 58.2725 32.4109C59.0116 32.8907 59.7023 33.3865 59.8071 33.5126C59.9117 33.6389 60.0281 34.0139 60.0655 34.3461C60.1551 35.1406 59.7957 35.5706 58.2476 36.5207C56.2738 37.732 55.6802 38.6181 55.6817 40.3506C55.6826 41.3551 55.7208 41.4801 56.487 42.9846C56.9294 43.8534 57.291 44.7393 57.2907 44.9531C57.29 45.4592 56.8146 46.2314 56.4125 46.3799C56.2384 46.4442 55.3472 46.5381 54.4319 46.5887C52.3815 46.7019 51.6471 46.9788 50.7502 47.9762C49.965 48.8496 49.7009 49.6974 49.6905 51.3788C49.6812 52.8648 49.4968 53.5006 48.9594 53.8991C48.3306 54.3654 47.7678 54.2648 46.0198 53.3744C44.5501 52.6258 44.3527 52.5625 43.4929 52.5642C41.7935 52.5675 40.9227 53.1418 39.6523 55.0968C38.608 56.7041 38.3617 56.9439 37.7317 56.9671C36.9889 56.9943 36.6393 56.8236 36.202 56.22C35.847 55.73 35.8161 55.6102 35.9467 55.2352C36.2947 54.2371 35.7718 52.6664 34.8331 51.8901C33.9408 51.1522 33.2746 51.0369 29.9009 51.0369H26.887L26.9705 50.6502C27.6267 47.6126 27.3442 44.1251 26.267 41.9677C25.1195 39.6693 22.7383 39.0092 21.2762 40.5841C20.5708 41.3441 20.4104 41.8559 20.3756 43.4579C20.3568 44.3277 20.2473 45.2789 20.1124 45.7428C19.8974 46.4823 19.8519 46.5374 19.4565 46.5374C18.5647 46.5374 17.7801 45.7923 17.7801 44.9453C17.7801 44.7578 18.1362 43.9228 18.5713 43.0892C19.2097 41.8666 19.3758 41.4082 19.4307 40.7162C19.5746 38.9041 18.9783 37.9481 16.7912 36.4838C15.9827 35.9425 15.2426 35.3414 15.1467 35.148C14.6776 34.2032 15.0921 33.4867 16.6688 32.518C18.788 31.2153 19.3886 30.3541 19.3938 28.6097C19.397 27.5141 19.3761 27.4438 18.5886 25.9079C17.7212 24.2161 17.6655 23.9723 17.9911 23.2865C18.3343 22.5632 18.662 22.4458 20.6199 22.3447C22.1618 22.265 22.5105 22.2009 23.1795 21.8736C24.7032 21.1281 25.2252 20.1469 25.392 17.7152C25.5294 15.7125 25.6441 15.3313 26.2092 14.9975C26.859 14.6135 27.3641 14.7128 29.1163 15.5682C30.6402 16.3123 30.8455 16.3757 31.6933 16.3642C33.3506 16.3414 34.2069 15.7354 35.581 13.6126C36.0645 12.8657 36.5755 12.1874 36.7167 12.1053C37.1431 11.8573 38.0944 11.9191 38.4764 12.2196ZM7.94313 16.9822C7.49037 17.435 7.42048 17.7716 7.66683 18.3124C7.8589 18.7339 11.4082 20.8059 11.9381 20.8059C12.4779 20.8059 12.7946 20.5973 12.9972 20.1082C13.3306 19.3035 13.0439 18.9721 10.9808 17.7787C8.71142 16.4659 8.51175 16.4136 7.94313 16.9822ZM64.4543 17.5863C62.3955 18.7612 62.0252 19.0795 62.0252 19.6737C62.0252 20.2483 62.5541 20.8059 63.0991 20.8059C63.5234 20.8059 66.7982 19.0326 67.2991 18.5316C67.5916 18.2391 67.6335 17.474 67.3755 17.1378C67.1712 16.8717 66.666 16.5876 66.397 16.5876C66.2908 16.5876 65.4167 17.037 64.4543 17.5863ZM34.8664 21.6016C27.9926 23.0744 23.403 29.7633 24.5952 36.5709C25.0889 39.3898 26.1919 41.5656 28.1755 43.6334C30.6023 46.1629 33.9368 47.5616 37.5357 47.5592C40.2133 47.5575 42.484 46.9034 44.5934 45.5264C47.3972 43.6961 49.4461 40.8902 50.2728 37.7493C50.7174 36.0598 50.7849 33.6089 50.4335 31.9126C49.3411 26.6399 45.2699 22.5967 40.0191 21.5701C38.7068 21.3135 36.1379 21.3293 34.8664 21.6016ZM40.2967 24.0253C44.0625 24.9937 47.0423 28.0109 48.0178 31.8437C48.3813 33.2718 48.4082 35.5683 48.0773 36.9334C47.773 38.1886 46.782 40.2178 45.9811 41.2254C44.6539 42.8952 42.4008 44.3634 40.2776 44.9423C39.1225 45.2571 36.203 45.2912 35.0752 45.0028C31.3581 44.0528 28.4469 41.3579 27.2393 37.7493C26.8971 36.7265 26.8625 36.4267 26.858 34.445C26.8532 32.3584 26.8715 32.2135 27.2887 31.0431C28.9299 26.4386 33.2575 23.4546 37.9575 23.6869C38.6536 23.7212 39.7062 23.8736 40.2967 24.0253ZM37.1007 25.653C36.5834 25.8704 36.3405 26.3844 36.3405 27.2614C36.3405 27.9331 36.3353 27.9408 35.7178 28.1766C35.3753 28.3074 34.8203 28.6242 34.4845 28.8805C33.0788 29.9539 32.6033 31.9509 33.4219 33.3435C34.2134 34.6898 35.519 35.4433 37.3781 35.6267C38.8736 35.7742 39.7152 36.3417 39.7152 37.2026C39.7152 38.2137 38.1661 38.999 36.8535 38.6534C35.997 38.4277 35.6506 38.1547 35.3594 37.4754C34.8886 36.377 34.0874 36.114 33.3769 36.8245C32.8807 37.3207 32.8654 37.6682 33.2986 38.5983C33.7045 39.4702 34.7443 40.4122 35.6597 40.7373L36.3405 40.979V41.8005C36.3405 42.5282 36.3893 42.6708 36.768 43.0494C37.1274 43.4087 37.2673 43.4625 37.6464 43.3867C38.3794 43.2401 38.6392 42.8661 38.7035 41.8651L38.76 40.9833L39.554 40.6357C42.8498 39.1928 42.8921 35.2808 39.6281 33.7865C39.2128 33.5964 38.4061 33.3954 37.765 33.3222C36.0746 33.1295 35.3563 32.6451 35.3563 31.6982C35.3563 30.8724 36.3545 30.2267 37.6312 30.2267C38.6216 30.2267 39.34 30.6552 39.7258 31.476C39.8913 31.8281 40.1307 32.1953 40.2576 32.2919C40.8167 32.7172 41.8056 32.3564 42.0316 31.6445C42.164 31.2269 41.8793 30.3448 41.3971 29.6792C40.9445 29.0545 39.9854 28.3693 39.2015 28.1104C38.741 27.9586 38.7309 27.938 38.7309 27.1537C38.7309 26.6726 38.6475 26.2331 38.5222 26.0543C38.213 25.6129 37.6043 25.4411 37.1007 25.653ZM23.8206 42.4537C24.0341 42.6823 24.3601 43.3308 24.545 43.8949C24.8466 44.8156 24.8805 45.1646 24.8774 47.3107C24.8739 49.5764 24.8532 49.7561 24.4814 50.7557C23.8765 52.3819 23.8699 52.5082 24.3626 53.0009L24.7889 53.4272H28.9477C32.9191 53.4272 33.1192 53.4399 33.3877 53.7084C33.7665 54.0872 33.7592 54.8486 33.3734 55.1982C33.1259 55.4225 32.8117 55.4736 31.44 55.5126C30.0103 55.5532 29.762 55.5965 29.4858 55.8536C29.0225 56.2845 29.0497 57.1091 29.54 57.4946C29.8552 57.7427 30.1079 57.7861 31.2336 57.7861C32.451 57.7861 32.5844 57.8137 32.9019 58.1313C33.3419 58.5711 33.3419 59.1102 32.9019 59.55C32.5844 59.8677 32.451 59.8952 31.2336 59.8952C30.1079 59.8952 29.8552 59.9387 29.54 60.1867C29.0342 60.5845 29.0227 61.3957 29.5162 61.8593C29.8112 62.1364 30.0649 62.1981 31.2163 62.2725C32.3273 62.3442 32.6053 62.4085 32.7678 62.6309C33.0442 63.0089 33.0149 63.451 32.6851 63.87C32.4254 64.2003 32.3039 64.2306 31.0556 64.2756C29.8384 64.3196 29.6806 64.3568 29.4382 64.6564C29.0857 65.0919 29.0902 65.8621 29.4472 66.2191C29.7565 66.5285 30.0736 66.6232 30.9833 66.6777C32.0174 66.7397 32.4527 67.7 31.7605 68.3923C31.5657 68.587 30.712 68.613 24.5283 68.613H17.5168L16.4182 68.1833C15.8139 67.9469 14.9874 67.7166 14.5813 67.6715L13.8431 67.5894V61.0707C13.8431 54.8583 13.8552 54.5521 14.0993 54.5521C14.7866 54.5521 15.7578 54.0512 16.5051 53.3114C16.9358 52.885 17.9207 51.974 18.6941 51.2867C20.2727 49.8839 21.2328 48.7971 21.7771 47.7971C22.321 46.7976 22.7015 45.1378 22.7015 43.7637C22.7015 42.0167 23.041 41.6192 23.8206 42.4537ZM11.4187 61.1256L11.3824 69.6676L8.93217 69.7061C7.06601 69.7355 6.45478 69.702 6.36817 69.5655C6.23248 69.3516 6.20857 52.8126 6.34398 52.6774C6.39544 52.6258 7.56658 52.5836 8.94623 52.5836H11.4548L11.4187 61.1256Z" fill="#FF2424"/>
</svg>
