<svg width="52" height="72" viewBox="0 0 52 72" fill="none" xmlns="http://www.w3.org/2000/svg">
<path fill-rule="evenodd" clip-rule="evenodd" d="M24.6647 0.246429C24.2782 0.38188 23.1793 1.01919 22.2227 1.66283C21.266 2.30633 20.2806 2.91776 20.0327 3.02128C19.6666 3.17446 19.1452 3.18149 17.2554 3.05884C14.5383 2.88246 13.9595 2.94378 12.9607 3.5147C12.0198 4.05243 11.5451 4.70324 10.5122 6.87215C10.0544 7.83325 9.55063 8.80125 9.39251 9.02334C9.19643 9.29903 8.38472 9.78766 6.83522 10.563C3.0555 12.4542 2.74698 13.0081 2.99675 17.4541L3.13618 19.9362L1.78374 22.0278C0.135714 24.5762 -0.00385786 24.8959 7.77341e-05 26.1131C0.00387277 27.3062 0.161156 27.6574 1.80216 30.137L3.08924 32.0817L3.08108 33.0205C3.07673 33.5368 3.02177 34.672 2.95908 35.5434C2.71198 38.9788 3.23977 39.7987 6.86867 41.6171C8.35801 42.3634 9.19854 42.8692 9.38449 43.1308C9.53812 43.347 10.0867 44.3783 10.6037 45.4226C11.1208 46.467 11.6906 47.5145 11.8701 47.7502L12.1965 48.1789L8.41592 56.3025C6.33666 60.7704 4.63536 64.5147 4.63536 64.623C4.63536 65.0383 4.96989 65.5244 5.36991 65.6903C5.86959 65.8973 5.62713 66.007 11.5042 62.9134C13.7745 61.7184 15.6635 60.7718 15.7015 60.8101C15.7398 60.8482 16.2923 63.2675 16.9294 66.1861C17.9223 70.734 18.1333 71.5293 18.405 71.7496C18.8445 72.1056 19.4924 72.0787 19.8333 71.6901C19.986 71.5159 21.4157 68.5727 23.0104 65.1496C24.605 61.7265 25.9504 58.9256 26 58.9256C26.0496 58.9256 27.395 61.7263 28.9896 65.1496C30.5843 68.5727 32.014 71.5159 32.1666 71.6901C32.5076 72.0787 33.1555 72.1056 33.595 71.7496C33.8667 71.5293 34.0777 70.734 35.0706 66.1861C35.7077 63.2675 36.263 60.8455 36.3044 60.804C36.3458 60.7625 38.298 61.7415 40.6424 62.9795C46.4246 66.033 46.1275 65.8986 46.6315 65.6897C47.0297 65.5246 47.3646 65.038 47.3646 64.6247C47.3646 64.5172 45.6633 60.7732 43.5838 56.3045L39.803 48.1796L40.1296 47.7506C40.3092 47.5146 40.8792 46.467 41.3963 45.4226C41.9133 44.3783 42.4619 43.347 42.6155 43.1308C42.8015 42.8692 43.642 42.3634 45.1313 41.6171C48.7602 39.7987 49.288 38.9788 49.0409 35.5434C48.9782 34.672 48.9233 33.5368 48.9189 33.0205L48.9108 32.0817L50.1978 30.137C51.8388 27.6574 51.9961 27.3062 51.9999 26.1131C52.0039 24.8959 51.8643 24.5762 50.2163 22.0278L48.8638 19.9362L49.0033 17.4541C49.253 13.0081 48.9445 12.4542 45.1648 10.563C43.574 9.76699 42.8058 9.30212 42.5975 9.00928C42.4339 8.77958 41.9296 7.81145 41.4767 6.85823C40.4522 4.7017 39.9781 4.05116 39.0393 3.5147C38.0405 2.94378 37.4617 2.88246 34.7446 3.05884C32.8548 3.18149 32.3333 3.17446 31.9673 3.02128C31.7194 2.91776 30.734 2.30633 29.7773 1.66283C27.9007 0.400306 26.9915 0 26 0C25.6521 0 25.0512 0.110837 24.6647 0.246429ZM28.4842 3.52975C31.5131 5.53775 31.4343 5.51778 35.4173 5.28907C38.1563 5.13168 38.0426 5.0532 39.661 8.21992C40.4698 9.80257 41.0397 10.745 41.3477 11.0087C41.6034 11.2278 42.793 11.901 43.9913 12.5047C45.1895 13.1084 46.2825 13.7274 46.4201 13.8803C46.8458 14.3532 46.896 14.8874 46.7527 17.4165C46.6481 19.2625 46.6558 20.0216 46.7843 20.511C46.8806 20.8784 47.4622 21.925 48.1252 22.9246C49.5856 25.1263 49.7541 25.453 49.7541 26.0825C49.7541 26.7119 49.5856 27.0387 48.1252 29.2403C47.4622 30.24 46.8806 31.2866 46.7843 31.654C46.6558 32.1433 46.6481 32.9025 46.7527 34.7484C46.896 37.2775 46.8458 37.8118 46.4201 38.2846C46.2825 38.4375 45.2211 39.0379 44.0616 39.6189C42.902 40.1998 41.7176 40.8612 41.4299 41.0886C41.0282 41.4058 40.6282 42.0535 39.7098 43.8727C38.5336 46.2026 38.131 46.7424 37.4403 46.9158C37.2639 46.9601 36.0248 46.926 34.6866 46.8397C31.5916 46.6406 31.4623 46.6763 28.7227 48.4848C25.9369 50.3241 26.0633 50.3242 23.2733 48.4823C20.527 46.6693 20.3797 46.6286 17.2931 46.8368C15.9714 46.926 14.7435 46.9621 14.5644 46.9171C13.8685 46.7423 13.4685 46.2066 12.2902 43.8727C11.3718 42.0535 10.9718 41.4058 10.5701 41.0886C10.2824 40.8612 9.09804 40.1998 7.93845 39.6189C6.77885 39.0379 5.71751 38.4375 5.5799 38.2846C5.15416 37.8118 5.10398 37.2775 5.24734 34.7484C5.35192 32.9025 5.34419 32.1433 5.21572 31.654C5.11944 31.2866 4.53781 30.24 3.87481 29.2403C2.41442 27.0387 2.24589 26.7119 2.24589 26.0825C2.24589 25.453 2.41442 25.1263 3.87481 22.9246C4.53781 21.925 5.11944 20.8784 5.21572 20.511C5.34419 20.0216 5.35192 19.2625 5.24734 17.4165C5.10412 14.8902 5.15444 14.3521 5.57765 13.8841C5.71399 13.7332 6.83212 13.1004 8.06214 12.4778C9.48528 11.7575 10.4755 11.1609 10.7847 10.8375C11.0522 10.5579 11.786 9.31633 12.4157 8.07856C13.9453 5.07218 13.8553 5.13238 16.5827 5.28907C20.5657 5.51778 20.4869 5.53775 23.5158 3.52975C25.1205 2.46583 25.5533 2.24135 26 2.24135C26.4467 2.24135 26.8795 2.46583 28.4842 3.52975ZM23.1322 9.78148C19.5889 10.4217 16.4683 12.1394 13.9121 14.8566C7.17803 22.0146 8.22729 33.4225 16.1661 39.363C21.9345 43.6796 30.0397 43.6813 35.8339 39.367C42.234 34.6016 44.3481 25.9207 40.8361 18.8269C38.8555 14.8262 35.4182 11.8059 31.2591 10.4115C28.7565 9.57246 25.6301 9.32997 23.1322 9.78148ZM29.5139 12.2178C34.0615 13.4031 37.7803 16.7543 39.3627 21.0933C40.0153 22.8827 40.226 24.0649 40.2395 26.0122C40.2567 28.5027 39.8513 30.2414 38.7122 32.5629C37.0234 36.0046 33.5958 38.7955 29.7248 39.8809C28.1351 40.3267 25.5339 40.4807 23.9326 40.2239C20.7967 39.7212 18.0453 38.328 15.8799 36.1464C11.5416 31.7759 10.4914 25.3107 13.2157 19.7468C15.2229 15.6472 19.3522 12.6314 23.9619 11.8985C24.1938 11.8615 25.2691 11.8483 26.3514 11.8689C27.8344 11.8971 28.6135 11.9832 29.5139 12.2178ZM25.4729 14.5093C25.2919 14.5968 24.9687 15.0586 24.7169 15.59C24.475 16.1003 23.7736 17.5939 23.1582 18.909C22.5429 20.2242 22.022 21.3179 22.0007 21.3396C21.9795 21.3612 20.4198 21.5688 18.5345 21.8008C16.6493 22.0327 14.9029 22.3138 14.6537 22.4254C14.1661 22.6439 13.9637 23.1063 14.1065 23.676C14.1547 23.8683 15.335 25.0821 16.8604 26.5087C19.0084 28.5172 19.5171 29.063 19.4642 29.3019C18.8577 32.0425 18.1628 36.2108 18.267 36.4845C18.4158 36.8767 18.9296 37.2646 19.2995 37.2646C19.4453 37.2646 21.0133 36.4665 22.7842 35.4909L26.0039 33.7173L29.2213 35.4909C30.9908 36.4665 32.5571 37.2646 32.7019 37.2646C33.0707 37.2646 33.5843 36.876 33.733 36.4845C33.8372 36.2108 33.1423 32.0425 32.5358 29.3019C32.4829 29.063 32.9916 28.5172 35.1396 26.5087C36.665 25.0821 37.8453 23.8683 37.8935 23.676C38.0363 23.1063 37.8339 22.6439 37.3463 22.4254C37.0971 22.3138 35.3507 22.0327 33.4655 21.8008C31.5802 21.5688 30.0205 21.3612 29.9993 21.3396C29.978 21.3179 29.4571 20.2242 28.8418 18.909C28.2264 17.5939 27.5253 16.101 27.2838 15.5914C26.7362 14.4363 26.2395 14.1394 25.4729 14.5093ZM27.1843 20.6626C27.7908 21.9753 28.3955 23.1476 28.5283 23.2678C28.6938 23.4178 29.6214 23.595 31.4813 23.832C32.9727 24.022 34.2105 24.1949 34.2317 24.2163C34.2531 24.2376 33.3934 25.0699 32.3214 26.0659C31.2494 27.0617 30.3158 28.0427 30.2469 28.2455C30.1571 28.5099 30.2596 29.3426 30.6089 31.1866C30.8769 32.6013 31.0661 33.789 31.0293 33.826C30.9923 33.8628 29.9395 33.3224 28.6897 32.6251C27.3 31.8496 26.2605 31.3571 26.0134 31.3571C25.7677 31.3571 24.7124 31.8533 23.3215 32.6231C22.0633 33.3194 21.0046 33.8598 20.9688 33.8239C20.9331 33.7882 21.1231 32.6013 21.3911 31.1866C21.7404 29.3426 21.8429 28.5099 21.7531 28.2455C21.6842 28.0427 20.7506 27.0617 19.6786 26.0659C18.6066 25.0699 17.7469 24.2376 17.7683 24.2163C17.7895 24.1949 19.0273 24.022 20.5187 23.832C22.3786 23.595 23.3062 23.4178 23.4717 23.2678C23.6045 23.1476 24.2092 21.9753 24.8157 20.6626C25.422 19.35 25.955 18.2761 26 18.2761C26.045 18.2761 26.578 19.35 27.1843 20.6626ZM20.0134 49.1355C20.2719 49.2437 21.2582 49.8515 22.205 50.4862C24.1933 51.8192 24.6197 52.0204 25.7315 52.1498L26.5444 52.2444L23.1013 59.6289C21.2077 63.6903 19.6108 67.0614 19.5527 67.1202C19.4946 67.1791 19.1441 65.8183 18.7737 64.0961C17.6657 58.9451 17.5482 58.4852 17.2692 58.206C16.749 57.6854 16.265 57.856 12.2346 59.9815C10.1137 61.0998 8.35618 61.9927 8.32905 61.9654C8.30179 61.9383 9.60306 59.0752 11.2206 55.6033L14.1617 49.2907L16.4615 49.1371C17.7264 49.0525 18.9373 48.9735 19.1524 48.9612C19.3674 48.949 19.7549 49.0275 20.0134 49.1355ZM36.3114 49.1988L37.838 49.2907L40.7791 55.6033C42.3969 59.0752 43.7002 61.9362 43.6756 61.9609C43.6508 61.9855 41.8933 61.0927 39.7699 59.9766C36.004 57.9971 35.429 57.7743 34.8651 58.0763C34.4891 58.2776 34.389 58.6292 33.4321 63.1118C32.9487 65.3755 32.5055 67.1794 32.4473 67.1205C32.389 67.0615 31.1941 64.5514 29.7921 61.5422L27.2431 56.0713L28.5507 53.2625L29.8584 50.4537L30.676 49.898C31.9727 49.0168 32.2396 48.9371 33.5901 49.0272C34.2472 49.0711 35.4717 49.1483 36.3114 49.1988Z" fill="#FF2424"/>
</svg>
