<svg width="80" height="80" viewBox="0 0 80 80" fill="none" xmlns="http://www.w3.org/2000/svg">
<g clip-path="url(#clip0_2032_4084)">
<path fill-rule="evenodd" clip-rule="evenodd" d="M29.4456 3.11893C24.8921 4.82724 20.8542 6.34388 20.4724 6.48916C19.5691 6.83329 19.0576 7.39127 19.0576 8.03298C19.0576 8.30885 21.0629 13.9046 23.5138 20.4679C27.0706 29.9924 28.0563 32.4802 28.3965 32.7918C28.7416 33.1078 29.4662 33.3301 32.1946 33.9573L35.5662 34.7323L36.1233 36.1833L36.6802 37.6343H31.6305H26.5809L26.3144 36.8142C25.3043 33.7063 22.2526 31.3859 19.1753 31.3859C17.3256 31.3859 17.1831 31.6843 17.1831 35.5591V38.4982L15.2674 40.4094L13.3514 42.3206H7.1324H0.913205L0.456602 42.7773L0 43.2339V47.7735V52.3131L0.429578 52.7911C0.819166 53.2246 0.98428 53.2819 2.20444 53.4066C4.90859 53.6831 6.49194 54.4151 8.27914 56.2149C9.63036 57.5758 10.338 58.7969 10.7824 60.5341C11.2968 62.546 11.2381 63.0008 9.42806 70.9982C8.28164 76.0639 7.79707 78.4869 7.87143 78.7829C7.93079 79.0194 8.16245 79.3826 8.3863 79.59L8.79338 79.9673H14.8603H20.9272L21.3883 79.5377C21.7301 79.2194 22.4786 77.6305 24.2807 73.3982C25.6178 70.2577 26.7119 67.5644 26.7119 67.4128C26.7119 66.9236 26.3901 66.4806 25.0347 65.1044L23.7044 63.7536L24.0445 60.4181C24.2315 58.5835 24.415 56.9343 24.4522 56.7532C24.497 56.5351 24.7537 56.3347 25.2125 56.1595C26.0915 55.8238 27.2588 54.8017 27.6589 54.0174C27.9657 53.4161 27.9749 53.4116 28.899 53.4116C29.7882 53.4116 29.8344 53.4309 29.9232 53.8411C30.964 58.6498 34.0177 62.2075 38.3413 63.6485C39.7508 64.1182 42.0379 64.4542 42.698 64.2885C43.3686 64.1202 43.8952 63.4649 43.894 62.8004C43.8927 62.1051 43.6436 61.7291 42.2506 60.3215C40.4791 58.531 39.5524 56.6753 39.2908 54.3938L39.1794 53.4233L46.4969 53.3785C54.5273 53.3291 54.2844 53.3586 54.7517 52.374C54.8805 52.1025 54.986 51.5219 54.986 51.0839V50.2874L57.212 50.2864C59.8696 50.2855 60.51 50.1429 60.934 49.4577C61.2213 48.9933 61.2392 48.7128 61.1992 45.3146L61.1563 41.6696L60.6461 41.2141L60.1359 40.7585H57.5786H55.0213L54.9594 39.6634C54.9062 38.7228 54.8371 38.5079 54.4699 38.1403L54.0423 37.7124L50.4214 37.6343L46.8004 37.5562L45.6623 34.5882C45.0363 32.9558 44.5232 31.5495 44.5221 31.4629C44.5208 31.3766 45.4323 30.041 46.5475 28.495C48.229 26.164 48.5756 25.5896 48.5782 25.13C48.5803 24.7812 46.9297 20.1502 44.1244 12.6332C40.7149 3.49758 39.5748 0.608004 39.2731 0.339166C39.0063 0.101258 38.6923 -0.00824534 38.3018 0.00034622C37.9586 0.0076881 34.3687 1.2719 29.4456 3.11893ZM38.3513 6.39684C38.9324 7.94598 39.3806 9.23705 39.3473 9.26611C38.9168 9.64179 25.885 17.3331 25.8084 17.2567C25.6274 17.0755 22.6984 9.12864 22.7942 9.07788C22.844 9.05148 26.1183 7.81085 30.0705 6.32123C34.0226 4.83146 37.2649 3.60552 37.2755 3.59662C37.2861 3.58771 37.7702 4.84786 38.3513 6.39684ZM42.863 18.4595C44.1191 21.8318 45.1463 24.6706 45.1458 24.7679C45.1452 24.8654 44.3059 26.109 43.2808 27.5313C41.1317 30.5129 41.0833 30.5933 41.0833 31.1804C41.0833 31.4223 41.6028 32.9757 42.2378 34.6325L43.3924 37.6445L41.7401 37.6004L40.0881 37.5562L39.5166 36.0722C39.2023 35.256 38.7543 34.084 38.5211 33.4678C38.2613 32.7812 37.9539 32.2534 37.7273 32.1048C37.5239 31.9716 35.8641 31.5092 34.0391 31.0774C32.2143 30.6455 30.6919 30.2629 30.6561 30.2272C30.4118 29.983 27.0384 20.649 27.1371 20.4903C27.2473 20.3134 40.246 12.3755 40.4797 12.3424C40.5344 12.3347 41.6069 15.0873 42.863 18.4595ZM22.2467 36.0782C22.9835 36.8937 23.2788 37.5875 23.4404 38.8834C23.5468 39.7366 23.6437 39.9666 24.0484 40.3283L24.53 40.7585H38.1178H51.7056V45.4449V50.1312L39.8726 50.128L28.0397 50.1249L27.5711 49.3278C26.0571 46.752 22.6236 46.2382 20.4148 48.257C19.2976 49.2781 18.8371 50.2988 18.8291 51.7714C18.8216 53.1919 19.3651 54.3593 20.4937 55.3465L21.2854 56.0392L20.853 60.1747C20.6152 62.4493 20.4701 64.5075 20.5307 64.7487C20.5912 64.9897 21.1983 65.7583 21.8799 66.4565C22.5614 67.1548 23.1191 67.7787 23.1191 67.8429C23.1191 67.9071 22.2639 69.9585 21.2185 72.4014L19.3177 76.8431H15.3575H11.3974L11.4824 76.4916C12.2559 73.2932 14.2207 64.3121 14.2974 63.6246C14.5235 61.5976 13.7496 58.4701 12.5024 56.3707C10.7527 53.4256 7.39374 51.0261 4.163 50.4131L3.1242 50.2161V47.8305V45.4449H8.93428H14.7445L17.5649 42.637L20.3854 39.8291L20.4353 37.3282L20.4849 34.8271L21.0707 35.1259C21.3928 35.2903 21.9221 35.7187 22.2467 36.0782ZM77.312 38.0909C76.3059 39.0973 76.9943 40.7585 78.4175 40.7585C78.9264 40.7585 79.1648 40.66 79.523 40.3019C80.5292 39.2956 79.8407 37.6343 78.4175 37.6343C77.9086 37.6343 77.6702 37.7329 77.312 38.0909ZM71.0636 41.2151C70.0717 42.2071 70.7452 43.8828 72.136 43.8828C72.9286 43.8828 73.5309 43.4177 73.6651 42.7018C73.9632 41.1133 72.1828 40.0959 71.0636 41.2151ZM57.954 45.4449V47.007H56.47H54.986V45.4449V43.8828H56.47H57.954V45.4449ZM65.0017 44.1375C64.5415 44.4598 64.1571 45.3633 64.2911 45.8077C64.4954 46.4852 65.1537 47.007 65.804 47.007C66.5726 47.007 66.9498 46.8036 67.2469 46.229C67.5518 45.6393 67.5451 45.208 67.2227 44.6622C66.7691 43.8942 65.7072 43.6433 65.0017 44.1375ZM77.312 44.3394C76.954 44.6975 76.8554 44.9359 76.8554 45.4449C76.8554 45.9538 76.954 46.1922 77.312 46.5504C78.3183 47.5565 79.9796 46.8681 79.9796 45.4449C79.9796 44.9359 79.881 44.6975 79.523 44.3394C79.1648 43.9813 78.9264 43.8828 78.4175 43.8828C77.9086 43.8828 77.6702 43.9813 77.312 44.3394ZM71.4438 47.1619C70.5542 47.5209 70.3258 48.8357 71.0114 49.6505C71.3524 50.0557 71.5258 50.1312 72.1169 50.1312C72.6835 50.1312 72.9056 50.0435 73.2746 49.6746C74.5105 48.4386 73.0948 46.4955 71.4438 47.1619ZM77.7146 50.3125C76.762 50.8363 76.5678 51.9912 77.2953 52.8056C78.2444 53.8677 79.9848 53.1693 79.9762 51.7298C79.9691 50.5546 78.7096 49.7653 77.7146 50.3125ZM24.5819 50.6991C25.4972 51.6147 24.809 53.2554 23.5096 53.2554C23.0871 53.2554 22.8203 53.1368 22.4822 52.7988C21.8838 52.2003 21.8643 51.4404 22.4301 50.768C22.9795 50.1151 23.9661 50.0835 24.5819 50.6991ZM36.1306 54.6222C36.2415 56.1053 36.5738 57.3904 37.1868 58.7069C37.4426 59.2568 37.627 59.7318 37.5962 59.7625C37.489 59.8696 36.2064 58.8502 35.4485 58.0555C34.5991 57.1651 33.745 55.6491 33.3659 54.3595C33.2287 53.8929 33.1166 53.4887 33.1166 53.4612C33.1166 53.4339 33.7744 53.4116 34.5782 53.4116H36.0399L36.1306 54.6222Z" fill="#FF2424"/>
</g>
<defs>
<clipPath id="clip0_2032_4084">
<rect width="80" height="80" fill="white"/>
</clipPath>
</defs>
</svg>
