<svg width="80" height="80" viewBox="0 0 80 80" fill="none" xmlns="http://www.w3.org/2000/svg">
<g clip-path="url(#clip0_2032_4074)">
<path fill-rule="evenodd" clip-rule="evenodd" d="M6.10606 0.227949C3.27844 0.988401 0.896403 3.43001 0.231945 6.24903C-0.224889 8.18674 -0.00475806 10.1564 0.876547 12.0192C1.22035 12.746 2.9792 14.5785 12.2394 23.8584L23.1956 34.8379L22.791 35.2714C22.2303 35.8724 22.0355 36.2986 22.0355 36.9243C22.0355 37.8595 23.167 38.6488 24.0433 38.3245C24.2343 38.2538 25.6538 36.9449 27.1977 35.4156C28.7414 33.8864 30.0714 32.6766 30.153 32.727C30.4283 32.8971 30.9635 34.5827 31.0557 35.5697C31.1725 36.8213 30.8919 38.2463 30.2914 39.4511C29.8874 40.2614 28.4511 41.7703 20.1655 50.0887C14.8552 55.42 10.285 60.1176 10.0095 60.5277C7.61571 64.0928 7.23783 68.9153 9.04906 72.7862C10.3047 75.4691 12.5985 77.75 15.2507 78.9527C17.0645 79.7751 18.7121 80.0739 20.9411 79.9849C24.5439 79.8411 26.728 78.8194 29.9399 75.7757L31.0456 74.7279L32.8334 76.525C35.1491 78.853 36.017 79.3248 37.9825 79.3248C40.467 79.3248 39.6172 80.0481 53.7731 65.8849L66.2024 53.4493V52.7587C66.2024 51.5405 65.0223 50.7694 63.9934 51.3155C63.7466 51.4465 58.1273 56.9801 51.5062 63.6123C44.8851 70.2446 39.2778 75.7719 39.0456 75.8953C38.5049 76.1828 37.4617 76.1833 36.9194 75.8964C36.6872 75.7735 35.7987 74.968 34.9449 74.1067L33.3927 72.5405L33.6598 71.5797C34.4041 68.9027 36.2488 66.9707 38.8909 66.1018C40.5295 65.5627 41.4128 65.0538 42.3617 64.1023C43.4795 62.9813 43.9775 61.9462 44.467 59.726C45.1086 56.8163 46.2621 54.933 48.384 53.3308C49.3735 52.5834 49.9707 52.3005 52.5623 51.3508C53.684 50.9398 55.043 49.8589 55.7196 48.8393C56.0495 48.3423 56.509 47.3297 56.7407 46.5889C57.3382 44.6783 57.897 43.6728 58.9415 42.6283C60.1279 41.442 61.618 40.7308 63.6228 40.3943C66.3905 39.9298 68.2713 38.6419 69.4958 36.3724C69.8596 35.6981 70.5428 34.796 71.1763 34.1536L72.2437 33.0711L74.1188 34.9462C76.8589 37.6862 76.8878 38.1536 74.4725 40.6467C73.2502 41.908 73.0033 42.2456 73.0033 42.6549C73.0033 43.6946 73.6997 44.3822 74.7523 44.3822C75.1532 44.3822 75.4973 44.1255 76.7645 42.8803C77.7543 41.9079 78.4766 41.04 78.8141 40.4179C79.2949 39.5316 79.3352 39.3485 79.3352 38.0503C79.3352 35.6196 79.4619 35.8 73.6629 29.9708C69.1637 25.4478 68.4711 24.8124 67.6261 24.432C66.3759 23.8692 64.7808 23.8448 63.3882 24.3671C62.4833 24.7064 61.797 25.371 43.9506 43.1885C33.7758 53.3467 25.2424 61.9564 24.9876 62.3208C23.9775 63.7659 23.752 65.7249 24.3971 67.4528C24.6913 68.2412 25.0387 68.6816 26.7064 70.3814C28.3498 72.0563 28.6424 72.4254 28.5039 72.6483C28.1606 73.2013 25.646 75.2868 24.7409 75.7691C23.4603 76.4517 22.0607 76.7888 20.4721 76.7972C17.8268 76.8111 15.7923 75.9784 13.9076 74.1102C10.9688 71.1969 10.29 67.0749 12.1271 63.2997C12.6714 62.1812 13.1538 61.6688 22.5768 52.1993C32.0315 42.6979 32.4833 42.2178 33.0951 41.0208C34.1437 38.9689 34.5072 37.0236 34.2257 34.9684C34.0336 33.5654 33.4845 31.9518 32.8948 31.0572C32.6834 30.7367 32.5113 30.4201 32.5122 30.3537C32.5132 30.2874 33.8149 28.9081 35.4049 27.2886C36.9949 25.669 38.3385 24.1741 38.3906 23.9663C38.644 22.9565 37.9015 22.0251 36.8431 22.0251C36.287 22.0251 36.0435 22.1257 35.5462 22.5606L34.9338 23.0961L24.068 12.2715C12.3932 0.641007 12.5596 0.7875 10.3814 0.220132C9.24261 -0.0764508 7.22423 -0.0728549 6.10606 0.227949ZM10.4333 3.65858C11.0015 3.91655 11.7844 4.54786 12.9348 5.67525L14.6092 7.31654L11.0152 10.9179L7.42122 14.5194L5.73459 12.8394C3.94274 11.0545 3.49717 10.3613 3.28204 9.02349C2.6365 5.00985 6.69829 1.96273 10.4333 3.65858ZM24.8116 17.5312L32.6675 25.3884L29.071 28.9824L25.4744 32.5764L17.5798 24.683L9.68506 16.7895L13.2403 13.2318C15.1957 11.275 16.8315 9.67403 16.8756 9.67403C16.9195 9.67403 20.4907 13.2097 24.8116 17.5312ZM66.2313 27.3488C66.4734 27.439 67.4119 28.2487 68.3168 29.1478L69.962 30.7825L68.7858 31.9931C68.1389 32.6589 67.3633 33.6519 67.0623 34.1999C65.9532 36.2189 65.0772 36.8988 63.2105 37.1895C60.4118 37.6252 58.4828 38.5678 56.6603 40.3903C55.2237 41.8269 54.3737 43.297 53.7044 45.5028C53.2238 47.0863 52.5104 47.9418 51.3018 48.3836C48.8627 49.2752 48.1861 49.5892 46.9947 50.3818C43.9966 52.3768 42.087 55.3063 41.2801 59.1486C40.7753 61.5522 40.1361 62.2795 37.8429 63.0595C35.0031 64.0252 32.6414 66.028 31.4089 68.5156L30.7324 69.8806L29.1155 68.2707C27.37 66.533 27.0693 65.9888 27.2633 64.9172C27.3614 64.3751 29.1784 62.5072 45.6929 45.969C55.7693 35.8782 64.2247 27.5264 64.4826 27.4094C65.0534 27.1505 65.6452 27.13 66.2313 27.3488ZM68.9991 46.2552C68.8176 46.3285 68.5185 46.5799 68.3346 46.8136C67.3257 48.0961 68.8652 49.9161 70.3219 49.1628C70.9029 48.8625 71.1585 48.4286 71.1585 47.7435C71.1585 47.067 70.904 46.6252 70.3486 46.338C69.8429 46.0766 69.4942 46.0552 68.9991 46.2552Z" fill="#FF2424"/>
</g>
<defs>
<clipPath id="clip0_2032_4074">
<rect width="80" height="80" fill="white"/>
</clipPath>
</defs>
</svg>
