<svg width="36" height="36" viewBox="0 0 36 36" fill="none" xmlns="http://www.w3.org/2000/svg">
<g clip-path="url(#clip0_2032_2656)">
<path d="M18 3L18.1755 3.0105C18.5103 3.04999 18.8221 3.20112 19.0605 3.43952C19.2989 3.67791 19.45 3.98967 19.4895 4.3245L19.5 4.5V10.5L19.5075 10.725C19.5612 11.4393 19.8686 12.1107 20.3743 12.618C20.8799 13.1253 21.5504 13.435 22.2645 13.491L22.5 13.5H28.5L28.6755 13.5105C29.0103 13.55 29.3221 13.7011 29.5605 13.9395C29.7989 14.1779 29.95 14.4897 29.9895 14.8245L30 15V28.5C30.0001 29.6478 29.5615 30.7523 28.7741 31.5874C27.9866 32.4225 26.9098 32.9252 25.764 32.9925L25.5 33H10.5C9.35218 33.0001 8.24773 32.5615 7.41261 31.7741C6.57749 30.9866 6.07484 29.9098 6.0075 28.764L6 28.5V7.5C5.99994 6.35218 6.43849 5.24773 7.22593 4.41261C8.01336 3.57749 9.09016 3.07484 10.236 3.0075L10.5 3H18ZM22.5 24H13.5C13.1022 24 12.7206 24.158 12.4393 24.4393C12.158 24.7206 12 25.1022 12 25.5C12 25.8978 12.158 26.2794 12.4393 26.5607C12.7206 26.842 13.1022 27 13.5 27H22.5C22.8978 27 23.2794 26.842 23.5607 26.5607C23.842 26.2794 24 25.8978 24 25.5C24 25.1022 23.842 24.7206 23.5607 24.4393C23.2794 24.158 22.8978 24 22.5 24ZM22.5 18H13.5C13.1022 18 12.7206 18.158 12.4393 18.4393C12.158 18.7206 12 19.1022 12 19.5C12 19.8978 12.158 20.2794 12.4393 20.5607C12.7206 20.842 13.1022 21 13.5 21H22.5C22.8978 21 23.2794 20.842 23.5607 20.5607C23.842 20.2794 24 19.8978 24 19.5C24 19.1022 23.842 18.7206 23.5607 18.4393C23.2794 18.158 22.8978 18 22.5 18ZM15 12H13.5C13.1022 12 12.7206 12.158 12.4393 12.4393C12.158 12.7206 12 13.1022 12 13.5C12 13.8978 12.158 14.2794 12.4393 14.5607C12.7206 14.842 13.1022 15 13.5 15H15C15.3978 15 15.7794 14.842 16.0607 14.5607C16.342 14.2794 16.5 13.8978 16.5 13.5C16.5 13.1022 16.342 12.7206 16.0607 12.4393C15.7794 12.158 15.3978 12 15 12Z" fill="#FF2424"/>
<path d="M28.4995 10.5H22.4995L22.498 4.49847L28.4995 10.5Z" fill="#FF2424"/>
</g>
<defs>
<clipPath id="clip0_2032_2656">
<rect width="36" height="36" fill="white"/>
</clipPath>
</defs>
</svg>
