<svg width="80" height="80" viewBox="0 0 80 80" fill="none" xmlns="http://www.w3.org/2000/svg">
<g clip-path="url(#clip0_2032_504)">
<path fill-rule="evenodd" clip-rule="evenodd" d="M19.8871 0.159362C17.9231 0.487552 15.6583 1.69458 14.133 3.22587C12.796 4.56812 12.034 5.82723 11.3888 7.76107C11.0471 8.78533 11.0261 9.07979 11.0261 12.8628V16.8776L10.3814 17.1452C9.40567 17.5503 8.51622 18.4032 8.02758 19.4023C7.43409 20.6156 7.40003 22.4266 7.94976 23.5468C8.74108 25.1597 10.2437 26.1745 12.0309 26.3029L13.0802 26.3782L13.2571 28.4378C13.3609 29.6455 13.5904 31.0379 13.812 31.8041C14.0689 32.6925 14.1337 33.1276 14.0144 33.1629C13.9178 33.1914 13.4907 33.2962 13.0652 33.3958C8.12243 34.5523 4.05083 38.6205 2.7093 43.7426C2.33974 45.154 2.31145 45.5443 2.23629 50.264L2.15628 55.2842L1.48169 55.7226C1.01462 56.026 0.682873 56.4157 0.403473 56.989L0 57.817L0.0439101 67.2182C0.0867264 76.4079 0.0951646 76.6355 0.41738 77.3256C0.881796 78.3201 1.94048 79.3048 2.9551 79.6859C3.76861 79.9914 4.08817 80.0035 10.1509 79.9599L16.4954 79.9141L17.3328 79.4485C17.7933 79.1923 18.4047 78.7076 18.6916 78.3712C19.5844 77.324 19.6988 76.7241 19.6988 73.0863C19.6988 70.0364 19.6802 69.8271 19.3842 69.5582C18.9532 69.1668 18.1971 69.1941 17.7758 69.6163C17.4512 69.942 17.4287 70.1294 17.3548 73.1409C17.2367 77.9528 17.7605 77.6395 9.83055 77.6387C4.28241 77.6383 3.9691 77.6227 3.48499 77.3264C3.20481 77.1549 2.83603 76.7847 2.66523 76.5034C2.36724 76.0128 2.35458 75.6999 2.35411 68.7966L2.35349 61.6012L2.70508 61.6958C2.89854 61.7477 4.12911 61.7913 5.4397 61.7924L7.82272 61.7946V64.4437C7.82272 67.0389 7.83163 67.1097 8.25932 67.9317C8.89016 69.1439 9.85337 69.717 11.2605 69.717C12.6677 69.717 13.6309 69.1439 14.2617 67.9317C14.6894 67.1097 14.6983 67.0389 14.6983 64.4437V61.7946H15.7794C16.3739 61.7946 16.9656 61.7541 17.0938 61.7047C17.2909 61.6288 17.3356 61.8975 17.3801 63.4265C17.4273 65.0431 17.4698 65.2751 17.7758 65.582C18.1971 66.0042 18.9532 66.0314 19.3842 65.64C19.6834 65.3682 19.6988 65.1633 19.6988 61.4503C19.6988 57.9214 19.6702 57.4905 19.4014 56.9643C19.0546 56.2855 18.5869 55.8282 17.8236 55.4219C17.3736 55.1822 16.8405 55.121 14.8155 55.076L12.3544 55.0212V45.54V36.0587L12.745 35.9096C12.9597 35.8276 13.6049 35.6737 14.1787 35.5677L15.222 35.3747L15.5462 35.8251C16.5894 37.275 17.7425 38.5899 18.5098 39.2046L19.3862 39.9068L19.3886 42.6537C19.3912 45.8316 19.5727 46.8474 20.4374 48.5222C21.8788 51.3147 25.1603 53.3177 28.2933 53.3177C31.4503 53.3177 34.724 51.2908 36.1497 48.4534C36.9729 46.8149 37.1944 45.5684 37.1976 42.5542L37.2003 40.0213L38.802 38.397C39.6829 37.5035 40.5795 36.4744 40.7944 36.11C41.2446 35.3465 41.3827 35.3198 42.9903 35.6869L44.0759 35.9347V52.3739V68.8131L43.5145 68.9045C42.7922 69.0222 42.0015 69.631 41.6758 70.3202C41.3236 71.0654 41.2939 77.7275 41.6399 78.3924C41.9359 78.9611 42.6486 79.6212 43.1875 79.8256C43.8003 80.0581 68.885 80.0581 69.4977 79.8256C69.9821 79.6419 70.7231 78.991 71.0045 78.5022C71.1038 78.3296 71.2208 77.659 71.2645 77.0118L71.3439 75.8353L74.0785 75.7543C77.2507 75.6603 77.6004 75.5441 78.824 74.178C79.9833 72.8834 80.0417 72.5188 79.9859 66.9413C79.9402 62.3542 79.9261 62.1634 79.5859 61.5245C79.0329 60.4856 78.351 59.8046 77.3885 59.3301L76.5006 58.8924L69.3677 58.8139C62.5144 58.7386 62.2211 58.7233 61.8845 58.4217C61.3641 57.9555 61.1087 57.2116 61.1087 56.1627C61.1087 55.3483 61.1515 55.2132 61.4385 55.1218C61.9789 54.9495 63.0123 53.9173 63.3173 53.2447C63.5857 52.653 63.6022 51.8245 63.6054 38.6892C63.6082 27.3525 63.5697 24.6673 63.3982 24.2564C62.6933 22.5678 60.7475 21.6128 59.0078 22.1018C58.1468 22.3439 57.1491 23.1791 56.6889 24.0429L56.3426 24.6928L56.2976 38.2628C56.2662 47.7352 56.3043 52.046 56.4242 52.5388C56.6587 53.5028 57.2818 54.363 58.0896 54.8383L58.7647 55.2355V56.2904C58.7647 58.4348 59.6656 60.0095 61.3431 60.7972L62.1244 61.164L68.9278 61.1655C78.352 61.1677 77.6728 60.6924 77.6723 67.2829C77.6721 72.1063 77.6254 72.3563 76.5947 73.0475C76.1006 73.3789 75.8981 73.4036 73.6799 73.4036H71.296L71.2419 71.94C71.1936 70.6371 71.1414 70.4153 70.7667 69.9225C69.983 68.8917 69.7771 68.8542 64.8987 68.8542C60.7211 68.8542 60.5197 68.8678 60.2473 69.17C59.8573 69.6026 59.8846 70.3619 60.3053 70.7847C60.6383 71.1192 60.7649 71.1302 64.7882 71.1755L68.9282 71.2219L68.8861 74.3915L68.8437 77.5609H56.3426H43.8415L43.7992 74.3895L43.757 71.2178L49.8503 71.1735C55.8866 71.1294 55.9468 71.1256 56.2864 70.7847C56.7047 70.3646 56.7353 69.6034 56.351 69.1772C56.1502 68.9546 55.8282 68.8559 55.192 68.8223L54.3112 68.7757L54.2331 62.7022C54.163 57.2564 54.1274 56.6008 53.889 56.3616C53.472 55.9434 52.6845 56.0205 52.2551 56.5218L51.8891 56.949V62.9052V68.8615L49.1935 68.8187L46.498 68.7757L46.4581 53.0486C46.4342 43.6133 46.4755 37.3216 46.5613 37.3216C46.8199 37.3216 48.2169 38.5168 49.0576 39.4575C50.0621 40.5813 51.2945 43.0559 51.6424 44.6473C51.8203 45.4617 51.8891 46.6293 51.8891 48.8352C51.8891 51.8164 51.8983 51.9045 52.2551 52.3209C52.7296 52.8748 53.5278 52.9078 53.9449 52.3907C54.204 52.0696 54.2331 51.7094 54.2331 48.8281C54.2331 45.2933 54.0594 44.0389 53.2967 42.0618C52.547 40.1181 51.6484 38.7719 50.0283 37.1647C48.0194 35.1717 46.1106 34.063 43.5526 33.403C42.821 33.2142 42.4458 33.0419 42.4658 32.9042C42.4826 32.7884 42.6425 32.1642 42.8213 31.517C43.0752 30.5968 43.431 27.783 43.4484 26.5572C43.4499 26.4536 43.8815 26.351 44.5056 26.3059C46.3349 26.1736 47.8894 25.0929 48.6312 23.4378C49.1334 22.3175 49.1201 20.5961 48.6012 19.5158C48.1341 18.5435 47.1779 17.571 46.3027 17.1779L45.6385 16.8796V13.466C45.6385 9.26993 45.4618 8.17304 44.4563 6.12781C43.3008 3.77792 41.2374 1.82447 38.8411 0.812291C37.0318 0.047978 36.1786 -0.0168128 28.1826 0.00279701C24.0751 0.0128372 20.3421 0.0832758 19.8871 0.159362ZM37.5408 2.82504C40.1223 3.83126 41.8937 5.63396 42.8555 8.23312C43.1772 9.10286 43.2029 9.47921 43.2585 14.1559L43.318 19.15L40.6108 19.0962C38.0218 19.0449 37.8683 19.0239 37.0989 18.6179C36.1119 18.0969 35.4198 17.2802 35.0014 16.1429C34.6326 15.1406 34.3636 14.8879 33.6658 14.8879C33.3056 14.8879 33.067 15.0068 32.8363 15.3013C32.5533 15.6623 32.5124 15.9321 32.5124 17.432V19.1495L29.8168 19.0974C27.1654 19.046 27.1077 19.0377 26.2843 18.5799C25.2575 18.0089 24.6356 17.275 24.2192 16.1429C23.8519 15.1449 23.5811 14.8879 22.8965 14.8879C22.0063 14.8879 21.8157 15.2991 21.7555 17.3482L21.7027 19.1492L19.0209 19.0971C16.3783 19.046 16.3266 19.0383 15.4892 18.5746C14.6189 18.0928 13.8429 17.1863 13.4992 16.2502C13.2148 15.4759 13.2337 10.0013 13.5246 8.87993C13.9165 7.3695 14.6538 6.11259 15.853 4.91043C17.0646 3.69588 18.6555 2.79712 20.0894 2.51725C20.5435 2.42861 24.1431 2.3759 28.6839 2.39143L36.4971 2.4181L37.5408 2.82504ZM12.6278 19.3197C12.7133 19.4277 12.8328 20.5313 12.8933 21.7725L13.0035 24.0291L12.1986 23.9514C9.84587 23.7246 9.01923 20.8087 10.9367 19.5006C11.533 19.0938 12.3772 19.0035 12.6278 19.3197ZM46.4311 20.4805C47.222 22.1205 46.0126 23.9869 44.159 23.9869H43.6071V22.7488C43.6071 21.536 43.6157 21.5087 44.0273 21.405C44.7036 21.2346 45.2902 20.7276 45.4804 20.1492C45.7067 19.4609 45.9865 19.5585 46.4311 20.4805ZM24.9624 20.5305C26.1986 21.2953 27.2346 21.4768 30.3625 21.4768C33.4787 21.4768 34.0522 21.3477 34.5083 20.5431C34.8263 19.9819 34.9156 19.9654 35.4306 20.3722C36.2679 21.0335 37.503 21.3621 39.4478 21.4414L41.3049 21.517L41.1966 24.0462C41.0197 28.1755 40.8223 30.1379 40.4678 31.2918C37.9854 39.3704 28.9505 42.8909 21.6796 38.6128C19.5611 37.3663 17.3587 34.7307 16.4463 32.3499C15.8123 30.6958 15.6654 29.7812 15.484 26.3584C15.3989 24.7521 15.292 22.9008 15.2463 22.2446L15.1635 21.0512L15.9858 21.2693C16.5844 21.428 17.6222 21.4752 19.805 21.4428C22.5551 21.402 22.8384 21.3715 23.2428 21.0724C23.4852 20.8929 23.7529 20.593 23.8377 20.4056C24.0346 19.9709 24.0627 19.9741 24.9624 20.5305ZM60.8813 24.6858C61.2321 25.0378 61.2649 25.1923 61.2649 26.4899V27.9088H59.9212H58.5773L58.632 26.4833C58.6831 25.1475 58.7142 25.0339 59.125 24.6792C59.6979 24.1845 60.3847 24.1871 60.8813 24.6858ZM20.9761 25.448C20.7892 25.6477 20.6363 26.004 20.6363 26.2397C20.6363 26.7846 21.2755 27.4382 21.8083 27.4382C22.3174 27.4382 22.9803 26.7887 22.9803 26.2899C22.9803 25.2392 21.6819 24.6939 20.9761 25.448ZM33.946 25.448C33.4887 25.9367 33.5128 26.5743 34.0072 27.0706C34.3319 27.3966 34.5026 27.4544 34.9037 27.3737C35.5222 27.2496 35.7611 27.0149 35.8808 26.4139C36.0988 25.3194 34.7135 24.6279 33.946 25.448ZM61.2649 33.5565V36.8509H59.9367H58.6084V33.5565V30.262H59.9367H61.2649V33.5565ZM23.773 30.8323C23.3381 31.3872 23.3616 31.6336 23.9593 32.7928C25.5232 35.8257 29.5356 36.3351 31.8664 33.7963C33.0063 32.5548 33.3411 31.2477 32.6607 30.6947C32.3135 30.4123 31.7983 30.3427 31.3459 30.5169C31.206 30.5708 30.9224 30.9499 30.7158 31.3594C30.0472 32.6839 29.0168 33.257 27.737 33.016C27.0341 32.8836 26.0212 31.9758 25.7893 31.2701C25.4797 30.3288 24.3582 30.0852 23.773 30.8323ZM10.0104 46.1852V55.0488H7.2758H4.54118L4.54243 51.2445C4.54321 49.1522 4.614 46.8245 4.69994 46.0718C4.89684 44.3467 5.45845 42.5561 6.21414 41.2435C6.78247 40.2566 9.49927 37.3216 9.84446 37.3216C9.95963 37.3216 10.0104 40.0373 10.0104 46.1852ZM61.2649 45.7816V52.3592L60.8532 52.6842C60.2331 53.174 59.503 53.1115 59.013 52.5267L58.6084 52.0441V45.624V39.2041H59.9367H61.2649V45.7816ZM22.4534 41.658C25.8109 43.087 29.9478 43.1636 33.499 41.8624C34.1925 41.6083 34.7817 41.4004 34.8081 41.4004C34.9395 41.4004 34.8335 44.9443 34.6805 45.6677C34.275 47.5846 32.9565 49.327 31.261 50.1862C27.5759 52.0539 23.2545 50.2116 22.0263 46.2494C21.8027 45.5282 21.7302 44.8177 21.7302 43.3474C21.7302 42.2766 21.7568 41.4004 21.7893 41.4004C21.8218 41.4004 22.1205 41.5163 22.4534 41.658ZM34.2397 55.6241C33.2542 55.987 32.1541 57.1441 31.812 58.1778C31.4684 59.2168 31.5532 60.6753 32.0092 61.5639C33.3172 64.1133 36.8511 64.6828 38.8083 62.6595C40.8392 60.5601 40.3084 57.1256 37.7472 55.7946C36.9101 55.3598 35.1857 55.2758 34.2397 55.6241ZM17.0074 57.6463C17.4308 57.9439 17.4833 58.8252 17.0968 59.1478C16.9388 59.2795 16.2746 59.3955 15.3823 59.4468C13.8223 59.5365 13.4123 59.7163 12.7547 60.5995C12.4619 60.9927 12.428 61.292 12.3834 63.8842C12.3378 66.533 12.3109 66.7614 12.0046 67.0893C11.5876 67.5358 10.9941 67.5405 10.5283 67.1012C10.1789 66.7714 10.1665 66.6728 10.1632 64.1597C10.1593 61.2091 9.99275 60.5702 9.05205 59.8965C8.55435 59.5403 8.37105 59.5156 5.66112 59.4414C3.05636 59.3701 2.77618 59.3354 2.57491 59.0585C2.23692 58.5937 2.30942 58.0871 2.76524 57.7272C3.16731 57.4097 3.33482 57.402 9.91853 57.402C15.7673 57.402 16.7062 57.4343 17.0074 57.6463ZM36.8387 58.0217C37.4624 58.4035 37.6866 58.8171 37.6974 59.6059C37.7171 61.0355 36.1305 62.0086 34.8776 61.3354C34.3736 61.0647 33.9191 60.2359 33.9249 59.5983C33.9385 58.0992 35.545 57.2298 36.8387 58.0217ZM26.4962 61.3056C23.2041 62.1743 22.0451 66.1654 24.3987 68.5283C26.0832 70.2195 28.8852 70.1818 30.4783 68.4467C31.3639 67.4823 31.6287 66.8009 31.6317 65.4813C31.6342 64.3045 31.3554 63.5578 30.5594 62.608C29.7445 61.6355 27.7132 60.9847 26.4962 61.3056ZM28.2836 63.8069C28.8249 64.0984 29.3871 64.9328 29.3871 65.4447C29.3871 66.0087 28.9252 66.8154 28.4198 67.1337C27.6832 67.5976 26.6948 67.4786 26.0695 66.851C25.1364 65.9141 25.4263 64.2724 26.6166 63.7529C27.2971 63.4558 27.6531 63.4674 28.2836 63.8069Z" fill="#FF2424"/>
</g>
<defs>
<clipPath id="clip0_2032_504">
<rect width="80" height="80" fill="white"/>
</clipPath>
</defs>
</svg>
