<svg width="62" height="62" viewBox="0 0 62 62" fill="none" xmlns="http://www.w3.org/2000/svg">
<g clip-path="url(#clip0_2296_624)">
<path d="M15.5549 5.95361C13.4612 5.95361 11.7578 7.66641 11.7578 9.77172C11.7578 11.877 13.4612 13.59 15.5549 13.59C17.6486 13.59 19.352 11.877 19.352 9.77172C19.352 7.66641 17.6486 5.95361 15.5549 5.95361ZM15.5549 11.7838C14.4515 11.7838 13.554 10.8813 13.554 9.77172C13.554 8.66229 14.4515 7.75972 15.5549 7.75972C16.6583 7.75972 17.5559 8.66229 17.5559 9.77172C17.5558 10.8813 16.6582 11.7838 15.5549 11.7838Z" fill="#001E64"/>
<path d="M19.3539 26.8719V23.3805C19.3539 22.8816 18.952 22.4773 18.4559 22.4773H9.30823C8.81213 22.4773 8.41016 22.8816 8.41016 23.3805V26.8719C8.41016 27.3708 8.81213 27.7751 9.30823 27.7751H18.456C18.952 27.7751 19.3539 27.3708 19.3539 26.8719ZM17.5578 25.9687H10.2063V24.2837H17.5579V25.9687H17.5578Z" fill="#001E64"/>
<path d="M57.2107 7.49482H51.5101C50.5173 7.49482 49.6515 8.05027 49.2029 8.86803H25.275V8.29561C25.275 7.86861 24.9776 7.50012 24.562 7.41212L22.3736 6.94888C22.3696 6.93925 22.3656 6.92962 22.3616 6.91999L23.5833 5.03671C23.8154 4.67906 23.7664 4.20691 23.4661 3.90511L21.3908 1.81863C21.0905 1.51671 20.621 1.46735 20.2651 1.70077L18.3917 2.92917C18.3822 2.92519 18.3727 2.92122 18.3631 2.91713L17.9024 0.716882C17.8149 0.299032 17.4483 0 17.0236 0H14.0885C13.6638 0 13.2973 0.299032 13.2097 0.716882L12.749 2.91713C12.7394 2.9211 12.7299 2.92507 12.7204 2.92917L10.8471 1.70077C10.4913 1.46747 10.0217 1.51695 9.7214 1.81863L7.64601 3.90499C7.3457 4.20703 7.29684 4.67918 7.52878 5.03671L8.75064 6.92011C8.74669 6.92974 8.74274 6.93925 8.73867 6.94888L6.55013 7.41212C6.1345 7.5 5.83706 7.86861 5.83706 8.29561V8.86803H5.81323C3.4307 8.86803 1.49219 10.8168 1.49219 13.2122V41.298C1.49219 43.6932 3.43058 45.6421 5.81323 45.6421H9.2156C9.64979 48.7881 12.3981 51.1766 15.5557 51.1766C16.4869 51.1766 17.3712 50.9741 18.1701 50.6135L16.1389 58.6038C15.3323 61.7761 20.3597 62.8538 21.1346 59.8076L24.7357 45.6423H27.6595V59.2057C27.6595 60.5276 28.7624 61.6363 30.0772 61.6363C31.3922 61.6363 32.4949 60.5276 32.4949 59.2057V45.6421H35.4189L39.02 59.8072C39.7941 62.8528 44.8225 61.777 44.0156 58.6035L40.7208 45.6421H54.3415C56.7241 45.6421 58.6626 43.6933 58.6626 41.298V21.7894C58.6626 21.2906 58.2606 20.8865 57.7645 20.8865C57.2684 20.8865 56.8664 21.2906 56.8664 21.7894V41.298C56.8664 42.6976 55.7338 43.8364 54.3415 43.8364L21.8954 43.8365C21.4573 40.713 18.782 38.302 15.5559 38.302C12.3981 38.302 9.64991 40.69 9.21572 43.8364H5.81323C4.42098 43.8364 3.28833 42.6976 3.28833 41.298V15.0743H7.38737C7.40473 15.281 7.49143 15.4815 7.64601 15.6369L9.7214 17.7233C10.0216 18.025 10.491 18.0745 10.847 17.8412L12.7202 16.6128C12.7298 16.6167 12.7394 16.6207 12.749 16.6248L13.2097 18.8251C13.2972 19.2429 13.6638 19.5419 14.0885 19.5419H17.0236C17.4483 19.5419 17.8148 19.2429 17.9024 18.8251L18.3631 16.6248C18.3727 16.6208 18.3823 16.6169 18.3919 16.6128L20.2651 17.8412C20.6211 18.0746 21.0907 18.0251 21.3908 17.7233L23.4661 15.6369C23.6207 15.4815 23.7072 15.281 23.7246 15.0743H48.5555L40.1834 23.4911L35.8832 19.1691C35.2138 18.4933 34.1018 18.4936 33.4314 19.1678L30.6398 21.9743C30.2889 22.3269 30.2889 22.8986 30.6396 23.2511C30.9904 23.6035 31.559 23.6038 31.9096 23.2512L34.6567 20.4897L38.9582 24.8132C39.6279 25.486 40.7395 25.488 41.4087 24.813L53.6306 12.5256C53.8875 12.2673 53.9642 11.8791 53.8252 11.5416C53.6863 11.2042 53.3587 10.9842 52.9955 10.9842H51.5099C50.4298 10.9842 50.4309 9.30057 51.5099 9.30057H57.2105C57.6591 9.30057 58.0242 9.66702 58.0242 10.1174V15.8485C58.0242 16.3082 57.6433 16.691 57.1862 16.691C56.7242 16.691 56.3482 16.313 56.3482 15.8485V14.3562C56.3482 13.9911 56.1294 13.6617 55.7938 13.522C55.4581 13.382 55.072 13.4594 54.8151 13.7177L40.184 28.4259L35.882 24.1019C35.2074 23.4239 34.1087 23.4236 33.4313 24.1021L26.0608 31.5132C25.3063 32.2729 24.1117 31.0915 24.8768 30.3218L28.9167 26.2605C29.2674 25.9078 29.2674 25.3362 28.9167 24.9836C28.5659 24.6313 27.9973 24.631 27.6467 24.9836L23.6068 29.0449C22.5603 30.0971 22.6033 31.8524 23.6839 32.8611C24.7069 33.8161 26.3451 33.7832 27.3316 32.7895L34.6568 25.4241L38.9583 29.7474C39.6251 30.4201 40.741 30.4225 41.4087 29.7486L54.6239 16.4639C54.9005 17.6284 55.9444 18.497 57.1863 18.497C58.621 18.497 59.8205 17.2915 59.8205 15.8487V10.1174C59.8206 8.67121 58.6498 7.49482 57.2107 7.49482ZM19.3943 59.3601C19.1952 60.1435 17.6528 59.9407 17.8792 59.0509L20.4694 48.8619C21.2171 47.9629 21.7249 46.8565 21.8953 45.6422H22.8819L19.3943 59.3601ZM30.6989 59.2056C30.6989 60.0096 29.4556 60.0109 29.4556 59.2056V45.6421H30.6989V59.2056ZM42.2755 59.0508C42.5014 59.9386 40.9594 60.1427 40.7604 59.3601L37.273 45.6421H38.8669L42.2755 59.0508ZM14.516 40.2257C14.8556 40.1475 15.2055 40.1077 15.5559 40.1077C18.0961 40.1077 20.1626 42.1846 20.1635 44.7377L20.1633 44.7392L20.1635 44.7408C20.1626 47.2939 18.096 49.3707 15.5559 49.3707C13.0353 49.3707 10.949 47.2711 10.949 44.7391C10.949 42.5682 12.4162 40.7122 14.516 40.2257ZM3.28833 13.2122C3.28833 11.8125 4.42098 10.6738 5.81323 10.6738H5.83706V11.2463C5.83706 11.6733 6.1345 12.0418 6.55013 12.1298L8.73867 12.5931C8.74262 12.6027 8.74657 12.6122 8.75064 12.6218L8.33106 13.2685H3.28833V13.2122ZM20.636 15.9283L18.9582 14.8281C18.349 14.4289 16.8552 15.059 16.7073 15.7659L16.2948 17.7359H14.8173L14.4048 15.7659C14.2551 15.0503 12.7556 14.4336 12.1539 14.8281L10.4761 15.9283L9.43126 14.8779L10.5256 13.1912C10.9225 12.5788 10.296 11.0769 9.59291 10.9283L7.6332 10.5136V9.02826L9.59291 8.61354C10.3048 8.46306 10.9177 6.9555 10.5256 6.35058L9.43126 4.66389L10.4761 3.61342L12.1539 4.71361C12.763 5.1128 14.2569 4.48283 14.4048 3.77594L14.8174 1.80575H16.2949L16.7074 3.77594C16.8571 4.4915 18.3567 5.10798 18.9584 4.71361L20.6361 3.61342L21.6808 4.66389L20.5865 6.35058C20.1893 6.96285 20.8163 8.46499 21.5193 8.61354L23.4789 9.02826V10.5137L21.5193 10.9284C20.8077 11.0787 20.1941 12.5866 20.5865 13.1914L21.6808 14.878L20.636 15.9283ZM50.8986 12.7186L50.3517 13.2684H22.781L22.3616 12.6218C22.3655 12.6122 22.3695 12.6026 22.3736 12.5929L24.562 12.1297C24.9776 12.0418 25.275 11.6732 25.275 11.2462V10.6737H48.9304C49.1311 11.6696 49.9148 12.4847 50.8986 12.7186Z" fill="#001E64"/>
<path d="M52.2976 37.8027H35.277C34.7809 37.8027 34.3789 38.2073 34.3789 38.7067C34.3789 39.206 34.7809 39.6106 35.277 39.6106H52.2976C52.7937 39.6106 53.1957 39.206 53.1957 38.7067C53.1957 38.2073 52.7936 37.8027 52.2976 37.8027Z" fill="#001E64"/>
<path d="M52.2975 33.8413H42.2067C41.7106 33.8413 41.3086 34.2459 41.3086 34.7453C41.3086 35.2446 41.7106 35.6492 42.2067 35.6492H52.2975C52.7936 35.6492 53.1956 35.2446 53.1956 34.7453C53.1956 34.2459 52.7935 33.8413 52.2975 33.8413Z" fill="#001E64"/>
<path d="M9.30823 29.3962C8.81213 29.3962 8.41016 29.8009 8.41016 30.3002C8.41016 30.7995 8.81213 31.2042 9.30823 31.2042H15.5569C16.053 31.2042 16.455 30.7995 16.455 30.3002C16.455 29.8009 16.053 29.3962 15.5569 29.3962H9.30823Z" fill="#001E64"/>
<path d="M15.5543 46.8614C16.0504 46.8614 16.4524 46.4571 16.4524 45.9582V43.5221C16.4524 43.0232 16.0504 42.6189 15.5543 42.6189C15.0582 42.6189 14.6562 43.0232 14.6562 43.5221V45.9582C14.6562 46.457 15.0582 46.8614 15.5543 46.8614Z" fill="#001E64"/>
</g>
<defs>
<clipPath id="clip0_2296_624">
<rect width="61.3083" height="61.6362" fill="white"/>
</clipPath>
</defs>
</svg>
