<svg width="152" height="62" viewBox="0 0 152 62" fill="none" xmlns="http://www.w3.org/2000/svg">
<g clip-path="url(#clip0_4722_11)">
<path d="M27.1374 19.311C24.0043 23.2282 23.5667 28.0865 23.8767 31.8724C25.4049 24.968 32.2109 20.6131 37.2442 18.8113C33.425 20.4661 30.2377 23.3031 28.1514 26.9047C26.532 29.6804 26.1016 32.7405 26.1453 35.3374C27.181 33.6842 28.8007 32.4811 30.6827 31.9673C35.7415 30.4463 42.8283 26.9047 44.8526 13.7305C44.8563 13.7451 33.2103 11.7208 27.1374 19.311Z" fill="#C28565"/>
<path d="M36.7971 48.3583C36.7971 48.3583 30.1444 49.5145 26.6721 45.1778C24.8812 42.9383 24.6296 40.1627 24.8046 37.9961C25.68 41.9426 29.5681 44.4301 32.4641 45.4623C30.2818 44.5158 28.4603 42.8949 27.2666 40.8374C26.4516 39.3649 26.0555 37.6973 26.1213 36.0156C26.7124 36.9612 27.6385 37.6489 28.7146 37.9414C31.607 38.8095 35.6446 40.8374 36.8154 48.3583" fill="#C28565"/>
<path d="M17.7188 19.311C20.8519 23.2282 21.2896 28.0865 20.9796 31.8724C19.4513 24.968 12.6454 20.6131 7.61203 18.8113C11.4306 20.4672 14.6175 23.3039 16.7049 26.9047C18.3243 29.6804 18.751 32.7405 18.7109 35.3374C17.6753 33.6842 16.0555 32.4811 14.1736 31.9673C9.11109 30.4463 2.02428 26.9047 3.4242e-06 13.7305C-0.00729128 13.7451 11.6424 11.7208 17.7188 19.311Z" fill="#C28565"/>
<path d="M8.05859 48.3583C8.05859 48.3583 14.7114 49.5145 18.1836 45.1778C19.9745 42.9383 20.2262 40.1627 20.0474 37.9961C19.1757 41.9426 15.284 44.4301 12.4062 45.4623C14.5891 44.5166 16.4108 42.8956 17.6037 40.8374C18.4187 39.3649 18.8148 37.6973 18.749 36.0156C18.1585 36.9602 17.2339 37.6478 16.1594 37.9414C13.2634 38.8095 9.22939 40.8374 8.05859 48.3583Z" fill="#C28565"/>
<path d="M22.4283 21.3332C24.3843 21.3332 25.9699 19.7475 25.9699 17.7916C25.9699 15.8356 24.3843 14.25 22.4283 14.25C20.4723 14.25 18.8867 15.8356 18.8867 17.7916C18.8867 19.7475 20.4723 21.3332 22.4283 21.3332Z" fill="#C28565"/>
<path d="M24.2015 45.3703C24.2015 45.7209 24.0975 46.0636 23.9027 46.3551C23.708 46.6466 23.4311 46.8738 23.1072 47.0079C22.7833 47.1421 22.4269 47.1772 22.083 47.1088C21.7392 47.0404 21.4233 46.8716 21.1754 46.6237C20.9275 46.3758 20.7587 46.0599 20.6903 45.7161C20.6219 45.3722 20.657 45.0158 20.7912 44.6919C20.9253 44.368 21.1525 44.0912 21.4441 43.8964C21.7356 43.7016 22.0783 43.5977 22.4289 43.5977C22.899 43.5977 23.3499 43.7844 23.6823 44.1168C24.0147 44.4493 24.2015 44.9001 24.2015 45.3703Z" fill="#C28565"/>
</g>
<path d="M60.3828 35.8906C60.3828 36.776 60.3932 37.5521 60.4141 38.2188C60.4453 38.875 60.4766 39.4427 60.5078 39.9219C60.5495 40.401 60.5964 40.8021 60.6484 41.125C60.7109 41.4479 60.7734 41.7188 60.8359 41.9375V42H57.0859V41.9375C57.1484 41.7188 57.2057 41.4479 57.2578 41.125C57.3203 40.8021 57.3672 40.401 57.3984 39.9219C57.4401 39.4427 57.4714 38.875 57.4922 38.2188C57.5234 37.5625 57.5391 36.7865 57.5391 35.8906V25.7188C57.5391 24.8333 57.5234 24.0625 57.4922 23.4062C57.4714 22.7396 57.4401 22.1667 57.3984 21.6875C57.3672 21.2083 57.3203 20.8073 57.2578 20.4844C57.2057 20.151 57.1484 19.875 57.0859 19.6562V19.5938L57.7422 19.6562C57.9401 19.6771 58.1589 19.6927 58.3984 19.7031C58.6484 19.7031 58.9036 19.7031 59.1641 19.7031C59.5703 19.7031 60.1172 19.6562 60.8047 19.5625C61.5026 19.4583 62.388 19.4062 63.4609 19.4062C64.4609 19.4062 65.3828 19.5417 66.2266 19.8125C67.0807 20.0833 67.8203 20.4792 68.4453 21C69.0703 21.5208 69.5547 22.1615 69.8984 22.9219C70.2526 23.6719 70.4297 24.526 70.4297 25.4844C70.4297 26.2344 70.3307 26.9323 70.1328 27.5781C69.9453 28.2135 69.6745 28.7917 69.3203 29.3125C68.9766 29.8333 68.5599 30.2969 68.0703 30.7031C67.5807 31.099 67.0339 31.4323 66.4297 31.7031L71.9141 39.4062C72.1849 39.7917 72.4349 40.125 72.6641 40.4062C72.9036 40.6875 73.1276 40.9323 73.3359 41.1406C73.5547 41.3385 73.763 41.5052 73.9609 41.6406C74.1589 41.7656 74.362 41.8646 74.5703 41.9375V42H70.0547C70.0234 41.8021 69.9193 41.5417 69.7422 41.2188C69.5755 40.8854 69.3776 40.5573 69.1484 40.2344L63.6172 32.4375C63.3776 32.4583 63.138 32.4792 62.8984 32.5C62.6589 32.5104 62.4141 32.5156 62.1641 32.5156C61.8724 32.5156 61.5755 32.5052 61.2734 32.4844C60.9818 32.4635 60.6849 32.4271 60.3828 32.375V35.8906ZM60.3828 31.1562C60.6641 31.2188 60.9505 31.2656 61.2422 31.2969C61.5339 31.3177 61.8151 31.3281 62.0859 31.3281C62.8672 31.3281 63.5807 31.2135 64.2266 30.9844C64.8724 30.7448 65.4193 30.3854 65.8672 29.9062C66.3255 29.4271 66.6797 28.8333 66.9297 28.125C67.1797 27.4062 67.3047 26.5677 67.3047 25.6094C67.3047 24.8281 67.2161 24.1198 67.0391 23.4844C66.862 22.849 66.5964 22.3125 66.2422 21.875C65.8984 21.4271 65.4609 21.0833 64.9297 20.8438C64.3984 20.5938 63.7786 20.4688 63.0703 20.4688C62.3516 20.4688 61.7786 20.5052 61.3516 20.5781C60.9245 20.651 60.6016 20.7292 60.3828 20.8125V31.1562ZM83.1641 42.2812C82.0078 42.2812 80.9245 42.099 79.9141 41.7344C78.9036 41.3698 78.0234 40.8385 77.2734 40.1406C76.5234 39.4323 75.9297 38.5625 75.4922 37.5312C75.0651 36.4896 74.8516 35.3021 74.8516 33.9688C74.8516 32.7917 75.0495 31.7031 75.4453 30.7031C75.8411 29.6927 76.388 28.8177 77.0859 28.0781C77.7839 27.3385 78.5964 26.7604 79.5234 26.3438C80.4609 25.9271 81.4714 25.7188 82.5547 25.7188C83.6276 25.7188 84.6224 25.9062 85.5391 26.2812C86.4557 26.6458 87.2474 27.1823 87.9141 27.8906C88.5911 28.5885 89.1224 29.4583 89.5078 30.5C89.9036 31.5312 90.1172 32.7083 90.1484 34.0312C88.9714 34.0104 87.7943 33.9948 86.6172 33.9844C85.4401 33.974 84.2161 33.9688 82.9453 33.9688C82.0391 33.9688 81.1536 33.974 80.2891 33.9844C79.4349 33.9948 78.6641 34.0104 77.9766 34.0312C78.0391 35.1146 78.2057 36.0938 78.4766 36.9688C78.7578 37.8438 79.138 38.5938 79.6172 39.2188C80.1068 39.8333 80.6953 40.3073 81.3828 40.6406C82.0807 40.974 82.8672 41.1406 83.7422 41.1406C84.3464 41.1406 84.9141 41.0729 85.4453 40.9375C85.987 40.7917 86.4766 40.5938 86.9141 40.3438C87.3516 40.0938 87.7422 39.8021 88.0859 39.4688C88.4297 39.125 88.7214 38.7552 88.9609 38.3594L89.1484 38.4531L87.9922 41.2344C87.4297 41.526 86.7578 41.776 85.9766 41.9844C85.1953 42.1823 84.2578 42.2812 83.1641 42.2812ZM81.0859 32.75C82.1276 32.75 83.1693 32.75 84.2109 32.75C85.263 32.7396 86.2161 32.7188 87.0703 32.6875C86.9766 31.7812 86.7995 30.9688 86.5391 30.25C86.2786 29.5312 85.9453 28.9219 85.5391 28.4219C85.1328 27.9219 84.6536 27.5365 84.1016 27.2656C83.5495 26.9948 82.9401 26.8594 82.2734 26.8594C81.6693 26.8594 81.112 26.9948 80.6016 27.2656C80.1016 27.526 79.6641 27.9062 79.2891 28.4062C78.9141 28.9062 78.612 29.5208 78.3828 30.25C78.1536 30.9688 78.0182 31.7917 77.9766 32.7188C78.4453 32.7396 78.9401 32.75 79.4609 32.75C79.9818 32.75 80.5234 32.75 81.0859 32.75ZM93.6016 24.75C93.6016 23.8646 93.5859 23.0938 93.5547 22.4375C93.5339 21.7708 93.5026 21.1979 93.4609 20.7188C93.4297 20.2396 93.3828 19.8385 93.3203 19.5156C93.2682 19.1927 93.2109 18.9219 93.1484 18.7031V18.6406H96.7578V18.7031C96.6953 18.9219 96.638 19.1927 96.5859 19.5156C96.5339 19.8385 96.487 20.2396 96.4453 20.7188C96.4036 21.1979 96.3724 21.7708 96.3516 22.4375C96.3307 23.0938 96.3203 23.8646 96.3203 24.75V35.8906C96.3203 36.776 96.3307 37.5521 96.3516 38.2188C96.3724 38.875 96.4036 39.4427 96.4453 39.9219C96.487 40.401 96.5339 40.8021 96.5859 41.125C96.638 41.4479 96.6953 41.7188 96.7578 41.9375V42H93.1484V41.9375C93.2109 41.7188 93.2682 41.4479 93.3203 41.125C93.3828 40.8021 93.4297 40.401 93.4609 39.9219C93.5026 39.4427 93.5339 38.875 93.5547 38.2188C93.5859 37.5521 93.6016 36.776 93.6016 35.8906V24.75ZM103.852 36.5312C103.852 37.9062 104.122 38.9167 104.664 39.5625C105.216 40.2083 105.956 40.5312 106.883 40.5312C107.216 40.5312 107.591 40.4635 108.008 40.3281C108.424 40.1823 108.852 39.9948 109.289 39.7656C109.737 39.526 110.18 39.25 110.617 38.9375C111.065 38.625 111.477 38.2917 111.852 37.9375C111.872 37.6354 111.883 37.3177 111.883 36.9844C111.883 36.6406 111.883 36.276 111.883 35.8906V32.1094C111.883 31.224 111.867 30.4531 111.836 29.7969C111.815 29.1302 111.784 28.5573 111.742 28.0781C111.711 27.599 111.664 27.1979 111.602 26.875C111.549 26.5521 111.492 26.2812 111.43 26.0625V26H115.039V26.0625C114.977 26.2812 114.919 26.5521 114.867 26.875C114.815 27.1979 114.768 27.599 114.727 28.0781C114.685 28.5573 114.654 29.1302 114.633 29.7969C114.612 30.4531 114.602 31.224 114.602 32.1094V35.8906C114.602 36.776 114.612 37.5521 114.633 38.2188C114.654 38.875 114.685 39.4427 114.727 39.9219C114.768 40.401 114.815 40.8021 114.867 41.125C114.919 41.4479 114.977 41.7188 115.039 41.9375V42H111.43V41.9375C111.492 41.6771 111.555 41.3438 111.617 40.9375C111.69 40.5312 111.742 40 111.773 39.3438C111.346 39.7083 110.883 40.0677 110.383 40.4219C109.893 40.776 109.378 41.0938 108.836 41.375C108.305 41.6562 107.763 41.8802 107.211 42.0469C106.669 42.224 106.133 42.3125 105.602 42.3125C104.789 42.3125 104.096 42.1719 103.523 41.8906C102.961 41.6094 102.497 41.2396 102.133 40.7812C101.779 40.3229 101.518 39.8021 101.352 39.2188C101.195 38.6354 101.117 38.0365 101.117 37.4219V32.1094C101.117 31.224 101.107 30.4531 101.086 29.7969C101.065 29.1302 101.034 28.5573 100.992 28.0781C100.951 27.599 100.904 27.1979 100.852 26.875C100.799 26.5521 100.742 26.2812 100.68 26.0625V26H104.289V26.0625C104.227 26.2812 104.169 26.5521 104.117 26.875C104.065 27.1979 104.018 27.599 103.977 28.0781C103.935 28.5573 103.904 29.1302 103.883 29.7969C103.862 30.4531 103.852 31.224 103.852 32.1094V36.5312ZM124.852 35.2812L121.102 40.0156C120.966 40.1927 120.826 40.375 120.68 40.5625C120.544 40.75 120.419 40.9323 120.305 41.1094C120.201 41.2865 120.112 41.4531 120.039 41.6094C119.977 41.7656 119.945 41.8958 119.945 42H117.32V41.9375C117.487 41.7917 117.716 41.5729 118.008 41.2812C118.31 40.9896 118.628 40.6302 118.961 40.2031L123.883 33.9688L119.055 27.4375C118.784 27.0833 118.518 26.7812 118.258 26.5312C117.997 26.2812 117.805 26.125 117.68 26.0625V26H121.961C121.961 26.1771 122.023 26.4583 122.148 26.8438C122.284 27.2188 122.544 27.6719 122.93 28.2031L125.586 31.8281L128.617 27.9844C128.742 27.8177 128.867 27.6406 128.992 27.4531C129.128 27.2656 129.242 27.0833 129.336 26.9062C129.44 26.7188 129.523 26.5469 129.586 26.3906C129.648 26.2344 129.68 26.1042 129.68 26H132.305V26.0625C132.159 26.1771 131.977 26.3438 131.758 26.5625C131.539 26.7812 131.253 27.1146 130.898 27.5625L126.539 33.1094L131.789 40.2031C132.143 40.6719 132.471 41.0573 132.773 41.3594C133.076 41.6615 133.294 41.8542 133.43 41.9375V42H129.164C129.164 41.8229 129.096 41.5417 128.961 41.1562C128.826 40.7604 128.576 40.3073 128.211 39.7969L124.852 35.2812ZM143.164 42.2812C142.008 42.2812 140.924 42.099 139.914 41.7344C138.904 41.3698 138.023 40.8385 137.273 40.1406C136.523 39.4323 135.93 38.5625 135.492 37.5312C135.065 36.4896 134.852 35.3021 134.852 33.9688C134.852 32.7917 135.049 31.7031 135.445 30.7031C135.841 29.6927 136.388 28.8177 137.086 28.0781C137.784 27.3385 138.596 26.7604 139.523 26.3438C140.461 25.9271 141.471 25.7188 142.555 25.7188C143.628 25.7188 144.622 25.9062 145.539 26.2812C146.456 26.6458 147.247 27.1823 147.914 27.8906C148.591 28.5885 149.122 29.4583 149.508 30.5C149.904 31.5312 150.117 32.7083 150.148 34.0312C148.971 34.0104 147.794 33.9948 146.617 33.9844C145.44 33.974 144.216 33.9688 142.945 33.9688C142.039 33.9688 141.154 33.974 140.289 33.9844C139.435 33.9948 138.664 34.0104 137.977 34.0312C138.039 35.1146 138.206 36.0938 138.477 36.9688C138.758 37.8438 139.138 38.5938 139.617 39.2188C140.107 39.8333 140.695 40.3073 141.383 40.6406C142.081 40.974 142.867 41.1406 143.742 41.1406C144.346 41.1406 144.914 41.0729 145.445 40.9375C145.987 40.7917 146.477 40.5938 146.914 40.3438C147.352 40.0938 147.742 39.8021 148.086 39.4688C148.43 39.125 148.721 38.7552 148.961 38.3594L149.148 38.4531L147.992 41.2344C147.43 41.526 146.758 41.776 145.977 41.9844C145.195 42.1823 144.258 42.2812 143.164 42.2812ZM141.086 32.75C142.128 32.75 143.169 32.75 144.211 32.75C145.263 32.7396 146.216 32.7188 147.07 32.6875C146.977 31.7812 146.799 30.9688 146.539 30.25C146.279 29.5312 145.945 28.9219 145.539 28.4219C145.133 27.9219 144.654 27.5365 144.102 27.2656C143.549 26.9948 142.94 26.8594 142.273 26.8594C141.669 26.8594 141.112 26.9948 140.602 27.2656C140.102 27.526 139.664 27.9062 139.289 28.4062C138.914 28.9062 138.612 29.5208 138.383 30.25C138.154 30.9688 138.018 31.7917 137.977 32.7188C138.445 32.7396 138.94 32.75 139.461 32.75C139.982 32.75 140.523 32.75 141.086 32.75Z" fill="#0D0D0D"/>
<defs>
<clipPath id="clip0_4722_11">
<rect width="44.8515" height="35" fill="white" transform="translate(0 13.5)"/>
</clipPath>
</defs>
</svg>
