<svg width="36" height="36" viewBox="0 0 36 36" fill="none" xmlns="http://www.w3.org/2000/svg">
<g clip-path="url(#clip0_2812_965)">
<path d="M34.2 16.2C33.4188 16.2 32.7588 16.7034 32.5104 17.4H28.8V15H32.4C32.7318 15 33 14.7318 33 14.4C33 14.0682 32.7318 13.8 32.4 13.8H28.8V11.4H33C33.6618 11.4 34.2 10.8618 34.2 10.2V8.8896C34.8966 8.6412 35.4 7.9812 35.4 7.2C35.4 6.2076 34.5924 5.4 33.6 5.4C32.6076 5.4 31.8 6.2076 31.8 7.2C31.8 7.9812 32.3034 8.6412 33 8.8896V10.2H28.8V9.6C28.8 8.2764 27.7236 7.2 26.4 7.2H25.8V3H27.1104C27.3588 3.6966 28.0188 4.2 28.8 4.2C29.7924 4.2 30.6 3.3924 30.6 2.4C30.6 1.4076 29.7924 0.6 28.8 0.6C28.0188 0.6 27.3588 1.1034 27.1104 1.8H25.8C25.1382 1.8 24.6 2.3382 24.6 3V7.2H22.2V3.6C22.2 3.2682 21.9318 3 21.6 3C21.2682 3 21 3.2682 21 3.6V7.2H18.6V3.4896C19.2966 3.2412 19.8 2.5812 19.8 1.8C19.8 0.8076 18.9924 0 18 0C17.0076 0 16.2 0.8076 16.2 1.8C16.2 2.5812 16.7034 3.2412 17.4 3.4896V7.2H15V3.6C15 3.2682 14.7318 3 14.4 3C14.0682 3 13.8 3.2682 13.8 3.6V7.2H11.4V3C11.4 2.3382 10.8618 1.8 10.2 1.8H8.8896C8.6412 1.1034 7.9812 0.6 7.2 0.6C6.2076 0.6 5.4 1.4076 5.4 2.4C5.4 3.3924 6.2076 4.2 7.2 4.2C7.9812 4.2 8.6412 3.6966 8.8896 3H10.2V7.2H9.6C8.2764 7.2 7.2 8.2764 7.2 9.6V10.2H3V8.8896C3.6966 8.6412 4.2 7.9812 4.2 7.2C4.2 6.2076 3.3924 5.4 2.4 5.4C1.4076 5.4 0.6 6.2076 0.6 7.2C0.6 7.9812 1.1034 8.6412 1.8 8.8896V10.2C1.8 10.8618 2.3382 11.4 3 11.4H7.2V13.8H3.6C3.2682 13.8 3 14.0682 3 14.4C3 14.7318 3.2682 15 3.6 15H7.2V17.4H3.4896C3.2412 16.7034 2.5812 16.2 1.8 16.2C0.8076 16.2 0 17.0076 0 18C0 18.9924 0.8076 19.8 1.8 19.8C2.5812 19.8 3.2412 19.2966 3.4896 18.6H7.2V21H3.6C3.2682 21 3 21.2682 3 21.6C3 21.9318 3.2682 22.2 3.6 22.2H7.2V24.6H3C2.3382 24.6 1.8 25.1382 1.8 25.8V27.1104C1.1034 27.3588 0.6 28.0188 0.6 28.8C0.6 29.7924 1.4076 30.6 2.4 30.6C3.3924 30.6 4.2 29.7924 4.2 28.8C4.2 28.0188 3.6966 27.3588 3 27.1104V25.8H7.2V26.4C7.2 27.7236 8.2764 28.8 9.6 28.8H10.2V33H8.8896C8.6412 32.3034 7.9812 31.8 7.2 31.8C6.2076 31.8 5.4 32.6076 5.4 33.6C5.4 34.5924 6.2076 35.4 7.2 35.4C7.9812 35.4 8.6412 34.8966 8.8896 34.2H10.2C10.8618 34.2 11.4 33.6618 11.4 33V28.8H13.8V32.4C13.8 32.7318 14.0682 33 14.4 33C14.7318 33 15 32.7318 15 32.4V28.8H17.4V32.5104C16.7034 32.7588 16.2 33.4188 16.2 34.2C16.2 35.1924 17.0076 36 18 36C18.9924 36 19.8 35.1924 19.8 34.2C19.8 33.4188 19.2966 32.7588 18.6 32.5104V28.8H21V32.4C21 32.7318 21.2682 33 21.6 33C21.9318 33 22.2 32.7318 22.2 32.4V28.8H24.6V33C24.6 33.6618 25.1382 34.2 25.8 34.2H27.1104C27.3588 34.8966 28.0188 35.4 28.8 35.4C29.7924 35.4 30.6 34.5924 30.6 33.6C30.6 32.6076 29.7924 31.8 28.8 31.8C28.0188 31.8 27.3588 32.3034 27.1104 33H25.8V28.8H26.4C27.7236 28.8 28.8 27.7236 28.8 26.4V25.8H33V27.1104C32.3034 27.3588 31.8 28.0188 31.8 28.8C31.8 29.7924 32.6076 30.6 33.6 30.6C34.5924 30.6 35.4 29.7924 35.4 28.8C35.4 28.0188 34.8966 27.3588 34.2 27.1104V25.8C34.2 25.1382 33.6618 24.6 33 24.6H28.8V22.2H32.4C32.7318 22.2 33 21.9318 33 21.6C33 21.2682 32.7318 21 32.4 21H28.8V18.6H32.5104C32.7588 19.2966 33.4188 19.8 34.2 19.8C35.1924 19.8 36 18.9924 36 18C36 17.0076 35.1924 16.2 34.2 16.2ZM33.6 6.6C33.9312 6.6 34.2 6.8688 34.2 7.2C34.2 7.5312 33.9312 7.8 33.6 7.8C33.2688 7.8 33 7.5312 33 7.2C33 6.8688 33.2688 6.6 33.6 6.6ZM28.8 1.8C29.1312 1.8 29.4 2.0688 29.4 2.4C29.4 2.7312 29.1312 3 28.8 3C28.4688 3 28.2 2.7312 28.2 2.4C28.2 2.0688 28.4688 1.8 28.8 1.8ZM18 1.2C18.3312 1.2 18.6 1.4688 18.6 1.8C18.6 2.1312 18.3312 2.4 18 2.4C17.6688 2.4 17.4 2.1312 17.4 1.8C17.4 1.4688 17.6688 1.2 18 1.2ZM7.2 3C6.8688 3 6.6 2.7312 6.6 2.4C6.6 2.0688 6.8688 1.8 7.2 1.8C7.5312 1.8 7.8 2.0688 7.8 2.4C7.8 2.7312 7.5312 3 7.2 3ZM2.4 6.6C2.7312 6.6 3 6.8688 3 7.2C3 7.5312 2.7312 7.8 2.4 7.8C2.0688 7.8 1.8 7.5312 1.8 7.2C1.8 6.8688 2.0688 6.6 2.4 6.6ZM1.8 18.6C1.4688 18.6 1.2 18.3312 1.2 18C1.2 17.6688 1.4688 17.4 1.8 17.4C2.1312 17.4 2.4 17.6688 2.4 18C2.4 18.3312 2.1312 18.6 1.8 18.6ZM2.4 29.4C2.0688 29.4 1.8 29.1312 1.8 28.8C1.8 28.4688 2.0688 28.2 2.4 28.2C2.7312 28.2 3 28.4688 3 28.8C3 29.1312 2.7312 29.4 2.4 29.4ZM7.2 34.2C6.8688 34.2 6.6 33.9312 6.6 33.6C6.6 33.2688 6.8688 33 7.2 33C7.5312 33 7.8 33.2688 7.8 33.6C7.8 33.9312 7.5312 34.2 7.2 34.2ZM18 34.8C17.6688 34.8 17.4 34.5312 17.4 34.2C17.4 33.8688 17.6688 33.6 18 33.6C18.3312 33.6 18.6 33.8688 18.6 34.2C18.6 34.5312 18.3312 34.8 18 34.8ZM28.8 33C29.1312 33 29.4 33.2688 29.4 33.6C29.4 33.9312 29.1312 34.2 28.8 34.2C28.4688 34.2 28.2 33.9312 28.2 33.6C28.2 33.2688 28.4688 33 28.8 33ZM33.6 29.4C33.2688 29.4 33 29.1312 33 28.8C33 28.4688 33.2688 28.2 33.6 28.2C33.9312 28.2 34.2 28.4688 34.2 28.8C34.2 29.1312 33.9312 29.4 33.6 29.4ZM27.6 26.4C27.6 27.0618 27.0618 27.6 26.4 27.6H9.6C8.9382 27.6 8.4 27.0618 8.4 26.4V9.6C8.4 8.9382 8.9382 8.4 9.6 8.4H26.4C27.0618 8.4 27.6 8.9382 27.6 9.6V26.4ZM34.2 18.6C33.8688 18.6 33.6 18.3312 33.6 18C33.6 17.6688 33.8688 17.4 34.2 17.4C34.5312 17.4 34.8 17.6688 34.8 18C34.8 18.3312 34.5312 18.6 34.2 18.6Z" fill="#20282D"/>
<path d="M15.3055 13.3261C15.2101 12.8989 14.8375 12.6001 14.3989 12.6001C13.9603 12.6001 13.5877 12.8989 13.4917 13.3273L11.4127 22.6699C11.3413 22.9933 11.5453 23.3137 11.8687 23.3857C12.1873 23.4565 12.5119 23.2543 12.5845 22.9297L13.2811 19.7995H15.5161L16.2127 22.9297C16.2751 23.2099 16.5235 23.3995 16.7983 23.3995C16.8415 23.3995 16.8859 23.3947 16.9291 23.3857C17.2525 23.3137 17.4565 22.9933 17.3851 22.6699L15.3055 13.3261ZM13.5487 18.6001L14.3995 14.7769L15.2503 18.6001H13.5487Z" fill="#20282D"/>
<path d="M22.8016 13.8001C23.1334 13.8001 23.4016 13.5319 23.4016 13.2001C23.4016 12.8683 23.1334 12.6001 22.8016 12.6001H19.2016C18.8698 12.6001 18.6016 12.8683 18.6016 13.2001C18.6016 13.5319 18.8698 13.8001 19.2016 13.8001H20.4016V22.2001H19.2016C18.8698 22.2001 18.6016 22.4683 18.6016 22.8001C18.6016 23.1319 18.8698 23.4001 19.2016 23.4001H22.8016C23.1334 23.4001 23.4016 23.1319 23.4016 22.8001C23.4016 22.4683 23.1334 22.2001 22.8016 22.2001H21.6016V13.8001H22.8016Z" fill="#20282D"/>
</g>
<defs>
<clipPath id="clip0_2812_965">
<rect width="36" height="36" fill="white"/>
</clipPath>
</defs>
</svg>
