<svg width="48" height="48" viewBox="0 0 48 48" fill="none" xmlns="http://www.w3.org/2000/svg">
<path d="M35.322 37.8328C34.2692 37.8328 33.3823 38.5556 33.132 39.5316H30.8464C30.4827 39.5316 30.1873 39.2353 30.1873 38.8725V33.8334H30.5333C33.7864 33.8334 36.433 31.1869 36.433 27.9338C36.433 25.3669 34.7867 23.1244 32.3783 22.3312C32.5742 21.2953 33.2595 20.4947 34.048 19.5741C35.3042 18.1078 36.7292 16.4456 36.658 13.3331C36.6542 9.10406 33.2127 5.66531 28.9836 5.66531C24.7545 5.66531 21.312 9.10406 21.3092 13.3331C21.268 15.1631 21.7433 16.4916 22.3967 17.5734C22.1783 17.7047 21.9673 17.8491 21.7667 18.0075C20.7636 16.6209 19.1511 15.7828 17.4111 15.7828C14.4477 15.7828 12.0373 18.1941 12.0373 21.1566C12.0373 21.4828 12.0664 21.8072 12.1245 22.1259C9.35047 22.6219 7.26359 25.0547 7.26359 27.9338C7.26359 31.1869 9.91016 33.8334 13.1633 33.8334H13.5092V38.8725C13.5092 39.2363 13.213 39.5316 12.8502 39.5316H10.5645C10.3142 38.5556 9.42641 37.8328 8.37453 37.8328C7.12766 37.8328 6.11328 38.8472 6.11328 40.0941C6.11328 41.3409 7.12766 42.3553 8.37453 42.3553C9.42734 42.3553 10.3142 41.6325 10.5645 40.6566H12.8502C13.8345 40.6566 14.6342 39.8559 14.6342 38.8725V33.8334H18.6767V42.1425C17.7008 42.3928 16.978 43.2806 16.978 44.3325C16.978 45.5794 17.9923 46.5938 19.2392 46.5938C20.4861 46.5938 21.5005 45.5794 21.5005 44.3325C21.5005 43.2797 20.7777 42.3928 19.8017 42.1425V33.8334H23.8939V39.6028C22.918 39.8531 22.1952 40.7409 22.1952 41.7928C22.1952 43.0397 23.2095 44.0541 24.4564 44.0541C25.7033 44.0541 26.7177 43.0397 26.7177 41.7928C26.7177 40.74 25.9948 39.8531 25.0189 39.6028V33.8334H29.0614V38.8725C29.0614 39.8569 29.862 40.6566 30.8455 40.6566H33.1311C33.3814 41.6325 34.2692 42.3553 35.3211 42.3553C36.568 42.3553 37.5823 41.3409 37.5823 40.0941C37.5833 38.8472 36.5689 37.8328 35.322 37.8328ZM8.37547 41.2303C7.74922 41.2303 7.23922 40.7203 7.23922 40.0941C7.23922 39.4678 7.74922 38.9578 8.37547 38.9578C9.00172 38.9578 9.51172 39.4678 9.51172 40.0941C9.51172 40.7213 9.00172 41.2303 8.37547 41.2303ZM20.3764 44.3325C20.3764 44.9588 19.8664 45.4688 19.2402 45.4688C18.6139 45.4688 18.1039 44.9588 18.1039 44.3325C18.1039 43.7062 18.6139 43.1963 19.2402 43.1963C19.8664 43.1963 20.3764 43.7062 20.3764 44.3325ZM25.5936 41.7928C25.5936 42.4191 25.0836 42.9291 24.4573 42.9291C23.8311 42.9291 23.3211 42.4191 23.3211 41.7928C23.3211 41.1666 23.8311 40.6566 24.4573 40.6566C25.0836 40.6566 25.5936 41.1666 25.5936 41.7928ZM28.0077 21.075H29.9595V21.8353H28.0077V21.075ZM31.2336 22.9603V24.1022H26.7345V22.9603H31.2336ZM26.7336 25.2272H31.2327V25.6706L30.2267 26.6728C30.0477 26.8509 29.8573 26.9344 29.6258 26.9344H28.3405C28.1089 26.9344 27.9186 26.8509 27.7395 26.6728L26.7336 25.6706V25.2272ZM22.4342 13.3519C22.4342 13.3472 22.4342 13.3434 22.4342 13.3387C22.4342 9.7275 25.3723 6.78937 28.9836 6.78937C32.5948 6.78937 35.533 9.7275 35.533 13.3387V13.3519C35.5958 16.0387 34.3742 17.4638 33.1939 18.8409C32.398 19.77 31.6414 20.6531 31.3358 21.8344H31.0836V20.5125C31.0836 20.2022 30.8314 19.95 30.5211 19.95H30.2023L30.8933 14.5003C31.0883 14.5856 31.3133 14.6344 31.5664 14.6344C32.4645 14.6344 33.1948 13.9041 33.1948 13.0059C33.1948 12.1078 32.4645 11.3775 31.5664 11.3775C31.0817 11.3775 30.6514 11.5631 30.3552 11.9016C30.0992 12.1931 29.9567 12.5775 29.953 12.9872C29.9502 13.0003 29.9483 13.0134 29.9464 13.0266L29.0689 19.95H28.8955L28.0198 13.0444C28.018 13.0312 28.0161 13.0181 28.0133 13.005C28.0095 12.5963 27.867 12.2109 27.6111 11.9194C27.3148 11.5819 26.8845 11.3953 26.3998 11.3953C25.5017 11.3953 24.7714 12.1256 24.7714 13.0238C24.7714 13.9219 25.5017 14.6522 26.3998 14.6522C26.653 14.6522 26.877 14.6034 27.073 14.5181L27.762 19.95H27.4461C27.1358 19.95 26.8836 20.2022 26.8836 20.5125V21.8353H26.6314C26.3258 20.6541 25.5692 19.77 24.7733 18.8419C23.592 17.4637 22.3705 16.0387 22.4342 13.3519ZM31.078 13.005C31.078 12.8644 31.123 12.7331 31.2008 12.6441C31.2842 12.5494 31.4033 12.5034 31.5664 12.5034C31.8439 12.5034 32.0698 12.7294 32.0698 13.0069C32.0698 13.2844 31.8439 13.5103 31.5664 13.5103C31.1136 13.5094 31.078 13.1231 31.078 13.005ZM26.8892 13.0228C26.8892 13.1409 26.8536 13.5272 26.4008 13.5272C26.1233 13.5272 25.8973 13.3012 25.8973 13.0238C25.8973 12.7463 26.1233 12.5203 26.4008 12.5203C26.5639 12.5203 26.683 12.5662 26.7664 12.6609C26.8442 12.7509 26.8892 12.8822 26.8892 13.0228ZM8.38953 27.9328C8.38953 25.4213 10.3527 23.3288 12.8586 23.1684C13.0311 23.1572 13.1895 23.0672 13.287 22.9247C13.3845 22.7822 13.4117 22.6022 13.3592 22.4372C13.2289 22.0238 13.1623 21.5934 13.1623 21.1556C13.1623 18.8128 15.0683 16.9069 17.4111 16.9069C18.972 16.9069 20.4045 17.76 21.1498 19.1344C21.2342 19.29 21.387 19.3969 21.5633 19.4231C21.7386 19.4494 21.9158 19.3903 22.0414 19.2647C22.3405 18.9666 22.6733 18.7116 23.0352 18.5006C23.3248 18.8794 23.6267 19.2319 23.9192 19.5731C24.7367 20.5266 25.4427 21.3525 25.6086 22.4447V25.9041C25.6086 26.0531 25.6686 26.1966 25.7745 26.3025L26.9464 27.4697C27.3392 27.8606 27.808 28.0594 28.3414 28.0594H29.6267C30.1602 28.0594 30.6298 27.8606 31.0217 27.4697L32.1936 26.3025C32.2995 26.1966 32.3595 26.0531 32.3595 25.9041V23.5228C34.1267 24.2531 35.3098 25.9763 35.3098 27.9328C35.3098 30.5653 33.1677 32.7075 30.5352 32.7075H13.1642C10.5308 32.7075 8.38953 30.5663 8.38953 27.9328ZM35.322 41.2303C34.6958 41.2303 34.1858 40.7203 34.1858 40.0941C34.1858 39.4678 34.6958 38.9578 35.322 38.9578C35.9483 38.9578 36.4583 39.4678 36.4583 40.0941C36.4583 40.7213 35.9492 41.2303 35.322 41.2303ZM28.4211 4.14188V1.96875C28.4211 1.65844 28.6733 1.40625 28.9836 1.40625C29.2939 1.40625 29.5461 1.65844 29.5461 1.96875V4.14188C29.5461 4.45219 29.2939 4.70438 28.9836 4.70438C28.6733 4.70438 28.4211 4.45312 28.4211 4.14188ZM22.3245 3.90375C22.1689 3.63469 22.2617 3.29062 22.5308 3.135C22.7998 2.97937 23.1439 3.07219 23.2995 3.34125L24.3861 5.22375C24.5417 5.49281 24.4489 5.83687 24.1798 5.9925C24.0917 6.04312 23.9942 6.0675 23.8995 6.0675C23.7055 6.0675 23.5161 5.96625 23.412 5.78625L22.3245 3.90375ZM17.8067 7.85906C17.9623 7.59 18.3064 7.49812 18.5755 7.65281L20.458 8.73938C20.727 8.895 20.8189 9.23906 20.6642 9.50813C20.5602 9.68812 20.3708 9.78938 20.1767 9.78938C20.0811 9.78938 19.9845 9.765 19.8964 9.71438L18.0139 8.62781C17.743 8.47219 17.6511 8.12813 17.8067 7.85906ZM16.077 14.3128C16.077 14.0025 16.3292 13.7503 16.6395 13.7503H18.8127C19.123 13.7503 19.3752 14.0025 19.3752 14.3128C19.3752 14.6231 19.123 14.8753 18.8127 14.8753H16.6395C16.3292 14.8753 16.077 14.6231 16.077 14.3128ZM33.5811 5.22375L34.6677 3.34125C34.8233 3.07219 35.1673 2.98031 35.4364 3.135C35.7055 3.29062 35.7973 3.63469 35.6427 3.90375L34.5561 5.78625C34.452 5.96625 34.2627 6.0675 34.0686 6.0675C33.973 6.0675 33.8764 6.04312 33.7883 5.9925C33.5183 5.83687 33.4264 5.49281 33.5811 5.22375ZM39.9542 8.62781L38.0717 9.71438C37.9836 9.765 37.8861 9.78938 37.7914 9.78938C37.5973 9.78938 37.408 9.68812 37.3039 9.50813C37.1483 9.23906 37.2411 8.895 37.5102 8.73938L39.3927 7.65281C39.6617 7.49812 40.0058 7.59 40.1614 7.85906C40.317 8.12813 40.2233 8.47219 39.9542 8.62781ZM41.8892 14.3128C41.8892 14.6231 41.637 14.8753 41.3267 14.8753H39.1536C38.8433 14.8753 38.5911 14.6231 38.5911 14.3128C38.5911 14.0025 38.8433 13.7503 39.1536 13.7503H41.3267C41.638 13.7503 41.8892 14.0016 41.8892 14.3128Z" fill="#20282D"/>
</svg>
