<svg width="76" height="76" viewBox="0 0 76 76" fill="none" xmlns="http://www.w3.org/2000/svg">
<path d="M0 0H76V62V76H62H38H0V0Z" fill="#E3F4FC"/>
<path d="M60.5105 43.5644C59.6355 42.2785 57.8735 41.9382 56.5837 42.805L50.7133 46.7337L50.6963 34.5051L52.7357 36.4156C53.1694 36.8218 53.7349 37.0453 54.3286 37.0453C54.3296 37.0453 54.3309 37.0453 54.3321 37.0453C54.973 37.0444 55.5919 36.7758 56.0299 36.3082C56.4555 35.8538 56.6788 35.261 56.6585 34.6388C56.6382 34.0165 56.3767 33.4394 55.9224 33.0139L52.056 29.3919C51.7913 29.1439 51.3758 29.1575 51.1279 29.4222C50.88 29.6868 50.8936 30.1023 51.1582 30.3503L55.0246 33.9722C55.223 34.158 55.3371 34.4099 55.346 34.6815C55.3548 34.9531 55.2574 35.212 55.0715 35.4103C54.8774 35.6174 54.6142 35.7317 54.3301 35.7321C54.3295 35.7321 54.3291 35.7321 54.3286 35.7321C54.0695 35.7321 53.8227 35.6345 53.6334 35.4572L53.6334 35.4571L38.2807 21.075C38.0277 20.838 37.634 20.8384 37.3816 21.0762L22.0688 35.5014C21.8711 35.6877 21.6125 35.7853 21.3408 35.7777C21.0691 35.7696 20.8169 35.6562 20.6306 35.4582C20.4443 35.2605 20.3461 35.0019 20.3542 34.7303C20.3623 34.4586 20.4758 34.2064 20.6735 34.0201L37.1309 18.5168C37.521 18.1493 38.133 18.1484 38.5241 18.515L48.1523 27.5345C48.4169 27.7824 48.8325 27.769 49.0804 27.5043C49.3283 27.2396 49.3147 26.8242 49.0502 26.5762L39.422 17.5566C38.5259 16.7171 37.1241 16.719 36.2304 17.561L30.9621 22.524L30.9607 21.6387C30.9603 21.3597 30.8512 21.0975 30.6537 20.9006C30.4564 20.7039 30.1946 20.5956 29.9161 20.5956C29.9156 20.5956 29.9151 20.5956 29.9146 20.5956L26.1459 20.6009C25.8669 20.6013 25.6048 20.7104 25.4078 20.9079C25.2108 21.1055 25.1025 21.3679 25.1029 21.6471L25.1134 28.0338L19.7731 33.0644C19.32 33.4913 19.0602 34.0691 19.0416 34.6913C19.023 35.3136 19.2479 35.9058 19.6748 36.3588C20.1015 36.812 20.6793 37.0718 21.3016 37.0904C21.3254 37.0911 21.3493 37.0915 21.3731 37.0915C21.9692 37.0915 22.5337 36.8678 22.9693 36.4572L25.0042 34.5403L25.0123 40.3164C24.3539 40.2206 23.6878 40.1703 23.0186 40.1703H21.8951V39.7766C21.8951 38.4549 20.8198 37.3795 19.4981 37.3795H17.397C16.0753 37.3794 15 38.4547 15 39.7765V50.0652C15 50.4278 15.294 50.7218 15.6566 50.7218C16.0192 50.7218 16.3132 50.4278 16.3132 50.0652V39.7765C16.3132 39.1788 16.7994 38.6926 17.397 38.6926H19.498C20.0957 38.6926 20.5819 39.1788 20.5819 39.7765V40.8268V54.285V55.3249C20.5819 55.9226 20.0957 56.4088 19.498 56.4088H17.397C16.7994 56.4088 16.3132 55.9226 16.3132 55.3249V54.176C16.3132 53.8134 16.0192 53.5194 15.6566 53.5194C15.294 53.5194 15 53.8134 15 54.176V55.3249C15 56.6466 16.0753 57.722 17.397 57.722H19.498C20.8197 57.722 21.8951 56.6467 21.8951 55.3249V55.2357L31.5105 58.8769C31.5283 58.8836 31.5463 58.8896 31.5647 58.8947C31.9827 59.0127 32.4006 59.072 32.8131 59.072C33.0363 59.072 33.258 59.0546 33.4774 59.0199L47.6081 56.983C47.6114 56.9825 47.6146 56.982 47.618 56.9815C48.8193 56.7896 49.9527 56.2818 50.8955 55.5129C50.9036 55.5062 50.9117 55.4993 50.9195 55.4922L60.0486 47.2816C61.1118 46.3378 61.3102 44.7397 60.5105 43.5644ZM29.6479 21.9093L29.6509 23.7591L26.4244 26.7985L26.4164 21.9137L29.6479 21.9093ZM37.833 22.455L49.3813 33.2732L49.4014 47.6117L47.5424 48.8558L45.5738 48.7454L45.5218 48.2225C45.3386 46.3809 43.9791 44.8995 42.1814 44.5459L42.1696 36.0157C42.1687 35.3611 41.6357 34.8291 40.9812 34.8291C40.9807 34.8291 40.9802 34.8291 40.9796 34.8291L34.7216 34.8379C34.4042 34.8384 34.1059 34.9624 33.8818 35.1872C33.6577 35.4119 33.5345 35.7105 33.5349 36.0278L33.5454 43.4652C32.3058 43.1818 31.1222 42.7138 30.0156 42.0665C29.8775 41.9857 29.7381 41.9078 29.5975 41.8319C29.5426 41.8024 29.4869 41.7746 29.4317 41.7458C29.3462 41.7011 29.2608 41.6562 29.1744 41.6133C29.1056 41.5792 29.0359 41.5468 28.9666 41.5139C28.893 41.4789 28.8195 41.4436 28.7454 41.4099C28.6699 41.3757 28.5938 41.3431 28.5178 41.3102C28.4484 41.2802 28.3789 41.25 28.309 41.2212C28.2308 41.1889 28.1522 41.1579 28.0735 41.1271C28.0037 41.0998 27.9338 41.0727 27.8636 41.0464C27.7858 41.0173 27.7075 40.9892 27.6291 40.9616C27.5555 40.9356 27.4818 40.9103 27.4078 40.8856C27.3327 40.8605 27.2574 40.836 27.1817 40.8122C27.1011 40.7868 27.0202 40.7625 26.9392 40.7385C26.8695 40.718 26.8 40.6976 26.73 40.6782C26.6386 40.6527 26.5468 40.6289 26.4549 40.6054C26.4119 40.5943 26.3691 40.5818 26.3258 40.5711L26.3156 33.3048L37.833 22.455ZM40.8681 44.3816L35.3764 43.7494L34.859 43.6898L34.8484 36.1509L40.8566 36.1425L40.8681 44.3816ZM59.1737 46.3025L50.0536 54.5051C49.2936 55.1213 48.382 55.529 47.4157 55.684L33.2911 57.7201C33.2881 57.7205 33.2853 57.721 33.2823 57.7214L33.2725 57.7229C32.8446 57.7907 32.399 57.7621 31.9479 57.6383L21.8951 53.8315V41.4833H23.0186C23.975 41.4833 24.9249 41.5937 25.85 41.8082C25.8844 41.8162 25.9187 41.8244 25.953 41.8326C26.0667 41.86 26.1801 41.8883 26.2929 41.9188C26.3028 41.9215 26.3126 41.9244 26.3225 41.9271C26.4356 41.958 26.5482 41.9906 26.6606 42.0246C26.6807 42.0308 26.7009 42.0368 26.7209 42.043C26.8404 42.0799 26.9594 42.1184 27.0777 42.1589C27.0899 42.1631 27.102 42.1674 27.1143 42.1716C27.3607 42.2567 27.6047 42.3495 27.8457 42.45C27.8588 42.4554 27.8719 42.4609 27.885 42.4665C28.0052 42.517 28.1246 42.5692 28.2431 42.6234C28.2463 42.6249 28.2495 42.6264 28.2527 42.6279C28.3673 42.6806 28.4811 42.7352 28.5943 42.7914C28.6076 42.7979 28.6209 42.8044 28.6342 42.811C28.7447 42.8663 28.8544 42.9235 28.9633 42.9821C28.9839 42.9932 29.0044 43.0045 29.025 43.0156C29.1349 43.0755 29.2443 43.1366 29.3525 43.2C30.915 44.114 32.6159 44.7059 34.4081 44.9596C34.4138 44.9604 34.4194 44.9611 34.425 44.9617L41.7815 45.8087C41.8222 45.8145 41.8627 45.8213 41.9028 45.8288C42.9858 46.0322 43.8406 46.8324 44.1265 47.8745C44.1689 48.0289 44.1988 48.1886 44.2151 48.3524L44.2443 48.6462L30.4569 47.4383C30.0959 47.4067 29.7771 47.6738 29.7455 48.035C29.7138 48.3963 29.9811 48.7148 30.3423 48.7464L44.9187 50.0235C44.9222 50.0238 44.9256 50.0237 44.929 50.024C44.9324 50.0242 44.9358 50.0248 44.9393 50.025L47.6882 50.1793C47.7005 50.18 47.7127 50.1803 47.725 50.1803C47.738 50.1803 47.7508 50.1782 47.7638 50.1774C47.7784 50.1765 47.7931 50.176 47.8076 50.1742C47.8272 50.1717 47.8463 50.1674 47.8656 50.1632C47.8793 50.1602 47.8931 50.1579 47.9066 50.154C47.9276 50.148 47.9479 50.1398 47.9683 50.1316C47.9792 50.1272 47.9905 50.1239 48.0013 50.1188C48.032 50.1046 48.0618 50.0883 48.0902 50.0692L50.4236 48.5077L50.4239 48.5074L57.3151 43.8955C58.0084 43.4295 58.9548 43.6124 59.4248 44.3031C59.8544 44.9343 59.7478 45.7928 59.1737 46.3025Z" fill="#1C2539"/>
</svg>
