<svg width="76" height="76" viewBox="0 0 76 76" fill="none" xmlns="http://www.w3.org/2000/svg">
<path d="M0 0H76V62V76H62H38H0V0Z" fill="#CFF9DC"/>
<path d="M49.322 51.8328C48.2692 51.8328 47.3823 52.5556 47.132 53.5316H44.8464C44.4827 53.5316 44.1873 53.2353 44.1873 52.8725V47.8334H44.5333C47.7864 47.8334 50.433 45.1869 50.433 41.9338C50.433 39.3669 48.7867 37.1244 46.3783 36.3312C46.5742 35.2953 47.2595 34.4947 48.048 33.5741C49.3042 32.1078 50.7292 30.4456 50.658 27.3331C50.6542 23.1041 47.2127 19.6653 42.9836 19.6653C38.7545 19.6653 35.312 23.1041 35.3092 27.3331C35.268 29.1631 35.7433 30.4916 36.3967 31.5734C36.1783 31.7047 35.9673 31.8491 35.7667 32.0075C34.7636 30.6209 33.1511 29.7828 31.4111 29.7828C28.4477 29.7828 26.0373 32.1941 26.0373 35.1566C26.0373 35.4828 26.0664 35.8072 26.1245 36.1259C23.3505 36.6219 21.2636 39.0547 21.2636 41.9338C21.2636 45.1869 23.9102 47.8334 27.1633 47.8334H27.5092V52.8725C27.5092 53.2363 27.213 53.5316 26.8502 53.5316H24.5645C24.3142 52.5556 23.4264 51.8328 22.3745 51.8328C21.1277 51.8328 20.1133 52.8472 20.1133 54.0941C20.1133 55.3409 21.1277 56.3553 22.3745 56.3553C23.4273 56.3553 24.3142 55.6325 24.5645 54.6566H26.8502C27.8345 54.6566 28.6342 53.8559 28.6342 52.8725V47.8334H32.6767V56.1425C31.7008 56.3928 30.978 57.2806 30.978 58.3325C30.978 59.5794 31.9923 60.5938 33.2392 60.5938C34.4861 60.5938 35.5005 59.5794 35.5005 58.3325C35.5005 57.2797 34.7777 56.3928 33.8017 56.1425V47.8334H37.8939V53.6028C36.918 53.8531 36.1952 54.7409 36.1952 55.7928C36.1952 57.0397 37.2095 58.0541 38.4564 58.0541C39.7033 58.0541 40.7177 57.0397 40.7177 55.7928C40.7177 54.74 39.9948 53.8531 39.0189 53.6028V47.8334H43.0614V52.8725C43.0614 53.8569 43.862 54.6566 44.8455 54.6566H47.1311C47.3814 55.6325 48.2692 56.3553 49.3211 56.3553C50.568 56.3553 51.5823 55.3409 51.5823 54.0941C51.5833 52.8472 50.5689 51.8328 49.322 51.8328ZM22.3755 55.2303C21.7492 55.2303 21.2392 54.7203 21.2392 54.0941C21.2392 53.4678 21.7492 52.9578 22.3755 52.9578C23.0017 52.9578 23.5117 53.4678 23.5117 54.0941C23.5117 54.7213 23.0017 55.2303 22.3755 55.2303ZM34.3764 58.3325C34.3764 58.9588 33.8664 59.4688 33.2402 59.4688C32.6139 59.4688 32.1039 58.9588 32.1039 58.3325C32.1039 57.7062 32.6139 57.1963 33.2402 57.1963C33.8664 57.1963 34.3764 57.7062 34.3764 58.3325ZM39.5936 55.7928C39.5936 56.4191 39.0836 56.9291 38.4573 56.9291C37.8311 56.9291 37.3211 56.4191 37.3211 55.7928C37.3211 55.1666 37.8311 54.6566 38.4573 54.6566C39.0836 54.6566 39.5936 55.1666 39.5936 55.7928ZM42.0077 35.075H43.9595V35.8353H42.0077V35.075ZM45.2336 36.9603V38.1022H40.7345V36.9603H45.2336ZM40.7336 39.2272H45.2327V39.6706L44.2267 40.6728C44.0477 40.8509 43.8573 40.9344 43.6258 40.9344H42.3405C42.1089 40.9344 41.9186 40.8509 41.7395 40.6728L40.7336 39.6706V39.2272ZM36.4342 27.3519C36.4342 27.3472 36.4342 27.3434 36.4342 27.3387C36.4342 23.7275 39.3723 20.7894 42.9836 20.7894C46.5948 20.7894 49.533 23.7275 49.533 27.3387V27.3519C49.5958 30.0387 48.3742 31.4638 47.1939 32.8409C46.398 33.77 45.6414 34.6531 45.3358 35.8344H45.0836V34.5125C45.0836 34.2022 44.8314 33.95 44.5211 33.95H44.2023L44.8933 28.5003C45.0883 28.5856 45.3133 28.6344 45.5664 28.6344C46.4645 28.6344 47.1948 27.9041 47.1948 27.0059C47.1948 26.1078 46.4645 25.3775 45.5664 25.3775C45.0817 25.3775 44.6514 25.5631 44.3552 25.9016C44.0992 26.1931 43.9567 26.5775 43.953 26.9872C43.9502 27.0003 43.9483 27.0134 43.9464 27.0266L43.0689 33.95H42.8955L42.0198 27.0444C42.018 27.0312 42.0161 27.0181 42.0133 27.005C42.0095 26.5963 41.867 26.2109 41.6111 25.9194C41.3148 25.5819 40.8845 25.3953 40.3998 25.3953C39.5017 25.3953 38.7714 26.1256 38.7714 27.0238C38.7714 27.9219 39.5017 28.6522 40.3998 28.6522C40.653 28.6522 40.877 28.6034 41.073 28.5181L41.762 33.95H41.4461C41.1358 33.95 40.8836 34.2022 40.8836 34.5125V35.8353H40.6314C40.3258 34.6541 39.5692 33.77 38.7733 32.8419C37.592 31.4637 36.3705 30.0387 36.4342 27.3519ZM45.078 27.005C45.078 26.8644 45.123 26.7331 45.2008 26.6441C45.2842 26.5494 45.4033 26.5034 45.5664 26.5034C45.8439 26.5034 46.0698 26.7294 46.0698 27.0069C46.0698 27.2844 45.8439 27.5103 45.5664 27.5103C45.1136 27.5094 45.078 27.1231 45.078 27.005ZM40.8892 27.0228C40.8892 27.1409 40.8536 27.5272 40.4008 27.5272C40.1233 27.5272 39.8973 27.3012 39.8973 27.0238C39.8973 26.7463 40.1233 26.5203 40.4008 26.5203C40.5639 26.5203 40.683 26.5662 40.7664 26.6609C40.8442 26.7509 40.8892 26.8822 40.8892 27.0228ZM22.3895 41.9328C22.3895 39.4213 24.3527 37.3288 26.8586 37.1684C27.0311 37.1572 27.1895 37.0672 27.287 36.9247C27.3845 36.7822 27.4117 36.6022 27.3592 36.4372C27.2289 36.0238 27.1623 35.5934 27.1623 35.1556C27.1623 32.8128 29.0683 30.9069 31.4111 30.9069C32.972 30.9069 34.4045 31.76 35.1498 33.1344C35.2342 33.29 35.387 33.3969 35.5633 33.4231C35.7386 33.4494 35.9158 33.3903 36.0414 33.2647C36.3405 32.9666 36.6733 32.7116 37.0352 32.5006C37.3248 32.8794 37.6267 33.2319 37.9192 33.5731C38.7367 34.5266 39.4427 35.3525 39.6086 36.4447V39.9041C39.6086 40.0531 39.6686 40.1966 39.7745 40.3025L40.9464 41.4697C41.3392 41.8606 41.808 42.0594 42.3414 42.0594H43.6267C44.1602 42.0594 44.6298 41.8606 45.0217 41.4697L46.1936 40.3025C46.2995 40.1966 46.3595 40.0531 46.3595 39.9041V37.5228C48.1267 38.2531 49.3098 39.9763 49.3098 41.9328C49.3098 44.5653 47.1677 46.7075 44.5352 46.7075H27.1642C24.5308 46.7075 22.3895 44.5663 22.3895 41.9328ZM49.322 55.2303C48.6958 55.2303 48.1858 54.7203 48.1858 54.0941C48.1858 53.4678 48.6958 52.9578 49.322 52.9578C49.9483 52.9578 50.4583 53.4678 50.4583 54.0941C50.4583 54.7213 49.9492 55.2303 49.322 55.2303ZM42.4211 18.1419V15.9688C42.4211 15.6584 42.6733 15.4062 42.9836 15.4062C43.2939 15.4062 43.5461 15.6584 43.5461 15.9688V18.1419C43.5461 18.4522 43.2939 18.7044 42.9836 18.7044C42.6733 18.7044 42.4211 18.4531 42.4211 18.1419ZM36.3245 17.9037C36.1689 17.6347 36.2617 17.2906 36.5308 17.135C36.7998 16.9794 37.1439 17.0722 37.2995 17.3412L38.3861 19.2238C38.5417 19.4928 38.4489 19.8369 38.1798 19.9925C38.0917 20.0431 37.9942 20.0675 37.8995 20.0675C37.7055 20.0675 37.5161 19.9662 37.412 19.7863L36.3245 17.9037ZM31.8067 21.8591C31.9623 21.59 32.3064 21.4981 32.5755 21.6528L34.458 22.7394C34.727 22.895 34.8189 23.2391 34.6642 23.5081C34.5602 23.6881 34.3708 23.7894 34.1767 23.7894C34.0811 23.7894 33.9845 23.765 33.8964 23.7144L32.0139 22.6278C31.743 22.4722 31.6511 22.1281 31.8067 21.8591ZM30.077 28.3128C30.077 28.0025 30.3292 27.7503 30.6395 27.7503H32.8127C33.123 27.7503 33.3752 28.0025 33.3752 28.3128C33.3752 28.6231 33.123 28.8753 32.8127 28.8753H30.6395C30.3292 28.8753 30.077 28.6231 30.077 28.3128ZM47.5811 19.2238L48.6677 17.3412C48.8233 17.0722 49.1673 16.9803 49.4364 17.135C49.7055 17.2906 49.7973 17.6347 49.6427 17.9037L48.5561 19.7863C48.452 19.9662 48.2627 20.0675 48.0686 20.0675C47.973 20.0675 47.8764 20.0431 47.7883 19.9925C47.5183 19.8369 47.4264 19.4928 47.5811 19.2238ZM53.9542 22.6278L52.0717 23.7144C51.9836 23.765 51.8861 23.7894 51.7914 23.7894C51.5973 23.7894 51.408 23.6881 51.3039 23.5081C51.1483 23.2391 51.2411 22.895 51.5102 22.7394L53.3927 21.6528C53.6617 21.4981 54.0058 21.59 54.1614 21.8591C54.317 22.1281 54.2233 22.4722 53.9542 22.6278ZM55.8892 28.3128C55.8892 28.6231 55.637 28.8753 55.3267 28.8753H53.1536C52.8433 28.8753 52.5911 28.6231 52.5911 28.3128C52.5911 28.0025 52.8433 27.7503 53.1536 27.7503H55.3267C55.638 27.7503 55.8892 28.0016 55.8892 28.3128Z" fill="#20282D"/>
</svg>
