<svg width="76" height="76" viewBox="0 0 76 76" fill="none" xmlns="http://www.w3.org/2000/svg">
<path d="M0 0H76V62V76H62H38H0V0Z" fill="#FFF9DD"/>
<path d="M16.2214 34.4126H20.3318C20.5749 35.2893 20.9251 36.1326 21.3755 36.9231L18.4662 39.8312C18.3273 39.9701 18.2491 40.1585 18.2491 40.3554C18.2491 40.5522 18.3273 40.7406 18.4662 40.8795L21.6093 44.0235C21.8988 44.3124 22.3676 44.3124 22.657 44.0235L25.5666 41.1136C26.3571 41.5637 27.1996 41.9142 28.0762 42.157V46.2674C28.0762 46.6767 28.4079 47.0084 28.8172 47.0084H33.2627C33.672 47.0084 34.0037 46.6767 34.0037 46.2674V42.157C34.8803 41.9142 35.7228 41.5637 36.5133 41.1136L39.4228 44.0235C39.7169 44.3014 40.1768 44.3014 40.4706 44.0235L43.6143 40.8795C43.7532 40.7406 43.8314 40.5522 43.8314 40.3554C43.8314 40.1585 43.7532 39.9701 43.6143 39.8312L40.7044 36.9231C41.1548 36.1326 41.505 35.2893 41.7481 34.4126H45.8585C46.2677 34.4126 46.5994 34.0809 46.5994 33.6717V29.2261C46.5994 28.8171 46.2677 28.4852 45.8585 28.4852H41.7481C41.505 27.6088 41.1548 26.7654 40.7044 25.975L43.6137 23.0668C43.7526 22.9279 43.8308 22.7395 43.8308 22.5427C43.8308 22.3459 43.7526 22.1575 43.6137 22.0186L40.4706 18.8745C40.1811 18.5854 39.7123 18.5854 39.4228 18.8745L36.5133 21.7844C35.7228 21.3346 34.88 20.9841 34.0037 20.741V16.6303C34.0037 16.2214 33.672 15.8894 33.2627 15.8894H28.8172C28.4079 15.8894 28.0762 16.2214 28.0762 16.6303V20.741C27.1999 20.9841 26.3571 21.3346 25.5666 21.7844L22.657 18.8745C22.363 18.5967 21.9031 18.5967 21.6093 18.8745L18.4656 22.0186C18.3267 22.1575 18.2485 22.3459 18.2485 22.5427C18.2485 22.7395 18.3267 22.9279 18.4656 23.0668L21.3755 25.975C20.9251 26.7654 20.5749 27.6088 20.3318 28.4852H16.2214C15.8121 28.4852 15.4805 28.8171 15.4805 29.2261V33.6717C15.4805 34.0809 15.8121 34.4126 16.2214 34.4126ZM16.9623 29.967H20.9115C21.2597 29.967 21.561 29.7248 21.6354 29.3847C21.8785 28.275 22.3181 27.2175 22.9334 26.2624C23.1213 25.9695 23.0796 25.5848 22.8333 25.3385L20.0372 22.5424L22.1332 20.4461L24.9287 23.2422C25.175 23.4891 25.56 23.5308 25.8535 23.3427C26.8088 22.7276 27.8661 22.288 28.9758 22.0446C29.3156 21.9699 29.5581 21.6686 29.5581 21.3205V17.3713H32.5218V21.3205C32.5218 21.6686 32.7643 21.9699 33.1041 22.0446C34.2138 22.288 35.271 22.7276 36.2264 23.3427C36.5199 23.5308 36.9049 23.4891 37.1511 23.2422L39.9467 20.4461L42.0421 22.5424L39.2466 25.3377C38.9997 25.5843 38.9583 25.9692 39.1464 26.2624C39.7618 27.2181 40.2008 28.2753 40.4436 29.3853C40.5183 29.7254 40.8196 29.9679 41.1675 29.9679H45.1176V32.9316H41.1675C40.8196 32.9316 40.5183 33.1739 40.4436 33.5139C40.2008 34.6236 39.7615 35.6809 39.1464 36.6354C38.9586 36.9286 39.0003 37.3132 39.2466 37.5595L42.0427 40.3551L39.9467 42.4519L37.1511 39.6555C36.9049 39.4089 36.5199 39.3673 36.2264 39.5554C35.2716 40.1707 34.2146 40.6103 33.105 40.8535C32.7646 40.9275 32.5218 41.2291 32.5218 41.5773V45.5265H29.5581V41.5773C29.5581 41.2291 29.3153 40.9275 28.9749 40.8535C27.8652 40.6103 26.8083 40.1707 25.8535 39.5554C25.56 39.3673 25.175 39.4089 24.9287 39.6555L22.1332 42.4519L20.0378 40.3556L22.8333 37.5601C23.0802 37.3138 23.1216 36.9289 22.9334 36.6354C22.3181 35.68 21.8785 34.6224 21.6354 33.5125C21.5607 33.1724 21.2597 32.9307 20.9115 32.9307H16.9623V29.967Z" fill="#1C2539"/>
<path d="M31.0407 37.3763C34.3144 37.3763 36.9681 34.7229 36.9681 31.4489C36.9681 28.1752 34.3144 25.5215 31.0407 25.5215C27.767 25.5215 25.1133 28.1752 25.1133 31.4489C25.1168 34.7209 27.7688 37.3729 31.0407 37.3763ZM31.0407 27.0033C33.4956 27.0033 35.4863 28.994 35.4863 31.4489C35.4863 33.9041 33.4956 35.8945 31.0407 35.8945C28.5858 35.8945 26.5951 33.9041 26.5951 31.4489C26.5977 28.9946 28.5864 27.0059 31.0407 27.0033Z" fill="#1C2539"/>
<path d="M31.0408 39.5992C35.542 39.5992 39.191 35.9505 39.191 31.449C39.191 26.9479 35.542 23.2988 31.0408 23.2988C26.5397 23.2988 22.8906 26.9479 22.8906 31.449C22.8961 35.9481 26.5417 39.594 31.0408 39.5992ZM31.0408 24.7807C34.7238 24.7807 37.7092 27.7661 37.7092 31.449C37.7092 35.132 34.7238 38.1174 31.0408 38.1174C27.3579 38.1174 24.3725 35.132 24.3725 31.449C24.3765 27.7681 27.3596 24.7847 31.0408 24.7807Z" fill="#1C2539"/>
<path d="M57.7133 49.9722V44.0448C57.7133 43.6358 57.3817 43.3038 56.9724 43.3038H55.4906V37.3764C55.4906 36.9675 55.1589 36.6355 54.7496 36.6355H48.0813C47.672 36.6355 47.3403 36.9675 47.3403 37.3764V43.3038H43.6357C43.2265 43.3038 42.8948 43.6358 42.8948 44.0448V49.9722H19.1851C17.14 49.9748 15.4831 51.6318 15.4805 53.6768V55.1587C15.4831 57.2041 17.14 58.861 19.1851 58.8633H57.7133C59.7584 58.861 61.4154 57.2041 61.418 55.1587V53.6768C61.4154 51.6318 59.7584 49.9748 57.7133 49.9722ZM56.2315 49.9722H51.045V44.7857H56.2315V49.9722ZM48.8222 38.1174H54.0087V43.3038H48.8222V38.1174ZM44.3766 44.7857H49.5631V49.9722H44.3766V44.7857ZM59.9361 55.1587C59.9361 56.3864 58.9408 57.3815 57.7133 57.3815H19.1851C17.9577 57.3815 16.9623 56.3864 16.9623 55.1587V53.6768C16.9623 52.4494 17.9577 51.454 19.1851 51.454H57.7133C58.9408 51.454 59.9361 52.4494 59.9361 53.6768V55.1587Z" fill="#1C2539"/>
<path d="M38.4493 52.1951C37.2219 52.1951 36.2266 53.1904 36.2266 54.4179C36.2266 55.6456 37.2219 56.6406 38.4493 56.6406C39.6768 56.6406 40.6721 55.6456 40.6721 54.4179C40.6721 53.1904 39.6768 52.1951 38.4493 52.1951ZM38.4493 55.1588C38.0401 55.1588 37.7084 54.8271 37.7084 54.4179C37.7084 54.0089 38.0401 53.6769 38.4493 53.6769C38.8586 53.6769 39.1903 54.0089 39.1903 54.4179C39.1903 54.8271 38.8586 55.1588 38.4493 55.1588Z" fill="#1C2539"/>
<path d="M31.0431 52.1951C29.8156 52.1951 28.8203 53.1904 28.8203 54.4179C28.8203 55.6456 29.8156 56.6406 31.0431 56.6406C32.2705 56.6406 33.2659 55.6456 33.2659 54.4179C33.2659 53.1904 32.2705 52.1951 31.0431 52.1951ZM31.0431 55.1588C30.6338 55.1588 30.3022 54.8271 30.3022 54.4179C30.3022 54.0089 30.6338 53.6769 31.0431 53.6769C31.4523 53.6769 31.784 54.0089 31.784 54.4179C31.784 54.8271 31.4523 55.1588 31.0431 55.1588Z" fill="#1C2539"/>
<path d="M45.8595 52.1951C44.6321 52.1951 43.6367 53.1904 43.6367 54.4179C43.6367 55.6456 44.6321 56.6406 45.8595 56.6406C47.087 56.6406 48.0823 55.6456 48.0823 54.4179C48.0823 53.1904 47.087 52.1951 45.8595 52.1951ZM45.8595 55.1588C45.4503 55.1588 45.1186 54.8271 45.1186 54.4179C45.1186 54.0089 45.4503 53.6769 45.8595 53.6769C46.2687 53.6769 46.6004 54.0089 46.6004 54.4179C46.6004 54.8271 46.2687 55.1588 45.8595 55.1588Z" fill="#1C2539"/>
<path d="M23.6329 52.1951C22.4055 52.1951 21.4102 53.1904 21.4102 54.4179C21.4102 55.6456 22.4055 56.6406 23.6329 56.6406C24.8604 56.6406 25.8557 55.6456 25.8557 54.4179C25.8557 53.1904 24.8604 52.1951 23.6329 52.1951ZM23.6329 55.1588C23.2237 55.1588 22.892 54.8271 22.892 54.4179C22.892 54.0089 23.2237 53.6769 23.6329 53.6769C24.0422 53.6769 24.3739 54.0089 24.3739 54.4179C24.3739 54.8271 24.0422 55.1588 23.6329 55.1588Z" fill="#1C2539"/>
<path d="M53.2697 52.1951C52.0422 52.1951 51.0469 53.1904 51.0469 54.4179C51.0469 55.6456 52.0422 56.6406 53.2697 56.6406C54.4971 56.6406 55.4924 55.6456 55.4924 54.4179C55.4924 53.1904 54.4971 52.1951 53.2697 52.1951ZM53.2697 55.1588C52.8604 55.1588 52.5287 54.8271 52.5287 54.4179C52.5287 54.0089 52.8604 53.6769 53.2697 53.6769C53.6789 53.6769 54.0106 54.0089 54.0106 54.4179C54.0106 54.8271 53.6789 55.1588 53.2697 55.1588Z" fill="#1C2539"/>
</svg>
