<svg width="76" height="76" viewBox="0 0 76 76" fill="none" xmlns="http://www.w3.org/2000/svg">
<path d="M0 0H76V62V76H62H38H0V0Z" fill="#E3F4FC"/>
<path d="M40.7641 51.2816C40.4668 51.2816 40.2251 51.0399 40.2251 50.7425C40.2251 50.4452 40.4668 50.2035 40.7641 50.2035H41.7353C42.0327 50.2035 42.2744 50.4452 42.2744 50.7425C42.2744 51.0399 42.0327 51.2816 41.7353 51.2816H40.7641ZM59.652 39.1877V54.5995V57.4072C59.652 57.7045 59.4103 57.9462 59.1129 57.9462H56.8165C56.1696 58.9695 55.0286 59.6514 53.7304 59.6514C52.4321 59.6514 51.2911 58.9695 50.6443 57.9462H41.2062C40.5593 58.9695 39.4183 59.6514 38.12 59.6514C36.8218 59.6514 35.6808 58.9695 35.0339 57.9462H32.6441C32.3467 57.9462 32.105 57.7045 32.105 57.4072V54.5995V53.136C24.6992 50.4604 19.7209 43.4832 19.6005 35.5976L16.9322 33.851C16.4515 33.5366 16.2449 32.9364 16.4309 32.3929C16.6168 31.8484 17.146 31.5007 17.7201 31.5456L19.9384 31.7208C20.1872 30.419 20.5744 29.1459 21.0902 27.9249L17.0634 25.4578C16.4425 25.0778 16.1856 24.3096 16.4524 23.6331C16.7193 22.9557 17.4308 22.5693 18.1442 22.7149L23.4872 23.802C25.1861 21.5811 27.3819 19.7366 29.8589 18.4554C32.5255 17.0763 35.5325 16.3477 38.554 16.3477C49.0064 16.3477 57.511 24.8514 57.511 35.3047C57.511 36.4286 57.4104 37.5499 57.2154 38.6487H59.1129C59.4103 38.6487 59.652 38.8904 59.652 39.1877ZM58.5739 39.7268H53.4743V42.3493C53.4743 42.6467 53.2327 42.8884 52.9353 42.8884H49.7737C49.4763 42.8884 49.2346 42.6467 49.2346 42.3493V39.7268H44.1351V50.2035H58.5739V39.7268ZM33.184 52.1935H34.0025V51.7434H33.184V52.1935ZM35.2756 48.7004L36.9224 45.9027C35.1013 46.0653 33.3421 46.5001 31.6836 47.1901C32.0169 47.9071 32.3844 48.5782 32.7806 49.1972L35.2756 48.7004ZM23.6615 34.7656H27.7691L26.231 32.2563L23.6462 34.5725L23.6615 34.7656ZM39.093 34.7656H47.7711C47.7073 30.6301 46.9148 26.739 45.5097 23.6205C43.481 24.421 41.3203 24.863 39.0921 24.925V34.7656H39.093ZM45.0389 22.6475C45.0191 22.6098 45.0003 22.5711 44.9805 22.5343C43.366 19.4886 41.2933 17.7088 39.0939 17.4581V23.8469C41.1559 23.7858 43.1576 23.3797 45.0389 22.6475ZM38.0149 17.4581C36.3277 17.654 34.6952 18.7645 33.2981 20.6584C33.7635 20.6422 34.1328 20.7698 34.4023 21.0384C34.7931 21.4292 34.8848 22.0339 34.6727 22.8344C34.6242 23.0168 34.5586 23.2009 34.4787 23.3869C35.635 23.6564 36.82 23.8101 38.0158 23.846V17.4581H38.0149ZM31.1167 27.6446C31.0197 27.7461 30.9227 27.8486 30.8256 27.951L32.211 34.7656H38.0149V24.925C36.634 24.8864 35.2657 24.6986 33.936 24.3662C33.2433 25.412 32.2002 26.5072 31.1167 27.6446ZM31.2578 39.0925C30.7502 39.0925 30.2614 38.8329 29.982 38.3773L29.3953 37.4205C29.5921 40.6459 30.2353 43.6602 31.256 46.2C33.2478 45.369 35.378 44.8865 37.5855 44.776L38.014 44.0483V35.8438H32.4293L32.7249 37.2974C32.8705 38.0108 32.4841 38.7223 31.8067 38.9883C31.6279 39.0593 31.4419 39.0925 31.2578 39.0925ZM36.5612 48.6429H41.1954V46.4282H37.8649L36.5612 48.6429ZM39.093 43.6566H43.0569V39.1877C43.0569 38.8904 43.2986 38.6487 43.596 38.6487H47.6129C47.7037 37.7269 47.7567 36.7871 47.7719 35.8438H39.0939V43.6566H39.093ZM50.3127 41.8103H52.3962V39.7268H50.3127V41.8103ZM56.1202 38.6487C56.2945 37.7269 56.396 36.7871 56.4239 35.8438H48.8501C48.8357 36.7871 48.7836 37.726 48.6955 38.6487H56.1202ZM49.6856 21.3241C48.6776 22.0572 47.612 22.6816 46.5016 23.1955C47.9633 26.4488 48.7863 30.4882 48.8501 34.7647H56.4239C56.2622 29.331 53.663 24.4983 49.6856 21.3241ZM42.6913 17.91C43.8943 18.8696 44.9931 20.2559 45.9328 22.0285C45.967 22.0932 46.0002 22.1588 46.0344 22.2243C46.9867 21.7841 47.9049 21.2576 48.7791 20.6467C46.9661 19.3781 44.9077 18.4374 42.6913 17.91ZM28.3325 20.6467C29.018 21.1246 29.7358 21.555 30.4788 21.9314C30.8858 21.6206 31.2856 21.352 31.6782 21.1444C32.4976 19.795 33.423 18.7096 34.4194 17.9163C32.2371 18.4383 30.1698 19.3682 28.3325 20.6467ZM24.6704 24.0428L27.4897 24.616C27.5921 24.5189 27.6937 24.4219 27.7961 24.324C28.4016 23.7472 28.9946 23.1821 29.575 22.6754C28.8293 22.2738 28.1078 21.8209 27.4214 21.3223C26.4152 22.121 25.4916 23.032 24.6704 24.0428ZM22.0182 28.4945C21.6086 29.4891 21.2914 30.5196 21.0677 31.5717L23.1844 29.2088L22.0182 28.4945ZM17.5216 32.949L20.4316 34.8537C20.4936 34.8941 20.5466 34.9471 20.587 35.0091L22.4917 37.9191C22.5384 37.991 22.6184 38.0189 22.7002 37.991C22.7819 37.9632 22.8277 37.8931 22.8205 37.8068L22.5501 34.3919C22.5366 34.2239 22.6022 34.0604 22.728 33.948L25.9929 31.0218C26.0927 30.9329 26.2211 30.8844 26.3523 30.8844C26.3784 30.8844 26.4044 30.8862 26.4305 30.8898C26.5886 30.9131 26.7287 31.0048 26.8123 31.1413L30.902 37.814C31.0098 37.9901 31.22 38.0611 31.4123 37.9847C31.6046 37.9093 31.7106 37.7143 31.6693 37.5113L29.7125 27.8908C29.6774 27.7183 29.7286 27.5404 29.849 27.4128C30.0107 27.2421 30.1734 27.0714 30.336 26.9007C31.7959 25.368 33.3062 23.7831 33.6305 22.5586C33.7572 22.0797 33.6961 21.8569 33.6404 21.8012C33.5847 21.7455 33.3619 21.6835 32.883 21.8111C31.6576 22.1354 30.0736 23.6448 28.5409 25.1056C28.3702 25.2682 28.2004 25.4309 28.0288 25.5926C27.9012 25.713 27.7233 25.7642 27.5508 25.7291L17.9294 23.7714C17.7273 23.7301 17.5323 23.8361 17.456 24.0284C17.3805 24.2207 17.4506 24.4309 17.6267 24.5387L24.2994 28.6275C24.4359 28.7111 24.5276 28.8512 24.5509 29.0093C24.5743 29.1675 24.5258 29.3283 24.4189 29.4469L21.4927 32.7118C21.3803 32.8367 21.2159 32.9023 21.0488 32.8897L17.6339 32.6193C17.5485 32.613 17.4775 32.6588 17.4497 32.7405C17.4227 32.8223 17.4497 32.9023 17.5216 32.949ZM26.8285 48.8091C27.9102 47.9565 29.0638 47.2332 30.2767 46.643C29.0296 43.555 28.319 39.8104 28.2597 35.8438H23.7468L23.8951 37.7215C23.94 38.2947 23.5923 38.8248 23.0478 39.0107C22.5043 39.1967 21.9041 38.9901 21.5888 38.5094L20.7838 37.2795C21.2842 41.8031 23.4809 45.9009 26.8285 48.8091ZM32.1059 51.9851V50.1298C31.592 49.3724 31.123 48.5369 30.7043 47.6339C29.6478 48.1514 28.637 48.7777 27.6856 49.5081C29.0126 50.5242 30.4959 51.3634 32.1059 51.9851ZM34.5757 56.869C34.5083 56.5914 34.4715 56.3021 34.4715 56.0038C34.4715 55.7055 34.5083 55.4162 34.5757 55.1386H33.1831V56.8681H34.5757V56.869ZM40.6905 56.0038C40.6905 54.5861 39.5378 53.4334 38.12 53.4334C36.7023 53.4334 35.5496 54.5861 35.5496 56.0038C35.5496 57.4215 36.7032 58.5742 38.12 58.5742C39.5378 58.5742 40.6905 57.4215 40.6905 56.0038ZM41.2062 54.0605H43.0569V44.7347H38.8621L38.4992 45.3501H41.7344C42.0318 45.3501 42.2735 45.5918 42.2735 45.8892V49.182C42.2735 49.4793 42.0318 49.721 41.7344 49.721H35.6709L33.1831 50.217V50.6662H34.5407C34.838 50.6662 35.0797 50.9079 35.0797 51.2052V52.7335C35.0797 53.0309 34.838 53.2725 34.5407 53.2725H33.184V54.0614H35.0348C35.6817 53.038 36.8227 52.3561 38.1209 52.3561C39.4183 52.3552 40.5593 53.0372 41.2062 54.0605ZM50.1869 56.869C50.1196 56.5914 50.0827 56.3021 50.0827 56.0038C50.0827 55.7055 50.1196 55.4162 50.1869 55.1386H41.6644C41.7318 55.4162 41.7686 55.7055 41.7686 56.0038C41.7686 56.3021 41.7318 56.5914 41.6644 56.869H50.1869ZM56.3017 56.0038C56.3017 54.5861 55.149 53.4334 53.7313 53.4334C52.3135 53.4334 51.1609 54.5861 51.1609 56.0038C51.1609 57.4215 52.3135 58.5742 53.7304 58.5742C55.1481 58.5742 56.3017 57.4215 56.3017 56.0038ZM56.8165 54.0605H58.5739V51.2816H44.1351V54.0605H50.6452C51.292 53.0372 52.433 52.3552 53.7313 52.3552C55.0286 52.3552 56.1696 53.0372 56.8165 54.0605ZM58.5739 55.1386H57.2747C57.3421 55.4162 57.3789 55.7055 57.3789 56.0038C57.3789 56.3021 57.3421 56.5914 57.2747 56.869H58.5739V55.1386ZM39.8971 56.0038C39.8971 56.984 39.1002 57.7809 38.12 57.7809C37.1398 57.7809 36.3429 56.984 36.3429 56.0038C36.3429 55.0236 37.1398 54.2267 38.12 54.2267C39.1002 54.2267 39.8971 55.0236 39.8971 56.0038ZM38.819 56.0038C38.819 55.6184 38.5055 55.3048 38.12 55.3048C37.7346 55.3048 37.4211 55.6184 37.4211 56.0038C37.4211 56.3892 37.7346 56.7028 38.12 56.7028C38.5055 56.7028 38.819 56.3892 38.819 56.0038ZM55.5075 56.0038C55.5075 56.984 54.7106 57.7809 53.7304 57.7809C52.7502 57.7809 51.9533 56.984 51.9533 56.0038C51.9533 55.0236 52.7502 54.2267 53.7304 54.2267C54.7106 54.2267 55.5075 55.0236 55.5075 56.0038ZM54.4294 56.0038C54.4294 55.6184 54.1158 55.3048 53.7304 55.3048C53.345 55.3048 53.0314 55.6184 53.0314 56.0038C53.0314 56.3892 53.345 56.7028 53.7304 56.7028C54.1158 56.7028 54.4294 56.3892 54.4294 56.0038Z" fill="#1C2539"/>
</svg>
