<svg width="76" height="76" viewBox="0 0 76 76" fill="none" xmlns="http://www.w3.org/2000/svg">
<path d="M0 0H76V62V76H62H38H0V0Z" fill="#CFF9DC"/>
<g clip-path="url(#clip0_3056_569)">
<path d="M39.0161 38.6562H36.9873C36.0967 38.6562 35.373 39.3799 35.373 40.2705C35.373 41.1612 36.0967 41.8849 36.9873 41.8849H39.2992C39.8936 41.8849 40.4448 41.5399 40.7036 41.0037C40.8836 40.6305 41.3317 40.4749 41.7048 40.6549C42.078 40.8349 42.2336 41.283 42.0536 41.6562C41.5455 42.7062 40.4655 43.3849 39.2992 43.3849H38.7498V44.6074C38.7498 45.0218 38.4142 45.3574 37.9998 45.3574C37.5855 45.3574 37.2498 45.0218 37.2498 44.6074V43.3849H36.9855C35.268 43.3849 33.8711 41.988 33.8711 40.2705C33.8711 38.553 35.268 37.1562 36.9855 37.1562H39.0142C39.9048 37.1562 40.6286 36.4324 40.6286 35.5418C40.6286 34.6512 39.9048 33.9274 39.0142 33.9274H36.7023C36.108 33.9274 35.5567 34.2724 35.298 34.8087C35.118 35.1818 34.6698 35.3374 34.2967 35.1574C33.9236 34.9774 33.768 34.5293 33.948 34.1562C34.4561 33.1062 35.5361 32.4274 36.7023 32.4274H37.2517V31.2049C37.2517 30.7905 37.5873 30.4549 38.0017 30.4549C38.4161 30.4549 38.7517 30.7905 38.7517 31.2049V32.4274H39.0161C40.7336 32.4274 42.1305 33.8243 42.1305 35.5418C42.1305 37.2593 40.7336 38.6562 39.0161 38.6562Z" fill="#1C2539"/>
<path d="M34.8498 46.3663C34.6735 46.7413 34.2273 46.9006 33.8523 46.7244C31.4392 45.5881 29.5792 43.4863 28.7448 40.9569C28.6154 40.5631 28.8292 40.1394 29.2229 40.01C29.3017 39.9838 29.3804 39.9725 29.4573 39.9725C29.7723 39.9725 30.0648 40.1731 30.1698 40.4881C30.8748 42.6275 32.4498 44.405 34.4917 45.3669C34.8667 45.5431 35.026 45.9913 34.8498 46.3644V46.3663Z" fill="#1C2539"/>
<path d="M58.9006 41.0637C57.4175 41.0637 56.1744 40.0343 55.835 38.6543H50.72C50.6544 39.7756 50.4425 40.8575 50.105 41.8812H55.4862C55.9006 41.8812 56.2362 42.2168 56.2362 42.6312V46.8331C57.6162 47.1706 58.6456 48.4156 58.6456 49.8987C58.6456 51.6406 57.2281 53.0581 55.4862 53.0581C53.7444 53.0581 52.3269 51.6406 52.3269 49.8987C52.3269 48.4156 53.3563 47.1725 54.7362 46.8331V43.3812H49.505C49.0269 44.3825 48.4194 45.3125 47.7069 46.1487H49.6213C50.0356 46.1487 50.3713 46.4843 50.3713 46.8987V54.1043C51.7512 54.4418 52.7806 55.6868 52.7806 57.17C52.7806 58.9118 51.3631 60.3293 49.6213 60.3293C47.8794 60.3293 46.4619 58.9118 46.4619 57.17C46.4619 55.6868 47.4912 54.4437 48.8713 54.1043V47.6487H46.2013C43.9831 49.5181 41.1219 50.6487 38 50.6487C34.8781 50.6487 32.0169 49.5181 29.7987 47.6487H27.1887V54.1043C28.5687 54.4418 29.5981 55.6868 29.5981 57.17C29.5981 58.9118 28.1806 60.3293 26.4387 60.3293C24.6969 60.3293 23.2794 58.9118 23.2794 57.17C23.2794 55.6868 24.3088 54.4437 25.6888 54.1043V46.8987C25.6888 46.4843 26.0244 46.1487 26.4387 46.1487H28.2931C27.5806 45.3125 26.9731 44.3825 26.495 43.3812H21.3238V46.8331C22.7038 47.1706 23.7331 48.4156 23.7331 49.8987C23.7331 51.6406 22.3156 53.0581 20.5738 53.0581C18.8319 53.0581 17.4144 51.6406 17.4144 49.8987C17.4144 48.4156 18.4437 47.1725 19.8238 46.8331V42.6312C19.8238 42.2168 20.1594 41.8812 20.5738 41.8812H25.895C25.5575 40.8556 25.3456 39.7737 25.28 38.6543H20.225C19.8875 40.0343 18.6425 41.0637 17.1594 41.0637C15.4175 41.0637 14 39.6462 14 37.9043C14 36.1625 15.4175 34.745 17.1594 34.745C18.6425 34.745 19.8856 35.7743 20.225 37.1543H25.28C25.3456 36.0331 25.5575 34.9512 25.895 33.9275H20.5738C20.1594 33.9275 19.8238 33.5918 19.8238 33.1775V28.9756C18.4437 28.6381 17.4144 27.3931 17.4144 25.91C17.4144 24.1681 18.8319 22.7506 20.5738 22.7506C22.3156 22.7506 23.7331 24.1681 23.7331 25.91C23.7331 27.3931 22.7038 28.6362 21.3238 28.9756V32.4275H26.495C26.9731 31.4262 27.5806 30.4981 28.2931 29.66H26.4387C26.0244 29.66 25.6888 29.3243 25.6888 28.91V21.7043C24.3088 21.3668 23.2794 20.1218 23.2794 18.6387C23.2794 16.8968 24.6969 15.4793 26.4387 15.4793C28.1806 15.4793 29.5981 16.8968 29.5981 18.6387C29.5981 20.1218 28.5687 21.365 27.1887 21.7043V28.16H29.7987C32.0169 26.2906 34.8781 25.16 38 25.16C41.1219 25.16 43.9831 26.2906 46.2013 28.16H48.8713V21.7043C47.4912 21.3668 46.4619 20.1218 46.4619 18.6387C46.4619 16.8968 47.8794 15.4793 49.6213 15.4793C51.3631 15.4793 52.7806 16.8968 52.7806 18.6387C52.7806 20.1218 51.7512 21.365 50.3713 21.7043V28.91C50.3713 29.3243 50.0356 29.66 49.6213 29.66H47.7069C48.4194 30.4962 49.0269 31.4262 49.505 32.4275H54.7362V28.9756C53.3563 28.6381 52.3269 27.3931 52.3269 25.91C52.3269 24.1681 53.7444 22.7506 55.4862 22.7506C57.2281 22.7506 58.6456 24.1681 58.6456 25.91C58.6456 27.3931 57.6162 28.6362 56.2362 28.9756V33.1775C56.2362 33.5918 55.9006 33.9275 55.4862 33.9275H50.105C50.4425 34.9531 50.6544 36.035 50.72 37.1543H55.835C56.1725 35.7743 57.4175 34.745 58.9006 34.745C60.6425 34.745 62.06 36.1625 62.06 37.9043C62.06 39.6462 60.6425 41.0637 58.9006 41.0637ZM53.8269 49.8987C53.8269 50.8137 54.5712 51.5581 55.4862 51.5581C56.4012 51.5581 57.1456 50.8137 57.1456 49.8987C57.1456 48.9837 56.4012 48.2393 55.4862 48.2393C54.5712 48.2393 53.8269 48.9837 53.8269 49.8987ZM47.9619 57.17C47.9619 58.085 48.7062 58.8293 49.6213 58.8293C50.5363 58.8293 51.2806 58.085 51.2806 57.17C51.2806 56.255 50.5363 55.5106 49.6213 55.5106C48.7062 55.5106 47.9619 56.255 47.9619 57.17ZM24.7794 57.17C24.7794 58.085 25.5237 58.8293 26.4387 58.8293C27.3537 58.8293 28.0981 58.085 28.0981 57.17C28.0981 56.255 27.3537 55.5106 26.4387 55.5106C25.5237 55.5106 24.7794 56.255 24.7794 57.17ZM18.9144 49.8987C18.9144 50.8137 19.6588 51.5581 20.5738 51.5581C21.4888 51.5581 22.2331 50.8137 22.2331 49.8987C22.2331 48.9837 21.4888 48.2393 20.5738 48.2393C19.6588 48.2393 18.9144 48.9837 18.9144 49.8987ZM22.2313 25.91C22.2313 24.995 21.4869 24.2506 20.5719 24.2506C19.6569 24.2506 18.9125 24.995 18.9125 25.91C18.9125 26.825 19.6569 27.5693 20.5719 27.5693C21.4869 27.5693 22.2313 26.825 22.2313 25.91ZM28.0963 18.6387C28.0963 17.7237 27.3519 16.9793 26.4369 16.9793C25.5219 16.9793 24.7775 17.7237 24.7775 18.6387C24.7775 19.5537 25.5219 20.2981 26.4369 20.2981C27.3519 20.2981 28.0963 19.5537 28.0963 18.6387ZM51.2788 18.6387C51.2788 17.7237 50.5344 16.9793 49.6194 16.9793C48.7044 16.9793 47.96 17.7237 47.96 18.6387C47.96 19.5537 48.7044 20.2981 49.6194 20.2981C50.5344 20.2981 51.2788 19.5537 51.2788 18.6387ZM57.1438 25.91C57.1438 24.995 56.3994 24.2506 55.4844 24.2506C54.5694 24.2506 53.825 24.995 53.825 25.91C53.825 26.825 54.5694 27.5693 55.4844 27.5693C56.3994 27.5693 57.1438 26.825 57.1438 25.91ZM17.1594 36.2468C16.2444 36.2468 15.5 36.9912 15.5 37.9062C15.5 38.8212 16.2444 39.5656 17.1594 39.5656C18.0744 39.5656 18.8188 38.8212 18.8188 37.9062C18.8188 36.9912 18.0744 36.2468 17.1594 36.2468ZM30.7719 29.3018C30.6912 29.4331 30.5731 29.5381 30.4288 29.6C29.33 30.6031 28.4337 31.82 27.7981 33.185C27.7962 33.395 27.7081 33.5825 27.5675 33.7175C27.0781 34.9325 26.795 36.2525 26.7631 37.6325C26.7969 37.7168 26.8156 37.8087 26.8156 37.9062C26.8156 38.0037 26.795 38.0937 26.7631 38.18C26.7969 39.56 27.0781 40.88 27.5675 42.095C27.7081 42.23 27.7962 42.4193 27.7981 42.6275C28.4319 43.9925 29.33 45.2093 30.4288 46.2125C30.5713 46.2743 30.6894 46.3793 30.7719 46.5106C32.7275 48.1568 35.2494 49.1525 38.0019 49.1525C42.5975 49.1525 46.5575 46.3793 48.2994 42.4193C48.3181 42.3575 48.3425 42.2993 48.3763 42.2468C48.9369 40.9118 49.2481 39.4456 49.2481 37.9081C49.2481 36.3706 48.9369 34.9043 48.3763 33.5693C48.3444 33.5168 48.3181 33.4587 48.2994 33.3968C46.5575 29.4368 42.5994 26.6637 38.0019 26.6637C35.2512 26.6637 32.7294 27.6575 30.7719 29.3056V29.3018ZM58.9025 36.2468C57.9875 36.2468 57.2431 36.9912 57.2431 37.9062C57.2431 38.8212 57.9875 39.5656 58.9025 39.5656C59.8175 39.5656 60.5619 38.8212 60.5619 37.9062C60.5619 36.9912 59.8175 36.2468 58.9025 36.2468Z" fill="#1C2539"/>
</g>
<defs>
<clipPath id="clip0_3056_569">
<rect width="48" height="48" fill="white" transform="matrix(1 0 0 -1 14 62)"/>
</clipPath>
</defs>
</svg>
