<svg width="76" height="76" viewBox="0 0 76 76" fill="none" xmlns="http://www.w3.org/2000/svg">
<path d="M0 0H76V62V76H62H38H0V0Z" fill="#FFF9DD"/>
<g clip-path="url(#clip0_3056_557)">
<path d="M38.7669 61H58.7003C59.3102 61 59.8953 60.7577 60.3266 60.3263C60.7579 59.895 61.0003 59.31 61.0003 58.7V44.9C61.0003 44.29 60.7579 43.705 60.3266 43.2737C59.8953 42.8423 59.3102 42.6 58.7003 42.6H44.9639C44.2934 41.755 43.4645 41.049 42.5236 40.5216C43.1559 40.1001 43.672 39.5264 44.0247 38.8533C44.1255 38.6043 44.1526 38.3315 44.1027 38.0675C44.0528 37.8036 43.9281 37.5595 43.7434 37.3644C43.012 36.5794 41.0708 34.4979 41.0708 28.2633V24.9743C41.0362 22.3404 39.9748 19.8239 38.1125 17.9609C36.2502 16.0979 33.7342 15.0355 31.1003 15C28.4658 15.0347 25.949 16.0968 24.086 17.9599C22.2231 19.823 21.1612 22.3398 21.1267 24.9743V28.2633C21.1267 34.4979 19.1847 36.5801 18.4288 37.3913C18.2526 37.5849 18.1347 37.8244 18.0888 38.0821C18.0428 38.3398 18.0705 38.6053 18.1689 38.8479C18.5214 39.5215 19.0369 40.0961 19.6685 40.5193C18.5614 41.1178 17.6166 41.9767 16.9155 43.0219C16.2144 44.067 15.7781 45.2671 15.6442 46.5184L15.0079 54.5531C14.9809 54.8862 15.0232 55.2214 15.1322 55.5373C15.2413 55.8533 15.4146 56.1432 15.6413 56.3888C15.868 56.6344 16.1432 56.8303 16.4495 56.9642C16.7557 57.0981 17.0864 57.167 17.4206 57.1667H36.4669V58.7C36.4669 59.31 36.7092 59.895 37.1406 60.3263C37.5719 60.7577 38.1569 61 38.7669 61ZM25.6822 44.6232C25.6378 44.5084 25.5664 44.406 25.4741 44.3246C25.3818 44.2432 25.2712 44.1852 25.1517 44.1556L22.959 43.6112L22.9115 43.5169L23.7817 40.9064L25.6377 40.645L30.3336 52.7108V54.2817L24.4218 47.1847L24.4164 47.108L25.6048 45.3293C25.6733 45.2265 25.7162 45.1086 25.7296 44.9857C25.7431 44.8628 25.7268 44.7385 25.6822 44.6232ZM31.676 37.9279C31.2975 38.0245 30.9007 38.0245 30.5222 37.9279C24.73 36.4345 24.6372 30.4798 24.6357 30.2291C24.6357 30.0257 24.5549 29.8307 24.4112 29.687C24.2674 29.5432 24.0724 29.4624 23.8691 29.4624C23.7041 29.4637 23.5407 29.4308 23.3891 29.3659C23.2375 29.3009 23.1009 29.2053 22.988 29.0851C22.8751 28.9648 22.7883 28.8226 22.7331 28.6671C22.6778 28.5117 22.6553 28.3466 22.6669 28.1821C22.7046 27.8655 22.8592 27.5744 23.1002 27.3658C23.3413 27.1572 23.6516 27.0461 23.9703 27.0543C28.0497 27.0382 30.9952 25.9894 32.9763 23.8489C32.9996 23.824 33.0279 23.8043 33.0593 23.791C33.0908 23.7778 33.1247 23.7714 33.1588 23.7722C33.1733 23.7714 33.1879 23.7714 33.2025 23.7722C33.2485 23.7783 33.2924 23.7954 33.3305 23.8221C33.3685 23.8488 33.3995 23.8843 33.421 23.9255C33.8597 24.8466 34.5465 25.6271 35.4044 26.1794C36.2622 26.7317 37.257 27.0338 38.277 27.052C38.586 27.0502 38.8848 27.1621 39.1165 27.3664C39.3482 27.5707 39.4967 27.8531 39.5336 28.1598C39.547 28.3257 39.526 28.4926 39.4718 28.65C39.4175 28.8074 39.3313 28.9518 39.2185 29.0743C39.1058 29.1967 38.9689 29.2945 38.8165 29.3614C38.6641 29.4283 38.4994 29.463 38.333 29.4632C38.1297 29.4632 37.9346 29.5439 37.7909 29.6877C37.6471 29.8315 37.5663 30.0265 37.5663 30.2298C37.561 30.479 37.4682 36.4337 31.676 37.9279ZM28.7826 38.9476C29.223 39.1347 29.6762 39.29 30.1389 39.4122C30.7688 39.5742 31.4294 39.5742 32.0594 39.4122C32.5226 39.2901 32.9764 39.1345 33.4171 38.9468C33.4574 39.3099 33.6168 39.6493 33.8705 39.9121C34.1243 40.1748 34.4579 40.346 34.8194 40.3989L35.0026 40.425L34.1562 42.6H28.0443L27.201 40.425L27.3835 40.3997C27.7443 40.3462 28.0773 40.1747 28.3304 39.912C28.5835 39.6493 28.7425 39.3102 28.7826 38.9476ZM31.1003 50.453L28.6408 44.1333H33.5597L31.1003 50.453ZM31.8669 52.7108L36.5628 40.645L38.4189 40.9064L38.9824 42.6H38.7669C38.1569 42.6 37.5719 42.8423 37.1406 43.2737C36.7092 43.705 36.4669 44.29 36.4669 44.9V48.7602L31.8669 54.2802V52.7108ZM59.4669 44.9V58.7C59.4669 58.9033 59.3861 59.0983 59.2424 59.2421C59.0986 59.3859 58.9036 59.4667 58.7003 59.4667H38.7669C38.5636 59.4667 38.3686 59.3859 38.2248 59.2421C38.081 59.0983 38.0003 58.9033 38.0003 58.7V44.9C38.0003 44.6967 38.081 44.5017 38.2248 44.3579C38.3686 44.2141 38.5636 44.1333 38.7669 44.1333H58.7003C58.9036 44.1333 59.0986 44.2141 59.2424 44.3579C59.3861 44.5017 59.4669 44.6967 59.4669 44.9ZM40.5992 42.6L40.1278 41.1855C41.1296 41.4445 42.0593 41.9282 42.8463 42.6H40.5992ZM42.5673 38.3481C42.1082 38.9819 41.4829 39.4765 40.7602 39.7771C40.401 39.6703 40.0346 39.5888 39.6639 39.5333L35.0325 38.8809C35.0051 38.8769 34.98 38.8631 34.9618 38.8421C34.9437 38.8212 34.9337 38.7944 34.9336 38.7667V38.148C38.1536 36.0097 38.885 32.3888 39.0483 30.8984C39.2553 30.84 39.4548 30.7574 39.6424 30.6523C40.0741 35.5313 41.7822 37.5017 42.5673 38.3481ZM31.1003 16.5333C33.3297 16.5627 35.4596 17.4615 37.0362 19.0382C38.6127 20.6149 39.5113 22.7448 39.5405 24.9743V25.8353C39.1537 25.635 38.7256 25.5274 38.2901 25.521C37.5543 25.5045 36.8377 25.2833 36.2207 24.8821C35.6037 24.481 35.1107 23.9159 34.7971 23.2501C34.6659 22.985 34.4723 22.7558 34.2328 22.5821C33.9933 22.4085 33.7152 22.2957 33.4225 22.2534C33.1355 22.2119 32.8427 22.2405 32.5691 22.3368C32.2955 22.433 32.0494 22.5941 31.8516 22.8062C30.1757 24.6178 27.5958 25.5049 23.9634 25.5194C23.5095 25.5248 23.0632 25.6361 22.66 25.8445V24.9743C22.6892 22.7448 23.5878 20.6149 25.1643 19.0382C26.7409 17.4615 28.8708 16.5627 31.1003 16.5333ZM19.6332 38.3481C20.3999 37.5208 22.1234 35.5574 22.5573 30.6546C22.7446 30.7588 22.9435 30.8406 23.1499 30.8984C23.314 32.3895 24.0477 36.0105 27.2661 38.1487V38.7667C27.2661 38.7945 27.2559 38.8214 27.2376 38.8424C27.2193 38.8633 27.1941 38.877 27.1665 38.8809L22.535 39.5333C22.1639 39.5878 21.797 39.6685 21.4372 39.7748C20.7164 39.4737 20.0923 38.9801 19.6332 38.3481ZM16.7689 55.3489C16.6856 55.2588 16.622 55.1522 16.5824 55.036C16.5428 54.9198 16.528 54.7965 16.5389 54.6742L17.1753 46.6396C17.334 45.3383 17.8891 44.1172 18.7653 43.1421C19.6416 42.167 20.7965 41.485 22.0735 41.1886L21.4602 43.0355C21.392 43.2442 21.367 43.4646 21.3868 43.6833C21.4066 43.9019 21.4707 44.1143 21.5752 44.3074C21.6819 44.5014 21.8269 44.6717 22.0013 44.8079C22.1758 44.9442 22.3762 45.0436 22.5902 45.1001L23.7241 45.3815L23.1446 46.2493C22.9518 46.5366 22.8573 46.8786 22.8751 47.2241C22.8929 47.5696 23.0222 47.9001 23.2434 48.166L29.4642 55.6333H17.4206C17.2982 55.634 17.1769 55.6091 17.0647 55.5601C16.9524 55.5111 16.8517 55.4392 16.7689 55.3489ZM32.7363 55.6333L36.4669 51.1552V55.6333H32.7363Z" fill="#1C2539"/>
<path d="M32.2658 33.7725C31.9303 34.027 31.5208 34.1647 31.0997 34.1647C30.6786 34.1647 30.2691 34.027 29.9336 33.7725C29.7686 33.6537 29.5631 33.6052 29.3624 33.6379C29.1617 33.6705 28.9822 33.7815 28.8633 33.9465C28.7445 34.1116 28.6961 34.317 28.7287 34.5177C28.7613 34.7184 28.8724 34.898 29.0374 35.0168C29.6335 35.4604 30.3567 35.6999 31.0997 35.6999C31.8427 35.6999 32.5659 35.4604 33.162 35.0168C33.327 34.898 33.4381 34.7184 33.4707 34.5177C33.5034 34.317 33.4549 34.1116 33.3361 33.9465C33.2172 33.7815 33.0377 33.6705 32.837 33.6379C32.6363 33.6052 32.4308 33.6537 32.2658 33.7725Z" fill="#1C2539"/>
<path d="M41.8331 57.1667C42.0364 57.1667 42.2314 57.0859 42.3752 56.9421C42.519 56.7984 42.5997 56.6033 42.5997 56.4V52.5667H45.6664V56.4C45.6664 56.6033 45.7472 56.7984 45.891 56.9421C46.0347 57.0859 46.2297 57.1667 46.4331 57.1667C46.6364 57.1667 46.8314 57.0859 46.9752 56.9421C47.119 56.7984 47.1997 56.6033 47.1997 56.4V47.2C47.1997 46.9967 47.119 46.8017 46.9752 46.6579C46.8314 46.5141 46.6364 46.4333 46.4331 46.4333C46.2297 46.4333 46.0347 46.5141 45.891 46.6579C45.7472 46.8017 45.6664 46.9967 45.6664 47.2V51.0333H42.5997V47.2C42.5997 46.9967 42.519 46.8017 42.3752 46.6579C42.2314 46.5141 42.0364 46.4333 41.8331 46.4333C41.6297 46.4333 41.4347 46.5141 41.291 46.6579C41.1472 46.8017 41.0664 46.9967 41.0664 47.2V56.4C41.0664 56.6033 41.1472 56.7984 41.291 56.9421C41.4347 57.0859 41.6297 57.1667 41.8331 57.1667Z" fill="#1C2539"/>
<path d="M51.0323 57.1667C51.2356 57.1667 51.4306 57.0859 51.5744 56.9422C51.7182 56.7984 51.799 56.6034 51.799 56.4V52.5667H53.3323C53.739 52.5667 54.129 52.7283 54.4165 53.0158C54.7041 53.3034 54.8656 53.6934 54.8656 54.1V56.4C54.8656 56.6034 54.9464 56.7984 55.0902 56.9422C55.234 57.0859 55.429 57.1667 55.6323 57.1667C55.8356 57.1667 56.0306 57.0859 56.1744 56.9422C56.3182 56.7984 56.399 56.6034 56.399 56.4V54.1C56.3976 53.6631 56.3023 53.2316 56.1195 52.8348C55.9367 52.4379 55.6706 52.085 55.3394 51.8C55.8124 51.3924 56.149 50.8496 56.3039 50.2448C56.4589 49.6399 56.4247 49.0021 56.206 48.4173C55.9873 47.8325 55.5945 47.3288 55.0807 46.974C54.5669 46.6193 53.9567 46.4306 53.3323 46.4334H51.0323C50.829 46.4334 50.634 46.5142 50.4902 46.6579C50.3464 46.8017 50.2656 46.9967 50.2656 47.2V56.4C50.2656 56.6034 50.3464 56.7984 50.4902 56.9422C50.634 57.0859 50.829 57.1667 51.0323 57.1667ZM51.799 47.9667H53.3323C53.739 47.9667 54.129 48.1283 54.4165 48.4158C54.7041 48.7034 54.8656 49.0934 54.8656 49.5C54.8656 49.9067 54.7041 50.2967 54.4165 50.5843C54.129 50.8718 53.739 51.0334 53.3323 51.0334H51.799V47.9667Z" fill="#1C2539"/>
</g>
<defs>
<clipPath id="clip0_3056_557">
<rect width="46" height="46" fill="white" transform="translate(15 15)"/>
</clipPath>
</defs>
</svg>
