<svg width="76" height="76" viewBox="0 0 76 76" fill="none" xmlns="http://www.w3.org/2000/svg">
<path d="M0 0H76V62V76H62H38H0V0Z" fill="#E3F4FC"/>
<path fill-rule="evenodd" clip-rule="evenodd" d="M55.9566 50.7332C55.9566 51.6138 55.2399 52.3309 54.3594 52.3309H21.6436C20.763 52.3309 20.0463 51.6138 20.0463 50.7332V50.3614H55.9566V50.7332ZM41.8757 58.7631H34.1272C35.3672 57.3797 36.2853 55.6977 36.9112 53.6702H39.0919C39.7177 55.6983 40.6358 57.3798 41.8757 58.7631ZM45.6203 42.6989C46.1633 42.6989 46.6045 43.141 46.6045 43.683C46.6045 44.2262 46.1634 44.6683 45.6203 44.6683C45.0772 44.6683 44.636 44.2262 44.636 43.683C44.6361 43.141 45.0772 42.6989 45.6203 42.6989ZM36.3047 43.683C36.3047 44.2262 35.8636 44.6683 35.3204 44.6683C34.7778 44.6683 34.3356 44.2262 34.3356 43.683C34.3356 43.141 34.7777 42.6989 35.3204 42.6989C35.8636 42.6989 36.3047 43.141 36.3047 43.683ZM21.6436 32.9014C20.763 32.9014 20.0463 33.6175 20.0463 34.498V49.0221H55.9566V34.498C55.9566 33.6174 55.2399 32.9014 54.3594 32.9014H49.7494L49.0655 34.865C48.5411 36.3703 47.1722 37.3427 45.5794 37.3427H32.7514L31.7054 40.1713C31.4893 40.7547 31.9151 41.3596 32.5322 41.3596H45.6203C46.9015 41.3596 47.9438 42.4019 47.9438 43.6831C47.9438 44.965 46.9015 46.0077 45.6203 46.0077C43.915 46.0077 42.7989 44.2278 43.5154 42.699H37.4248C38.1419 44.2234 37.0289 46.0077 35.3205 46.0077C33.6182 46.0077 32.4973 44.2319 33.2157 42.699H32.5323C30.9845 42.699 29.9126 41.1573 30.4488 39.7066L31.3885 37.166C30.7991 36.921 30.3323 36.4364 30.1088 35.7966L29.0999 32.9015L21.6436 32.9014ZM50.306 27.2341L47.8008 34.425C47.4613 35.3984 46.6098 36.0028 45.5794 36.0028H32.284C31.8618 36.0028 31.5136 35.7557 31.3739 35.3566L28.5443 27.2342H50.306V27.2341ZM43.8538 25.8948H34.9964C35.2834 23.6889 37.1726 22.0148 39.4249 22.0148C41.6777 22.0148 43.5657 23.6885 43.8538 25.8948ZM30.1792 25.5988V25.8948H33.6486C33.9446 22.9425 36.4303 20.6755 39.425 20.6755C42.4197 20.6755 44.9068 22.9448 45.2013 25.8948H48.6708V25.5988L46.7825 24.9853C46.5697 24.9155 46.4053 24.7452 46.3446 24.5298C46.192 23.9888 45.975 23.4639 45.6984 22.9707C45.5882 22.7762 45.584 22.5383 45.6855 22.3394L46.5875 20.5692L45.3384 19.3196L43.5682 20.2216C43.3678 20.3236 43.1314 20.3183 42.9359 20.2092C42.4427 19.9326 41.9184 19.7155 41.3774 19.5629C41.1625 19.5017 40.9916 19.3379 40.9218 19.1251L40.3083 17.2362H38.5419L37.9284 19.1251C37.8585 19.3379 37.6883 19.5017 37.4728 19.5629C36.9318 19.7145 36.4074 19.9326 35.9149 20.2092C35.7194 20.3193 35.4813 20.3236 35.2826 20.2216L33.5124 19.3196L32.2628 20.5692L33.1648 22.3394C33.2669 22.5382 33.2626 22.7762 33.1524 22.9707C32.8758 23.4639 32.6587 23.9877 32.5062 24.5298C32.4449 24.7452 32.2811 24.9155 32.0683 24.9853L30.1792 25.5988ZM54.3595 31.562H50.2168L51.8812 26.785C52.0324 26.3504 51.709 25.8948 51.2488 25.8948H50.0105V25.5606C50.0105 25.0014 49.6533 24.5093 49.1209 24.3362L47.5275 23.8188C47.3948 23.4137 47.2304 23.0178 47.0376 22.6363L47.7983 21.1423C48.0519 20.6442 47.9568 20.0436 47.5619 19.6482L46.2586 18.3454C45.8632 17.9495 45.2621 17.8549 44.764 18.109L43.2705 18.8698C42.889 18.6769 42.4936 18.5125 42.088 18.3793L41.5701 16.7858C41.3976 16.254 40.9055 15.8967 40.3468 15.8967H38.5035C37.9443 15.8967 37.4522 16.254 37.2798 16.7858L36.7618 18.3793C36.3562 18.5125 35.9608 18.677 35.5794 18.8698L34.0864 18.109C33.5873 17.8549 32.9868 17.9495 32.5913 18.3454L31.2885 19.6482C30.8936 20.0436 30.7981 20.6442 31.0516 21.1433L31.8129 22.6362C31.62 23.0176 31.4557 23.4136 31.3224 23.8187L29.7291 24.3361C29.1972 24.5091 28.84 25.0012 28.84 25.5605V25.8947H28.0771L27.1794 23.3187C26.8269 22.306 25.9427 21.6318 24.8731 21.5597L21.3027 21.3191C20.933 21.2933 20.6139 21.5732 20.5892 21.9417C20.564 22.3113 20.8428 22.6304 21.2124 22.6552L24.7828 22.8963C25.3152 22.9323 25.7381 23.2552 25.9142 23.7591L28.6337 31.5619H21.6436C20.0244 31.5619 18.707 32.8787 18.707 34.4979V50.733C18.707 52.3528 20.0243 53.6701 21.6436 53.6701H35.5025C34.7864 55.7873 33.7077 57.4613 32.2227 58.763H27.2087C26.8391 58.763 26.5389 59.0634 26.5389 59.433C26.5389 59.8026 26.8392 60.103 27.2087 60.103H48.7942C49.1638 60.103 49.4636 59.8026 49.4636 59.433C49.4636 59.0634 49.1638 58.763 48.7942 58.763H43.7803C42.2954 57.4613 41.2166 55.7873 40.5004 53.6701H54.3594C55.9785 53.6701 57.2959 52.3528 57.2959 50.733V34.498C57.2959 32.8788 55.9787 31.562 54.3595 31.562Z" fill="black"/>
</svg>
