<svg width="81" height="81" viewBox="0 0 81 81" fill="none" xmlns="http://www.w3.org/2000/svg">
<rect width="80.625" height="80.625" fill="url(#paint0_linear_3070_802)"/>
<path d="M49.9428 41.6658L38.9609 30.6839L40.6539 28.6141C42.4315 26.4409 45.6991 26.2803 47.6872 28.2684L52.3583 32.9396C54.3464 34.9277 54.1858 38.1953 52.0126 39.9728L49.9428 41.6658Z" fill="#121212" fill-opacity="0.5"/>
<g opacity="0.4">
<path d="M26.8903 50.6048L28.2044 37.8127C28.4027 35.8828 29.7552 34.2693 31.6206 33.7376L37.9331 31.9382L48.6866 42.6917L46.8872 49.0043C46.3555 50.8696 44.7421 52.2222 42.8121 52.4204L30.02 53.7345C29.4953 53.7885 28.9946 53.6976 28.5532 53.4972L34.6285 47.4218C36.0112 48.1865 37.7863 47.9823 38.9594 46.8092C40.3797 45.3889 40.3797 43.086 38.9594 41.6657C37.539 40.2453 35.2362 40.2453 33.8158 41.6657C32.6427 42.8388 32.4385 44.6139 33.2032 45.9966L27.1278 52.072C26.9273 51.6305 26.8364 51.1297 26.8903 50.6048Z" fill="#121212" fill-opacity="0.5"/>
<path d="M27.6895 52.8913C27.6968 52.8987 27.7041 52.9061 27.7114 52.9134C27.7188 52.9208 27.7261 52.9281 27.7336 52.9353L27.6895 52.8913Z" fill="#121212" fill-opacity="0.5"/>
<path d="M35.2411 43.091C35.8743 42.4578 36.9009 42.4578 37.5341 43.091C38.1673 43.7242 38.1673 44.7508 37.5341 45.384C36.9009 46.0172 35.8743 46.0172 35.2411 45.384C34.6079 44.7508 34.6079 43.7242 35.2411 43.091Z" fill="#121212" fill-opacity="0.5"/>
</g>
<defs>
<linearGradient id="paint0_linear_3070_802" x1="80.625" y1="0" x2="9.61125e-06" y2="80.625" gradientUnits="userSpaceOnUse">
<stop stop-opacity="0.1"/>
<stop offset="1" stop-color="white" stop-opacity="0"/>
</linearGradient>
</defs>
</svg>
