<svg width="81" height="81" viewBox="0 0 81 81" fill="none" xmlns="http://www.w3.org/2000/svg">
<rect width="80.625" height="80.625" fill="url(#paint0_linear_3070_810)"/>
<g opacity="0.4">
<path fill-rule="evenodd" clip-rule="evenodd" d="M30.6076 26.875H33.5938C35.6552 26.875 37.3264 28.5462 37.3264 30.6076V48.5242C37.3264 50.9431 35.6829 52.9781 33.4517 53.5736C33.0208 53.6886 32.5679 53.7499 32.1007 53.7499C31.2116 53.7499 30.3744 53.5279 29.6414 53.1362C27.9952 52.2565 26.875 50.5212 26.875 48.5242V30.6076C26.875 28.5462 28.5462 26.875 30.6076 26.875Z" fill="#121212" fill-opacity="0.5"/>
<path d="M36.5112 53.7499H50.0174C52.0789 53.7499 53.75 52.0787 53.75 50.0173V47.0312C53.75 44.9697 52.0789 43.2985 50.0174 43.2985H38.939V48.5243C38.939 50.6212 37.9957 52.4961 36.5112 53.7499Z" fill="#121212" fill-opacity="0.5"/>
</g>
<path d="M38.9398 41.6861H49.5902C51.143 40.4145 51.4154 38.1304 50.1846 36.5269L48.3664 34.1581C47.1112 32.5228 44.768 32.2147 43.1327 33.4698L38.9398 36.6882V41.6861Z" fill="#121212" fill-opacity="0.5"/>
<path d="M31.9822 50.0547C32.9099 50.0547 33.6619 49.3027 33.6619 48.375C33.6619 47.4474 32.9099 46.6953 31.9822 46.6953H31.9688C31.0411 46.6953 30.2891 47.4474 30.2891 48.375C30.2891 49.3027 31.0411 50.0547 31.9688 50.0547H31.9822Z" fill="#121212" fill-opacity="0.5"/>
<defs>
<linearGradient id="paint0_linear_3070_810" x1="80.625" y1="0" x2="9.61125e-06" y2="80.625" gradientUnits="userSpaceOnUse">
<stop stop-opacity="0.1"/>
<stop offset="1" stop-color="white" stop-opacity="0"/>
</linearGradient>
</defs>
</svg>
