<svg width="81" height="81" viewBox="0 0 81 81" fill="none" xmlns="http://www.w3.org/2000/svg">
<rect width="80.625" height="80.625" fill="url(#paint0_linear_3070_818)"/>
<path fill-rule="evenodd" clip-rule="evenodd" d="M35.9972 28.8906C34.6469 28.8906 33.5523 29.9852 33.5523 31.3355V36.2356C33.5523 38.0215 32.4918 39.6075 30.9024 40.3125C32.4918 41.0175 33.5523 42.6035 33.5523 44.3894V49.2895C33.5523 50.6398 34.6469 51.7344 35.9972 51.7344H36.6877C37.2443 51.7344 37.6955 52.1856 37.6955 52.7422C37.6955 53.2988 37.2443 53.75 36.6877 53.75H35.9972C33.5337 53.75 31.5367 51.753 31.5367 49.2895V44.3894C31.5367 43.2675 30.7731 42.2896 29.6847 42.0175L27.8476 41.5582C26.5508 41.234 26.5508 39.391 27.8476 39.0668L29.6847 38.6075C30.7731 38.3354 31.5367 37.3575 31.5367 36.2356V31.3355C31.5367 28.872 33.5337 26.875 35.9972 26.875H36.6877C37.2443 26.875 37.6955 27.3262 37.6955 27.8828C37.6955 28.4394 37.2443 28.8906 36.6877 28.8906H35.9972Z" fill="#121212" fill-opacity="0.5"/>
<path opacity="0.4" d="M42.9297 27.8828C42.9297 27.3262 43.3809 26.875 43.9375 26.875H44.628C47.0915 26.875 49.0885 28.872 49.0885 31.3355V36.2356C49.0885 37.3575 49.8521 38.3354 50.9405 38.6075L52.7776 39.0668C54.0744 39.391 54.0744 41.234 52.7776 41.5582L50.9405 42.0175C49.8521 42.2896 49.0885 43.2675 49.0885 44.3894V49.2895C49.0885 51.753 47.0915 53.75 44.628 53.75H43.9375C43.3809 53.75 42.9297 53.2988 42.9297 52.7422C42.9297 52.1856 43.3809 51.7344 43.9375 51.7344H44.628C45.9783 51.7344 47.0729 50.6398 47.0729 49.2895V44.3894C47.0729 42.6035 48.1334 41.0175 49.7228 40.3125C48.1334 39.6075 47.0729 38.0215 47.0729 36.2356V31.3355C47.0729 29.9852 45.9783 28.8906 44.628 28.8906H43.9375C43.3809 28.8906 42.9297 28.4394 42.9297 27.8828Z" fill="#121212" fill-opacity="0.5"/>
<defs>
<linearGradient id="paint0_linear_3070_818" x1="80.625" y1="0" x2="9.61125e-06" y2="80.625" gradientUnits="userSpaceOnUse">
<stop stop-opacity="0.1"/>
<stop offset="1" stop-color="white" stop-opacity="0"/>
</linearGradient>
</defs>
</svg>
