<svg width="81" height="81" viewBox="0 0 81 81" fill="none" xmlns="http://www.w3.org/2000/svg">
<rect width="80.625" height="80.625" fill="url(#paint0_linear_3070_827)"/>
<path opacity="0.4" fill-rule="evenodd" clip-rule="evenodd" d="M51.0625 37.625C51.0625 40.5261 49.9133 43.1588 48.0453 45.0927L48.3712 51.1568C48.4665 52.9294 46.7384 54.2467 45.0994 53.5689L41.3321 52.0111C40.6801 51.7415 39.9449 51.7415 39.2929 52.0111L35.5256 53.5689C33.8866 54.2467 32.1585 52.9294 32.2538 51.1568L32.5797 45.0927C30.7117 43.1588 29.5625 40.5261 29.5625 37.625C29.5625 31.6879 34.3754 26.875 40.3125 26.875C46.2496 26.875 51.0625 31.6879 51.0625 37.625ZM40.3125 48.375C42.5083 48.375 44.5503 47.7167 46.252 46.5866L46.5032 51.2614C46.5256 51.6782 46.1324 51.9361 45.802 51.7995L42.0347 50.2417C40.9321 49.7857 39.693 49.7857 38.5903 50.2417L34.823 51.7995C34.4926 51.9361 34.0994 51.6782 34.1218 51.2614L34.373 46.5866C36.0747 47.7167 38.1167 48.375 40.3125 48.375Z" fill="#121212" fill-opacity="0.5"/>
<path d="M40.5516 32.9913C40.4488 32.7991 40.1796 32.7991 40.0767 32.9913L38.8403 35.3002C38.7621 35.4463 38.6242 35.5486 38.4645 35.5791L35.9287 36.0627C35.7173 36.1031 35.6337 36.3678 35.782 36.5275L37.5512 38.4334C37.664 38.5549 37.7172 38.7222 37.696 38.8886L37.3645 41.4911C37.3367 41.709 37.5548 41.8722 37.7486 41.7785L40.0831 40.6498C40.2294 40.5791 40.3989 40.5791 40.5452 40.6498L42.8797 41.7785C43.0735 41.8722 43.2917 41.709 43.2639 41.4911L42.9323 38.8886C42.9111 38.7222 42.9644 38.5549 43.0772 38.4334L44.8464 36.5275C44.9946 36.3678 44.9111 36.1031 44.6997 36.0627L42.1639 35.5791C42.0042 35.5486 41.8662 35.4463 41.788 35.3002L40.5516 32.9913Z" fill="#121212" fill-opacity="0.5"/>
<defs>
<linearGradient id="paint0_linear_3070_827" x1="80.625" y1="0" x2="9.61125e-06" y2="80.625" gradientUnits="userSpaceOnUse">
<stop stop-opacity="0.1"/>
<stop offset="1" stop-color="white" stop-opacity="0"/>
</linearGradient>
</defs>
</svg>
