<svg width="81" height="81" viewBox="0 0 81 81" fill="none" xmlns="http://www.w3.org/2000/svg">
<rect width="80.625" height="80.625" fill="url(#paint0_linear_3070_835)"/>
<path d="M34.12 37.8056C33.2983 38.4361 32.2133 38.8194 31.0237 38.8194C30.4809 38.8194 29.9598 38.7396 29.4756 38.5929C28.9755 38.4413 28.5146 38.2184 28.1098 37.9384C26.0796 36.5344 26.929 33.7071 27.9893 31.5255L29.2055 29.0234C29.8427 27.7124 31.2086 26.875 32.7099 26.875H47.9151C49.4164 26.875 50.7823 27.7124 51.4195 29.0234L52.6357 31.5255C53.696 33.7071 54.5454 36.5344 52.5152 37.9384C52.1104 38.2184 51.6495 38.4413 51.1494 38.5929C50.6652 38.7396 50.1441 38.8194 49.6013 38.8194C48.4118 38.8194 47.3267 38.4361 46.505 37.8056C45.6833 38.4361 44.5983 38.8194 43.4088 38.8194C42.2192 38.8194 41.1342 38.4361 40.3125 37.8056C39.4908 38.4361 38.4058 38.8194 37.2163 38.8194C36.0267 38.8194 34.9417 38.4361 34.12 37.8056Z" fill="#121212" fill-opacity="0.5"/>
<g opacity="0.4">
<path d="M29.4766 50.0173V40.2597C29.9738 40.3725 30.4928 40.4318 31.0247 40.4318C32.1381 40.4318 33.1982 40.1715 34.121 39.7024C35.0437 40.1715 36.1038 40.4318 37.2172 40.4318C38.3306 40.4318 39.3907 40.1715 40.3135 39.7024C41.2362 40.1715 42.2963 40.4318 43.4097 40.4318C44.5231 40.4318 45.5832 40.1715 46.506 39.7024C47.4287 40.1715 48.4888 40.4318 49.6022 40.4318C50.1341 40.4318 50.6531 40.3725 51.1503 40.2597V50.0173C51.1503 52.0788 49.4175 53.7499 47.28 53.7499H45.1915V48.4123C45.1915 45.7601 42.9728 43.6718 40.3134 43.6718C37.654 43.6718 35.4353 45.7601 35.4353 48.4123V53.7499H33.3469C31.2094 53.7499 29.4766 52.0788 29.4766 50.0173Z" fill="#121212" fill-opacity="0.5"/>
<path d="M37.4509 53.7499H43.1759V48.4123C43.1759 46.9415 41.929 45.6874 40.3134 45.6874C38.6978 45.6874 37.4509 46.9415 37.4509 48.4123V53.7499Z" fill="#121212" fill-opacity="0.5"/>
</g>
<defs>
<linearGradient id="paint0_linear_3070_835" x1="80.625" y1="0" x2="9.61125e-06" y2="80.625" gradientUnits="userSpaceOnUse">
<stop stop-opacity="0.1"/>
<stop offset="1" stop-color="white" stop-opacity="0"/>
</linearGradient>
</defs>
</svg>
