<svg width="81" height="81" viewBox="0 0 81 81" fill="none" xmlns="http://www.w3.org/2000/svg">
<rect width="80.625" height="80.625" fill="url(#paint0_linear_3070_843)"/>
<path fill-rule="evenodd" clip-rule="evenodd" d="M54.8128 50.3522C54.8128 51.0465 54.2339 51.612 53.5227 51.612H27.0984C26.3872 51.612 25.8083 51.0465 25.8083 50.3522V50.0591H54.8128V50.3522ZM43.4397 56.6835H37.1813C38.1829 55.5928 38.9244 54.2666 39.4299 52.6679H41.1912C41.6967 54.267 42.4383 55.5928 43.4397 56.6835ZM46.4642 44.0175C46.9028 44.0175 47.2591 44.3661 47.2591 44.7934C47.2591 45.2217 46.9029 45.5703 46.4642 45.5703C46.0255 45.5703 45.6692 45.2217 45.6692 44.7934C45.6693 44.3661 46.0255 44.0175 46.4642 44.0175ZM38.94 44.7934C38.94 45.2217 38.5838 45.5703 38.1451 45.5703C37.7068 45.5703 37.3497 45.2217 37.3497 44.7934C37.3497 44.3661 37.7067 44.0175 38.1451 44.0175C38.5838 44.0175 38.94 44.3661 38.94 44.7934ZM27.0984 36.2925C26.3872 36.2925 25.8083 36.8572 25.8083 37.5514V49.0031H54.8128V37.5514C54.8128 36.8571 54.2339 36.2925 53.5227 36.2925H49.7992L49.2468 37.8407C48.8233 39.0276 47.7177 39.7943 46.4312 39.7943H36.0701L35.2252 42.0245C35.0507 42.4846 35.3946 42.9615 35.893 42.9615H46.4642C47.499 42.9615 48.3409 43.7833 48.3409 44.7935C48.3409 45.8043 47.499 46.6264 46.4642 46.6264C45.0868 46.6264 44.1854 45.223 44.7641 44.0176H39.8448C40.424 45.2195 39.525 46.6264 38.1451 46.6264C36.7702 46.6264 35.8649 45.2262 36.4451 44.0176H35.8931C34.643 44.0176 33.7772 42.802 34.2103 41.6582L34.9693 39.655C34.4932 39.4618 34.1162 39.0798 33.9357 38.5753L33.1208 36.2926L27.0984 36.2925ZM50.2488 31.8241L48.2254 37.4938C47.9511 38.2613 47.2634 38.7379 46.4312 38.7379H35.6926C35.3516 38.7379 35.0703 38.5431 34.9575 38.2284L32.672 31.8242H50.2488V31.8241ZM45.0374 30.7681H37.8834C38.1152 29.0289 39.6411 27.7089 41.4602 27.7089C43.2798 27.7089 44.8047 29.0285 45.0374 30.7681ZM33.9925 30.5347V30.7681H36.7948C37.0338 28.4403 39.0415 26.6529 41.4603 26.6529C43.8791 26.6529 45.8879 28.4422 46.1258 30.7681H48.9281V30.5347L47.4029 30.051C47.231 29.996 47.0983 29.8617 47.0492 29.6918C46.926 29.2653 46.7507 28.8514 46.5272 28.4626C46.4383 28.3092 46.4349 28.1216 46.5168 27.9648L47.2454 26.5691L46.2365 25.5838L44.8068 26.295C44.6449 26.3754 44.454 26.3712 44.296 26.2852C43.8977 26.0671 43.4742 25.896 43.0372 25.7757C42.8637 25.7274 42.7257 25.5982 42.6693 25.4305L42.1738 23.9412H40.747L40.2515 25.4305C40.1951 25.5982 40.0576 25.7274 39.8835 25.7757C39.4466 25.8951 39.023 26.0671 38.6252 26.2852C38.4673 26.3721 38.275 26.3754 38.1145 26.295L36.6847 25.5838L35.6755 26.5691L36.404 27.9648C36.4865 28.1215 36.483 28.3092 36.394 28.4626C36.1706 28.8514 35.9952 29.2644 35.872 29.6918C35.8225 29.8617 35.6902 29.996 35.5184 30.051L33.9925 30.5347ZM53.5228 35.2365H50.1768L51.521 31.47C51.6432 31.1273 51.382 30.7681 51.0103 30.7681H50.0101V30.5046C50.0101 30.0637 49.7216 29.6757 49.2916 29.5392L48.0046 29.1313C47.8975 28.8119 47.7647 28.4997 47.6089 28.1989L48.2234 27.0209C48.4282 26.6282 48.3514 26.1547 48.0324 25.8429L46.9798 24.8157C46.6604 24.5035 46.1749 24.429 45.7726 24.6293L44.5663 25.2291C44.2582 25.077 43.9388 24.9475 43.6112 24.8424L43.1929 23.586C43.0536 23.1667 42.6561 22.885 42.2049 22.885H40.716C40.2644 22.885 39.8669 23.1667 39.7276 23.586L39.3093 24.8424C38.9817 24.9475 38.6623 25.0771 38.3542 25.2291L37.1484 24.6293C36.7453 24.429 36.2602 24.5035 35.9408 24.8157L34.8885 25.8429C34.5696 26.1547 34.4924 26.6282 34.6972 27.0217L35.3121 28.1989C35.1563 28.4995 35.0235 28.8118 34.9159 29.1312L33.629 29.5391C33.1994 29.6755 32.9109 30.0635 32.9109 30.5045V30.768H32.2947L31.5696 28.7369C31.2849 27.9385 30.5708 27.4069 29.7068 27.3501L26.823 27.1603C26.5245 27.14 26.2667 27.3607 26.2468 27.6513C26.2264 27.9427 26.4516 28.1943 26.7501 28.2138L29.6339 28.4039C30.0639 28.4323 30.4055 28.6869 30.5478 29.0842L32.7443 35.2364H27.0984C25.7906 35.2364 24.7266 36.2746 24.7266 37.5513V50.3521C24.7266 51.6292 25.7905 52.6678 27.0984 52.6678H38.2921C37.7137 54.3372 36.8425 55.657 35.643 56.6834H31.5933C31.2948 56.6834 31.0523 56.9203 31.0523 57.2117C31.0523 57.5031 31.2949 57.7399 31.5933 57.7399H49.0278C49.3263 57.7399 49.5684 57.5031 49.5684 57.2117C49.5684 56.9203 49.3263 56.6834 49.0278 56.6834H44.978C43.7787 55.657 42.9074 54.3372 42.3289 52.6678H53.5227C54.8305 52.6678 55.8945 51.6292 55.8945 50.3521V37.5514C55.8945 36.2747 54.8306 35.2365 53.5228 35.2365Z" fill="url(#paint1_linear_3070_843)"/>
<defs>
<linearGradient id="paint0_linear_3070_843" x1="80.625" y1="0" x2="9.61125e-06" y2="80.625" gradientUnits="userSpaceOnUse">
<stop stop-opacity="0.1"/>
<stop offset="1" stop-color="white" stop-opacity="0"/>
</linearGradient>
<linearGradient id="paint1_linear_3070_843" x1="55.8945" y1="22.885" x2="21.2563" y2="53.8592" gradientUnits="userSpaceOnUse">
<stop offset="0.153846" stop-opacity="0.1"/>
<stop offset="1" stop-color="#858585"/>
</linearGradient>
</defs>
</svg>
