<svg width="17" height="17" viewBox="0 0 17 17" fill="none" xmlns="http://www.w3.org/2000/svg">
<path d="M8.5 0C10.7543 0 12.9167 0.895199 14.5107 2.48926C16.1048 4.08332 17 6.24566 17 8.5C17 10.1811 16.5014 11.8248 15.5674 13.2227C14.6335 14.6203 13.3059 15.7092 11.7529 16.3525C10.1998 16.9959 8.4906 17.1649 6.8418 16.8369C5.19296 16.5089 3.678 15.6995 2.48926 14.5107C1.30051 13.322 0.49106 11.807 0.163086 10.1582C-0.164861 8.5094 0.00412988 6.80021 0.647461 5.24707C1.29078 3.69411 2.37973 2.36655 3.77734 1.43262C5.17516 0.498626 6.81886 4.51469e-10 8.5 0ZM11.2881 1.76855C9.95696 1.21722 8.49221 1.07349 7.0791 1.35449C5.66581 1.63561 4.36756 2.32971 3.34863 3.34863C2.32971 4.36756 1.63561 5.66581 1.35449 7.0791C1.07349 8.49221 1.21722 9.95697 1.76855 11.2881C2.31996 12.6193 3.25411 13.7571 4.45215 14.5576C5.65028 15.3582 7.05902 15.7861 8.5 15.7861C10.4323 15.7861 12.285 15.0177 13.6514 13.6514C15.0177 12.285 15.7861 10.4323 15.7861 8.5C15.7861 7.05902 15.3582 5.65028 14.5576 4.45215C13.7571 3.25411 12.6193 2.31996 11.2881 1.76855ZM12.75 6.32324L7.28613 11.7871L4.25 8.75098L5.10742 7.89258L7.28613 10.0703L11.8906 5.46387L12.75 6.32324Z" fill="#20282D"/>
</svg>
