<svg width="46" height="46" viewBox="0 0 46 46" fill="none" xmlns="http://www.w3.org/2000/svg">
<path d="M23 37.9531V44.6159" stroke="white" stroke-width="2" stroke-miterlimit="22.9256" stroke-linecap="round" stroke-linejoin="round"/>
<path d="M33.7812 39.7109H12.2188V45.1015H33.7812V39.7109Z" stroke="white" stroke-width="2" stroke-miterlimit="22.9256" stroke-linecap="round" stroke-linejoin="round"/>
<path d="M8.20036 23.3531L3.99084 16.4637C2.67418 14.394 0.206006 15.9825 1.08243 17.8509C1.69597 19.1242 4.12785 25.1809 5.95428 29.1986C7.26797 32.0885 7.79831 32.8294 10.1173 34.9373L13.6427 38.1418V39.2091M37.7995 23.3531L42.0091 16.4637C43.3257 14.394 45.7939 15.9825 44.9175 17.8509C44.3039 19.1242 41.872 25.1809 40.0456 29.1986C38.7318 32.0885 38.2016 32.8294 35.8825 34.9373L32.3572 38.1418V39.2091M11.1303 30.6482C10.1477 29.0625 9.14821 27.0002 8.35022 24.9835C8.04592 24.2144 7.9267 23.3843 8.57824 22.8368C9.22961 22.2893 10.193 22.3594 10.719 22.9924C11.2231 23.5991 14.2076 27.3505 14.7116 27.9571C17.493 31.3049 22.4537 32.2473 23 37.9538C23.5463 32.2473 28.5069 31.305 31.2884 27.9571C31.7924 27.3505 34.7768 23.5992 35.281 22.9924C35.807 22.3594 36.7703 22.2893 37.4217 22.8368C38.0732 23.3843 37.9541 24.2144 37.6498 24.9835C36.8517 27.0002 35.8522 29.0625 34.8697 30.6482" stroke="white" stroke-width="2" stroke-miterlimit="22.9256" stroke-linecap="round" stroke-linejoin="round"/>
<path d="M23.0006 24.5754C29.13 24.5754 34.0989 19.6066 34.0989 13.4772C34.0989 7.34777 29.13 2.37891 23.0006 2.37891C16.8712 2.37891 11.9023 7.34777 11.9023 13.4772C11.9023 19.6066 16.8712 24.5754 23.0006 24.5754Z" stroke="white" stroke-width="2" stroke-miterlimit="22.9256" stroke-linecap="round" stroke-linejoin="round"/>
<path d="M23.657 20.1047C27.3166 19.7424 29.9897 16.482 29.6274 12.8224C29.2652 9.16272 26.0048 6.48965 22.3451 6.8519C18.6855 7.21415 16.0124 10.4745 16.3747 14.1342C16.7369 17.7938 19.9973 20.4669 23.657 20.1047Z" stroke="white" stroke-width="2" stroke-miterlimit="22.9256" stroke-linecap="round" stroke-linejoin="round"/>
<path d="M23.0009 15.6972C24.2268 15.6972 25.2206 14.7034 25.2206 13.4775C25.2206 12.2516 24.2268 11.2578 23.0009 11.2578C21.775 11.2578 20.7812 12.2516 20.7812 13.4775C20.7812 14.7034 21.775 15.6972 23.0009 15.6972Z" stroke="white" stroke-width="2" stroke-miterlimit="22.9256" stroke-linecap="round" stroke-linejoin="round"/>
<path d="M23 0.898438V6.44753" stroke="white" stroke-width="2" stroke-miterlimit="22.9256" stroke-linecap="round" stroke-linejoin="round"/>
<path d="M10.4219 13.4766H15.971" stroke="white" stroke-width="2" stroke-miterlimit="22.9256" stroke-linecap="round" stroke-linejoin="round"/>
<path d="M23 26.0531V20.5039" stroke="white" stroke-width="2" stroke-miterlimit="22.9256" stroke-linecap="round" stroke-linejoin="round"/>
<path d="M35.5804 13.4766H30.0312" stroke="white" stroke-width="2" stroke-miterlimit="22.9256" stroke-linecap="round" stroke-linejoin="round"/>
</svg>
