<svg width="44" height="44" viewBox="0 0 44 44" fill="none" xmlns="http://www.w3.org/2000/svg">
<path d="M1.63213 8.68372C1.63213 8.90013 1.54616 9.10769 1.39313 9.26072C1.2401 9.41375 1.03255 9.49972 0.816132 9.49972C0.599715 9.49972 0.392162 9.41375 0.239133 9.26072C0.086103 9.10769 0.000131739 8.90013 0.000131739 8.68372V0.816517C-0.00182094 0.708821 0.0179514 0.601836 0.058268 0.501952C0.0985845 0.402067 0.158618 0.311333 0.234783 0.235168C0.310948 0.159003 0.401682 0.0989695 0.501567 0.058653C0.601451 0.0183365 0.708436 -0.00143593 0.816132 0.000516753H8.67853C8.89495 0.000516753 9.1025 0.086488 9.25553 0.239518C9.40856 0.392547 9.49453 0.6001 9.49453 0.816517C9.49453 1.03293 9.40856 1.24049 9.25553 1.39352C9.1025 1.54655 8.89495 1.63252 8.67853 1.63252H2.04013C1.93373 1.64043 1.83379 1.68659 1.75879 1.76247C1.68379 1.83836 1.6388 1.93883 1.63213 2.04532V8.68372ZM21.6001 26.8805C22.6444 26.8805 23.6653 26.5709 24.5335 25.9907C25.4018 25.4105 26.0786 24.5859 26.4782 23.6211C26.8778 22.6563 26.9824 21.5947 26.7787 20.5704C26.5749 19.5462 26.0721 18.6054 25.3337 17.867C24.5952 17.1286 23.6544 16.6257 22.6302 16.422C21.606 16.2182 20.5444 16.3228 19.5796 16.7224C18.6148 17.1221 17.7901 17.7988 17.21 18.6671C16.6298 19.5354 16.3201 20.5562 16.3201 21.6005C16.3163 22.295 16.4503 22.9833 16.7143 23.6256C16.9783 24.2679 17.367 24.8515 17.8581 25.3426C18.3491 25.8336 18.9327 26.2224 19.5751 26.4864C20.2174 26.7504 20.9057 26.8843 21.6001 26.8805ZM21.6001 28.5653C20.2266 28.5682 18.8831 28.1637 17.7395 27.4031C16.5958 26.6425 15.7033 25.5599 15.1748 24.2921C14.6464 23.0243 14.5057 21.6283 14.7705 20.2806C15.0353 18.9329 15.6938 17.6939 16.6626 16.7203C17.6315 15.7468 18.8672 15.0823 20.2137 14.811C21.5601 14.5397 22.9568 14.6736 24.2271 15.196C25.4974 15.7183 26.5843 16.6055 27.3505 17.7455C28.1166 18.8855 28.5275 20.227 28.5313 21.6005C28.5301 23.4397 27.7999 25.2035 26.5007 26.5053C25.2015 27.8072 23.4393 28.541 21.6001 28.5461V28.5653ZM31.5505 24.8885C31.6258 24.6744 31.7822 24.4985 31.9861 24.3988C32.19 24.2991 32.4249 24.2836 32.6401 24.3557C32.7401 24.3895 32.8322 24.4431 32.9109 24.5133C32.9897 24.5836 33.0534 24.669 33.0982 24.7645C33.143 24.8601 33.1681 24.9636 33.1719 25.0691C33.1756 25.1745 33.158 25.2796 33.1201 25.3781C32.7096 26.7202 32.0715 27.9818 31.2337 29.1077C31.1787 29.1812 31.15 29.2712 31.1525 29.363C31.1549 29.4549 31.1882 29.5432 31.2471 29.6137C31.306 29.6842 31.3869 29.7328 31.4768 29.7516C31.5667 29.7704 31.6603 29.7583 31.7425 29.7173C35.4158 27.8435 38.6262 25.1758 41.1409 21.9077C41.1896 21.8309 41.2154 21.7418 41.2154 21.6509C41.2154 21.56 41.1896 21.4709 41.1409 21.3941C38.6524 18.142 35.4801 15.4761 31.8481 13.5845C31.7645 13.5389 31.668 13.5226 31.574 13.5381C31.48 13.5536 31.3939 13.6 31.3294 13.6701C31.2648 13.7402 31.2256 13.8298 31.2178 13.9247C31.21 14.0197 31.2342 14.1145 31.2865 14.1941C32.6227 15.9998 33.4349 18.1391 33.6337 20.3765C33.6865 20.6309 33.8401 20.7845 34.0465 20.7845H37.5169C37.7334 20.7845 37.9409 20.8705 38.0939 21.0235C38.247 21.1765 38.3329 21.3841 38.3329 21.6005C38.3329 21.8169 38.247 22.0245 38.0939 22.1775C37.9409 22.3305 37.7334 22.4165 37.5169 22.4165H30.7969C30.5805 22.4165 30.373 22.3305 30.2199 22.1775C30.0669 22.0245 29.9809 21.8169 29.9809 21.6005C29.9809 21.3841 30.0669 21.1765 30.2199 21.0235C30.373 20.8705 30.5805 20.7845 30.7969 20.7845H31.5601C31.6215 20.7891 31.6832 20.7791 31.74 20.7555C31.7969 20.7319 31.8474 20.6953 31.8876 20.6486C31.9277 20.6019 31.9564 20.5465 31.9712 20.4867C31.986 20.427 31.9866 20.3646 31.9729 20.3045C31.7526 18.318 30.9783 16.4333 29.7383 14.8657C28.4983 13.2981 26.8426 12.1107 24.9601 11.4389C24.4465 11.2853 23.7841 11.0309 24.0385 10.3157C24.0619 10.2076 24.1083 10.1059 24.1744 10.0172C24.2405 9.92859 24.3248 9.85518 24.4218 9.80195C24.5187 9.74871 24.6259 9.71689 24.7362 9.70864C24.8464 9.70039 24.9572 9.7159 25.0609 9.75412C25.1447 9.77657 25.2296 9.7942 25.3153 9.80692C32.6401 10.8245 38.7409 15.2693 43.0273 21.1205C43.1364 21.2567 43.1958 21.426 43.1958 21.6005C43.1958 21.775 43.1364 21.9443 43.0273 22.0805C38.7889 27.9317 32.7169 32.3237 25.5217 33.3941C25.3681 33.4469 25.2673 33.3941 25.1617 33.4469C24.3963 33.6811 23.6104 33.8418 22.8145 33.9269C22.6129 33.9749 22.4065 34.1285 22.4065 34.3349V37.5509C22.4065 37.7673 22.3206 37.9749 22.1675 38.1279C22.0145 38.2809 21.8069 38.3669 21.5905 38.3669C21.3741 38.3669 21.1666 38.2809 21.0135 38.1279C20.8605 37.9749 20.7745 37.7673 20.7745 37.5509V31.0997C20.7745 30.8833 20.8605 30.6757 21.0135 30.5227C21.1666 30.3697 21.3741 30.2837 21.5905 30.2837C21.8069 30.2837 22.0145 30.3697 22.1675 30.5227C22.3206 30.6757 22.4065 30.8833 22.4065 31.0997V31.8149C22.409 31.8767 22.4246 31.9372 22.4525 31.9924C22.4803 32.0476 22.5197 32.0962 22.5679 32.1349C22.6162 32.1736 22.6721 32.2014 22.7321 32.2166C22.792 32.2318 22.8545 32.234 22.9153 32.2229C24.908 31.952 26.7812 31.1152 28.3126 29.8118C29.844 28.5084 30.9694 26.7931 31.5553 24.8693L31.5505 24.8885ZM22.4305 12.2261C22.4305 12.4425 22.3446 12.6501 22.1915 12.8031C22.0385 12.9561 21.8309 13.0421 21.6145 13.0421C21.3981 13.0421 21.1906 12.9561 21.0375 12.8031C20.8845 12.6501 20.7985 12.4425 20.7985 12.2261V11.3861C20.8023 11.3251 20.7918 11.264 20.7678 11.2078C20.7439 11.1515 20.7072 11.1016 20.6606 11.062C20.614 11.0225 20.5588 10.9943 20.4995 10.9797C20.4401 10.9651 20.3782 10.9646 20.3185 10.9781C18.3183 11.2418 16.4361 12.0753 14.8965 13.3792C13.3569 14.683 12.2248 16.4022 11.6353 18.3317C11.5599 18.5308 11.4161 18.6966 11.2297 18.7995C11.0433 18.9023 10.8264 18.9356 10.6177 18.8933C10.5116 18.8591 10.4134 18.8042 10.3287 18.7316C10.244 18.6591 10.1747 18.5704 10.1246 18.4708C10.0746 18.3711 10.0449 18.2625 10.0372 18.1513C10.0296 18.0401 10.0442 17.9285 10.0801 17.8229C10.4899 16.4968 11.1283 15.2525 11.9665 14.1461C12.0173 14.0694 12.0429 13.9788 12.0396 13.8868C12.0364 13.7949 12.0046 13.7063 11.9485 13.6333C11.8925 13.5604 11.8151 13.5068 11.7271 13.4799C11.6391 13.4531 11.5449 13.4544 11.4577 13.4837C7.78598 15.3681 4.57148 18.0337 2.04013 21.2933C1.99084 21.3787 1.96489 21.4755 1.96489 21.5741C1.96489 21.6727 1.99084 21.7695 2.04013 21.8549C4.51905 25.0915 7.69529 27.7279 11.3329 29.5685C11.4157 29.6116 11.5107 29.625 11.6022 29.6064C11.6936 29.5879 11.7759 29.5386 11.8354 29.4668C11.8949 29.3949 11.928 29.3048 11.9292 29.2116C11.9303 29.1183 11.8995 29.0274 11.8417 28.9541C10.5364 27.1557 9.74196 25.0377 9.54253 22.8245C9.53543 22.7162 9.48822 22.6144 9.41013 22.5389C9.33204 22.4635 9.22865 22.4199 9.12013 22.4165H5.71693C5.50052 22.4165 5.29296 22.3305 5.13993 22.1775C4.9869 22.0245 4.90093 21.8169 4.90093 21.6005C4.90093 21.3841 4.9869 21.1765 5.13993 21.0235C5.29296 20.8705 5.50052 20.7845 5.71693 20.7845H12.4033C12.6197 20.7845 12.8273 20.8705 12.9803 21.0235C13.1334 21.1765 13.2193 21.3841 13.2193 21.6005C13.2193 21.8169 13.1334 22.0245 12.9803 22.1775C12.8273 22.3305 12.6197 22.4165 12.4033 22.4165H11.6353C11.5754 22.4164 11.5161 22.4294 11.4617 22.4545C11.4072 22.4796 11.3589 22.5163 11.3201 22.562C11.2813 22.6076 11.2529 22.6612 11.2368 22.719C11.2208 22.7768 11.2176 22.8374 11.2273 22.8965C11.4297 24.7535 12.1166 26.5247 13.2193 28.0325C14.4648 29.7268 16.1906 31.0078 18.1729 31.7093C18.2737 31.7621 18.4273 31.7621 18.5281 31.8149C18.6446 31.8259 18.7572 31.8628 18.8575 31.923C18.9579 31.9832 19.0434 32.0651 19.1079 32.1627C19.1724 32.2604 19.2141 32.3712 19.2301 32.4872C19.2461 32.6031 19.2358 32.7211 19.2001 32.8325C19.1763 32.9467 19.1286 33.0545 19.0602 33.1489C18.9917 33.2432 18.904 33.322 18.8029 33.3801C18.7018 33.4381 18.5895 33.4741 18.4735 33.4856C18.3574 33.4971 18.2403 33.4839 18.1297 33.4469C18.023 33.4284 17.9195 33.3944 17.8225 33.3461C10.3633 32.1173 4.59373 28.0853 0.153732 22.0805C0.0549991 21.9399 0.00202207 21.7723 0.00202207 21.6005C0.00202207 21.4287 0.0549991 21.2611 0.153732 21.1205C4.44013 15.2693 10.5601 10.8245 17.8129 9.80692C17.9137 9.75412 18.0193 9.80692 18.1201 9.75412C18.871 9.53374 19.6383 9.37324 20.4145 9.27412C20.5155 9.26555 20.6093 9.21834 20.6764 9.14234C20.7434 9.06634 20.7786 8.96739 20.7745 8.86612V5.69812C20.7745 5.4817 20.8605 5.27415 21.0135 5.12112C21.1666 4.96809 21.3741 4.88212 21.5905 4.88212C21.8069 4.88212 22.0145 4.96809 22.1675 5.12112C22.3206 5.27415 22.4065 5.4817 22.4065 5.69812L22.4305 12.2261ZM8.67853 41.5685C8.89495 41.5685 9.1025 41.6545 9.25553 41.8075C9.40856 41.9605 9.49453 42.1681 9.49453 42.3845C9.49453 42.6009 9.40856 42.8085 9.25553 42.9615C9.1025 43.1145 8.89495 43.2005 8.67853 43.2005H0.816132C0.708436 43.2025 0.601451 43.1827 0.501567 43.1424C0.401682 43.1021 0.310948 43.042 0.234783 42.9659C0.158618 42.8897 0.0985845 42.799 0.058268 42.6991C0.0179514 42.5992 -0.00182094 42.4922 0.000131739 42.3845V34.5173C0.000131739 34.3009 0.086103 34.0933 0.239133 33.9403C0.392162 33.7873 0.599715 33.7013 0.816132 33.7013C1.03255 33.7013 1.2401 33.7873 1.39313 33.9403C1.54616 34.0933 1.63213 34.3009 1.63213 34.5173V41.1557C1.6388 41.2622 1.68379 41.3627 1.75879 41.4386C1.83379 41.5144 1.93373 41.5606 2.04013 41.5685H8.67853ZM34.5025 1.63252C34.2861 1.63252 34.0786 1.54655 33.9255 1.39352C33.7725 1.24049 33.6865 1.03293 33.6865 0.816517C33.6865 0.6001 33.7725 0.392547 33.9255 0.239518C34.0786 0.086488 34.2861 0.000516753 34.5025 0.000516753H42.3649C42.474 -0.0033911 42.5828 0.014898 42.6846 0.0542756C42.7865 0.0936532 42.8792 0.153299 42.9573 0.229598C43.0354 0.305896 43.0972 0.397259 43.139 0.498146C43.1807 0.599034 43.2015 0.707346 43.2001 0.816517V8.68372C43.2001 8.90013 43.1142 9.10769 42.9611 9.26072C42.8081 9.41375 42.6006 9.49972 42.3841 9.49972C42.1677 9.49972 41.9602 9.41375 41.8071 9.26072C41.6541 9.10769 41.5681 8.90013 41.5681 8.68372V2.04532C41.5615 1.93883 41.5165 1.83836 41.4415 1.76247C41.3665 1.68659 41.2665 1.64043 41.1601 1.63252H34.5025ZM41.5489 34.5173C41.5489 34.3009 41.6349 34.0933 41.7879 33.9403C41.941 33.7873 42.1485 33.7013 42.3649 33.7013C42.5814 33.7013 42.7889 33.7873 42.9419 33.9403C43.095 34.0933 43.1809 34.3009 43.1809 34.5173V42.3845C43.1822 42.492 43.162 42.5987 43.1214 42.6983C43.0809 42.7979 43.0208 42.8884 42.9448 42.9644C42.8688 43.0404 42.7783 43.1005 42.6787 43.141C42.5791 43.1816 42.4725 43.2018 42.3649 43.2005H34.5025C34.2861 43.2005 34.0786 43.1145 33.9255 42.9615C33.7725 42.8085 33.6865 42.6009 33.6865 42.3845C33.6865 42.1681 33.7725 41.9605 33.9255 41.8075C34.0786 41.6545 34.2861 41.5685 34.5025 41.5685H41.1409C41.2473 41.5606 41.3473 41.5144 41.4223 41.4386C41.4973 41.3627 41.5423 41.2622 41.5489 41.1557V34.5173Z" fill="white"/>
</svg>
