<svg width="21" height="21" viewBox="0 0 21 21" fill="none" xmlns="http://www.w3.org/2000/svg">
<path d="M10.5 0C13.2848 0 15.9557 1.10606 17.9248 3.0752C19.8939 5.04433 21 7.71523 21 10.5C21 12.5766 20.3841 14.6064 19.2305 16.333C18.0767 18.0597 16.4371 19.4064 14.5186 20.2012C12.5999 20.9959 10.488 21.203 8.45117 20.7979C6.41454 20.3926 4.54354 19.3931 3.0752 17.9248C1.60685 16.4565 0.60735 14.5855 0.202148 12.5488C-0.202996 10.512 0.00410801 8.40007 0.798828 6.48145C1.59356 4.56289 2.94033 2.92325 4.66699 1.76953C6.39363 0.615926 8.42344 9.90177e-07 10.5 0ZM13.9443 2.18555C12.2998 1.50436 10.49 1.32558 8.74414 1.67285C6.99832 2.02012 5.39441 2.87708 4.13574 4.13574C2.87708 5.39441 2.02012 6.99832 1.67285 8.74414C1.32558 10.49 1.50436 12.2998 2.18555 13.9443C2.86675 15.5887 4.02005 16.9945 5.5 17.9834C6.98 18.9723 8.72004 19.5 10.5 19.5C12.8869 19.5 15.1764 18.5521 16.8643 16.8643C18.5521 15.1764 19.5 12.8869 19.5 10.5C19.5 8.72004 18.9723 6.98001 17.9834 5.5C16.9945 4.02005 15.5887 2.86675 13.9443 2.18555ZM15.75 7.81152L9 14.5605L5.25 10.8096L6.30957 9.75L9 12.4395L14.6885 6.75L15.75 7.81152Z" fill="#007DA4"/>
</svg>
