<?xml version="1.0" standalone="no"?>
<!DOCTYPE svg PUBLIC "-//W3C//DTD SVG 1.1//EN" "http://www.w3.org/Graphics/SVG/1.1/DTD/svg11.dtd" >
<svg xmlns="http://www.w3.org/2000/svg">
<metadata>Generated by IcoMoon</metadata>
<defs>
<font id="icomoon" horiz-adv-x="1024">
<font-face units-per-em="1024" ascent="960" descent="-64" />
<missing-glyph horiz-adv-x="1024" />
<glyph unicode="&#x20;" horiz-adv-x="512" d="" />
<glyph unicode="&#xe900;" glyph-name="star" d="M921.907 464.282c-92.672 0.307-189.952 19.251-263.168 79.667-61.542 50.79-98.099 122.88-115.814 199.68-11.059 47.923-15.053 96.973-14.746 146.022 0 10.24-8.192 14.746-16.179 14.746s-16.179-4.506-16.179-14.746c0.41-83.661-11.366-170.189-50.381-245.35-37.171-71.578-98.406-125.747-174.285-153.293-54.17-19.661-111.718-26.624-169.062-26.829-10.24 0-14.746-8.294-14.746-16.282s4.506-16.282 14.746-16.282c92.672-0.307 189.952-19.251 263.168-79.667 61.542-50.79 98.099-122.88 115.814-199.68 11.059-47.923 14.95-96.973 14.746-146.022 0-10.24 8.192-14.746 16.179-14.746s16.179 4.506 16.179 14.746c-0.41 83.661 11.366 170.189 50.381 245.35 37.171 71.578 98.406 125.747 174.285 153.293 54.17 19.661 111.718 26.624 169.062 26.829 10.24 0 14.746 8.294 14.746 16.282s-4.506 16.282-14.746 16.282zM640.205 376.422c-66.662-53.555-107.315-132.198-126.566-214.426-0.614-2.458-1.024-5.018-1.638-7.475-8.704 39.526-21.811 77.926-40.653 113.869-40.755 77.824-108.339 135.373-190.566 165.581-15.565 5.734-31.539 10.342-47.718 14.131 54.374 13.005 105.984 35.635 150.63 71.475 66.662 53.555 107.315 132.198 126.566 214.426 0.614 2.458 1.024 5.018 1.638 7.475 8.704-39.526 21.811-77.926 40.653-113.869 40.755-77.824 108.339-135.373 190.566-165.581 15.565-5.734 31.539-10.342 47.718-14.131-54.374-13.107-105.984-35.635-150.63-71.475z" />
<glyph unicode="&#xe901;" glyph-name="email" d="M861.651 158.659h-699.302c-47.327 0.056-85.678 38.41-85.729 85.733v431.887c0.051 47.328 38.402 85.682 85.724 85.737h699.307c47.327-0.056 85.678-38.41 85.729-85.733v-431.887c-0.051-47.328-38.402-85.682-85.724-85.737h-0.005zM162.349 729.248c-29.239-0.033-52.933-23.729-52.961-52.967v-431.885c0.028-29.24 23.722-52.937 52.958-52.969h699.305c29.239 0.033 52.933 23.729 52.961 52.967v431.885c-0.028 29.24-23.722 52.937-52.958 52.969h-0.003zM512 363.917c-0.003 0-0.006 0-0.009 0-4.163 0-7.964 1.553-10.854 4.111l-394.837 348.538 21.684 24.576 384.016-339.018 384.033 338.977 21.684-24.576-394.854-348.553c-2.86-2.518-6.636-4.055-10.772-4.055-0.032 0-0.064 0-0.095 0h0.005zM97.39 210.11l265.259 302.235 24.642-21.627-265.259-302.235zM637.545 491.036l24.642 21.627 265.264-302.241-24.642-21.627z" />
<glyph unicode="&#xe902;" glyph-name="diagonal-arrow" d="M800 768h-320c-17.673 0-32-14.327-32-32s14.327-32 32-32v0h242.752l-521.376-521.376c-6.027-5.827-9.769-13.985-9.769-23.017 0-17.673 14.327-32 32-32 9.032 0 17.19 3.742 23.009 9.76l521.385 521.385v-242.752c0-17.673 14.327-32 32-32s32 14.327 32 32v0 320c0 17.673-14.327 32-32 32v0z" />
<glyph unicode="&#xe903;" glyph-name="aim-target-arrow" d="M488.16 99.36c-182.917 0-331.2 148.283-331.2 331.2s148.283 331.2 331.2 331.2c182.917 0 331.2-148.283 331.2-331.2 0-0.056 0-0.113 0-0.169v0.009c-0.273-182.774-148.412-330.858-331.182-331.040h-0.018zM488.16 729.6c-165.244 0-299.2-133.956-299.2-299.2s133.956-299.2 299.2-299.2c165.244 0 299.2 133.956 299.2 299.2v0c-0.182 165.17-134.030 299.018-299.182 299.2h-0.018zM488.16 227.36c-112.224 0-203.2 90.976-203.2 203.2s90.976 203.2 203.2 203.2c112.224 0 203.2-90.976 203.2-203.2 0-0.056 0-0.112 0-0.169v0.009c-0.182-112.119-91.069-202.949-203.191-203.040h-0.009zM488.16 601.6c-94.551 0-171.2-76.649-171.2-171.2s76.649-171.2 171.2-171.2c94.551 0 171.2 76.649 171.2 171.2v0c-0.091 94.515-76.686 171.109-171.191 171.2h-0.009zM488.16 355.36c-41.532 0-75.2 33.668-75.2 75.2s33.668 75.2 75.2 75.2c41.532 0 75.2-33.668 75.2-75.2 0-0.056 0-0.112 0-0.169v0.009c-0.091-41.463-33.724-75.040-75.2-75.040 0 0 0 0 0 0v0zM488.16 473.6c-23.859 0-43.2-19.341-43.2-43.2s19.341-43.2 43.2-43.2c23.859 0 43.2 19.341 43.2 43.2v0c0 23.859-19.341 43.2-43.2 43.2v0zM488.16 414.4c-0.027 0-0.060 0-0.093 0-4.395 0-8.377 1.772-11.269 4.641l0.001-0.001c-2.923 2.9-4.733 6.919-4.733 11.36s1.81 8.46 4.732 11.359l256.001 256.001v82.88c0 8.837 7.163 16 16 16s16-7.163 16-16v0-89.6c0-0.027 0-0.060 0-0.093 0-4.395-1.772-8.377-4.641-11.269l-260.639-260.639c-2.891-2.868-6.872-4.64-11.267-4.64-0.033 0-0.065 0-0.098 0h0.005zM851.040 675.040h-102.4c-8.837 0-16 7.163-16 16s7.163 16 16 16v0h102.4c8.837 0 16-7.163 16-16s-7.163-16-16-16v0z" />
<glyph unicode="&#xe904;" glyph-name="appreciation-best-marketing" d="M512 772.8c-57.6 0-115.2-22.4-158.4-65.6v0c-43.2-43.2-65.6-100.8-65.6-158.4s22.4-115.2 65.6-158.4c43.2-43.2 100.8-65.6 158.4-65.6s115.2 22.4 158.4 65.6c43.2 43.2 65.6 100.8 65.6 158.4s-22.4 115.2-65.6 158.4c-43.2 43.2-100.8 65.6-158.4 65.6zM648 412.8c-36.8-36.8-86.4-56-136-56s-97.6 19.2-136 56c-36.8 36.8-56 86.4-56 136s19.2 97.6 56 136c36.8 36.8 86.4 56 136 56s97.6-19.2 136-56c36.8-36.8 56-86.4 56-136s-19.2-97.6-56-136zM470.4 540.8l-59.2 59.2-11.2-11.2-48-51.2 120-120 198.4 198.4-62.4 62.4-137.6-137.6zM472 462.4l-75.2 75.2 16 17.6 59.2-59.2 137.6 137.6 17.6-17.6-155.2-153.6zM852.8 587.2c-1.6 9.6-4.8 16-8 24-6.4 9.6-14.4 17.6-19.2 25.6-6.4 6.4-11.2 14.4-12.8 19.2-1.6 3.2-1.6 8-1.6 14.4 0 8 0 16 0 25.6 0 11.2-1.6 24-8 36.8-4.8 8-11.2 12.8-17.6 17.6-9.6 6.4-19.2 9.6-28.8 14.4-8 3.2-16 8-19.2 11.2-4.8 4.8-9.6 16-16 28.8-3.2 6.4-6.4 12.8-9.6 19.2-4.8 6.4-9.6 12.8-17.6 17.6-11.2 6.4-24 6.4-36.8 6.4-9.6 0-17.6 0-25.6 0-6.4 0-11.2 0-14.4 1.6-6.4 1.6-16 9.6-25.6 19.2-4.8 4.8-11.2 9.6-17.6 12.8-6.4 4.8-14.4 8-24 8-1.6 0-3.2 0-4.8 0-8 0-16-1.6-22.4-4.8-11.2-3.2-19.2-8-27.2-12.8s-14.4-6.4-19.2-8h-3.2c-6.4 0-14.4 1.6-24 4.8s-20.8 6.4-33.6 6.4c-4.8 0-11.2 0-17.6-3.2-8-3.2-16-8-20.8-12.8-8-8-14.4-17.6-19.2-25.6-6.4-8-11.2-14.4-16-16-3.2-1.6-6.4-3.2-11.2-3.2-8-1.6-17.6-3.2-28.8-6.4s-22.4-6.4-32-16c-6.4-6.4-9.6-14.4-12.8-20.8-3.2-11.2-4.8-22.4-6.4-32s-3.2-17.6-6.4-20.8c-3.2-6.4-12.8-12.8-24-20.8-4.8-4.8-11.2-8-17.6-14.4-4.8-4.8-11.2-12.8-12.8-20.8-1.6-6.4-3.2-11.2-3.2-17.6 0-12.8 3.2-24 6.4-33.6s4.8-19.2 4.8-24v-3.2c0-6.4-4.8-16-11.2-27.2-3.2-6.4-6.4-11.2-9.6-19.2-3.2-6.4-4.8-14.4-4.8-22.4 0-1.6 0-3.2 0-4.8 1.6-9.6 4.8-16 8-24 6.4-9.6 14.4-17.6 19.2-25.6 6.4-6.4 11.2-14.4 12.8-19.2 1.6-3.2 1.6-8 1.6-14.4 0-8 0-16 0-25.6 0-11.2 1.6-24 8-36.8 4.8-8 11.2-12.8 17.6-17.6 9.6-6.4 19.2-9.6 28.8-14.4 8-3.2 16-8 19.2-11.2 4.8-4.8 9.6-16 16-28.8 3.2-6.4 6.4-12.8 9.6-19.2 4.8-6.4 9.6-12.8 17.6-17.6 1.6-1.6 4.8-1.6 6.4-3.2l-67.2-200 105.6 33.6 64-91.2 73.6 219.2c0 0 1.6 0 1.6 1.6l73.6-219.2 64 91.2 105.6-33.6-75.2 224c0 0 1.6 1.6 1.6 1.6 3.2 1.6 6.4 3.2 12.8 4.8 8 1.6 17.6 3.2 28.8 6.4s22.4 6.4 32 16c6.4 6.4 9.6 14.4 12.8 20.8 3.2 11.2 4.8 22.4 6.4 32s3.2 17.6 6.4 20.8c3.2 6.4 12.8 12.8 24 20.8 4.8 4.8 11.2 8 17.6 14.4 4.8 4.8 11.2 12.8 12.8 20.8 1.6 6.4 3.2 11.2 3.2 17.6 0 12.8-3.2 24-6.4 33.6s-4.8 19.2-4.8 24v3.2c0 6.4 4.8 16 11.2 27.2 3.2 6.4 6.4 11.2 9.6 19.2 3.2 6.4 4.8 14.4 4.8 22.4-1.6 0-3.2 1.6-3.2 3.2zM427.2 67.2l-40 57.6-67.2-20.8 49.6 145.6c8 0 17.6 0 24 0s11.2 0 14.4-1.6c6.4-1.6 16-9.6 25.6-19.2 4.8-4.8 11.2-9.6 17.6-12.8 6.4-4.8 14.4-8 24-8 0 0 0 0 0 0l-48-140.8zM636.8 124.8l-40-57.6-54.4 163.2c1.6 0 4.8 1.6 6.4 1.6h3.2c6.4 0 14.4-1.6 24-4.8s20.8-6.4 33.6-6.4c4.8 0 11.2 0 17.6 3.2 8 3.2 16 8 20.8 12.8 3.2 3.2 6.4 8 9.6 11.2l48-145.6-68.8 22.4zM819.2 571.2c-3.2-6.4-6.4-14.4-11.2-24s-9.6-19.2-11.2-30.4c0-1.6 0-4.8 0-6.4 0-12.8 3.2-24 6.4-33.6s4.8-19.2 4.8-24c0-3.2 0-4.8-1.6-6.4-1.6-3.2-3.2-4.8-6.4-8-4.8-4.8-12.8-11.2-20.8-16-8-6.4-17.6-12.8-24-24-4.8-6.4-6.4-14.4-8-20.8-3.2-11.2-3.2-20.8-6.4-28.8-1.6-8-4.8-14.4-8-17.6-1.6-1.6-4.8-3.2-9.6-4.8-6.4-3.2-16-3.2-25.6-6.4-9.6-1.6-20.8-4.8-32-11.2-14.4-9.6-22.4-22.4-30.4-32-3.2-4.8-8-9.6-11.2-12.8s-6.4-4.8-8-6.4c-1.6 0-3.2-1.6-6.4-1.6-6.4 0-14.4 1.6-24 4.8s-20.8 6.4-33.6 6.4c-1.6 0-4.8 0-6.4 0-16-1.6-28.8-9.6-40-16-4.8-3.2-11.2-4.8-14.4-8-4.8-1.6-8-3.2-11.2-3.2h-1.6c-3.2 0-6.4 1.6-9.6 3.2-6.4 3.2-12.8 9.6-20.8 17.6-8 6.4-17.6 14.4-28.8 17.6-9.6 3.2-17.6 3.2-25.6 3.2-9.6 0-19.2-1.6-25.6 0-9.6 0-16 1.6-19.2 3.2-1.6 1.6-4.8 3.2-6.4 8-3.2 6.4-8 14.4-11.2 24-4.8 9.6-9.6 20.8-17.6 28.8-12.8 11.2-27.2 17.6-38.4 22.4-6.4 3.2-11.2 4.8-14.4 8s-6.4 4.8-8 6.4c-1.6 3.2-3.2 9.6-3.2 19.2 0 8 0 16 0 25.6 0 8 0 16-3.2 25.6-6.4 16-16 27.2-25.6 36.8-4.8 4.8-8 9.6-9.6 12.8-3.2 4.8-3.2 8-3.2 9.6v1.6c0 3.2 0 6.4 3.2 11.2 3.2 6.4 6.4 14.4 11.2 24s9.6 19.2 11.2 30.4c0 1.6 0 4.8 0 6.4 0 12.8-3.2 24-6.4 33.6s-4.8 19.2-4.8 24c0 3.2 0 4.8 1.6 6.4 1.6 3.2 3.2 4.8 6.4 8 4.8 4.8 12.8 11.2 20.8 16 8 6.4 17.6 12.8 24 24 4.8 6.4 6.4 14.4 8 20.8 3.2 11.2 3.2 20.8 6.4 28.8 1.6 8 4.8 14.4 8 17.6v0c1.6 1.6 4.8 3.2 9.6 4.8 6.4 3.2 16 3.2 25.6 6.4 9.6 1.6 20.8 4.8 32 11.2 14.4 9.6 22.4 22.4 30.4 32 3.2 4.8 8 9.6 11.2 12.8s6.4 4.8 8 6.4c1.6 0 3.2 1.6 6.4 1.6 6.4 0 14.4-1.6 24-4.8s20.8-6.4 33.6-6.4c1.6 0 4.8 0 6.4 0 16 1.6 28.8 9.6 40 16 4.8 3.2 11.2 4.8 14.4 8 4.8 1.6 8 3.2 11.2 3.2h1.6c3.2 0 6.4-1.6 9.6-3.2 6.4-3.2 12.8-9.6 20.8-17.6 8-6.4 17.6-14.4 28.8-17.6 4.8-1.6 12.8-1.6 20.8-1.6 9.6 0 19.2 1.6 25.6 0 9.6 0 16-1.6 19.2-3.2 1.6-1.6 4.8-3.2 6.4-8 3.2-6.4 8-14.4 11.2-24 4.8-9.6 9.6-20.8 17.6-28.8 12.8-11.2 27.2-17.6 38.4-22.4 6.4-3.2 11.2-4.8 14.4-8s6.4-4.8 8-6.4c1.6-3.2 3.2-9.6 3.2-19.2 0-8 0-16 0-25.6 0-8 0-16 3.2-25.6 6.4-16 16-27.2 25.6-36.8 4.8-4.8 8-9.6 9.6-12.8 3.2-4.8 3.2-8 3.2-9.6v-1.6c4.8-4.8 3.2-8 1.6-12.8z" />
<glyph unicode="&#xe907;" glyph-name="arrow-right" d="M250.608 414.096l118.624-118.624-45.312-45.312-195.952 195.984 195.952 195.936 45.312-45.312-118.592-118.592h645.36v-64.080h-645.392z" />
<glyph unicode="&#xe908;" glyph-name="arrow-right1" d="M773.392 481.904l-118.624 118.624 45.312 45.312 195.952-195.984-195.952-195.936-45.312 45.312 118.592 118.592h-645.36v64.080h645.392z" />
<glyph unicode="&#xe909;" glyph-name="pediatrics" d="M752-32c8.832 0 16 7.168 16 16v121.44l107.872 84.544c13.504 10.752 31.584 31.84 38.656 48.608l76.16 177.056c0.864 1.984 1.312 4.16 1.312 6.336v154.208c0 19.904-22.56 34.592-44.352 37.248-27.008 3.488-60.96-11.2-73.76-62.304-6.592-26.528-8.064-48.96-9.376-68.736-0.608-8.8 6.048-17.088 14.88-17.664 8.832-0.608 16.416 5.44 16.96 14.24 1.312 19.776 2.688 40.672 8.608 64.448 4.032 16.064 12.672 35.808 31.136 38.272 12.352 1.76 22.688-4.864 24.384-7.872l-0.48-148.544-74.912-174.176c-4.672-11.168-19.2-28.16-29.056-36.032l-113.92-89.28c-3.872-3.008-6.112-7.648-6.112-12.576v-129.216c0-8.832 7.168-16 16-16zM272-32c-8.832 0-16 7.168-16 16v121.44l-107.872 84.544c-13.504 10.752-31.584 31.84-38.656 48.608l-76.16 177.056c-0.864 1.984-1.312 4.16-1.312 6.336v154.208c0 19.904 22.56 34.592 44.352 37.248 27.008 3.488 60.96-11.2 73.76-62.304 6.592-26.528 8.064-48.96 9.376-68.736 0.608-8.8-6.048-17.088-14.88-17.664-8.832-0.608-16.416 5.44-16.96 14.24-1.312 19.776-2.688 40.672-8.608 64.448-4.032 16.064-12.672 35.808-31.136 38.272-12.352 1.76-22.688-4.864-24.384-7.872l0.48-148.544 74.912-174.176c4.672-11.168 19.2-28.16 29.056-36.032l113.92-89.28c3.872-3.008 6.112-7.648 6.112-12.576v-129.216c0-8.832-7.168-16-16-16zM464-32c-8.832 0-16 7.168-16 16v174.816c0 67.424-46.56 126.208-113.248 142.976-8.576 2.144-13.76 10.848-11.616 19.424 2.144 8.544 10.688 13.856 19.424 11.616 80.896-20.352 137.44-91.904 137.44-174.016v-174.816c0-8.832-7.168-16-16-16zM280.384 242.656c-4.096 0-8.192 1.568-11.328 4.672l-140.384 140.16c-3.008 3.008-4.672 7.072-4.672 11.328 0 4.224 1.696 8.32 4.672 11.328 44 44 98.24 40.288 148.768-10.24l72.16-72c6.24-6.24 6.24-16.384 0-22.624-6.24-6.272-16.384-6.24-22.624-0.032l-72.16 72c-32.8 32.8-63.488 39.744-91.232 20.608l128.064-127.872c6.24-6.24 6.24-16.384 0-22.656-3.072-3.104-7.168-4.672-11.264-4.672zM560-32c-8.832 0-16 7.168-16 16v174.816c0 82.112 56.544 153.664 137.44 174.016 8.672 2.24 17.248-3.072 19.424-11.616 2.112-8.576-3.072-17.28-11.616-19.424-66.688-16.768-113.248-75.552-113.248-142.976v-174.816c0-8.832-7.168-16-16-16zM743.616 242.656c-4.096 0-8.192 1.568-11.328 4.672-6.24 6.272-6.24 16.384 0 22.656l128.064 127.872c-27.712 19.104-58.432 12.16-91.232-20.608l-72.16-72c-6.24-6.208-16.384-6.24-22.624 0.032-6.24 6.24-6.24 16.384 0 22.624l72.16 72c50.528 50.528 104.768 54.24 148.768 10.24 3.008-3.008 4.672-7.072 4.672-11.328s-1.696-8.32-4.672-11.328l-140.384-140.16c-3.072-3.104-7.168-4.672-11.264-4.672zM582.368 561.632c-8.672 0-17.344 0.704-26.016 2.144-41.408 6.88-77.696 29.504-102.176 63.744s-34.144 75.904-27.296 117.312c4.832 28.928 32.224 48.608 61.216 43.744 28.928-4.8 48.576-32.288 43.744-61.216-1.92-11.52 0.256-23.456 6.016-33.536 4.416-7.68 1.76-17.44-5.92-21.856-7.584-4.32-17.408-1.76-21.856 5.92-9.44 16.448-12.928 35.872-9.856 54.688 1.92 11.552-5.92 22.528-17.44 24.448-11.584 1.824-22.496-5.888-24.416-17.44-5.472-32.96 2.24-66.144 21.76-93.44s48.448-45.344 81.408-50.816c9.056-1.472 18.24-2.048 27.2-1.536 8.992 0.192 16.384-6.336 16.8-15.136 0.48-8.832-6.304-16.352-15.136-16.832-2.592-0.128-5.312-0.192-8.032-0.192zM489.152 345.6c-14.656 0-30.24 1.408-46.88 4.48-43.264 8-78.56 32.896-99.424 70.176-14.368 25.632-26.4 65.728-18.304 124.48-5.92-2.784-11.712-4.512-17.312-5.856-22.176-5.344-53.984 4-72.48 21.216-14.016 13.088-20.128 30.080-17.152 47.84 2.592 15.328 10.144 27.52 21.856 35.296 13.344 8.832 29.376 10.272 40.544 9.6 22.336 59.008 69.472 87.904 123.104 74.208 23.648-6.048 42.88-20.672 55.584-42.272 23.136-39.264 21.088-92.64 11.456-129.472-2.208-8.544-10.848-13.632-19.488-11.456-8.576 2.24-13.696 10.976-11.424 19.52 7.584 29.248 10.048 74.304-8.096 105.152-8.448 14.304-20.544 23.584-35.968 27.52-40.672 10.464-73.664-14.048-88.8-65.248-2.432-8.128-10.656-12.928-19.040-11.040-5.216 1.184-20.96 2.912-30.24-3.296-2.688-1.824-6.432-5.216-7.904-13.888-0.448-2.592-1.792-10.528 7.392-19.104 12.48-11.616 33.984-15.712 43.168-13.504 11.328 2.72 26.4 6.368 42.624 46.72 1.824 5.248 3.744 10.592 5.856 16.032 3.104 8.128 12.064 12.352 20.352 9.344 8.192-2.944 12.544-11.872 9.792-20.128-1.952-5.728-3.872-11.040-5.856-16-24.224-70.24-24.832-128.8-1.728-170.080 16.128-28.8 43.584-48.096 77.344-54.336 142.080-26.176 195.712 84.672 227.68 150.976 10.848 22.528 17.408 36.096 26.688 42.72 2.848 2.016 8.48 5.088 16.128 9.12 38.080 20 127.296 66.88 137.376 154.72 8.48 73.312-44.48 142.88-117.952 155.072-34.816 5.824-70.144-2.336-99.040-22.976-28.864-20.64-47.968-51.296-53.792-86.304-0.832-6.848-6.080-14.688-12.832-16.032-21.088-4.192-36.992-20.48-40.48-41.44-3.552-21.344 7.008-42.656 26.304-53.056 7.776-4.192 10.688-13.888 6.496-21.664-4.224-7.776-13.856-10.688-21.696-6.528-31.328 16.864-48.512 51.616-42.688 86.496 4.96 29.888 26.304 54.656 54.624 64.544 8.416 40.32 31.456 75.744 65.408 100 35.808 25.632 79.456 35.744 122.912 28.544 90.016-14.944 154.848-100.32 144.512-190.304-12.064-104.672-115.392-158.944-154.304-179.392-5.824-3.072-10.176-5.248-12.384-6.784-3.104-2.88-10.528-18.272-16.512-30.624-28.032-58.176-83.456-172.992-215.424-172.992z" />
<glyph unicode="&#xe90a;" glyph-name="award-badge-quality" d="M696 258.8c3.2-1.2 8.4-2.8 14.4-2.4 9.6 0.4 18.4 4.4 24.8 10.8 7.2 7.2 10.8 16.8 10.8 26.8-0.8 60.4 37.6 113.2 94.8 131.2 4 1.2 8 3.2 11.6 6 8 6 13.2 14.8 14.4 24 1.6 10-0.8 20-6.8 28.4-36 48.4-36.4 113.6-0.4 162l4.4 5.6 2 6c3.2 9.6 2 20-2.4 28-4.4 9.2-12.4 16-22 18.8-57.2 18.4-95.6 70.8-94.8 130.8 0 4.8-0.8 8.8-2 12.8-3.2 9.2-10 16.8-19.2 21.6-8.8 4-18.8 4.8-28 1.6-14-4.8-28.8-7.2-43.6-7.2-44 0-85.6 21.2-110.8 57.2-2.8 3.6-6 6.8-8.8 8.8-16.8 12-40 8-52-8.8-25.6-36-66.8-57.2-110.8-57.2-15.2 0-29.6 2.4-43.2 7.2-12.8 4.4-29.2 1.2-38.8-8.8-7.2-7.2-10.8-16.8-10.8-26.4 0.8-60.4-37.6-113.2-94.8-130.8-4.4-1.2-8-3.2-12-6-16.4-12.4-19.6-35.6-7.6-52.4 36-48.4 36-113.6 0-162.4-2.4-3.2-4.4-7.2-5.6-10.8-2.8-9.6-2-19.2 2.4-28.8 4.8-8.8 12.8-15.2 21.6-18 57.6-18.4 95.6-71.2 94.8-130.4-0.4-4.8 0.4-9.2 2-13.6 3.2-9.2 10-16.8 19.2-21.6 9.2-4 18.8-4.8 28-1.6 14.4 4.8 29.6 7.2 44.4 7.2 44.4 0 84.4-20.8 110.4-57.2 2.4-3.2 5.6-6.4 8.8-8.8 6.4-4.4 14-6.8 21.6-6.8 2 0 4.4 0 6.4 0.4 10 1.6 18.4 7.2 24 15.2 34.8 48.4 96.4 68.8 153.6 49.6zM511.6 233.2c-32.8 45.2-85.2 72-140.8 72-18.4 0-37.2-2.8-54.4-8.8 0 76-48.4 142.8-120 165.6 44.8 61.6 44.8 143.6 0.4 205.2 72 23.6 120 89.6 120.4 165.6 17.2-5.6 35.2-8.4 53.6-8.4 55.6 0 108.4 26.8 141.2 71.6 32.8-44.8 85.6-71.6 141.6-71.6 18.8 0 37.2 2.8 53.6 8.8 0-75.2 47.6-141.2 119.6-165.6-44.4-61.6-44.4-143.2 0-205.2-72-23.6-119.6-89.6-120-165.6-72.4 23.2-150-2-195.2-63.6zM673.6 591.6c-61.2 25.6-109.2 73.2-135.2 134.4-4.4 10.8-15.2 18-26.8 18s-22.4-7.2-26.8-17.6c-26-60.8-73.6-108.4-134.4-134.4-10.8-4.4-18-14.8-18-26.4s6.8-22 17.6-26.8c58.8-25.6 107.6-75.2 134.4-136 4.8-10.8 15.2-17.6 26.4-17.6 0 0 0 0 0 0 11.6 0 22 6.8 26.4 17.6 25.6 59.2 75.2 108.4 136.4 135.6 10.4 4.8 17.2 15.2 17.2 26.8 0.4 11.6-6.4 22-17.2 26.4zM511.2 437.6c-28.8 54.4-73.2 99.2-126 127.6 54.4 28 98.4 71.6 126.4 126 28-54.8 72.4-98.8 127.2-126.4-54.8-29.2-99.6-74-127.6-127.2zM394.4 204.8c-9.2 6-21.2 3.2-27.2-5.6l-104.8-160.4-52.4 107.6-109.2 0.4 109.6 168c6 9.2 3.2 21.2-5.6 27.2-9.2 6-21.2 3.2-27.2-5.6l-149.2-228.8 157.2-0.4 72-147.6 142.4 218c6 9.2 3.6 21.6-5.6 27.2zM846 336.4c-6 9.2-18 11.6-27.2 5.6s-11.6-18-5.6-27.2l110-168-109.6-0.4-52.4-107.6-104.8 160.4c-6 9.2-18 11.6-27.2 5.6s-11.6-18-5.6-27.2l142.8-218 72 147.6 157.2 0.4-149.6 228.8z" />
<glyph unicode="&#xe90b;" glyph-name="brain-svgrepo" d="M518.912 928.21c-17.99 5.656-36.77 8.518-55.784 8.518-56.25 0-109.080-25.368-144.29-68.562-11.636 2.28-23.32 3.398-34.91 3.398-82.968 0-154.6-53.854-178.13-132.376-64.652-30.812-105.798-95.464-105.798-167.842 0-12.87 10.426-23.272 23.272-23.272s23.272 10.402 23.272 23.272c0 57.274 34.374 108.102 87.552 129.466 7.052 2.84 12.264 8.936 13.986 16.314 14.778 63.534 70.632 107.892 135.842 107.892 12.544 0 25.344-1.816 38.050-5.4 9.658-2.722 19.944 1.024 25.6 9.286 26.066 38.376 69.282 61.276 115.55 61.276 14.29 0 28.346-2.14 41.822-6.376 12.218-3.864 25.32 2.956 29.184 15.22 3.866 12.242-2.954 25.322-15.218 29.186zM243.2 252.51c-108.428 0-196.654 69.934-196.654 155.928 0 23.366 6.632 46.056 19.688 67.444 33.304 54.574 101.12 88.482 176.966 88.482 12.846 0 23.272 10.402 23.272 23.272s-10.426 23.272-23.272 23.272c-91.95 0-174.988-42.426-216.692-110.754-17.594-28.812-26.508-59.648-26.508-91.718 0-111.64 109.102-202.472 243.2-202.472 12.846 0 23.272 10.402 23.272 23.272s-10.426 23.274-23.272 23.274zM868.818 796.766c-36.398 65.582-108.148 107.38-185.762 107.38-37.47 0-74.496-9.774-107.054-28.276-63.884-36.352-103.564-103.098-103.564-174.196 0-9.030-22.086-25.624-58.182-25.624-12.846 0-23.272-10.402-23.272-23.272s10.426-23.272 23.272-23.272c33.442 0 62.418 10.496 81.454 26.834 19.038-16.338 48.012-26.834 81.454-26.834 12.846 0 23.272 10.402 23.272 23.272s-10.426 23.272-23.272 23.272c-36.096 0-58.182 16.594-58.182 25.624 0 55.226 29.928 105.216 80.034 133.726 25.554 14.52 54.598 22.2 84.038 22.2 63.628 0 122.066-35.608 148.852-90.718 3.002-6.19 8.61-10.728 15.266-12.382 76.706-19.246 130.28-87.832 130.28-166.866 0-6.958-0.418-13.8-1.21-20.526-1.512-12.776 7.61-24.344 20.364-25.856 0.932-0.116 1.862-0.162 2.792-0.162 11.614 0 21.666 8.704 23.086 20.526 1 8.542 1.512 17.198 1.512 26.018 0.004 96.816-63.274 181.344-155.178 209.132zM544.582 562.036c-66.724 0-121.018-54.296-121.018-121.018 0-12.87 10.426-23.272 23.272-23.272s23.272 10.402 23.272 23.272c0 41.076 33.42 74.472 74.472 74.472 12.846 0 23.272 10.402 23.272 23.272 0.002 12.872-10.424 23.274-23.27 23.274zM707.49 464.29c-48.756 0-88.436-39.68-88.436-88.436 0-85.97-73.612-155.928-164.072-155.928-41.146 0-80.478 14.522-110.802 40.914-33.862 29.486-53.272 71.4-53.272 115.014 0 12.87-10.426 23.272-23.272 23.272s-23.272-10.402-23.272-23.272c0-57.088 25.228-111.802 69.26-150.11 38.796-33.768 88.994-52.364 141.358-52.364 116.13 0 210.618 90.834 210.618 202.472 0 23.11 18.804 41.89 41.89 41.89 12.846 0 23.272 10.402 23.272 23.272s-10.424 23.276-23.272 23.276zM991.418 392.122c0 26.624-4.934 52.946-14.662 78.312-32.232 84.014-114.246 140.474-204.102 140.474-12.846 0-23.272-10.402-23.272-23.272s10.426-23.272 23.272-23.272c71.82 0 134.866-43.404 160.652-110.592 7.68-20.014 11.566-40.75 11.566-61.626 0-99.77-65.582-172.194-155.928-172.194-1.094 0-114.734-2.28-170.984-30.394-7.89-3.956-12.87-12.008-12.87-20.83 0-39.656 38.074-166.004 47.522-182.69 15.15-26.764 39.518-26.764 88.040-26.764 11.52 0 113.268 1.164 138.008 41.332 7.074 11.45 7.586 25.042 2.142 35.678l-29.44 71.448c-4.91 11.892-18.526 17.524-30.394 12.66-11.892-4.91-17.548-18.502-12.66-30.394l27.764-67.212c-11.474-7.098-46.848-16.966-95.418-16.966-13.708 0-42.264 0-47.314 2.77-6.656 13.452-33.582 102.912-40.216 145.246 45.592 15.778 121.996 19.55 135.82 19.55 117.32-0.004 202.474 91.992 202.474 218.736z" />
<glyph unicode="&#xe90c;" glyph-name="brain-svgrepo2" d="M975.906 335.781c0 46.894-25.466 89.302-65.917 111.502 1.19 5.481 1.791 11.078 1.791 16.749 0 11.637-2.603 23.087-7.593 33.618 15.486 23.43 23.624 50.404 23.624 78.602 0 48.441-24.516 93.374-64.658 119.754 0.359 2.89 0.533 5.695 0.533 8.497 0 24.961-12.082 48.439-32.067 63.284 0.002 0.281 0.004 0.559 0.004 0.842 0 57.853-39.385 108.416-94.683 123.018-21.843 41.762-65.29 68.356-112.722 68.356-48.513 0-90.757-27.297-112.219-67.33-21.462 40.032-63.706 67.33-112.219 67.33-47.433 0-90.879-26.594-112.722-68.356-55.298-14.603-94.683-65.165-94.683-123.018 0-0.283 0.002-0.561 0.004-0.842-19.985-14.845-32.067-38.323-32.067-63.284 0-2.801 0.174-5.605 0.533-8.497-40.142-26.38-64.658-71.313-64.658-119.754 0-28.197 8.138-55.172 23.624-78.602-4.99-10.531-7.593-21.981-7.593-33.618 0-5.671 0.599-11.268 1.791-16.749-40.451-22.199-65.917-64.608-65.917-111.502 0-56.001 36.894-104.731 88.775-121.197-5.679-12.268-8.619-25.5-8.619-39.116 0-42.036 27.632-78.69 67.053-90.845 12.412-57.987 64.127-100.528 124.321-100.528 9.426 0 18.839 1.076 28.117 3.208 16.194-31.177 48.435-51.302 84.102-51.302 33.63 0 63.219 17.546 80.157 43.95 16.937-26.404 46.527-43.95 80.157-43.95 35.668 0 67.909 20.125 84.102 51.302 9.278-2.132 18.691-3.208 28.117-3.208 60.194 0 111.909 42.541 124.321 100.528 39.421 12.156 67.053 48.809 67.053 90.845 0 13.617-2.94 26.848-8.619 39.116 51.881 16.466 88.775 65.195 88.775 121.197zM431.843-33.941c-27.634 0-52.272 17.757-61.312 44.186-1.295 3.781-4.040 6.891-7.631 8.643s-7.733 2.002-11.508 0.695c-10.406-3.603-21.095-5.431-31.77-5.431-48.637 0-90.024 36.369-96.27 84.599-0.836 6.447-5.719 11.625-12.106 12.835-30.674 5.815-52.937 32.682-52.937 63.881 0 12.258 3.569 24.113 10.354 34.646 2.014-1.002 4.276-1.581 6.679-1.581 23.678 0 46.318 6.398 65.997 18.384 6.22-46.511 46.13-82.509 94.316-82.509 52.485 0 95.186 42.701 95.186 95.186 0 8.3-6.729 15.029-15.029 15.029s-15.029-6.729-15.029-15.029c0-35.912-29.217-65.127-65.127-65.127s-65.127 29.215-65.127 65.127c0 4.395 0.439 8.783 1.303 13.041 1.108 5.463-0.906 10.825-4.805 14.264-0.315 0.375-0.647 0.737-1.002 1.086-5.93 5.809-15.446 5.713-21.254-0.216-18.436-18.815-43.092-29.177-69.428-29.177-2.313 0-4.495-0.537-6.451-1.471-1.882 1.256-4.038 2.118-6.358 2.425-48.106 6.344-84.381 47.715-84.381 96.236 0 39.351 23.482 74.568 59.825 89.723 3.679 1.535 6.597 4.467 8.114 8.154s1.507 7.823-0.028 11.502c-2.511 6.024-3.785 12.372-3.785 18.871 0 9.314 2.727 18.47 7.885 26.478 3.427 5.32 3.154 12.22-0.683 17.252-15.2 19.937-23.233 43.619-23.233 68.49 0 41.202 22.454 79.197 58.598 99.156 0.092 0.050 0.166 0.12 0.257 0.17 16.578 9.090 35.315 13.895 54.364 13.895 32.479 0 63.44-13.983 84.946-38.365 2.97-3.369 7.114-5.088 11.276-5.088 3.533 0 7.078 1.238 9.935 3.757 6.224 5.491 6.821 14.987 1.331 21.213-27.205 30.848-66.384 48.541-107.486 48.541-16.663 0-33.139-2.92-48.665-8.517 1.994 14.979 10.837 28.099 24.498 35.908 5.040 2.882 7.972 8.406 7.527 14.194-0.202 2.647-0.393 5.146-0.393 7.511 0 46.14 32.788 86.208 77.962 95.27 4.759 0.954 8.765 4.15 10.755 8.579 15.677 34.908 50.467 57.466 88.629 57.466 53.591 0 97.19-43.599 97.19-97.19v-292.792c-20.31 21.694-49.168 35.289-81.159 35.289-18.558 0-36.579-4.559-52.719-13.268-12.933 8.617-28.019 13.268-43.469 13.268-8.3 0-15.029-6.729-15.029-15.029s6.729-15.029 15.029-15.029c11.809 0 23.338-4.473 32.461-12.597 5.132-4.569 12.707-5.074 18.4-1.232 13.408 9.046 29.081 13.827 45.327 13.827 44.751 0 81.159-36.407 81.159-81.159v-432.845c0-35.91-29.217-65.125-65.127-65.125zM861.469 239.545c-2.323-0.307-4.477-1.168-6.358-2.425-1.958 0.934-4.138 1.471-6.451 1.471-26.337 0-50.994 10.362-69.428 29.177-5.807 5.928-15.324 6.028-21.254 0.216-0.355-0.347-0.685-0.709-0.998-1.082-3.904-3.439-5.92-8.805-4.811-14.27 0.866-4.258 1.303-8.645 1.303-13.041 0-35.912-29.217-65.127-65.127-65.127-8.3 0-15.029-6.729-15.029-15.029s6.729-15.029 15.029-15.029c48.186 0 88.096 35.998 94.316 82.509 19.678-11.983 42.319-18.384 65.997-18.384 2.403 0 4.665 0.579 6.679 1.581 6.785-10.531 10.354-22.386 10.354-34.646 0-31.199-22.263-58.065-52.939-63.879-6.386-1.21-11.27-6.388-12.106-12.835-6.246-48.23-47.633-84.599-96.27-84.599-10.675 0-21.364 1.828-31.77 5.431-3.775 1.307-7.917 1.058-11.508-0.695-3.591-1.751-6.336-4.863-7.631-8.643-9.038-26.43-33.676-44.186-61.31-44.186-35.91 0-65.127 29.215-65.127 65.127v308.823c20.31-21.694 49.168-35.289 81.159-35.289 18.558 0 36.579 4.559 52.719 13.268 12.933-8.617 28.019-13.268 43.469-13.268 8.3 0 15.029 6.729 15.029 15.029s-6.729 15.029-15.029 15.029c-11.809 0-23.338 4.473-32.461 12.597-5.132 4.567-12.705 5.074-18.4 1.232-13.408-9.046-29.081-13.827-45.327-13.827-44.751 0-81.159 36.407-81.159 81.159v242.556c9.767-7.747 21.394-13.246 34.099-15.693-0.020-0.808-0.032-1.619-0.032-2.427 0-52.485 42.701-95.186 95.186-95.186s95.186 42.701 95.186 95.186c0 8.3-6.729 15.029-15.029 15.029s-15.029-6.729-15.029-15.029c0-35.912-29.217-65.127-65.127-65.127s-65.127 29.215-65.127 65.127c0 4.427 0.449 8.861 1.335 13.176 0.92 4.491-0.259 9.158-3.202 12.673-2.944 3.513-7.346 5.495-11.915 5.372-0.782-0.022-1.451-0.088-1.978-0.154-26.734 0.393-48.364 22.263-48.364 49.090v112.219c0 53.591 43.599 97.19 97.19 97.19 38.163 0 72.952-22.558 88.631-57.468 1.99-4.429 5.994-7.625 10.755-8.579 45.172-9.060 77.96-49.128 77.96-95.268 0-2.365-0.19-4.863-0.393-7.511-0.443-5.787 2.487-11.314 7.527-14.194 13.661-7.809 22.504-20.929 24.498-35.908-15.528 5.597-32.005 8.517-48.665 8.517-8.3 0-15.029-6.729-15.029-15.029s6.729-15.029 15.029-15.029c19.051 0 37.786-4.803 54.364-13.895 0.090-0.052 0.166-0.12 0.257-0.17 36.147-19.959 58.6-57.953 58.6-99.156 0-24.871-8.034-48.553-23.233-68.49-3.837-5.034-4.11-11.931-0.683-17.252 5.158-8.008 7.885-17.162 7.885-26.478 0-6.499-1.274-12.847-3.785-18.871-1.535-3.679-1.545-7.815-0.028-11.502s4.435-6.619 8.114-8.154c36.343-15.156 59.825-50.372 59.825-89.723 0-48.521-36.275-89.892-84.379-96.236z" />
<glyph unicode="&#xe90d;" glyph-name="calendar-cells" d="M53.333 618.667c0 111.93 90.737 202.667 202.667 202.667h512c111.932 0 202.667-90.737 202.667-202.667v-426.667c0-111.932-90.735-202.667-202.667-202.667h-512c-111.93 0-202.667 90.735-202.667 202.667v426.667zM256 757.333c-76.584 0-138.667-62.083-138.667-138.667v-426.667c0-76.582 62.083-138.667 138.667-138.667h512c76.582 0 138.667 62.084 138.667 138.667v426.667c0 76.584-62.084 138.667-138.667 138.667h-512zM320 554.667h42.667c11.782 0 21.333-9.551 21.333-21.333v-42.667c0-11.782-9.551-21.333-21.333-21.333h-42.667c-11.782 0-21.333 9.551-21.333 21.333v42.667c0 11.782 9.551 21.333 21.333 21.333zM490.667 554.667h42.667c11.782 0 21.333-9.551 21.333-21.333v-42.667c0-11.782-9.551-21.333-21.333-21.333h-42.667c-11.782 0-21.333 9.551-21.333 21.333v42.667c0 11.782 9.551 21.333 21.333 21.333zM661.333 554.667h42.667c11.782 0 21.333-9.551 21.333-21.333v-42.667c0-11.782-9.551-21.333-21.333-21.333h-42.667c-11.782 0-21.333 9.551-21.333 21.333v42.667c0 11.782 9.551 21.333 21.333 21.333zM320 426.667h42.667c11.782 0 21.333-9.551 21.333-21.333v-42.667c0-11.782-9.551-21.333-21.333-21.333h-42.667c-11.782 0-21.333 9.551-21.333 21.333v42.667c0 11.782 9.551 21.333 21.333 21.333zM320 298.667h42.667c11.782 0 21.333-9.551 21.333-21.333v-42.667c0-11.782-9.551-21.333-21.333-21.333h-42.667c-11.782 0-21.333 9.551-21.333 21.333v42.667c0 11.782 9.551 21.333 21.333 21.333zM490.667 426.667h42.667c11.782 0 21.333-9.551 21.333-21.333v-42.667c0-11.782-9.551-21.333-21.333-21.333h-42.667c-11.782 0-21.333 9.551-21.333 21.333v42.667c0 11.782 9.551 21.333 21.333 21.333zM490.667 298.667h42.667c11.782 0 21.333-9.551 21.333-21.333v-42.667c0-11.782-9.551-21.333-21.333-21.333h-42.667c-11.782 0-21.333 9.551-21.333 21.333v42.667c0 11.782 9.551 21.333 21.333 21.333zM661.333 426.667h42.667c11.782 0 21.333-9.551 21.333-21.333v-42.667c0-11.782-9.551-21.333-21.333-21.333h-42.667c-11.782 0-21.333 9.551-21.333 21.333v42.667c0 11.782 9.551 21.333 21.333 21.333zM661.333 298.667h42.667c11.782 0 21.333-9.551 21.333-21.333v-42.667c0-11.782-9.551-21.333-21.333-21.333h-42.667c-11.782 0-21.333 9.551-21.333 21.333v42.667c0 11.782 9.551 21.333 21.333 21.333zM341.333 906.667c17.673 0 32-14.327 32-32v-149.333c0-17.673-14.327-32-32-32s-32 14.327-32 32v149.333c0 17.673 14.327 32 32 32zM682.667 906.667c17.673 0 32-14.327 32-32v-149.333c0-17.673-14.327-32-32-32s-32 14.327-32 32v149.333c0 17.673 14.327 32 32 32z" />
<glyph unicode="&#xe90e;" glyph-name="calender" d="M160 800v-704h704v704zM800 160h-576v416h576zM224 640v96h576v-96zM332.16 445.44h64v-169.28h-64v169.28zM480 446.72h64v-169.28h-64v169.28zM628.16 446.72h64v-169.28h-64v169.28z" />
<glyph unicode="&#xe90f;" glyph-name="care-about-animals" d="M495.86 517.557c-10.157 46.535-88.271 44.73-114.811 44.003-26.551 0.725-104.654 2.535-114.813-44.003-9.647-44.198 54.364-90.82 94.856-111.367v-41.74l-29.853-4.367c-10.909-1.595-18.458-11.73-16.864-22.639 1.597-10.909 11.759-18.456 22.637-16.862l44.038 6.44 44.036-6.44c0.98-0.142 1.954-0.213 2.914-0.213 9.745 0 18.272 7.146 19.725 17.075 1.597 10.907-5.955 21.042-16.862 22.639l-29.855 4.367v41.745c40.494 20.548 104.501 67.167 94.854 111.363zM381.049 440.791c-18.461 8.951-38.145 22.147-52.965 35.662-20.397 18.598-23.404 30.048-22.847 32.592 0.031 0.138 6.536 12.761 63.543 12.761 3.688 0 7.598-0.053 11.721-0.166 0.364-0.011 0.727-0.011 1.091 0 67.824 1.852 75.231-12.448 75.264-12.595 0.557-2.544-2.448-13.994-22.847-32.592-14.815-13.515-34.499-26.713-52.96-35.662zM533.551 145.538c3.981-10.279-1.127-21.841-11.406-25.821-44.901-17.387-92.372-26.203-141.096-26.203-210.111 0.002-381.049 166.030-381.049 370.109 0 61.483 15.686 121.797 45.508 175.516-27.278 25.358-43.131 60.824-43.131 97.963 0 74.588 62.299 135.268 138.874 135.268 46.551 0 89.083-22.235 114.762-59.035 40.13 13.546 82.11 20.403 125.037 20.403 42.923 0 84.905-6.857 125.035-20.403 25.679 36.799 68.212 59.035 114.76 59.035 76.575 0 138.874-60.68 138.874-135.268 0-37.136-15.848-72.598-43.129-97.961 0.091-0.164 0.184-0.33 0.275-0.495 5.347-9.641 1.87-21.789-7.771-27.137-9.636-5.345-21.787-1.87-27.137 7.771-2.626 4.73-5.389 9.445-8.212 14.010-5.558 8.977-3.163 20.729 5.467 26.815 25.416 17.926 40.589 46.71 40.589 76.996 0 52.576-44.391 95.348-98.954 95.348-37.671 0-71.583-20.175-88.5-52.652-4.697-9.013-15.411-13.065-24.894-9.399-40.239 15.54-82.765 23.42-126.401 23.42-43.639 0-86.169-7.88-126.406-23.42-9.481-3.662-20.199 0.388-24.894 9.399-16.917 32.477-50.829 52.652-88.504 52.652-54.566 0-98.954-42.774-98.954-95.348 0-30.29 15.174-59.074 40.589-76.994 8.636-6.090 11.029-17.853 5.46-26.833-31.678-51.084-48.425-109.748-48.425-169.652 0-182.065 153.030-330.187 341.129-330.187 43.772 0 86.395 7.909 126.681 23.508 10.284 3.981 21.843-1.127 25.821-11.406zM1021.702 388.616c-3.586 22.34-12.311 45.666-27.463 73.417-5.724 10.47-24.289 18.536-32.488 19.439-4.797 0.53-9.359-0.685-13.091-3.125-2.712 11.464-8.203 25.424-17.886 47.682-12.4 28.496-28.804 46.387-48.764 53.171-9.184 3.123-18.7 3.821-28.478 2.107-0.603 6.423-1.096 12.437-1.386 17.853-0.038 1.464-0.235 2.91-0.588 4.309-0.539 2.18-1.435 4.214-2.619 6.037-1.79 2.766-4.276 5.11-7.327 6.742-0.825 0.444-1.685 0.829-2.573 1.155-34.4 13.324-64.943 6.285-90.777-20.938-24.435-25.755-26.107-68.336-27.879-113.441-1.375-35.196-15.551-91.172-28.359-131.819-4.531-14.376-13.808-21.785-18.649-22.266-1.894-0.184-3.897 1.621-5.961 5.374-1.497 2.719-3.076 6.063-4.686 9.931-1.648 3.97-3.233 9.27-4.912 14.881-2.87 9.587-6.121 20.457-11.35 30.532-12.765 24.577-26.553 41.732-42.157 52.45-11.158 7.662-27.598 12.091-42.909 11.563-13.429-0.47-25.347-5.959-34.473-15.875-12.559-13.646-19.374-36.019-18.234-59.831 0.641-13.506 8.101-38.946 12.757-49.849 9.35-21.896 15.881-39.534 22.202-56.597 14.972-40.414 27.904-75.317 56.112-116.628 4.509-6.6 9.399-12.049 14.586-17.826 11.96-13.318 25.509-28.398 27.132-64.685-0.007-0.342-0.011-0.685-0.011-1.025 0-26.316 20.1-47.724 44.803-47.724h208.13c1.029 0 2.040 0.080 3.027 0.231 17.327 1.22 32.288 12.823 38.62 30.224 8.421 23.023 16.671 46.178 25.223 70.798 7.627 21.989 15.797 45.985 24.979 73.364 28.31 84.499 43.916 134.997 35.453 190.37zM948.399 210.934c-9.133-27.241-17.259-51.108-24.839-72.955-8.478-24.406-16.658-47.362-25.010-70.208-1.025-2.812-2.874-4.094-4.158-4.094-0.75 0-1.488-0.042-2.216-0.124h-205.904c-1.989 0-4.884 3.041-4.884 7.804l0.011 0.53c0.016 0.49 0.016 0.98-0.007 1.473-2.076 51.115-23.302 74.747-37.349 90.385-4.455 4.963-8.301 9.25-11.317 13.664-25.444 37.261-37.008 68.471-51.645 107.983-6.183 16.693-13.189 35.615-22.923 58.405-3.812 8.929-9.281 29.487-9.594 36.074-0.612 12.788 2.495 25.205 7.733 30.896 1.881 2.043 3.761 2.916 6.485 3.012 0.379 0.013 0.761 0.020 1.14 0.020 7.217 0 14.449-2.302 17.784-4.591 10.066-6.917 19.66-19.328 29.33-37.939 3.491-6.729 6.054-15.296 8.534-23.579 1.894-6.334 3.854-12.885 6.301-18.771 2.171-5.212 4.385-9.873 6.576-13.854 10.051-18.254 26.382-27.68 44.874-25.844 22.861 2.269 44.069 22.359 52.78 49.991 6.593 20.922 28.248 93.013 30.173 142.276 1.404 35.717 2.854 72.649 16.953 87.506 11.499 12.122 22.497 16.695 36.034 14.427 0.803-9.332 1.89-19.448 3.014-29.94 3.899-36.32 8.751-81.523 2.588-109.234-10.641-47.837-20.086-89.544-27.942-115.488-3.196-10.55 2.768-21.692 13.318-24.888 10.561-3.194 21.692 2.77 24.89 13.318 8.27 27.318 17.498 68.021 28.7 118.389 6.6 29.665 3.662 68.899-0.129 105.765 6.385 1.792 9.993 0.566 11.461 0.069 8.618-2.93 17.5-14.045 25.005-31.301 18.54-42.605 18.277-44.477 15.039-67.407-0.532-3.808-1.266-8.046-2.24-12.954-2.692-13.551-5.099-26.72-7.427-39.454-5.389-29.496-10.481-57.358-17.622-81.152-3.169-10.559 2.821-21.685 13.38-24.857 10.543-3.165 21.683 2.821 24.854 13.38 7.78 25.917 13.065 54.836 18.658 85.455 2.3 12.586 4.677 25.602 7.312 38.857 1.122 5.658 1.98 10.625 2.617 15.167 0.355 2.519 0.676 4.89 0.954 7.148 1.983-1.129 4.185-1.932 6.545-2.331 1.151-0.415 3.189-1.442 4.757-2.36 11.796-22.133 18.583-40.412 21.273-57.156 7.046-46.125-7.518-92.867-33.867-171.511zM265.91 631.053c0 11.024 8.88 19.96 19.904 19.96h0.115c11.024 0 19.96-8.935 19.96-19.96s-8.935-19.96-19.96-19.96-20.020 8.938-20.020 19.96zM476.171 611.093c-11.024 0-19.96 8.935-19.96 19.96s8.935 19.96 19.96 19.96 20.013-8.935 20.013-19.96-8.882-19.96-19.907-19.96h-0.106z" />
<glyph unicode="&#xe910;" glyph-name="cel-rings-love" d="M498.096 834.096l-2.112-1.936-1.504 1.376c-19.312 19.632-44.992 30.448-72.336 30.448-27.328 0-53.024-10.816-72.336-30.448-39.664-40.368-39.664-106.032-0.048-146.336l134.768-138.368c3.024-3.088 7.152-4.832 11.472-4.832s8.448 1.744 11.456 4.832l134.72 138.336c39.664 40.352 39.664 106.016 0 146.384-19.296 19.632-44.992 30.448-72.32 30.448-27.344 0-53.040-10.816-71.76-29.904v0zM619.36 709.584c-0.016-0.016-0.032-0.032-0.048-0.048l-123.312-126.608-123.344 126.656c-27.52 28-27.52 73.536 0 101.52 13.232 13.472 30.816 20.896 49.504 20.896s36.272-7.424 50.096-21.44l12.928-11.888c6.128-5.648 15.536-5.648 21.664 0l13.52 12.448c13.232 13.472 30.816 20.896 49.504 20.896 18.672 0 36.272-7.408 49.504-20.896 27.504-28 27.504-73.536-0.016-101.536v0zM336 0c149.984 0 272 122.016 272 272 0 59.328-18.768 115.728-54.288 163.072-5.296 7.056-15.296 8.512-22.4 3.2-7.072-5.296-8.496-15.328-3.2-22.4 31.328-41.76 47.888-91.52 47.888-143.872 0-132.336-107.664-240-240-240s-240 107.664-240 240c0 132.336 107.664 240 240 240 32.4 0 63.824-6.336 93.408-18.848 8.144-3.424 17.536 0.352 20.976 8.496s-0.368 17.536-8.496 20.976c-33.552 14.176-69.184 21.376-105.888 21.376-149.984 0-272-122.016-272-272s122.016-272 272-272v0zM656 544c-149.984 0-272-122.016-272-272 0-59.328 18.768-115.728 54.288-163.072 5.296-7.056 15.328-8.528 22.4-3.2 7.072 5.296 8.496 15.328 3.2 22.4-31.328 41.76-47.888 91.52-47.888 143.872 0 132.336 107.664 240 240 240s240-107.664 240-240c0-132.336-107.664-240-240-240-35.216 0-69.152 7.456-100.864 22.144-8 3.712-17.52 0.24-21.248-7.792-3.712-8.016-0.24-17.52 7.792-21.248 35.952-16.672 74.4-25.12 114.32-25.12 149.984 0 272 122.016 272 272s-122.016 272.016-272 272.016v0z" />
<glyph unicode="&#xe911;" glyph-name="cha-bubble-female" d="M320 576h80c6.064 0 11.6 3.424 14.32 8.848l17.68 35.376 17.68-35.376c2.816-5.616 8.448-8.848 14.336-8.848 2.4 0 4.848 0.544 7.136 1.68 7.904 3.952 11.104 13.568 7.152 21.472l-32 64c-5.44 10.848-23.184 10.848-28.624 0l-27.568-55.152h-69.008c6.704 55.6 47.728 114.848 118.64 126.128 8.72 1.392 14.672 9.584 13.28 18.32-1.392 8.72-9.424 14.736-18.32 13.28-95.28-15.168-146.704-100.816-146.704-173.728v-32c0-87.52-30.336-108.432-46.608-119.664-7.744-5.344-17.392-12-17.392-24.336 0-39.664 139.776-64 240-64 98.096 0 240 22.8 240 64 0 12.736-9.504 19.376-17.888 25.232-9.744 6.816-23.088 16.128-32.96 38.768-3.536 8.080-12.96 11.808-21.056 8.288-8.096-3.536-11.808-12.96-8.288-21.056 12.688-29.088 30.336-42.624 41.888-50.752-17.92-8.992-61.44-21.52-121.024-28.080 10.736 12.016 20.208 26.752 28.096 44.704 3.568 8.080-0.112 17.536-8.208 21.072-8.112 3.584-17.552-0.112-21.072-8.208-18.592-42.288-43.84-61.968-79.488-61.968-30.208 0-73.056 11.968-96.384 115.52-1.648 7.296-8.128 12.48-15.616 12.48-15.472 0-32 8.4-32 32v32zM339.12 481.072c10.288-40.304 25.088-71.12 44.16-92.608-59.616 6.736-101.696 19.6-119.92 28.16 14.848 10.512 37.568 29.552 49.184 75.76 7.552-5.536 16.432-9.552 26.576-11.312v0zM567.008 346.592c-1.088 0.112-2.112-0.192-3.184-0.176-0.448-0.032-0.864 0.112-1.328 0.048-0.128-0.016-0.224-0.112-0.352-0.128-12.208-0.592-23.392-7.616-28.24-19.040-24.56-57.968-58.88-101.92-69.744-103.28-11.12 1.392-45.44 45.376-70.016 103.28-4.816 11.36-15.968 18.368-28.176 19.008-0.144 0.032-0.256 0.128-0.4 0.16-0.528 0.080-1.008-0.080-1.536-0.048-1.040 0-2.032 0.288-3.072 0.176-160.336-18.88-265.888-61.488-296.624-215.456-0.208-1.024-0.32-2.080-0.32-3.12 0-43.808 52.816-70.304 156.992-78.736 43.888-45.616 195.792-49.28 242.992-49.28s199.104 3.664 243.008 49.264c104.192 8.432 156.992 34.928 156.992 78.736 0 1.040-0.112 2.112-0.32 3.136-30.768 153.952-136.304 196.576-296.672 215.456v0zM554.912 296.416l17.136-98.928-69.104 17.264c22.064 23.584 41.424 59.792 51.968 81.664v0zM425.104 214.768l-69.136-17.28 17.152 98.944c10.56-21.872 29.92-58.080 51.984-81.664v0zM697.872 80.656c-4.864-0.336-9.312-2.912-12.064-6.944-18.672-27.376-125.712-41.712-221.808-41.712s-203.136 14.336-221.808 41.712c-2.752 4.032-7.2 6.592-12.064 6.944-79.92 5.744-132.096 23.728-134.064 46.032 26.176 127.536 110.72 166.704 247.28 185.328l-23.104-133.28c-0.928-5.328 0.912-10.768 4.88-14.448 2.992-2.784 6.88-4.288 10.88-4.288 1.296 0 2.592 0.16 3.872 0.48l124.128 31.008 124.128-31.008c5.248-1.344 10.784 0.112 14.768 3.792 3.968 3.664 5.792 9.104 4.88 14.448l-23.072 133.296c136.512-18.624 221.040-57.84 247.248-185.344-1.984-22.288-54.16-40.272-134.080-46.016v0zM720 896c-132.336 0-240-86.128-240-192 0-43.136 18.080-84.944 51.104-118.608l-18.736-85.984c-1.36-6.192 1.056-12.576 6.192-16.336 2.8-2.048 6.112-3.072 9.44-3.072 2.752 0 5.504 0.704 7.984 2.144l82.752 47.664c31.76-11.824 65.776-17.808 101.264-17.808 132.336 0 240 86.128 240 192s-107.664 192-240 192v0zM720 544c-33.648 0-67.024 6.336-96.576 18.336-4.56 1.84-9.728 1.504-14-0.976l-58.096-33.472 12.864 58.928c0.88 3.6 0.512 7.488-1.232 10.992-0.976 1.936-2.304 3.616-3.856 4.96-30.384 28.512-47.104 64.448-47.104 101.232 0 88.224 93.312 160 208 160s208-71.776 208-160c0-88.224-93.312-160-208-160v0z" />
<glyph unicode="&#xe912;" glyph-name="check-svcom" d="M512-64c136.752 0 265.328 53.264 362.016 149.968 96.72 96.704 149.984 225.28 149.984 362.032s-53.264 265.328-149.968 362.016c-96.704 96.72-225.28 149.984-362.032 149.984s-265.328-53.264-362.016-149.968c-96.72-96.704-149.984-225.28-149.984-362.032s53.264-265.328 149.968-362.016c96.704-96.72 225.28-149.984 362.032-149.984zM195.232 764.768c84.608 84.624 197.104 131.232 316.768 131.232s232.16-46.608 316.768-131.232c84.624-84.608 131.232-197.104 131.232-316.768s-46.608-232.16-131.232-316.768c-84.608-84.624-197.104-131.232-316.768-131.232s-232.16 46.608-316.768 131.232c-84.624 84.608-131.232 197.104-131.232 316.768s46.608 232.16 131.232 316.768zM382.992 192c0.336 0 0.672 0 1.008 0 8.688 0 17.024 3.536 23.072 9.824l400 416c12.24 12.736 11.856 32.992-0.896 45.248s-32.992 11.84-45.248-0.896l-375.408-390.432-153.088 180.928c-11.424 13.504-31.616 15.184-45.104 3.76-13.488-11.408-15.168-31.616-3.76-45.104l176-208c5.856-6.928 14.368-11.328 23.424-11.328z" />
<glyph unicode="&#xe913;" glyph-name="check-svgrepo2" d="M391.339 163.968c-11.781 0.003-22.446 4.78-30.165 12.501l-241.365 241.365c-7.41 7.665-11.977 18.12-11.977 29.641 0 23.564 19.103 42.667 42.667 42.667 11.521 0 21.976-4.567 29.653-11.989l211.188-211.188 452.523 452.565c7.665 7.41 18.12 11.977 29.641 11.977 23.564 0 42.667-19.103 42.667-42.667 0-11.521-4.567-21.976-11.989-29.653l-482.676-482.719c-7.719-7.722-18.384-12.499-30.165-12.501h-0.001z" />
<glyph unicode="&#xe915;" glyph-name="checkup-svgrepo" d="M908.387 2.065c27.318 0 49.548 22.231 49.548 49.548s-22.231 49.548-49.548 49.548-49.548-22.231-49.548-49.548 22.231-49.548 49.548-49.548zM908.387 68.129c9.117 0 16.516-7.399 16.516-16.516s-7.399-16.516-16.516-16.516c-9.117 0-16.516 7.399-16.516 16.516s7.399 16.516 16.516 16.516zM908.387 332.387h115.613v198.194c0 72.853-59.276 132.129-132.129 132.129h-22.379c33.742 27.268 55.412 68.938 55.412 115.613v66.065c0 63.736-51.877 115.613-115.613 115.613h-66.065c-63.736 0-115.613-51.877-115.613-115.613v-66.065c0-46.675 21.669-88.345 55.412-115.613h-22.379c-72.853 0-132.129-59.276-132.129-132.129v-142.765c-21.603 17.59-48.343 27.153-76.569 27.153-67.055 0-121.625-54.569-121.625-121.625 0-32.487 12.651-63.026 35.625-85.999l119.032-119.032c6.359-6.359 13.097-12.172 20.183-17.458-9.315-1.8-18.861-2.725-28.556-2.725h-80.219c-81.97 0-148.645 66.676-148.645 148.645v298.133c119.791 8.522 214.71 108.461 214.71 230.383v132.129c0 27.318-22.231 49.548-49.548 49.548h-19.555c-6.838 19.175-25.005 33.032-46.509 33.032h-82.581v-99.097h82.581c21.504 0 39.672 13.857 46.509 33.032h19.555c9.117 0 16.516-7.399 16.516-16.516v-132.129c0-109.287-88.906-198.194-198.194-198.194s-198.194 88.906-198.194 198.194v132.129c0 9.117 7.399 16.516 16.516 16.516h19.555c6.838-19.175 25.005-33.032 46.509-33.032h82.581v99.097h-82.581c-21.504 0-39.672-13.857-46.509-33.032h-19.555c-27.318 0-49.548-22.231-49.548-49.548v-132.129c0-121.922 94.918-221.861 214.71-230.383v-298.133c0-100.17 81.507-181.677 181.677-181.677h80.219c23.833 0 46.988 4.558 68.426 13.279 21.438-8.721 44.577-13.279 68.426-13.279h180.637c8.060-55.924 56.171-99.097 114.292-99.097 63.736 0 115.613 51.877 115.613 115.613s-51.877 115.613-115.613 115.613c-58.12 0-106.232-43.173-114.292-99.097h-180.637c-9.695 0-19.241 0.925-28.556 2.725 7.085 5.269 13.824 11.099 20.183 17.458l119.032 119.032c22.974 22.957 35.625 53.512 35.625 85.999 0 13.675-2.378 26.773-6.557 39.044h155.202zM346.839 893.935h-49.548v33.032h49.548c9.117 0 16.516-7.399 16.516-16.516s-7.399-16.516-16.516-16.516zM115.613 926.968h49.548v-33.032h-49.548c-9.117 0-16.516 7.399-16.516 16.516s7.399 16.516 16.516 16.516zM908.387 134.194c45.535 0 82.581-37.046 82.581-82.581s-37.046-82.581-82.581-82.581c-45.535 0-82.581 37.046-82.581 82.581s37.046 82.581 82.581 82.581zM990.968 365.419h-66.065v66.065h66.065v-66.065zM872.431 589.774l-67.022-28.738 45.75 68.641h11.297l9.976-39.903zM776.258 576.875l-38.73 58.104c12.371-3.353 25.319-5.302 38.73-5.302s26.36 1.949 38.73 5.302l-38.73-58.104zM660.645 844.387c0 45.535 37.046 82.581 82.581 82.581h66.065c45.535 0 82.581-37.046 82.581-82.581v-31.116c-18.927 4.212-35.757 15.443-46.774 31.959l-16.731 25.088-36.682-36.682c-14.369-14.369-33.462-22.28-53.777-22.28h-77.262v33.032zM660.645 778.323h77.262c29.151 0 56.551 11.363 77.147 31.959l8.522 8.522c17.144-21.207 41.522-34.965 68.311-39.061v-1.42c0-63.736-51.877-115.613-115.613-115.613-63.752 0-115.629 51.877-115.629 115.613zM690.044 629.677h11.297l45.766-68.641-67.039 28.738 9.976 39.903zM561.548 431.484h66.065v-17.028c-24.328-2.065-47.17-11.247-66.065-26.641v43.669zM700.763 230.697l-119.032-119.032c-10.95-10.95-23.321-19.985-36.699-26.938-13.378 6.953-25.749 15.988-36.699 26.938l-119.032 119.032c-16.5 16.5-25.947 39.325-25.947 62.646 0 48.855 39.738 88.593 88.593 88.593 23.321 0 46.146-9.447 62.646-25.947l30.439-30.439 30.439 30.439c16.5 16.5 39.325 25.947 62.646 25.947 48.855 0 88.593-39.738 88.593-88.593 0-23.321-9.447-46.146-25.947-62.646zM735.86 365.419c-17.903 24.213-44.494 41.588-75.214 47.368v117.793h-33.032v-66.065h-66.065v66.065c0 53.066 41.951 96.388 94.406 98.866l-14.749-58.963 135.052-57.873 135.052 57.873-14.749 58.963c52.455-2.477 94.406-45.799 94.406-98.866v-66.065h-66.065v66.065h-33.032v-165.161h-156.011z" />
<glyph unicode="&#xe917;" glyph-name="child-cognition" d="M794.976 403.714l6.233-5.776c0.113-0.107 0.267-0.256 0.459-0.442 0.201-0.194 0.442-0.431 0.723-0.708 1.103-1.090 2.775-2.784 4.811-4.969 4.132-4.435 9.44-10.556 14.43-17.489 5.105-7.091 9.092-13.95 11.428-19.885 1.493-3.795 1.892-6.142 1.997-7.287-0.282-0.309-0.693-0.723-1.28-1.239-2.91-2.569-7.846-5.581-14.711-8.482-6.609-2.795-13.393-4.815-18.701-6.138-2.592-0.646-4.681-1.088-6.029-1.355-0.335-0.066-0.621-0.122-0.853-0.164-0.237-0.045-0.42-0.077-0.546-0.1l-36.068-5.709 0.030-36.478c0.038-44.719-13.35-69.143-28.572-83.731-16.341-15.663-40.115-25.050-68.646-29.259-28.288-4.173-57.589-2.692-80.559 0.124-11.313 1.387-20.7 3.046-27.149 4.335-3.217 0.644-5.681 1.188-7.264 1.553-0.791 0.183-1.361 0.32-1.692 0.401l-53.613 13.807 0.096-118.089c-1.419-1.929-3.535-4.378-6.579-6.98-8.399-7.181-27.919-18.989-69.653-19.023l-1.739-0.002-1.732-0.143c-14.377-1.186-39.223 3.351-63.945 14.579-20.203 9.175-33.675 19.761-40.612 28.337l-0.156 190.197-16.634 12.796c-31.518 24.247-61.457 63.386-83.557 109.504-22.048 46.010-34.738 95.742-34.774 139.354-0.060 73.551 29.644 144.279 82.845 196.58 53.227 52.328 125.619 81.899 201.293 81.961h0.047c60.137 0.116 119.543-12.676 174.057-37.454l0.689-0.314 0.7-0.289c40.273-16.607 75.507-42.911 102.477-76.377 23.678-34.669 36.768-75.166 37.813-116.759 0.247-10.558 0.119-21.521-0.019-33.591-0.021-1.867-0.043-3.761-0.064-5.683-0.151-13.988-0.241-29.203 0.439-44.597 1.353-30.547 5.805-64.981 21.045-97.481l3.535-7.535zM532.115 139.661c0 0 17.109-4.407 42.673-7.488 75.541-9.105 224.911-6.633 224.777 155.356 0 0 70.451 11.145 77.555 51.42 7.102 40.273-47.049 90.417-47.049 90.417-18.432 39.305-17.894 85.606-17.389 129.073 0.141 12.017 0.277 23.819 0.011 35.194-1.259 50.443-17.297 99.462-46.197 141.193-31.642 39.721-73.12 70.828-120.48 90.358-60.102 27.318-125.562 41.406-191.795 41.278-86.733-0.071-169.888-33.956-231.168-94.201-61.281-60.244-95.67-141.915-95.6-227.043 0.084-102.419 58.824-224.051 134.981-282.639l0.149-181.205c21.632-45.278 103.125-77.333 150.72-73.408 101.082 0.081 118.871 58.455 118.871 58.455l-0.060 73.242zM594.189 585.218l23.546-15.349c5.092-3.319 10.953-5.476 17.111-6.274l36.926 13.111c4.866 5.259 8.119 11.601 9.519 18.325 1.779 8.559 0.508 17.493-3.721 25.374-4.241 7.904-11.287 14.404-20.19 18.157l-20.169 8.503-4.86 21.342c-1.423 6.253-4.548 12.137-9.148 17.011l-36.845 12.514-20.885-0.017-12.762 18.091c-4.875 6.908-12.107 12.239-20.683 14.95l-81.427 5.453c-8.137-1.182-15.603-4.723-21.425-10.012l-16.484-14.97-21.707 4.962c-3.277 0.749-6.637 1.143-10.016 1.173-7.831-0.053-15.398-2.3-21.792-6.357-6.43-4.081-11.334-9.775-14.291-16.258l-4.885-10.714-44.986-31.066c-2.889-5.325-4.367-11.198-4.352-17.114v-0.341l-0.004-0.343c-0.038-2.876 0.354-5.751 1.18-8.542l6.263-21.203-13.711-17.346c-5.071-6.415-7.68-14.125-7.625-21.901l0.002-0.16v-0.162c-0.004-9.126 3.573-18.123 10.349-25.090l10.709-11.014 1.231-15.311c0.531-6.615 2.916-13.069 7.025-18.647 4.117-5.587 9.835-10.118 16.636-12.956l2.991-1.248 2.767-1.685c21.325-12.986 39.486-30.519 53.082-51.386 6.788-10.419 11.601-21.15 15.076-31.695l10.746 0.009-0.034 42.187 42.667 0.036zM306.287 443.663c15.945-9.711 29.451-22.775 39.524-38.236s14.24-32.922 16.463-51.1l87.81 0.073-0.036 42.667zM306.287 443.663c-13.837 5.775-25.788 15.121-34.558 27.029s-14.027 25.924-15.2 40.531c-14.411 14.82-22.436 34.451-22.426 54.854-0.126 17.591 5.794 34.72 16.817 48.663-2.035 6.893-3.021 14.039-2.923 21.21-0.043 17.152 5.579 33.862 16.032 47.671l42.037 29.028c6.441 14.125 16.945 26.133 30.244 34.576 13.301 8.443 28.828 12.959 44.706 13.004 6.558-0.034 13.092-0.788 19.475-2.247 13.5 12.259 30.844 19.741 49.244 21.244l89.367-5.983c19.725-4.729 36.975-16.347 48.474-32.644l5.813 0.004 51.646-17.542c14.654-11.409 24.858-27.354 28.917-45.184 17.726-7.471 32.275-20.64 41.214-37.303 8.941-16.663 11.727-35.81 7.895-54.234-3.834-18.423-14.052-35.010-28.947-46.978l-52.877-18.775c-16.653-0.203-32.975 4.518-46.807 13.538-4.994-3.322-7.452-6.078-9.376-8.235-3.322-3.723-5.054-5.664-15.494-5.673-16.491-0.013-32.599 4.813-46.227 13.85-9.553-9.869-21.269-17.517-34.278-22.374zM562.537 563.473c0.062 0.051 0.122 0.102 0.183 0.151 2.43 2.037 5.099 4.045 8.073 6.022l23.396 15.571zM315.341 545.89l130.466 20.431-84.685 93.779-45.781-114.21zM471.166 715.245l-38.624-71.772 73.122-37.907 38.626 71.77-73.124 37.909zM724.864 448.787c0.015-17.673-14.3-32.013-31.972-32.026-17.675-0.015-32.013 14.3-32.028 31.972-0.013 17.675 14.302 32.013 31.974 32.028 17.673 0.013 32.013-14.302 32.026-31.974zM447.68 267.226l-85.333-0.070-0.034 42.667 85.333 0.070 0.034-42.667zM447.75 181.892l-85.333-0.070-0.034 42.667 85.333 0.070 0.034-42.667zM447.821 96.559l-85.333-0.070-0.034 42.667 85.333 0.070 0.034-42.667z" />
<glyph unicode="&#xe918;" glyph-name="clock" d="M512-64c-282.328 0-512 229.672-512 512s229.672 512 512 512 512-229.672 512-512-229.672-512-512-512zM512 896c-247.039 0-448-200.961-448-448s200.961-448 448-448 448 200.961 448 448-200.961 448-448 448zM736 170.664c-8.195 0-16.383 3.117-22.617 9.391l-224 224c-6.016 6.016-9.383 14.164-9.383 22.609v298.672c0 17.664 14.336 32 32 32s32-14.336 32-32v-285.398l214.617-214.617c12.5-12.5 12.5-32.766 0-45.266-6.234-6.273-14.422-9.391-22.617-9.391z" />
<glyph unicode="&#xe919;" glyph-name="clock-svgrepo" d="M512 959.997c-282.319 0-512-229.681-512-512s229.681-511.997 512-511.997 512 229.681 512 511.997-229.685 512-512 512zM512-12.965c-254.18 0-460.968 206.785-460.968 460.961s206.788 460.968 460.968 460.968 460.968-206.788 460.968-460.965-206.792-460.965-460.968-460.965zM486.484 473.513h-203.604v-51.032h254.636v388.224h-51.032z" />
<glyph unicode="&#xe91a;" glyph-name="clock-svgrepo2" d="M512-64c-136.76 0-265.334 53.259-362.040 149.96-96.701 96.706-149.96 225.28-149.96 362.040s53.259 265.334 149.96 362.040c96.706 96.701 225.28 149.96 362.040 149.96s265.334-53.259 362.040-149.96c96.701-96.706 149.96-225.28 149.96-362.040s-53.259-265.334-149.96-362.040c-96.706-96.701-225.28-149.96-362.040-149.96zM512 896.66c-247.392 0-448.66-201.268-448.66-448.66s201.268-448.66 448.66-448.66 448.66 201.268 448.66 448.66-201.268 448.66-448.66 448.66zM543.67 416.87h-364.2v63.34h300.86v300.325h63.34z" />
<glyph unicode="&#xe91b;" glyph-name="close" d="M579.88 448l190 190c8.712 8.697 14.101 20.719 14.101 34 0 26.532-21.509 48.041-48.041 48.041-13.251 0-25.249-5.365-33.941-14.042l-189.999-189.999-190 190c-8.701 8.701-20.722 14.083-34 14.083-26.556 0-48.083-21.528-48.083-48.083 0-13.278 5.382-25.299 14.083-34l190-190-190-190c-8.701-8.701-14.083-20.722-14.083-34 0-26.556 21.528-48.083 48.083-48.083 13.278 0 25.299 5.382 34 14.083l190 190 190-190c8.701-8.701 20.722-14.083 34-14.083 26.556 0 48.083 21.528 48.083 48.083 0 13.278-5.382 25.299-14.083 34v0z" />
<glyph unicode="&#xe91d;" glyph-name="comment-o" d="M192 243.2c0-6.4 0-6.4 0 0 0-6.4 0-6.4 0 0 0 0 0 0 0 0zM531.2 896c-281.6 0-531.2-166.4-531.2-358.4 0-128 70.4-236.8 192-300.8 0 0 0 0 0 0s0-6.4 0-6.4c-6.4-83.2-57.6-108.8-57.6-108.8l-115.2-57.6h128c160 0 275.2 70.4 326.4 121.6 19.2 0 32 0 51.2 0 275.2 0 499.2 160 499.2 358.4s-217.6 352-492.8 352zM524.8 249.6c-19.2 0-44.8 0-57.6 0h-19.2l-12.8-12.8c-32-32-102.4-89.6-211.2-108.8 19.2 32 32 70.4 32 128v19.2l-19.2 6.4c-115.2 57.6-172.8 147.2-172.8 256 0 153.6 224 294.4 467.2 294.4 236.8 0 428.8-128 428.8-294.4 0-153.6-198.4-288-435.2-288z" />
<glyph unicode="&#xe91e;" glyph-name="conversation" d="M406.569 822.127h-251.415c-11.782 0-21.333-9.551-21.333-21.333s9.551-21.333 21.333-21.333h251.415c11.782 0 21.333 9.551 21.333 21.333s-9.549 21.333-21.333 21.333zM406.569 724.804h-251.415c-11.782 0-21.333-9.551-21.333-21.333s9.551-21.333 21.333-21.333h251.415c11.782 0 21.333 9.551 21.333 21.333s-9.549 21.333-21.333 21.333zM813.314 960h-138.65c-51.093 0-97.566-14.562-130.854-41.003-15.708-12.476-28.247-27.228-37.536-43.863-33.564 51.072-91.371 84.866-156.937 84.866h-138.618c-51.076 0-97.532-14.562-130.805-41.005-37.15-29.523-56.785-71.657-56.785-121.845 0-44.22 0-89.943 20.674-127.593 23.861-43.447 69.318-65.195 138.865-66.385 4.361-5.798 11.093-16.299 15.906-23.806 19.452-30.336 28.329-44.181 44.555-44.181 5.030 0 9.899 1.777 13.745 5.018l52.954 44.61h39.509c67.055 0 125.997 35.349 159.189 88.375 20.45-38.302 60.324-68.489 138.097-70.010 4.365-5.809 11.108-16.331 15.932-23.855 19.426-30.308 28.292-44.141 44.484-44.141 5.030 0 9.899 1.777 13.745 5.018l52.954 44.61h39.573c70.831 0 120.275 18.507 151.153 56.578 24.838 30.624 36.407 72.256 36.407 131.017 0.002 103.441-84.137 187.595-187.558 187.595zM349.338 627.482h-47.298c-5.030 0-9.899-1.777-13.745-5.018l-43.168-36.367c-3.678 5.455-7.657 11.661-10.633 16.301-19.106 29.796-27.823 43.396-43.972 43.396l-1.747-0.004c-122.98 0-122.98 66.797-122.98 151.362 0.002 88.706 78.069 120.181 144.926 120.181h138.618c65.062 0 120.243-43.059 138.541-102.161-0.582-5.884-0.885-11.891-0.885-18.022 0-17.417 0.006-38.69 2.816-60.685-16.036-62.583-72.93-108.983-140.471-108.983zM931.33 668.271c-22.261-27.447-60.864-40.789-118.016-40.789h-47.362c-5.030 0-9.899-1.777-13.745-5.018l-43.145-36.348c-3.663 5.438-7.62 11.614-10.583 16.235-19.117 29.828-27.844 43.441-43.987 43.441l-1.649-0.004c-84.322 0-111.283 35.825-119.616 89.131 2.468 12.117 3.767 24.655 3.767 37.489 0 15.825-1.98 31.194-5.685 45.882 11.45 72.604 82.089 99.044 143.358 99.044h138.65c79.895 0 144.894-65.013 144.894-144.926-0.002-48.439-8.542-81.53-26.88-104.137zM860.74 822.127h-235.196c-11.782 0-21.333-9.551-21.333-21.333s9.551-21.333 21.333-21.333h235.196c11.782 0 21.333 9.551 21.333 21.333s-9.551 21.333-21.333 21.333zM860.74 724.804h-235.196c-11.782 0-21.333-9.551-21.333-21.333s9.551-21.333 21.333-21.333h235.196c11.782 0 21.333 9.551 21.333 21.333s-9.551 21.333-21.333 21.333zM860.023 384.465c0 81.577-66.432 147.945-148.087 147.945-81.69 0-148.149-66.368-148.149-147.945 0-72.060 51.791-132.228 120.119-145.361-36.501-5.299-65.429-23.71-84.407-54.125-18.4-29.489-27.729-70.411-27.729-121.628v-106.018c0-11.782 9.551-21.333 21.333-21.333h227.085c11.782 0 21.333 9.551 21.333 21.333v106.018c0 51.249-9.314 92.169-27.682 121.623-18.003 28.87-45.007 46.921-78.967 53.218 70.803 11.055 125.152 72.433 125.152 146.272zM798.857 63.351v-84.685h-184.418v84.685c0 134.724 69.378 134.724 92.177 134.724 22.814 0.002 92.241 0.002 92.241-134.724zM711.938 279.076c-58.163 0-105.483 47.277-105.483 105.387 0 58.050 47.319 105.278 105.483 105.278 58.129 0 105.421-47.228 105.421-105.278-0.002-58.11-47.292-105.387-105.421-105.387zM454.007 384.465c0 81.577-66.409 147.945-148.038 147.945-81.621 0-148.023-66.368-148.023-147.945 0-70.967 50.189-130.406 116.924-144.738-38.682-4.375-69.231-23.068-88.994-54.748-18.396-29.485-27.723-70.406-27.723-121.626v-106.020c0-11.782 9.551-21.333 21.333-21.333h227.085c11.782 0 21.333 9.551 21.333 21.333v106.018c0 51.247-9.316 92.166-27.689 121.623-17.457 27.991-43.371 45.813-75.878 52.614 72.988 9.082 129.67 71.462 129.67 146.876zM385.235 63.351v-84.685h-184.418v84.685c0 134.724 69.378 134.724 92.177 134.724 22.816 0.002 92.241 0.002 92.241-134.724zM305.969 279.076c-58.095 0-105.357 47.277-105.357 105.387 0 58.050 47.264 105.278 105.357 105.278 58.101 0 105.372-47.228 105.372-105.278 0-58.11-47.27-105.387-105.372-105.387z" />
<glyph unicode="&#xe91f;" glyph-name="disappointed-boy" d="M960.076 354.62c0 26.089-9.366 50.546-26.507 69.807 6.928 141.763 10.654 236.509-34.179 323.783-30.541 59.463-79.976 109.158-146.933 147.701-78.083 44.951-167.144 66.993-257.598 63.782-79.47-2.835-153.445-39.951-204.352-102.202-65.818-3.714-125.747-39.446-157.936-94.767-2.753-4.73-5.425-9.614-7.941-14.512-44.863-87.336-41.13-182.083-34.205-323.868-16.471-18.583-26.503-42.997-26.503-69.722 0-55.111 42.588-100.435 96.576-104.86 22.481-72.439 82.043-154.52 177.977-244.96 48.658-45.875 111.083-68.807 173.528-68.803 62.43 0.005 124.882 22.94 173.53 68.803 95.929 90.438 155.491 172.519 177.972 244.958 53.988 4.432 96.572 49.752 96.572 104.86zM496.205 921.913c83.385 2.972 165.45-17.349 237.392-58.763 60.542-34.85 105.009-79.333 132.166-132.211 37.754-73.493 37.246-153.497 30.474-295.768l-42.222-2.327c-284.507-9.319-441.763 122.909-488.474 170.081l-45.487 230.956c44.010 53.622 107.745 85.594 176.151 88.033zM158.253 730.934c2.216 4.314 4.57 8.612 6.994 12.778 24.513 42.13 69.32 70.1 119.19 75.38l43.975-223.275c-30.070-68.999-81.46-105.278-161.291-113.978-9.59-1.044-16.853-9.144-16.853-18.791v-4.912c-8.109-1.477-15.896-3.877-23.249-7.105-6.011 132.393-5.106 209.16 31.235 279.903zM101.727 354.623c0 30.626 20.527 56.533 48.54 64.727v-106.66c0-7.606 0.517-15.351 1.493-23.218-28.776 7.698-50.033 33.985-50.033 65.152zM659.604 32.309c-82.769-78.029-212.435-78.024-295.194 0-115.362 108.756-176.34 205.711-176.34 280.38l0.005 133.834c76.97 12.376 131.547 50.229 165.849 115.121 29.080-26.73 76.718-63.9 144.301-96.425 100.475-48.353 214.013-72.099 337.714-70.589v-81.939c0-74.674-60.977-171.628-176.335-280.382zM872.249 289.471c0.976 7.868 1.493 15.613 1.493 23.218v83.383l32.825 1.807c10.169-12.111 15.705-27.204 15.705-43.259 0-31.164-21.253-57.45-50.024-65.15zM730.242 344.914c0-19.636-15.918-35.554-35.554-35.554s-35.554 15.918-35.554 35.554c0 19.636 15.918 35.554 35.554 35.554s35.554-15.918 35.554-35.554zM364.864 344.914c0-19.636-15.918-35.554-35.554-35.554s-35.554 15.918-35.554 35.554c0 19.636 15.918 35.554 35.554 35.554s35.554-15.918 35.554-35.554zM511.998 184.835c-43.037 0-78.050-33.163-78.050-73.925 0-10.439 8.463-18.902 18.902-18.902s18.902 8.463 18.902 18.902c0 19.918 18.056 36.121 40.247 36.121 22.195 0 40.249-16.204 40.249-36.121 0-10.439 8.463-18.902 18.902-18.902s18.902 8.463 18.902 18.902c0.002 40.762-35.013 73.925-78.053 73.925zM707.756 278.957c-3.546 3.544-8.355 5.536-13.366 5.536-5.014 0-9.819-1.992-13.366-5.536l-30.923-30.923c-11.83-11.83-18.344-27.559-18.344-44.289s6.514-32.459 18.344-44.289c12.211-12.211 28.251-18.316 44.289-18.316 16.041 0 32.081 6.105 44.292 18.316 24.416 24.419 24.416 64.155 0 88.576l-30.926 30.926zM711.948 186.184c-9.685-9.685-25.437-9.68-35.115 0-9.682 9.682-9.682 25.435 0 35.117l17.557 17.56 17.56-17.557c9.68-9.685 9.68-25.437-0.002-35.12z" />
<glyph unicode="&#xe920;" glyph-name="download" d="M338.625 539.284c-11.33-11.33-11.33-29.501 0-40.832l153.066-153.066c5.558-5.558 13.041-8.551 20.309-8.551s14.751 2.779 20.309 8.551l153.066 153.066c11.33 11.33 11.33 29.501 0 40.832s-29.501 11.33-40.832 0l-103.683-103.683v495.539c0 16.033-12.827 28.86-28.86 28.86s-28.86-12.827-28.86-28.86v-495.539l-103.683 103.683c-11.33 11.33-29.715 11.33-40.832 0zM983.81 302.844l-100.476 363.424c-2.352 8.337-8.124 14.965-15.82 18.599l-2.779 1.283c-3.848 1.71-7.91 2.565-11.972 2.565h-181.071c-16.033 0-28.86-12.827-28.86-28.86s12.827-28.86 28.86-28.86h161.617l84.87-307.414h-224.468c-16.033 0-28.86-12.827-28.86-28.86v-26.081c0-38.266-30.998-69.264-69.264-69.264h-176.154c-38.266 0-69.264 30.998-69.264 69.264v26.081c0 16.033-12.827 28.86-28.86 28.86h-215.703l85.298 308.055h161.617c16.033 0 28.86 12.827 28.86 28.86s-12.827 28.86-28.86 28.86h-181.284c-4.062 0-8.124-0.855-11.972-2.565l-2.779-1.283c-7.696-3.634-13.682-10.261-15.82-18.599l-100.476-363.424c-0.641-2.565-1.069-5.131-1.069-7.696v-151.569c0-114.799 93.421-208.22 208.22-208.22h529.316c114.799 0 208.22 93.421 208.22 208.22v150.928c0 2.779-0.214 5.344-1.069 7.696zM927.158 144.22c0-82.946-67.554-150.5-150.5-150.5h-529.316c-82.946 0-150.5 67.554-150.5 150.5v121.64h196.035c1.496-68.623 57.934-123.992 126.985-123.992h176.154c69.051 0 125.488 55.369 126.985 123.992h204.586v-121.64h-0.428z" />
<glyph unicode="&#xe921;" glyph-name="eco-friendly" d="M671.625-42.445c0-11.899-9.644-21.543-21.543-21.543h-58.6c-0.237-0.007-0.472-0.012-0.709-0.012-8.012 0-15.571 4.503-19.264 11.899-0.448 0.893-0.835 1.819-1.156 2.777l-58.358 162.833-58.353-162.836c-0.323-0.955-0.709-1.879-1.154-2.767-2.238-4.483-5.898-7.906-10.216-9.907-0.012-0.005-0.022-0.010-0.034-0.014-0.002 0-0.007-0.002-0.010-0.005-0.488-0.225-0.984-0.431-1.489-0.62-2.6-0.969-5.431-1.441-8.227-1.348h-58.607c-11.899 0-21.543 9.644-21.543 21.543s9.644 21.543 21.543 21.543h44.152l72.392 202.013v158.956c0 11.899 9.644 21.543 21.543 21.543s21.543-9.644 21.543-21.543v-158.956l72.397-202.013h44.147c11.901 0 21.546-9.644 21.546-21.543zM385.42 520.693l-112.815 124.841c-7.978 8.828-21.598 9.52-30.429 1.539-8.828-7.978-9.517-21.598-1.542-30.426l112.815-124.841c34.565-38.256 72.105-76.184 117.439-83.087 8.897-1.357 34.79-1.333 42.905-1.297 1.881-0.010 3.708-0.014 5.472-0.014 16.758 0 28.126 0.438 33.835 1.307 45.332 6.901 82.87 44.831 117.432 83.085l112.82 124.843c7.976 8.828 7.286 22.45-1.542 30.426s-22.448 7.289-30.429-1.539l-112.822-124.845c-28.066-31.065-60.63-64.608-91.944-69.376-2.133-0.326-11.636-0.917-32.37-0.804-0.151 0.002-0.302 0.002-0.45 0.002-0.151 0-0.302 0-0.45-0.002-19.98-0.101-33.263 0.424-35.965 0.807-31.324 4.773-63.89 38.316-91.961 69.384zM971.126 546.882c0 59.833-23.743 117.016-66.858 161.016-38.914 39.716-90.587 65.654-146.846 73.996-28.664 104.097-129.324 178.105-245.43 178.105s-216.763-74.008-245.43-178.105c-56.257-8.342-107.927-34.28-146.841-73.999-43.108-43.998-66.849-101.184-66.849-161.014 0-66.064 28.973-128.52 79.973-173.452-3.263-14.053-4.912-28.444-4.912-42.95 0-110.737 95.882-200.826 213.733-200.826 22.845 0 45.341 3.375 66.865 10.030 11.368 3.514 17.732 15.578 14.219 26.946-3.519 11.368-15.593 17.73-26.946 14.219-17.397-5.379-35.611-8.107-54.138-8.107-94.096 0-170.646 70.762-170.646 157.74 0 15.028 2.286 29.888 6.793 44.171 2.702 8.562-0.189 17.902-7.255 23.439-47.409 37.157-74.599 91.391-74.599 148.794 0 100.894 81.673 184.269 189.98 193.939 9.503 0.847 17.316 7.849 19.2 17.201 18.558 92.066 105.552 158.889 206.853 158.889s188.295-66.822 206.851-158.889c1.884-9.352 9.699-16.354 19.2-17.201 108.315-9.673 189.995-93.048 189.995-193.939 0-57.398-27.192-111.632-74.604-148.794-7.064-5.537-9.955-14.87-7.258-23.429 4.507-14.307 6.791-29.17 6.791-44.18 0-86.977-76.55-157.74-170.646-157.74-18.522 0-36.738 2.729-54.138 8.107-11.375 3.512-23.432-2.851-26.946-14.221-3.514-11.368 2.851-23.429 14.219-26.943 21.526-6.654 44.025-10.027 66.865-10.027 117.851 0 213.733 90.091 213.733 200.826 0 14.496-1.647 28.882-4.909 42.948 51.010 44.932 79.983 107.386 79.983 173.452zM511.992 505.768c-50.251 0-91.133 40.884-91.133 91.135s40.882 91.133 91.133 91.133c50.253 0 91.137-40.882 91.137-91.133s-40.884-91.135-91.137-91.135zM511.992 548.855c26.496 0 48.051 21.553 48.051 48.049 0 26.493-21.555 48.046-48.051 48.046-26.491 0-48.046-21.553-48.046-48.046 0-26.496 21.555-48.049 48.046-48.049z" />
<glyph unicode="&#xe922;" glyph-name="email1" d="M1016.409 529.451l0.002 0.002-130.757 86.686v289.747c0 9.366-7.593 16.96-16.96 16.96h-713.413c-9.366 0-16.96-7.593-16.96-16.96v-289.768l-130.732-86.671c-4.572-3.037-7.591-8.229-7.591-14.131v-525.206c0-9.366 7.593-16.96 16.96-16.96h990.081c9.366 0 16.96 7.593 16.96 16.96v525.206c0 5.902-3.019 11.094-7.591 14.133zM138.323 470.14l-53.197 28.219h53.197v-28.219zM33.919 487.125l390.015-206.885-390.015-258.526v465.411zM511.993 297.921l438.773-290.849h-877.543l438.771 290.849zM600.059 280.238l390.020 206.887v-465.42l-390.020 258.533zM885.655 498.359h53.222l-53.222-28.23v28.23zM950.766 532.278h-65.111v43.168l65.111-43.168zM851.735 888.928v-436.792l-283.852-150.57-46.521 30.837c-5.678 3.765-13.061 3.765-18.739 0l-46.515-30.833-283.866 150.577v436.781h679.493zM138.323 532.278h-65.084l65.084 43.145v-43.145zM511.989 476.829h135.121c9.366 0 16.96 7.593 16.96 16.96s-7.593 16.96-16.96 16.96h-135.121c-65.154 0-118.161 53.007-118.161 118.161v5.004c0 65.154 53.007 118.161 118.161 118.161s118.161-53.007 118.161-118.161v-12.512c0-14.104-11.474-25.58-25.58-25.58s-25.58 11.474-25.58 25.58v23.771c0 40.396-32.863 73.261-73.259 73.261s-73.259-32.863-73.259-73.261c0-40.396 32.863-73.259 73.259-73.259 18.472 0 35.357 6.886 48.256 18.208 10.501-16.921 29.243-28.216 50.583-28.216 32.807 0 59.499 26.69 59.499 59.499v12.512c0 83.857-68.223 152.080-152.080 152.080s-152.080-68.223-152.080-152.080v-5.004c0-83.86 68.223-152.083 152.080-152.083zM505.732 605.833c-21.693 0-39.34 17.647-39.34 39.34s17.649 39.342 39.34 39.342 39.34-17.649 39.34-39.342-17.647-39.34-39.34-39.34z" />
<glyph unicode="&#xe923;" glyph-name="chat" d="M170.88 32.043c-41.317 0.206-74.73 33.747-74.73 75.092 0 8.36 1.366 16.401 3.887 23.912l-0.154-0.53 35.883 106.667c1.833 5.010 2.893 10.795 2.893 16.827 0 7.147-1.488 13.946-4.171 20.106l0.126-0.325c-24.334 51.339-38.543 111.543-38.543 175.065 0 230.222 186.632 416.853 416.853 416.853s416.853-186.632 416.853-416.853c0-230.222-186.632-416.853-416.853-416.853-63.399 0-123.493 14.153-177.293 39.473l2.545-1.077c-5.915 2.615-12.814 4.138-20.068 4.138-6.194 0-12.129-1.11-17.617-3.142l0.351 0.114-106.197-35.669c-7.059-2.408-15.19-3.797-23.646-3.797-0.042 0-0.084 0-0.126 0h0.006zM512.213 800.043c-0.211 0-0.461 0.001-0.711 0.001-194.074 0-351.403-157.328-351.403-351.403 0-53.518 11.964-104.242 33.363-149.643l-0.908 2.144c6.373-13.801 10.090-29.949 10.090-46.966 0-13.169-2.226-25.818-6.323-37.591l0.243 0.802-35.968-107.179c-0.358-1-0.565-2.153-0.565-3.354 0-2.972 1.266-5.649 3.289-7.519l0.007-0.006c1.904-2.028 4.602-3.291 7.596-3.291 1.206 0 2.365 0.205 3.443 0.583l-0.073-0.022 106.667 35.797c11.101 3.945 23.905 6.225 37.242 6.225 17.153 0 33.425-3.771 48.032-10.53l-0.709 0.294c43.049-20.233 93.494-32.043 146.698-32.043 194.31 0 351.829 157.519 351.829 351.829s-157.519 351.829-351.829 351.829c-0.079 0-0.157 0-0.236 0h0.012zM714.667 533.333c0 17.673-14.327 32-32 32v0h-341.333c-17.673 0-32-14.327-32-32s14.327-32 32-32v0h341.333c17.673 0 32 14.327 32 32v0zM586.667 362.667c0 17.673-14.327 32-32 32v0h-213.333c-17.673 0-32-14.327-32-32s14.327-32 32-32v0h213.333c17.673 0 32 14.327 32 32v0z" />
<glyph unicode="&#xe924;" glyph-name="email3" d="M616.908 421.251l-91.533-77.74c-7.314-6.060-17.972-6.060-25.078 0l-91.533 77.531-373.864-315.977h954.201l-372.193 316.186zM0 767.321v-638.642l376.372 319.321zM34.9 790.936l477.1-404.793 477.1 404.793zM647.628 448l376.372-319.321v638.642z" />
<glyph unicode="&#xe925;" glyph-name="facebook-logo" d="M777.883 790.023l-96.391-0.043c-75.576 0-90.208-35.915-90.208-88.622v-116.216h180.246l-0.064-182.034h-180.182v-467.109h-188.003v467.109h-157.175v182.034h157.175v134.232c0 155.792 95.167 240.626 234.145 240.626l140.468-0.223-0.011-169.753z" />
<glyph unicode="&#xe928;" glyph-name="heart" d="M941.29 814.55c-53.62 53.62-124.608 82.927-200.371 82.927s-146.968-29.524-200.588-83.144l-28.004-28.004-28.438 28.438c-53.62 53.62-125.042 83.361-200.805 83.361-75.546 0-146.751-29.524-200.154-82.927-53.62-53.62-83.144-124.825-82.927-200.588 0-75.763 29.741-146.751 83.361-200.371l407.689-407.689c5.644-5.644 13.242-8.683 20.623-8.683s14.979 2.822 20.623 8.466l408.557 407.038c53.62 53.62 83.144 124.825 83.144 200.588 0.217 75.763-29.090 146.968-82.71 200.588zM899.609 454.837l-387.934-386.414-387.066 387.066c-42.549 42.549-65.994 98.992-65.994 159.125s23.228 116.576 65.777 158.907c42.332 42.332 98.774 65.777 158.69 65.777 60.133 0 116.793-23.445 159.342-65.994l49.062-49.062c11.506-11.506 29.958-11.506 41.464 0l48.627 48.627c42.549 42.549 99.209 65.994 159.125 65.994s116.358-23.445 158.907-65.777c42.549-42.549 65.777-98.992 65.777-159.125 0.217-60.133-23.228-116.576-65.777-159.125z" />
<glyph unicode="&#xe929;" glyph-name="idea" d="M961.402 131.93c-21.572 31.596-51.654 53.53-86.998 63.432-0.344 0.096-0.692 0.182-1.042 0.254l-127.638 26.698-34.356 52.096c-0.176 0.27-0.364 0.534-0.556 0.792-5.206 6.942-13.13 11.522-21.744 12.566-8.608 1.042-17.404-1.506-24.12-7-0.102-0.084-0.206-0.17-0.306-0.258l-152.644-131.396-152.644 131.396c-0.102 0.088-0.204 0.174-0.306 0.258-6.716 5.496-15.51 8.044-24.12 7-8.614-1.044-16.54-5.626-21.744-12.566-0.194-0.258-0.38-0.522-0.556-0.792l-34.356-52.096-127.638-26.698c-0.35-0.072-0.698-0.158-1.042-0.254-35.342-9.902-65.426-31.836-86.998-63.432-19.73-28.9-30.596-63.78-30.596-98.214v-39.684c0-31.998 28.71-58.030 64-58.030h367.957c0.020 0 0.040-0.002 0.060-0.002 0.022 0 0.044 0.002 0.066 0.002h95.834c0.022 0 0.044-0.002 0.066-0.002 0.020 0 0.040 0.002 0.060 0.002h367.957c35.29 0 64 26.032 64 58.030v39.684c0 34.434-10.866 69.314-30.598 98.214zM685.195 255.977l31.344-47.532-110.466-151.89-34.756 34.754c-0.002 0.002-0.006 0.004-0.008 0.008l-35.804 35.804 149.69 128.856zM496.001 16.002h32c0.962 0 1.916 0.038 2.864 0.092l9.618-48.092h-56.966l9.618 48.092c0.95-0.054 1.904-0.092 2.866-0.092zM544.001 64.002c0-8.822-7.178-16-16-16h-32c-8.822 0-16 7.178-16 16v9.374l32 32 32-32v-9.374zM338.805 255.977l149.69-128.854-35.804-35.804c-0.002-0.002-0.006-0.004-0.008-0.008l-34.756-34.754-110.466 151.89 31.344 47.53zM64.002-5.968v39.684c0 51.758 32.19 113.17 93.726 130.692l123.42 25.816 121.914-167.63c2.752-3.786 7.022-6.174 11.688-6.542 0.418-0.034 0.836-0.048 1.252-0.048 4.226 0 8.3 1.674 11.312 4.686l24.522 24.522c2.618-6.13 6.484-11.602 11.268-16.114l-12.22-61.096h-354.881c-17.646 0-32 11.676-32 26.030zM960-5.968c0-14.352-14.356-26.030-32-26.030h-354.883l-12.218 61.094c4.782 4.51 8.648 9.982 11.268 16.114l24.522-24.522c3.010-3.012 7.084-4.686 11.31-4.686 0.416 0 0.834 0.016 1.252 0.048 4.666 0.366 8.936 2.756 11.688 6.542l121.914 167.63 123.42-25.816c61.536-17.52 93.726-78.934 93.726-130.692v-39.682zM400.001 406.671v-70.67c0-30.352 21.246-55.82 49.644-62.356 6.536-28.396 32.002-49.644 62.356-49.644s55.82 21.248 62.356 49.644c28.398 6.536 49.644 32.004 49.644 62.356v70.67c103.33 43.782 176 146.23 176 265.329 0 158.804-129.196 287.999-287.999 287.999s-287.999-129.196-287.999-287.999c0-119.1 72.67-221.548 176-265.329zM512.001 256.001c-11.814 0-22.126 6.452-27.67 16h55.34c-5.544-9.548-15.858-16-27.67-16zM592.001 336.001c0-17.644-14.356-32-32-32h-96c-17.644 0-32 14.356-32 32v59.316c25.41-7.358 52.25-11.316 80-11.316s54.59 3.958 80 11.316v-59.316zM479.461 420.125l-47.822 179.316c6.59-3.724 15.456-7.438 29.102-7.438 17.378 0 27.020 6.022 34.062 10.418 5.552 3.468 8.904 5.56 17.11 5.56 8.234 0 11.594-2.096 17.162-5.566 7.048-4.394 16.7-10.412 34.092-10.412 13.71 0 22.6 3.74 29.206 7.476l-47.832-179.352c-0.188-0.704-0.308-1.408-0.398-2.11-10.532-1.326-21.258-2.012-32.142-2.012s-21.612 0.688-32.142 2.012c-0.092 0.7-0.212 1.404-0.398 2.108zM512.001 928c141.16 0 256-114.842 256-256 0-118.008-80.268-217.604-189.068-247.106l60.528 226.96c2.276 8.538-2.798 17.306-11.336 19.582-8.54 2.28-17.304-2.798-19.584-11.336l-5.628-21.106c-10.474-1.884-17.272-6.118-22.586-9.43-5.566-3.47-8.926-5.566-17.162-5.566s-11.594 2.096-17.162 5.566c-7.048 4.394-16.7 10.412-34.092 10.412-17.378 0-27.020-6.022-34.062-10.418-5.552-3.468-8.904-5.56-17.11-5.56-8.204 0-11.552 2.092-17.102 5.558-5.304 3.314-12.090 7.548-22.548 9.434l-5.63 21.108c-2.278 8.538-11.044 13.618-19.584 11.336-8.538-2.276-13.614-11.044-11.336-19.582l60.528-226.96c-108.8 29.5-189.068 129.098-189.068 247.106 0.002 141.16 114.842 256.001 256.001 256.001zM585.923 849.258c46.292-19.33 83.942-56.958 103.296-103.238 2.566-6.136 8.508-9.832 14.768-9.832 2.056 0 4.15 0.4 6.166 1.244 8.152 3.408 11.998 12.782 8.588 20.934-22.576 53.982-66.492 97.876-120.488 120.422-8.156 3.404-17.524-0.446-20.93-8.6s0.446-17.524 8.6-20.93z" />
<glyph unicode="&#xe92a;" glyph-name="linkedin" d="M238.361 630.569h-205.57c-9.124 0-16.516-7.396-16.516-16.516v-660.407c0-9.124 7.393-16.516 16.516-16.516h205.57c9.124 0 16.516 7.393 16.516 16.516v660.407c0 9.12-7.393 16.516-16.516 16.516zM135.65 958.874c-74.798 0-135.65-60.786-135.65-135.502 0-74.749 60.852-135.558 135.65-135.558 74.739 0 135.541 60.812 135.541 135.558 0.003 74.716-60.802 135.502-135.541 135.502zM761.242 646.983c-82.564 0-143.598-35.493-180.617-75.822v42.892c0 9.12-7.393 16.516-16.516 16.516h-196.869c-9.124 0-16.516-7.396-16.516-16.516v-660.407c0-9.124 7.393-16.516 16.516-16.516h205.12c9.124 0 16.516 7.393 16.516 16.516v326.748c0 110.106 29.907 153.002 106.661 153.002 83.591 0 90.234-68.767 90.234-158.667v-321.087c0-9.124 7.393-16.516 16.516-16.516h205.196c9.124 0 16.516 7.393 16.516 16.516v362.245c0 163.724-31.219 331.096-262.758 331.096z" />
<glyph unicode="&#xe92b;" glyph-name="list-svgrepo" d="M367.745 756.009h640c8.837 0 15.994 7.155 15.994 15.992 0 8.835-7.157 15.992-15.994 15.992h-640c-8.835 0-15.992-7.157-15.992-15.992 0-8.837 7.157-15.992 15.992-15.992zM1007.745 459.258h-640c-8.835 0-15.992-7.157-15.992-15.992 0-8.837 7.157-15.992 15.992-15.992h640c8.837 0 15.994 7.155 15.994 15.992 0 8.835-7.157 15.992-15.994 15.992zM1007.745 139.993h-640c-8.835 0-15.992-7.157-15.992-15.992 0-8.837 7.157-15.992 15.992-15.992h640c8.837 0 15.994 7.155 15.994 15.992 0 8.835-7.157 15.992-15.994 15.992zM95.745 867.484c-52.648 0-95.483-42.835-95.483-95.483 0-52.65 42.835-95.485 95.483-95.485 52.65 0 95.485 42.835 95.485 95.485 0 52.648-42.835 95.483-95.485 95.483zM95.745 707.484c-35.577 0-64.515 28.938-64.515 64.517s28.938 64.515 64.515 64.515c35.579 0 64.517-28.938 64.517-64.515 0-35.579-28.938-64.517-64.517-64.517zM95.745 538.75c-52.648 0-95.483-42.835-95.483-95.483 0-52.65 42.835-95.485 95.483-95.485 52.65 0 95.485 42.835 95.485 95.485 0 52.648-42.835 95.483-95.485 95.483zM95.745 378.75c-35.577 0-64.515 28.938-64.515 64.517 0 35.578 28.938 64.515 64.515 64.515 35.579 0 64.517-28.938 64.517-64.515 0-35.579-28.938-64.517-64.517-64.517zM95.745 219.484c-52.648 0-95.483-42.835-95.483-95.483 0-52.65 42.835-95.485 95.483-95.485 52.65 0 95.485 42.835 95.485 95.485 0 52.648-42.835 95.483-95.485 95.483zM95.745 59.484c-35.577 0-64.515 28.938-64.515 64.517s28.938 64.515 64.515 64.515c35.579 0 64.517-28.938 64.517-64.515 0-35.579-28.938-64.517-64.517-64.517z" />
<glyph unicode="&#xe92c;" glyph-name="location" d="M818.25 833.148c-81.8 81.802-190.562 126.852-306.247 126.852s-224.448-45.050-306.249-126.852c-81.802-81.804-126.852-190.564-126.852-306.247 0-234.024 221.276-428.675 340.155-533.247 16.52-14.532 30.786-27.082 42.152-37.698 14.24-13.302 32.518-19.954 50.792-19.954 18.278 0 36.552 6.652 50.794 19.954 11.366 10.618 25.632 23.166 42.152 37.698 118.878 104.574 340.155 299.223 340.155 533.247-0.002 115.682-45.050 224.442-126.852 306.247zM565.327 38.69c-16.882-14.85-31.46-27.676-43.48-38.902-5.522-5.154-14.17-5.156-19.694 0-12.018 11.23-26.598 24.054-43.48 38.904-111.76 98.31-319.791 281.309-319.791 488.207 0 205.736 167.378 373.115 373.117 373.115 205.736 0 373.115-167.378 373.115-373.115 0.002-206.898-208.026-389.897-319.787-488.209zM512.003 734.124c-105.242 0-190.862-85.618-190.862-190.86s85.62-190.86 190.862-190.86 190.86 85.618 190.86 190.86-85.618 190.86-190.86 190.86zM512.003 412.389c-72.166 0-130.878 58.712-130.878 130.876s58.712 130.876 130.878 130.876 130.876-58.712 130.876-130.876-58.71-130.876-130.876-130.876z" />
<glyph unicode="&#xe92d;" glyph-name="mail-message" d="M461.28 454.16c3.88 4.125 6.264 9.697 6.264 15.824 0 0.371-0.009 0.74-0.026 1.107l0.002-0.052c-3.148 63.711-43.241 117.325-99.174 140.096l-1.066 0.384c-1.616 0.918-3.495 1.614-5.489 1.983l-0.111 0.017c-15.974 5.928-34.426 9.358-53.68 9.358s-37.706-3.43-54.78-9.712l1.1 0.354c-2.135-0.4-4.039-1.095-5.78-2.050l0.1 0.050c-56.967-23.179-97.026-76.786-100.145-140.108l-0.015-0.372c-0.029-0.431-0.046-0.934-0.046-1.44 0-12.46 10.1-22.56 22.56-22.56 0.044 0 0.089 0 0.133 0h273.753c6.454 0.064 12.26 2.781 16.391 7.111l0.009 0.009zM328 589.2l-18.080-18.080c-0.534-0.528-1.269-0.854-2.080-0.854s-1.546 0.326-2.080 0.854v0l-17.76 18.080c6.013 1.052 12.936 1.654 20 1.654s13.987-0.602 20.722-1.756l-0.722 0.102zM181.28 479.2c5.689 44.119 33.224 80.728 71.237 99.029l0.763 0.331 30.080-30.080c6.326-6.326 15.066-10.239 24.72-10.239s18.394 3.913 24.72 10.239v0l30 30.080c38.766-18.644 66.296-55.247 71.932-98.72l0.068-0.64zM310.88 644.48c41.090 0 74.4 33.31 74.4 74.4s-33.31 74.4-74.4 74.4c-41.090 0-74.4-33.31-74.4-74.4v0c0.046-41.072 33.328-74.354 74.396-74.4h0.004zM310.88 761.28c23.417 0 42.4-18.983 42.4-42.4s-18.983-42.4-42.4-42.4c-23.417 0-42.4 18.983-42.4 42.4v0c0.045 23.399 19.001 42.355 42.396 42.4h0.004zM775.36 267.040c-1.66 0.969-3.601 1.671-5.668 1.988l-0.092 0.012c-15.949 5.929-34.374 9.359-53.6 9.359s-37.651-3.431-54.696-9.713l1.096 0.354c-2.159-0.329-4.1-1.031-5.839-2.042l0.079 0.042c-56.967-23.179-97.026-76.786-100.145-140.108l-0.015-0.372c-0.015-0.31-0.024-0.674-0.024-1.040 0-6.107 2.385-11.658 6.274-15.771l-0.010 0.011c4.045-4.239 9.698-6.912 15.977-7.040h273.783c6.302 0.128 11.955 2.801 15.992 7.031l0.008 0.009c3.879 4.102 6.264 9.653 6.264 15.76 0 0.366-0.009 0.729-0.025 1.091l0.002-0.051c-2.99 63.523-42.723 117.071-98.302 140.092l-1.058 0.388zM736 244.72l-18.080-18.080c-0.534-0.528-1.269-0.854-2.080-0.854s-1.546 0.326-2.080 0.854v0l-17.76 18.080c6.013 1.052 12.936 1.653 20 1.653s13.987-0.601 20.722-1.755l-0.722 0.102zM589.28 134.72c5.704 44.113 33.234 80.716 71.237 99.028l0.763 0.332 30-30c6.326-6.326 15.066-10.239 24.72-10.239s18.394 3.913 24.72 10.239l30 30c38.766-18.644 66.296-55.247 71.932-98.72l0.068-0.64zM644.48 374.48c0-0.024 0-0.052 0-0.080 0-41.090 33.31-74.4 74.4-74.4s74.4 33.31 74.4 74.4c0 41.090-33.31 74.4-74.4 74.4v0c-41.044-0.045-74.309-33.283-74.4-74.311v-0.009zM761.28 374.48c0-0.024 0-0.052 0-0.080 0-23.417-18.983-42.4-42.4-42.4s-42.4 18.983-42.4 42.4c0 23.417 18.983 42.4 42.4 42.4v0c0 0 0 0 0 0 23.389 0 42.354-18.938 42.4-42.316v-0.004zM702.88 506.96c0-8.837 7.163-16 16-16s16 7.163 16 16v0 185.2c0 8.837-7.163 16-16 16v0h-203.36c-8.837 0-16-7.163-16-16s7.163-16 16-16v0h187.36zM486.32 217.36h-187.36v169.12c0 8.837-7.163 16-16 16s-16-7.163-16-16v0-185.12c0-8.837 7.163-16 16-16v0h203.36c8.837 0 16 7.163 16 16s-7.163 16-16 16v0z" />
<glyph unicode="&#xe92e;" glyph-name="marketing" d="M665.429 806.917c-2.545 7.842-8.107 14.349-15.447 18.091-7.353 3.747-15.878 4.414-23.724 1.865l-130.043-42.259c-16.326-5.305-25.266-22.841-19.957-39.167l6.499-20.010-330.789-242.981-130.486-42.396c-7.842-2.549-14.349-8.107-18.091-15.451s-4.414-15.878-1.865-23.72l79.283-243.963c4.269-13.134 16.454-21.486 29.556-21.486 3.187 0 6.424 0.493 9.616 1.529l130.466 42.396 67.032-0.352c13.462-63.562 69.995-111.408 137.503-111.408 66.994 0 123.154 47.129 137.167 109.962l68.747-0.361 6.499-20.015c2.545-7.842 8.103-14.349 15.451-18.091 4.41-2.246 9.251-3.386 14.113-3.386 3.233 0 6.478 0.506 9.603 1.521l130.047 42.255c16.326 5.305 25.266 22.841 19.961 39.167l-191.139 588.26zM130.325 205.705l-60.064 184.839 76.113 24.731 60.056-184.839-76.104-24.731zM454.976 129.775c-32.793 0-60.902 20.255-72.585 48.895l144.889-0.763c-11.866-28.246-39.797-48.132-72.304-48.132zM268.217 241.445l-65.386 201.24 300.152 220.471 137.665-423.675-372.431 1.965zM716.91 205.966l-3.817 11.742c-0.004 0.021-0.008 0.046-0.017 0.070l-168.087 517.32 70.919 23.048 171.92-529.128-70.919-23.053zM770.107 655.811c4.526-2.304 9.342-3.394 14.092-3.394 11.315 0 22.228 6.2 27.719 16.977l55.791 109.46c7.8 15.294 1.72 34.015-13.574 41.811-15.294 7.792-34.015 1.72-41.811-13.578l-55.791-109.46c-7.8-15.298-1.72-34.019 13.574-41.815zM1003.737 360.218l-109.477 55.766c-15.298 7.788-34.015 1.708-41.807-13.59-7.796-15.298-1.708-34.015 13.586-41.807l109.477-55.766c4.522-2.3 9.338-3.39 14.084-3.39 11.315 0 22.232 6.205 27.724 16.981 7.796 15.294 1.712 34.011-13.586 41.807zM846.513 540.544c4.269-13.134 16.454-21.486 29.556-21.486 3.187 0 6.424 0.493 9.616 1.529l116.83 37.965c16.322 5.305 25.262 22.841 19.952 39.171-5.305 16.33-22.841 25.249-39.171 19.957l-116.83-37.965c-16.322-5.309-25.258-22.845-19.952-39.171z" />
<glyph unicode="&#xe92f;" glyph-name="minus" d="M0 481.758h1024v-67.516h-1024v67.516z" />
<glyph unicode="&#xe930;" glyph-name="personal-page" d="M482.153 959.802c-0.951-0.053-1.869-0.287-2.784-0.502-1.239-0.287-2.444-0.628-3.593-1.169-0.862-0.396-1.651-0.915-2.444-1.437-0.591-0.396-1.275-0.611-1.813-1.077l-316.862-274.465c-0.377-0.324-0.522-0.809-0.862-1.149-1.007-1.024-1.813-2.173-2.533-3.379-0.502-0.862-1.040-1.708-1.42-2.622-0.538-1.384-0.753-2.837-0.935-4.33-0.089-0.72-0.449-1.364-0.449-2.101v-502.571c0-126.266 102.734-229 229-229h269.079c126.266 0 229 102.734 229 229v565.999c0.003 126.266-92.007 229-205.089 229h-187.165c-0.393 0-0.733-0.178-1.13-0.198zM449.192 888.737l-69.895-241.99c-43.546 52.437-98.229 61.906-142.347 58.151l212.242 183.839zM839.596 731v-565.999c0-106.47-86.62-193.073-193.073-193.073h-269.079c-106.453 0-193.073 86.604-193.073 193.073v491.091c30.88 12.917 128.083 42.968 185.959-59.71 3.217-5.677 9.215-9.142 15.645-9.142 0.7 0 1.4 0.036 2.084 0.126 7.187 0.845 13.168 5.909 15.179 12.861l93.556 323.848h173.637c93.269 0 169.165-86.604 169.165-193.073zM397.184 486.602c0-65.027 52.903-117.93 117.93-117.93s117.93 52.903 117.93 117.93-52.903 117.93-117.93 117.93-117.93-52.883-117.93-117.93zM515.118 568.609c45.214 0 82.003-36.789 82.003-81.987 0-45.234-36.789-82.003-82.003-82.003s-82.003 36.789-82.003 82.003c0 45.194 36.789 81.987 82.003 81.987zM515.065 345.084c-33.163 0-64.796-5.767-89.064-16.239l-84.338-36.396c-6.576-2.837-10.849-9.324-10.849-16.49v-85.345c0-56.962 50.102-103.292 111.681-103.292h145.253c61.579 0 111.681 45.861 111.681 102.212v84.249c0 7.041-4.115 13.419-10.489 16.329l-82.003 37.489c-24.651 11.289-57.276 17.485-91.872 17.485zM663.499 189.539c0-36.554-33.988-66.285-75.754-66.285h-145.253c-41.766 0-75.754 30.233-75.754 67.362v73.545l73.489 31.723c19.886 8.587 46.453 13.293 74.836 13.293 29.137 0 57.16-5.172 76.94-14.208l71.494-32.694v-72.736z" />
<glyph unicode="&#xe931;" glyph-name="phone" d="M79.36 527.744l512.384-512.384c5.79-5.784 13.785-9.362 22.617-9.362 4.547 0 8.872 0.948 12.789 2.658l-0.206-0.080 253.44 108.544c11.484 5.028 19.362 16.293 19.362 29.399 0 8.839-3.584 16.842-9.378 22.633l-153.856 153.92c-5.792 5.797-13.796 9.384-22.639 9.384-5.208 0-10.126-1.244-14.472-3.452l0.182 0.084-69.888-34.944-271.616 271.616 35.008 69.888c2.137 4.175 3.389 9.107 3.389 14.332 0 8.821-3.569 16.808-9.342 22.597l-153.983 153.855c-5.79 5.783-13.784 9.359-22.614 9.359-13.122 0-24.4-7.899-29.338-19.201l-0.080-0.206-108.608-253.44c-1.63-3.711-2.578-8.036-2.578-12.583 0-8.831 3.577-16.827 9.362-22.617v0zM139.84 557.696l81.536 190.080 104.192-104.256-24.64-49.216-20.608-41.216 32.576-32.64 304.192-304.192 41.216 20.672 49.28 24.576 104.192-104.128-190.080-81.472-481.856 481.792zM512 640v64c141.385 0 256-114.615 256-256v0h-64c0 106.039-85.961 192-192 192v0zM512 832v64c247.424 0 448-200.576 448-448v0h-64c0 212.077-171.923 384-384 384v0z" />
<glyph unicode="&#xe932;" glyph-name="phone2" d="M569.064 486.897c4.86 0 9.719 1.86 13.421 5.562l290.312 290.312v-181.974c0-10.498 8.505-18.983 18.983-18.983s18.983 8.486 18.983 18.983v227.8c0 2.468-0.513 4.936-1.462 7.252-1.917 4.651-5.619 8.353-10.27 10.27-2.525 1.044-5.182 1.424-7.878 1.348-0.209 0-0.38 0.114-0.607 0.114h-227.8c-10.479 0-18.983-8.486-18.983-18.983s8.505-18.983 18.983-18.983h183.189l-290.293-290.312c-7.422-7.422-7.422-19.42 0-26.842 3.702-3.721 8.561-5.562 13.421-5.562zM1013.028 183.353c-38.119 72.042-170.489 150.196-176.317 153.613-24.223 13.82-49.3 18.186-70.637 12.263-16.022-4.442-29.082-14.579-37.891-29.348-19.363-23.16-43.396-50.23-49.205-54.425-44.953-30.449-80.679-26.861-119.481 11.941l-218.043 218.043c-38.821 38.821-42.39 74.567-11.978 119.424 4.252 5.885 31.323 29.899 54.482 49.281 14.769 8.808 24.906 21.869 29.348 37.891 5.904 21.318 1.557 46.395-12.377 70.827-3.284 5.619-81.458 138.009-153.48 176.109-36.562 19.344-80.755 12.7-110.028-16.553l-48.199-48.161c-76.199-76.199-103.782-162.554-82.027-256.655 18.148-78.439 71.036-161.909 157.22-248.074l279.15-279.169c109.382-109.382 213.715-164.32 309.391-164.32 70.257 0 135.864 29.652 195.358 89.127l48.161 48.161c29.253 29.253 35.898 73.485 16.553 110.028zM969.632 100.187l-48.161-48.161c-124.683-124.664-276.455-99.378-451.044 75.193l-279.169 279.15c-81.078 81.078-130.549 158.397-147.064 229.774-18.869 81.666 4.632 154.012 71.871 221.27l48.161 48.161c10.764 10.745 24.925 16.364 39.296 16.364 8.865 0 17.825-2.126 26.121-6.53 62.512-33.088 137.743-160.485 138.389-161.567 8.524-14.94 11.77-30.525 8.675-41.687-1.898-6.834-6.151-12.035-12.985-15.87l-2.848-1.974c-16.193-13.516-54.729-46.205-62.797-58.108-11.618-17.161-19.325-34.018-23.369-50.591-13.497 26.918-24.413 58.089-28 92.658-1.082 10.403-10.346 17.749-20.844 16.933-10.422-1.101-18.015-10.422-16.933-20.863 13.706-131.991 116.349-217.91 120.715-221.498 0.475-0.38 1.025-0.532 1.519-0.854l201.47-201.47c0.854-0.854 1.746-1.614 2.601-2.449 0.664-0.968 1.101-2.050 1.974-2.923 3.588-3.55 89.298-86.697 220.188-100.289 0.664-0.057 1.329-0.095 1.974-0.095 9.606 0 17.844 7.271 18.869 17.009 1.082 10.441-6.492 19.762-16.933 20.863-40.131 4.157-75.687 15.927-105.32 29.576 14.522 4.366 29.291 11.618 44.269 21.755 11.922 8.087 44.611 46.604 58.108 62.797l1.974 2.866c3.835 6.815 9.036 11.067 15.87 12.985 11.181 3.018 26.748-0.152 41.498-8.543 1.272-0.759 128.669-75.99 161.757-138.503 11.504-21.717 7.555-47.99-9.833-65.379z" />
<glyph unicode="&#xe933;" glyph-name="pinterest" d="M441.19 282.778c-26.931-141.005-59.75-276.173-157.082-346.778-30.003 213.094 44.083 373.094 78.541 542.976-58.726 98.816 7.066 297.574 130.816 248.576 152.32-60.211-131.891-367.206 58.88-405.606 199.219-39.987 280.525 345.6 156.979 470.989-178.432 181.146-519.475 4.25-477.491-255.078 10.189-63.386 75.674-82.586 26.163-170.086-114.227 25.293-148.326 115.405-143.923 235.52 7.066 196.608 176.589 334.182 346.675 353.28 215.091 24.115 416.973-79.002 444.877-281.293 31.386-228.403-97.075-475.802-327.117-457.984-62.362 4.864-88.474 35.789-137.318 65.485z" />
<glyph unicode="&#xe934;" glyph-name="play" d="M839.851 543.087l-568.792 389.393c-26.268 17.995-52.735 27.52-74.734 27.52-42.531 0-68.84-34.134-68.84-91.27v-841.592c0-57.070 26.276-91.138 68.708-91.138 22.032 0 48.076 9.532 74.402 27.578l569.057 389.385c36.596 25.083 56.863 58.835 56.863 95.083 0.008 36.223-20.026 69.968-56.664 95.042z" />
<glyph unicode="&#xe935;" glyph-name="plus" d="M1024 479.67h-480.33v480.33h-63.34v-480.33h-480.33v-63.34h480.33v-480.33h63.34v480.33h480.33z" />
<glyph unicode="&#xe936;" glyph-name="quote" d="M512-64c282.304 0 512 229.696 512 512s-229.696 512-512 512-512-229.696-512-512 229.696-512 512-512zM512 928c264.672 0 480-215.328 480-480s-215.328-480-480-480-480 215.328-480 480 215.328 480 480 480zM343.488 523.328c16.224-5.28 33.088-2.848 48.992 7.104 7.456 4.672 9.76 14.56 5.056 22.048-4.672 7.456-14.528 9.76-22.048 5.056-7.712-4.8-15.136-6.016-22.016-3.808-7.328 2.4-14.24 8.576-20.032 17.856-5.184 8.256-6.848 18.048-4.672 27.552 2.208 9.536 7.968 17.6 16.256 22.784 19.776 12.48 45.504 5.344 62.176-7.168 28.192-21.088 40.8-57.76 40.8-118.752 0-90.048-40.96-202.016-119.264-241.728-7.872-4-11.040-13.632-7.040-21.536 2.88-5.536 8.48-8.736 14.304-8.736 2.432 0 4.896 0.576 7.264 1.728 93.92 47.648 136.736 173.536 136.736 270.272 0 71.104-17.024 116.96-53.6 144.384-30.464 22.944-70.016 26.368-98.336 8.672-15.52-9.696-26.336-24.864-30.432-42.72-4.128-17.856-1.024-36.224 8.672-51.712 9.824-15.68 22.656-26.496 37.184-31.296zM599.488 523.328c16.192-5.28 33.088-2.848 48.992 7.104 7.456 4.672 9.76 14.56 5.056 22.048-4.672 7.456-14.528 9.76-22.048 5.056-7.68-4.8-15.136-6.016-22.016-3.808-7.328 2.4-14.24 8.576-20.032 17.856-5.184 8.256-6.848 18.048-4.672 27.552 2.208 9.536 7.968 17.6 16.256 22.784 19.808 12.48 45.536 5.344 62.176-7.168 28.192-21.088 40.8-57.76 40.8-118.752 0-90.048-40.96-202.016-119.264-241.728-7.872-4-11.040-13.632-7.040-21.536 2.88-5.536 8.48-8.736 14.304-8.736 2.432 0 4.896 0.576 7.264 1.728 93.92 47.648 136.736 173.536 136.736 270.272 0 71.104-17.024 116.96-53.6 144.384-30.464 22.944-70.016 26.368-98.336 8.672-15.52-9.696-26.336-24.864-30.432-42.72-4.128-17.856-1.024-36.224 8.672-51.712 9.824-15.68 22.656-26.496 37.184-31.296z" />
<glyph unicode="&#xe937;" glyph-name="quote-left" d="M767.148 591.36c-67.628-27.093-105.176-90.24-105.816-186.027h85.334v-170.666h-192v158.72c0 44.586 10.453 88.214 16 121.066s20.107 44.427 43.68 77.386c23.572 32.961 59.785 60.107 108.64 81.44l44.161-81.92zM468.48 591.36c-66.987-27.093-104.533-90.24-105.813-186.027h85.333v-170.666h-192v158.72c0 44.586 10.453 88.214 16 121.066s19.894 44.427 43.040 77.386c23.146 32.961 59.573 60.107 109.28 81.44l44.16-81.92z" />
<glyph unicode="&#xe938;" glyph-name="relationship" d="M532.777 865.598c4.724 9.464 13.213 16.846 23.288 20.199l107.421 35.807c35.311 11.743 75.611 3.65 103.589-20.86l94.621-82.795c1.074-0.958 2.081-1.982 3.039-3.188l134.821-168.481h24.444v33.032h-8.588l-124.812 156.011c-2.147 2.709-4.525 5.186-7.151 7.482l-94.637 82.812c-36.666 32.091-89.517 42.76-135.796 27.301l-107.404-35.79c-13.229-4.41-24.873-12.717-33.61-23.453-8.737 10.735-20.381 19.043-33.61 23.436l-107.421 35.807c-46.262 15.476-99.13 4.79-135.796-27.301l-94.654-82.828c-2.593-2.263-4.988-4.757-7.069-7.383l-124.862-156.094h-8.588v-33.032h24.444l134.871 168.564c0.892 1.123 1.883 2.164 2.956 3.105l94.637 82.812c27.995 24.493 68.294 32.603 103.589 20.86l107.437-35.823c10.058-3.336 18.548-10.702 23.288-20.216 2.791-5.549 4.261-11.776 4.261-18.003v-77.428c0-13.659-11.115-24.774-24.774-24.774s-24.774 11.115-24.774 24.774v11.528c0 24.923-15.889 46.955-39.507 54.817l-6.606 2.213c-45.535 15.162-94.819 1.156-125.572-35.708-27.731-33.297-43.025-75.512-43.025-118.867 0-48.194 39.209-87.403 87.403-87.403 28.639 0 57.261-5.236 84.133-15.145-23.486-25.501-38.136-59.144-39.193-96.206-21.686 7.796-44.511 12.255-67.733 12.255h-38.962c-31.595 0-61.308-12.305-83.638-34.651-30.935-30.902-72.027-47.93-115.745-47.93h-57.493v-33.032h57.493c52.538 0 101.938 20.463 139.082 57.608 16.103 16.103 37.525 24.972 60.3 24.972h38.962c23.337 0 46.295-4.971 67.518-14.319v-84.777h-99.097v-429.419h495.484v429.419h-99.097v84.777c21.223 9.348 44.181 14.319 67.518 14.319h38.962c22.776 0 44.197-8.869 60.284-24.972 37.161-37.145 86.561-57.608 139.099-57.608h57.493v33.032h-57.493c-43.702 0-84.81 17.028-115.729 47.93-22.346 22.346-52.059 34.651-83.654 34.651h-38.962c-36.352 0-72.060-9.893-103.242-28.589l-23.486-14.105c-7.465-4.476-16.037-6.854-24.774-6.854-26.541 0-48.145 21.603-48.145 48.145v10.983c0 18.349 10.19 34.849 26.607 43.058l41.802 20.893c33.478 16.714 70.986 25.567 108.445 25.567 48.194 0 87.403 39.209 87.403 87.403 0 43.355-15.294 85.57-43.025 118.867-30.753 36.864-80.070 50.87-125.589 35.708l-6.573-2.197c-23.635-7.878-39.523-29.911-39.523-54.834v-11.528c0-13.659-11.115-24.774-24.774-24.774s-24.774 11.115-24.774 24.774v77.428c0 6.227 1.47 12.453 4.261 18.019zM396.387 481.119c0 34.188 15.013 64.875 38.681 86.066l33.792-16.896c16.434-8.225 26.624-24.725 26.624-43.074v-10.983c0-26.541-21.603-48.145-48.145-48.145-8.737 0-17.309 2.378-24.774 6.854l-23.486 14.105c-0.875 0.512-1.817 0.859-2.692 1.371v10.702zM660.645 332.474h66.065v-363.355h-33.032v33.032h-33.032v-33.032h-33.032v33.032h-33.032v-33.032h-33.032v33.032h-33.032v-33.032h-33.032v33.032h-33.032v-33.032h-33.032v33.032h-33.032v-33.032h-33.032v33.032h-33.032v-33.032h-33.032v363.355h66.065v-66.065h33.032v66.065h231.226v-66.065h33.032v66.065zM576.661 415.054c14.732 0 29.184 3.997 41.769 11.561l9.183 5.516v-66.626h-231.226v66.626l9.183-5.516c12.602-7.564 27.053-11.561 41.769-11.561 26.492 0 49.829 12.949 64.661 32.636 14.831-19.687 38.169-32.636 64.661-32.636zM540.358 579.836c-11.446-5.731-20.975-13.94-28.358-23.668-7.383 9.745-16.913 17.953-28.358 23.668l-16.021 8.010c13.675 5.698 28.655 8.886 44.379 8.886 15.294 0 30.059-3.336 43.933-9.117l-15.575-7.779zM553.29 712.345c31.876 0 57.806 25.93 57.806 57.806v11.528c0 10.669 6.805 20.117 16.946 23.502l6.573 2.213c32.52 10.835 67.782 0.826 89.732-25.55 22.825-27.367 35.394-62.068 35.394-97.709 0-29.977-24.394-54.371-54.371-54.371-38.648 0-77.295-8.374-112.574-24.114-24.147 15.773-51.861 24.114-80.797 24.114-29.812 0-57.559-8.902-80.846-24.081-35.262 15.723-73.893 24.081-112.524 24.081-29.977 0-54.371 24.394-54.371 54.371 0 35.642 12.569 70.342 35.394 97.709 21.966 26.376 57.195 36.385 89.716 25.55l6.606-2.23c10.124-3.369 16.929-12.8 16.929-23.486v-11.528c0-31.876 25.93-57.806 57.806-57.806 16.186 0 30.786 6.722 41.29 17.474 10.504-10.752 25.105-17.474 41.29-17.474z" />
<glyph unicode="&#xe939;" glyph-name="right-arrow" d="M0 439.617c0-28.475 10.889-55.218 31.026-75.356l295.295-295.432c22.256-22.256 58.339-22.256 80.55 0 22.279 22.256 22.233 58.499 0 80.777l-240.874 240.783h801.418c31.482 0.023 56.585 25.832 56.585 57.337 0 0.068 0 0.569 0 0.638 0 31.482-25.103 57.474-56.585 57.474h-801.441l240.829 240.646c22.279 22.279 22.279 58.408 0 80.663-22.256 22.301-58.339 22.279-80.595-0.023l-295.181-295.455c-20.16-20.092-31.026-46.904-31.026-75.379 0-2.802 0-13.873 0-16.675z" />
<glyph unicode="&#xe93a;" glyph-name="right-arrow1" d="M1024 456.383c0 28.475-10.889 55.218-31.026 75.356l-295.295 295.432c-22.256 22.256-58.339 22.256-80.55 0-22.279-22.256-22.233-58.499 0-80.777l240.874-240.783h-801.418c-31.482-0.023-56.585-25.832-56.585-57.337 0-0.068 0-0.569 0-0.638 0-31.482 25.103-57.474 56.585-57.474h801.441l-240.829-240.646c-22.279-22.279-22.279-58.408 0-80.663 22.256-22.301 58.339-22.279 80.595 0.023l295.181 295.455c20.16 20.092 31.026 46.904 31.026 75.379 0 2.802 0 13.873 0 16.675z" />
<glyph unicode="&#xe93b;" glyph-name="sad" d="M512 960c-282.321 0-512-229.679-512-512s229.679-512 512-512 512 229.679 512 512-229.679 512-512 512zM512-17.455c-256.652 0-465.455 208.803-465.455 465.455s208.803 465.455 465.455 465.455 465.455-208.803 465.455-465.455-208.803-465.455-465.455-465.455zM512 401.455c-153.996 0-279.273-125.277-279.273-279.273 0-12.847 10.403-23.273 23.273-23.273s23.273 10.426 23.273 23.273c0 128.326 104.401 232.727 232.727 232.727s232.727-104.401 232.727-232.727c0-12.847 10.403-23.273 23.273-23.273s23.273 10.426 23.273 23.273c0 153.996-125.277 279.273-279.273 279.273zM302.545 634.182c38.493 0 69.818-31.325 69.818-69.818 0-12.847 10.403-23.273 23.273-23.273s23.273 10.426 23.273 23.273c0 64.163-52.201 116.364-116.364 116.364s-116.364-52.201-116.364-116.364c0-12.847 10.403-23.273 23.273-23.273s23.273 10.426 23.273 23.273c0 38.493 31.325 69.818 69.818 69.818zM721.455 680.727c-64.163 0-116.364-52.201-116.364-116.364 0-12.847 10.403-23.273 23.273-23.273s23.273 10.426 23.273 23.273c0 38.493 31.325 69.818 69.818 69.818s69.818-31.325 69.818-69.818c0-12.847 10.403-23.273 23.273-23.273s23.273 10.426 23.273 23.273c0 64.163-52.201 116.364-116.364 116.364z" />
<glyph unicode="&#xe93c;" glyph-name="search" d="M999.602-31.269l-287.271 298.755c73.273 73.485 118.667 174.791 118.667 286.517 0 223.878-182.118 405.996-405.996 405.996s-405.996-182.118-405.996-405.996 182.118-405.996 405.996-405.996c98.27 0 188.46 35.128 258.755 93.418l287.967-299.49c3.789-3.963 8.855-5.935 13.939-5.935 4.833 0 9.647 1.798 13.398 5.394 7.695 7.405 7.927 19.642 0.541 27.337zM425.001 186.674c-202.553 0-367.33 164.776-367.33 367.33s164.776 367.33 367.33 367.33 367.33-164.776 367.33-367.33-164.796-367.33-367.33-367.33z" />
<glyph unicode="&#xe93d;" glyph-name="share" d="M792.719 322.407c-59.71 0-113.164-27.239-148.632-69.935l-230.717 130.992c7.175 20.19 11.118 41.899 11.118 64.523 0 22.619-3.943 44.328-11.118 64.518l230.699 131.024c35.463-42.71 88.927-69.958 148.641-69.958 106.512 0 193.167 86.687 193.167 193.244 0.009 106.525-86.646 193.185-193.158 193.185-106.525 0-193.19-86.66-193.19-193.181 0-22.624 3.939-44.337 11.118-64.532l-230.713-131.029c-35.463 42.688-88.913 69.917-148.609 69.917-106.539 0-193.217-86.66-193.217-193.185 0-106.521 86.678-193.181 193.217-193.181 59.696 0 113.141 27.23 148.605 69.913l230.717-130.997c-7.179-20.195-11.123-41.913-11.123-64.541 0-106.521 86.664-193.181 193.19-193.181 106.512 0 193.167 86.664 193.167 193.181 0.005 106.539-86.651 193.221-193.163 193.221zM792.719 892.399c69.237 0 125.566-56.334 125.566-125.58 0-69.282-56.33-125.643-125.566-125.643-69.25 0-125.589 56.361-125.589 125.643 0 69.246 56.339 125.58 125.589 125.58zM231.33 322.407c-69.264 0-125.616 56.339-125.616 125.58 0 69.25 56.352 125.584 125.616 125.584 69.237 0 125.562-56.334 125.562-125.584 0-69.241-56.33-125.58-125.562-125.58zM792.719 3.601c-69.25 0-125.589 56.339-125.589 125.58 0 69.268 56.339 125.625 125.589 125.625 69.237 0 125.566-56.357 125.566-125.625 0-69.241-56.33-125.58-125.566-125.58z" />
<glyph unicode="&#xe93e;" glyph-name="chat-1" d="M170.667 525.397h221.867c9.438 0 17.067 7.646 17.067 17.067s-7.629 17.067-17.067 17.067h-221.867c-9.438 0-17.067-7.646-17.067-17.067s7.629-17.067 17.067-17.067zM614.4 457.131h-443.733c-9.438 0-17.067-7.646-17.067-17.067s7.629-17.067 17.067-17.067h443.733c9.438 0 17.067 7.646 17.067 17.067s-7.629 17.067-17.067 17.067zM614.4 354.731h-443.733c-9.438 0-17.067-7.646-17.067-17.067s7.629-17.067 17.067-17.067h443.733c9.438 0 17.067 7.646 17.067 17.067s-7.629 17.067-17.067 17.067zM922.829 916.736l-582.69 1.195c-55.808 0-101.205-45.397-101.205-101.205v-87.45l-137.728-0.29c-55.808 0-101.205-45.397-101.205-101.205v-360.806c0-55.808 45.397-101.188 101.205-101.188h103.595v-170.667c0-7.049 4.335-13.38 10.923-15.923 1.997-0.768 4.079-1.143 6.144-1.143 4.71 0 9.335 1.963 12.629 5.581l165.615 182.187 283.75 1.161c55.808 0 101.205 45.397 101.205 101.188v1.929l89.771-98.748c3.294-3.618 7.919-5.581 12.629-5.581 2.065 0 4.147 0.375 6.144 1.143 6.588 2.543 10.923 8.875 10.923 15.923v170.667h18.261c55.808 0 101.205 45.397 101.205 101.188v360.841c0 55.791-45.38 101.188-101.171 101.205zM750.933 268.186c0-36.983-30.089-67.055-67.14-67.055l-291.328-1.195c-4.779-0.017-9.353-2.048-12.561-5.581l-140.971-155.085v143.599c0 9.421-7.629 17.067-17.067 17.067h-120.661c-36.983 0-67.072 30.089-67.072 67.055v360.806c0 36.983 30.089 67.072 67.106 67.072l154.761 0.324c0 0 0 0 0 0 0.017 0 0.017 0 0.034 0l427.827 0.887c36.983 0 67.072-30.089 67.072-67.072v-360.823zM989.867 454.724c0-36.983-30.089-67.055-67.072-67.055h-35.328c-9.438 0-17.067-7.646-17.067-17.067v-143.599l-85.333 93.867v308.122c0 55.808-45.397 101.205-101.239 101.205l-410.761-0.836v87.381c0 36.983 30.089 67.072 67.038 67.072l582.673-1.195c0.017 0 0.017 0 0.034 0 36.983 0 67.072-30.089 67.072-67.072v-360.823z" />
<glyph unicode="&#xe93f;" glyph-name="star2" d="M561.448 906.899l115.494-234.021c8.031-16.276 23.56-27.554 41.524-30.16l258.264-37.53c45.241-6.579 63.29-62.158 30.566-94.048l-186.879-182.158c-12.987-12.666-18.925-30.929-15.849-48.808l44.108-257.218c7.732-45.048-39.559-79.395-80.015-58.142l-230.987 121.432c-16.063 8.437-35.265 8.437-51.328 0l-230.987-121.432c-40.456-21.275-87.747 13.094-80.015 58.142l44.108 257.218c3.076 17.878-2.862 36.141-15.849 48.808l-186.879 182.158c-32.724 31.912-14.674 87.491 30.566 94.048l258.264 37.53c17.964 2.606 33.493 13.884 41.524 30.16l115.494 234.021c20.207 40.99 78.648 40.99 98.876 0z" />
</font>
</defs>
</svg>
