<svg xmlns="http://www.w3.org/2000/svg" viewBox="0 0 960 720" role="img" aria-labelledby="title desc">
  <title id="title">Bolsa de papas envasadas</title>
  <desc id="desc">Ilustración comercial de papas lavadas y seleccionadas dentro de una bolsa transparente para venta mayorista.</desc>
  <defs>
    <linearGradient id="bg" x1="0" y1="0" x2="1" y2="1">
      <stop offset="0" stop-color="#fff7ed"/>
      <stop offset=".55" stop-color="#ffedd5"/>
      <stop offset="1" stop-color="#fef3c7"/>
    </linearGradient>
    <linearGradient id="bag" x1="0" y1="0" x2="0" y2="1">
      <stop offset="0" stop-color="#ffffff" stop-opacity=".78"/>
      <stop offset="1" stop-color="#ffffff" stop-opacity=".32"/>
    </linearGradient>
    <filter id="shadow" x="-20%" y="-20%" width="140%" height="150%">
      <feDropShadow dx="0" dy="22" stdDeviation="24" flood-color="#92400e" flood-opacity=".22"/>
    </filter>
  </defs>
  <rect width="960" height="720" rx="48" fill="url(#bg)"/>
  <circle cx="138" cy="128" r="74" fill="#f59e0b" opacity=".18"/>
  <circle cx="810" cy="590" r="118" fill="#ea580c" opacity=".14"/>
  <g filter="url(#shadow)">
    <path d="M274 138h412l-34 470c-4 45-42 80-87 80H395c-45 0-83-35-87-80L274 138Z" fill="url(#bag)" stroke="#f59e0b" stroke-width="10"/>
    <path d="M306 169h348l-13 86H319l-13-86Z" fill="#fbbf24"/>
    <rect x="360" y="188" width="240" height="48" rx="24" fill="#78350f"/>
    <text x="480" y="221" text-anchor="middle" font-family="Inter, Arial, sans-serif" font-size="26" font-weight="800" fill="#fff7ed">PAPAS</text>
    <text x="480" y="285" text-anchor="middle" font-family="Inter, Arial, sans-serif" font-size="29" font-weight="900" fill="#78350f">ENVASADAS</text>
    <text x="480" y="323" text-anchor="middle" font-family="Inter, Arial, sans-serif" font-size="19" font-weight="700" fill="#92400e">Lavadas y seleccionadas</text>
    <g>
      <ellipse cx="394" cy="420" rx="70" ry="54" fill="#d97706"/>
      <ellipse cx="394" cy="420" rx="55" ry="42" fill="#f5c16c"/>
      <circle cx="376" cy="406" r="5" fill="#9a5b19"/>
      <circle cx="415" cy="432" r="4" fill="#9a5b19"/>
      <circle cx="405" cy="396" r="3" fill="#9a5b19"/>
    </g>
    <g>
      <ellipse cx="520" cy="429" rx="82" ry="57" transform="rotate(-10 520 429)" fill="#d97706"/>
      <ellipse cx="520" cy="429" rx="65" ry="44" transform="rotate(-10 520 429)" fill="#f8ca77"/>
      <circle cx="496" cy="419" r="5" fill="#9a5b19"/>
      <circle cx="543" cy="445" r="4" fill="#9a5b19"/>
      <circle cx="548" cy="406" r="3" fill="#9a5b19"/>
    </g>
    <g>
      <ellipse cx="454" cy="534" rx="88" ry="58" transform="rotate(8 454 534)" fill="#d97706"/>
      <ellipse cx="454" cy="534" rx="70" ry="45" transform="rotate(8 454 534)" fill="#f6c574"/>
      <circle cx="429" cy="524" r="5" fill="#9a5b19"/>
      <circle cx="482" cy="552" r="4" fill="#9a5b19"/>
      <circle cx="471" cy="510" r="3" fill="#9a5b19"/>
    </g>
    <g>
      <ellipse cx="575" cy="536" rx="66" ry="48" transform="rotate(-14 575 536)" fill="#d97706"/>
      <ellipse cx="575" cy="536" rx="52" ry="37" transform="rotate(-14 575 536)" fill="#f7c66e"/>
      <circle cx="558" cy="526" r="4" fill="#9a5b19"/>
      <circle cx="593" cy="545" r="3" fill="#9a5b19"/>
    </g>
    <path d="M321 354c82 28 231 28 318 0" fill="none" stroke="#fff7ed" stroke-width="8" opacity=".55"/>
    <path d="M337 622h286" stroke="#92400e" stroke-width="9" stroke-linecap="round" opacity=".28"/>
  </g>
</svg>
