<svg xmlns="http://www.w3.org/2000/svg" viewBox="0 0 980 620" role="img" aria-labelledby="title desc">
  <title id="title">Reparto de papas envasadas en Zona Sur</title>
  <desc id="desc">Ilustración decorativa de un reparto mayorista con bolsas de papas.</desc>
  <defs>
    <linearGradient id="bg" x1="0" x2="1" y1="0" y2="1">
      <stop offset="0" stop-color="#fff7ed"/>
      <stop offset=".58" stop-color="#ffedd5"/>
      <stop offset="1" stop-color="#fef3c7"/>
    </linearGradient>
    <linearGradient id="truck" x1="0" x2="1" y1="0" y2="0">
      <stop offset="0" stop-color="#f59e0b"/>
      <stop offset="1" stop-color="#b45309"/>
    </linearGradient>
  </defs>
  <rect width="980" height="620" rx="18" fill="url(#bg)"/>
  <path d="M0 430c150-42 307-52 470-30 181 24 351 14 510-30v250H0Z" fill="#92400e" opacity=".16"/>
  <path d="M90 484h790" stroke="#92400e" stroke-width="14" stroke-linecap="round" opacity=".18"/>
  <g transform="translate(122 178)">
    <path d="M52 102h458c26 0 47 21 47 47v128H52c-25 0-45-20-45-45v-85c0-25 20-45 45-45Z" fill="url(#truck)"/>
    <path d="M557 150h89c18 0 34 10 43 26l50 91v10H557Z" fill="#78350f"/>
    <path d="M607 174h38c9 0 18 5 22 13l26 48h-86Z" fill="#fde68a"/>
    <rect x="74" y="132" width="126" height="86" rx="8" fill="#fff7ed" opacity=".92"/>
    <rect x="224" y="132" width="126" height="86" rx="8" fill="#fff7ed" opacity=".92"/>
    <rect x="374" y="132" width="106" height="86" rx="8" fill="#fff7ed" opacity=".92"/>
    <g fill="#92400e" opacity=".18">
      <ellipse cx="110" cy="164" rx="20" ry="13" transform="rotate(-17 110 164)"/>
      <ellipse cx="154" cy="187" rx="22" ry="14" transform="rotate(14 154 187)"/>
      <ellipse cx="260" cy="164" rx="20" ry="13" transform="rotate(-17 260 164)"/>
      <ellipse cx="304" cy="187" rx="22" ry="14" transform="rotate(14 304 187)"/>
      <ellipse cx="414" cy="164" rx="20" ry="13" transform="rotate(-17 414 164)"/>
    </g>
    <circle cx="156" cy="288" r="54" fill="#1f2937"/>
    <circle cx="156" cy="288" r="24" fill="#fef3c7"/>
    <circle cx="641" cy="288" r="54" fill="#1f2937"/>
    <circle cx="641" cy="288" r="24" fill="#fef3c7"/>
  </g>
  <g transform="translate(654 74)">
    <rect x="0" y="0" width="190" height="120" rx="12" fill="#fff" opacity=".9"/>
    <path d="M32 78c33-26 70-32 110-18" stroke="#84cc16" stroke-width="10" stroke-linecap="round" fill="none"/>
    <circle cx="38" cy="40" r="12" fill="#f59e0b"/>
    <circle cx="74" cy="40" r="12" fill="#f59e0b"/>
    <circle cx="110" cy="40" r="12" fill="#f59e0b"/>
  </g>
</svg>
