<svg width="20" height="20" viewBox="0 0 20 20" fill="none" xmlns="http://www.w3.org/2000/svg">
<path d="M10.835 3.88574L11.2764 4.56836L12.0352 4.27539L14.3076 3.39844L14.1768 5.83203L14.1328 6.64258L14.918 6.85156L17.2715 7.47754L15.7354 9.36914L15.2236 10L15.7354 10.6309L17.2715 12.5215L14.918 13.1484L14.1328 13.3574L14.1768 14.168L14.3076 16.6006L12.0352 15.7246L11.2764 15.4316L10.835 16.1143L9.51172 18.1582L8.18848 16.1143L7.74707 15.4316L6.98828 15.7246L4.71484 16.6006L4.84668 14.168L4.89062 13.3574L4.10547 13.1484L1.75098 12.5215L3.28809 10.6309L3.7998 10L3.28809 9.36914L1.75098 7.47754L4.10547 6.85156L4.89062 6.64258L4.84668 5.83203L4.71484 3.39844L6.98828 4.27539L7.74707 4.56836L8.18848 3.88574L9.51172 1.84082L10.835 3.88574Z" stroke="#FD7347" stroke-width="2"/>
</svg>
